G04 #@! TF.GenerationSoftware,KiCad,Pcbnew,(5.1.0)-1*
G04 #@! TF.CreationDate,2019-06-14T11:01:10+01:00*
G04 #@! TF.ProjectId,Fibre Tester,46696272-6520-4546-9573-7465722e6b69,rev?*
G04 #@! TF.SameCoordinates,Original*
G04 #@! TF.FileFunction,Legend,Top*
G04 #@! TF.FilePolarity,Positive*
%FSLAX46Y46*%
G04 Gerber Fmt 4.6, Leading zero omitted, Abs format (unit mm)*
G04 Created by KiCad (PCBNEW (5.1.0)-1) date 2019-06-14 11:01:10*
%MOMM*%
%LPD*%
G04 APERTURE LIST*
%ADD10C,0.300000*%
%ADD11C,0.150000*%
%ADD12C,0.010000*%
%ADD13C,0.120000*%
G04 APERTURE END LIST*
D10*
X138698857Y-76596142D02*
X138698857Y-77096142D01*
X139484571Y-77096142D02*
X137984571Y-77096142D01*
X137984571Y-76381857D01*
X139484571Y-75810428D02*
X138484571Y-75810428D01*
X137984571Y-75810428D02*
X138056000Y-75881857D01*
X138127428Y-75810428D01*
X138056000Y-75739000D01*
X137984571Y-75810428D01*
X138127428Y-75810428D01*
X139484571Y-75096142D02*
X137984571Y-75096142D01*
X138556000Y-75096142D02*
X138484571Y-74953285D01*
X138484571Y-74667571D01*
X138556000Y-74524714D01*
X138627428Y-74453285D01*
X138770285Y-74381857D01*
X139198857Y-74381857D01*
X139341714Y-74453285D01*
X139413142Y-74524714D01*
X139484571Y-74667571D01*
X139484571Y-74953285D01*
X139413142Y-75096142D01*
X139484571Y-73739000D02*
X138484571Y-73739000D01*
X138770285Y-73739000D02*
X138627428Y-73667571D01*
X138556000Y-73596142D01*
X138484571Y-73453285D01*
X138484571Y-73310428D01*
X139413142Y-72239000D02*
X139484571Y-72381857D01*
X139484571Y-72667571D01*
X139413142Y-72810428D01*
X139270285Y-72881857D01*
X138698857Y-72881857D01*
X138556000Y-72810428D01*
X138484571Y-72667571D01*
X138484571Y-72381857D01*
X138556000Y-72239000D01*
X138698857Y-72167571D01*
X138841714Y-72167571D01*
X138984571Y-72881857D01*
X137984571Y-70596142D02*
X137984571Y-69739000D01*
X139484571Y-70167571D02*
X137984571Y-70167571D01*
X139413142Y-68667571D02*
X139484571Y-68810428D01*
X139484571Y-69096142D01*
X139413142Y-69239000D01*
X139270285Y-69310428D01*
X138698857Y-69310428D01*
X138556000Y-69239000D01*
X138484571Y-69096142D01*
X138484571Y-68810428D01*
X138556000Y-68667571D01*
X138698857Y-68596142D01*
X138841714Y-68596142D01*
X138984571Y-69310428D01*
X139413142Y-68024714D02*
X139484571Y-67881857D01*
X139484571Y-67596142D01*
X139413142Y-67453285D01*
X139270285Y-67381857D01*
X139198857Y-67381857D01*
X139056000Y-67453285D01*
X138984571Y-67596142D01*
X138984571Y-67810428D01*
X138913142Y-67953285D01*
X138770285Y-68024714D01*
X138698857Y-68024714D01*
X138556000Y-67953285D01*
X138484571Y-67810428D01*
X138484571Y-67596142D01*
X138556000Y-67453285D01*
X138484571Y-66953285D02*
X138484571Y-66381857D01*
X137984571Y-66739000D02*
X139270285Y-66739000D01*
X139413142Y-66667571D01*
X139484571Y-66524714D01*
X139484571Y-66381857D01*
X139413142Y-65310428D02*
X139484571Y-65453285D01*
X139484571Y-65739000D01*
X139413142Y-65881857D01*
X139270285Y-65953285D01*
X138698857Y-65953285D01*
X138556000Y-65881857D01*
X138484571Y-65739000D01*
X138484571Y-65453285D01*
X138556000Y-65310428D01*
X138698857Y-65239000D01*
X138841714Y-65239000D01*
X138984571Y-65953285D01*
X139484571Y-64596142D02*
X138484571Y-64596142D01*
X138770285Y-64596142D02*
X138627428Y-64524714D01*
X138556000Y-64453285D01*
X138484571Y-64310428D01*
X138484571Y-64167571D01*
X142034571Y-80453285D02*
X140534571Y-80453285D01*
X141106000Y-80453285D02*
X141034571Y-80310428D01*
X141034571Y-80024714D01*
X141106000Y-79881857D01*
X141177428Y-79810428D01*
X141320285Y-79739000D01*
X141748857Y-79739000D01*
X141891714Y-79810428D01*
X141963142Y-79881857D01*
X142034571Y-80024714D01*
X142034571Y-80310428D01*
X141963142Y-80453285D01*
X141034571Y-79239000D02*
X142034571Y-78881857D01*
X141034571Y-78524714D02*
X142034571Y-78881857D01*
X142391714Y-79024714D01*
X142463142Y-79096142D01*
X142534571Y-79239000D01*
X140534571Y-77024714D02*
X140534571Y-76167571D01*
X142034571Y-76596142D02*
X140534571Y-76596142D01*
X142034571Y-75453285D02*
X141963142Y-75596142D01*
X141891714Y-75667571D01*
X141748857Y-75739000D01*
X141320285Y-75739000D01*
X141177428Y-75667571D01*
X141106000Y-75596142D01*
X141034571Y-75453285D01*
X141034571Y-75239000D01*
X141106000Y-75096142D01*
X141177428Y-75024714D01*
X141320285Y-74953285D01*
X141748857Y-74953285D01*
X141891714Y-75024714D01*
X141963142Y-75096142D01*
X142034571Y-75239000D01*
X142034571Y-75453285D01*
X141034571Y-74310428D02*
X142034571Y-74310428D01*
X141177428Y-74310428D02*
X141106000Y-74239000D01*
X141034571Y-74096142D01*
X141034571Y-73881857D01*
X141106000Y-73739000D01*
X141248857Y-73667571D01*
X142034571Y-73667571D01*
X141034571Y-73096142D02*
X142034571Y-72739000D01*
X141034571Y-72381857D02*
X142034571Y-72739000D01*
X142391714Y-72881857D01*
X142463142Y-72953285D01*
X142534571Y-73096142D01*
X141248857Y-70167571D02*
X141320285Y-69953285D01*
X141391714Y-69881857D01*
X141534571Y-69810428D01*
X141748857Y-69810428D01*
X141891714Y-69881857D01*
X141963142Y-69953285D01*
X142034571Y-70096142D01*
X142034571Y-70667571D01*
X140534571Y-70667571D01*
X140534571Y-70167571D01*
X140606000Y-70024714D01*
X140677428Y-69953285D01*
X140820285Y-69881857D01*
X140963142Y-69881857D01*
X141106000Y-69953285D01*
X141177428Y-70024714D01*
X141248857Y-70167571D01*
X141248857Y-70667571D01*
X141963142Y-68596142D02*
X142034571Y-68739000D01*
X142034571Y-69024714D01*
X141963142Y-69167571D01*
X141820285Y-69239000D01*
X141248857Y-69239000D01*
X141106000Y-69167571D01*
X141034571Y-69024714D01*
X141034571Y-68739000D01*
X141106000Y-68596142D01*
X141248857Y-68524714D01*
X141391714Y-68524714D01*
X141534571Y-69239000D01*
X142034571Y-67667571D02*
X141963142Y-67810428D01*
X141820285Y-67881857D01*
X140534571Y-67881857D01*
X142034571Y-66881857D02*
X141963142Y-67024714D01*
X141820285Y-67096142D01*
X140534571Y-67096142D01*
X140534571Y-65381857D02*
X142034571Y-64881857D01*
X140534571Y-64381857D01*
X140677428Y-63953285D02*
X140606000Y-63881857D01*
X140534571Y-63739000D01*
X140534571Y-63381857D01*
X140606000Y-63239000D01*
X140677428Y-63167571D01*
X140820285Y-63096142D01*
X140963142Y-63096142D01*
X141177428Y-63167571D01*
X142034571Y-64024714D01*
X142034571Y-63096142D01*
X141891714Y-62453285D02*
X141963142Y-62381857D01*
X142034571Y-62453285D01*
X141963142Y-62524714D01*
X141891714Y-62453285D01*
X142034571Y-62453285D01*
X140534571Y-61453285D02*
X140534571Y-61310428D01*
X140606000Y-61167571D01*
X140677428Y-61096142D01*
X140820285Y-61024714D01*
X141106000Y-60953285D01*
X141463142Y-60953285D01*
X141748857Y-61024714D01*
X141891714Y-61096142D01*
X141963142Y-61167571D01*
X142034571Y-61310428D01*
X142034571Y-61453285D01*
X141963142Y-61596142D01*
X141891714Y-61667571D01*
X141748857Y-61739000D01*
X141463142Y-61810428D01*
X141106000Y-61810428D01*
X140820285Y-61739000D01*
X140677428Y-61667571D01*
X140606000Y-61596142D01*
X140534571Y-61453285D01*
D11*
X127206523Y-80335428D02*
X127968428Y-80335428D01*
X127587476Y-80716380D02*
X127587476Y-79954476D01*
X128349380Y-80049714D02*
X128587476Y-80716380D01*
X128825571Y-80049714D01*
X129587476Y-80668761D02*
X129492238Y-80716380D01*
X129301761Y-80716380D01*
X129206523Y-80668761D01*
X129158904Y-80573523D01*
X129158904Y-80192571D01*
X129206523Y-80097333D01*
X129301761Y-80049714D01*
X129492238Y-80049714D01*
X129587476Y-80097333D01*
X129635095Y-80192571D01*
X129635095Y-80287809D01*
X129158904Y-80383047D01*
X110109000Y-34036000D02*
X110109000Y-83820000D01*
X149860000Y-34036000D02*
X110109000Y-34036000D01*
X149860000Y-83820000D02*
X149860000Y-34036000D01*
X110109000Y-83820000D02*
X149860000Y-83820000D01*
D12*
G36*
X117082533Y-52953177D02*
G01*
X117104776Y-52921798D01*
X117132485Y-52894089D01*
X117441920Y-52894089D01*
X117533799Y-52894162D01*
X117605840Y-52894505D01*
X117660780Y-52895308D01*
X117701360Y-52896759D01*
X117730317Y-52899048D01*
X117750391Y-52902364D01*
X117764321Y-52906895D01*
X117774845Y-52912831D01*
X117781100Y-52917486D01*
X117805673Y-52948217D01*
X117808341Y-52983504D01*
X117793271Y-53015755D01*
X117784374Y-53026412D01*
X117772557Y-53033536D01*
X117753526Y-53037833D01*
X117722992Y-53040009D01*
X117676662Y-53040772D01*
X117640871Y-53040845D01*
X117506045Y-53040845D01*
X117506045Y-53537556D01*
X117628700Y-53537556D01*
X117684787Y-53538069D01*
X117723333Y-53540124D01*
X117749361Y-53544492D01*
X117767897Y-53551944D01*
X117781100Y-53560953D01*
X117805604Y-53591856D01*
X117808506Y-53626804D01*
X117791089Y-53660262D01*
X117781959Y-53669396D01*
X117769855Y-53675848D01*
X117751001Y-53680103D01*
X117721620Y-53682648D01*
X117677937Y-53683971D01*
X117616175Y-53684557D01*
X117602000Y-53684625D01*
X117485631Y-53685109D01*
X117389727Y-53685359D01*
X117312177Y-53685277D01*
X117250869Y-53684769D01*
X117203690Y-53683738D01*
X117168530Y-53682087D01*
X117143276Y-53679721D01*
X117125817Y-53676543D01*
X117114041Y-53672456D01*
X117105835Y-53667366D01*
X117099645Y-53661734D01*
X117079844Y-53629872D01*
X117082533Y-53596643D01*
X117104776Y-53565265D01*
X117119126Y-53552567D01*
X117134978Y-53544474D01*
X117157554Y-53539958D01*
X117192078Y-53537994D01*
X117243776Y-53537556D01*
X117359289Y-53537556D01*
X117359289Y-53040845D01*
X117240756Y-53040845D01*
X117186148Y-53040338D01*
X117149275Y-53038302D01*
X117125307Y-53033965D01*
X117109415Y-53026553D01*
X117099645Y-53018267D01*
X117079844Y-52986406D01*
X117082533Y-52953177D01*
X117082533Y-52953177D01*
G37*
X117082533Y-52953177D02*
X117104776Y-52921798D01*
X117132485Y-52894089D01*
X117441920Y-52894089D01*
X117533799Y-52894162D01*
X117605840Y-52894505D01*
X117660780Y-52895308D01*
X117701360Y-52896759D01*
X117730317Y-52899048D01*
X117750391Y-52902364D01*
X117764321Y-52906895D01*
X117774845Y-52912831D01*
X117781100Y-52917486D01*
X117805673Y-52948217D01*
X117808341Y-52983504D01*
X117793271Y-53015755D01*
X117784374Y-53026412D01*
X117772557Y-53033536D01*
X117753526Y-53037833D01*
X117722992Y-53040009D01*
X117676662Y-53040772D01*
X117640871Y-53040845D01*
X117506045Y-53040845D01*
X117506045Y-53537556D01*
X117628700Y-53537556D01*
X117684787Y-53538069D01*
X117723333Y-53540124D01*
X117749361Y-53544492D01*
X117767897Y-53551944D01*
X117781100Y-53560953D01*
X117805604Y-53591856D01*
X117808506Y-53626804D01*
X117791089Y-53660262D01*
X117781959Y-53669396D01*
X117769855Y-53675848D01*
X117751001Y-53680103D01*
X117721620Y-53682648D01*
X117677937Y-53683971D01*
X117616175Y-53684557D01*
X117602000Y-53684625D01*
X117485631Y-53685109D01*
X117389727Y-53685359D01*
X117312177Y-53685277D01*
X117250869Y-53684769D01*
X117203690Y-53683738D01*
X117168530Y-53682087D01*
X117143276Y-53679721D01*
X117125817Y-53676543D01*
X117114041Y-53672456D01*
X117105835Y-53667366D01*
X117099645Y-53661734D01*
X117079844Y-53629872D01*
X117082533Y-53596643D01*
X117104776Y-53565265D01*
X117119126Y-53552567D01*
X117134978Y-53544474D01*
X117157554Y-53539958D01*
X117192078Y-53537994D01*
X117243776Y-53537556D01*
X117359289Y-53537556D01*
X117359289Y-53040845D01*
X117240756Y-53040845D01*
X117186148Y-53040338D01*
X117149275Y-53038302D01*
X117125307Y-53033965D01*
X117109415Y-53026553D01*
X117099645Y-53018267D01*
X117079844Y-52986406D01*
X117082533Y-52953177D01*
G36*
X117077163Y-54218935D02*
G01*
X117077542Y-54140228D01*
X117078333Y-54079137D01*
X117079670Y-54033183D01*
X117081683Y-53999886D01*
X117084506Y-53976764D01*
X117088269Y-53961338D01*
X117093105Y-53951129D01*
X117096822Y-53946187D01*
X117129358Y-53920543D01*
X117163138Y-53917441D01*
X117193826Y-53933289D01*
X117206089Y-53943652D01*
X117214450Y-53954804D01*
X117219657Y-53970965D01*
X117222457Y-53996358D01*
X117223596Y-54035202D01*
X117223821Y-54091720D01*
X117223822Y-54102820D01*
X117223822Y-54248756D01*
X117494756Y-54248756D01*
X117580154Y-54248852D01*
X117645864Y-54249289D01*
X117694774Y-54250288D01*
X117729773Y-54252072D01*
X117753749Y-54254863D01*
X117769593Y-54258883D01*
X117780191Y-54264355D01*
X117788267Y-54271334D01*
X117808112Y-54304266D01*
X117806548Y-54338646D01*
X117783906Y-54369824D01*
X117781100Y-54372114D01*
X117770492Y-54379571D01*
X117758081Y-54385253D01*
X117740850Y-54389399D01*
X117715784Y-54392250D01*
X117679867Y-54394046D01*
X117630083Y-54395028D01*
X117563417Y-54395436D01*
X117487589Y-54395511D01*
X117223822Y-54395511D01*
X117223822Y-54534873D01*
X117223418Y-54594678D01*
X117221840Y-54636082D01*
X117218547Y-54663252D01*
X117212992Y-54680354D01*
X117204631Y-54691557D01*
X117203178Y-54692917D01*
X117169939Y-54709275D01*
X117132362Y-54707828D01*
X117099645Y-54689022D01*
X117093298Y-54681750D01*
X117088266Y-54672373D01*
X117084396Y-54658391D01*
X117081537Y-54637304D01*
X117079535Y-54606611D01*
X117078239Y-54563811D01*
X117077498Y-54506405D01*
X117077158Y-54431890D01*
X117077068Y-54337767D01*
X117077067Y-54317740D01*
X117077163Y-54218935D01*
X117077163Y-54218935D01*
G37*
X117077163Y-54218935D02*
X117077542Y-54140228D01*
X117078333Y-54079137D01*
X117079670Y-54033183D01*
X117081683Y-53999886D01*
X117084506Y-53976764D01*
X117088269Y-53961338D01*
X117093105Y-53951129D01*
X117096822Y-53946187D01*
X117129358Y-53920543D01*
X117163138Y-53917441D01*
X117193826Y-53933289D01*
X117206089Y-53943652D01*
X117214450Y-53954804D01*
X117219657Y-53970965D01*
X117222457Y-53996358D01*
X117223596Y-54035202D01*
X117223821Y-54091720D01*
X117223822Y-54102820D01*
X117223822Y-54248756D01*
X117494756Y-54248756D01*
X117580154Y-54248852D01*
X117645864Y-54249289D01*
X117694774Y-54250288D01*
X117729773Y-54252072D01*
X117753749Y-54254863D01*
X117769593Y-54258883D01*
X117780191Y-54264355D01*
X117788267Y-54271334D01*
X117808112Y-54304266D01*
X117806548Y-54338646D01*
X117783906Y-54369824D01*
X117781100Y-54372114D01*
X117770492Y-54379571D01*
X117758081Y-54385253D01*
X117740850Y-54389399D01*
X117715784Y-54392250D01*
X117679867Y-54394046D01*
X117630083Y-54395028D01*
X117563417Y-54395436D01*
X117487589Y-54395511D01*
X117223822Y-54395511D01*
X117223822Y-54534873D01*
X117223418Y-54594678D01*
X117221840Y-54636082D01*
X117218547Y-54663252D01*
X117212992Y-54680354D01*
X117204631Y-54691557D01*
X117203178Y-54692917D01*
X117169939Y-54709275D01*
X117132362Y-54707828D01*
X117099645Y-54689022D01*
X117093298Y-54681750D01*
X117088266Y-54672373D01*
X117084396Y-54658391D01*
X117081537Y-54637304D01*
X117079535Y-54606611D01*
X117078239Y-54563811D01*
X117077498Y-54506405D01*
X117077158Y-54431890D01*
X117077068Y-54337767D01*
X117077067Y-54317740D01*
X117077163Y-54218935D01*
G36*
X117083877Y-54993386D02*
G01*
X117098647Y-54969673D01*
X117120227Y-54943022D01*
X117441773Y-54943022D01*
X117535830Y-54943107D01*
X117609932Y-54943471D01*
X117666704Y-54944276D01*
X117708768Y-54945687D01*
X117738748Y-54947867D01*
X117759267Y-54950979D01*
X117772949Y-54955186D01*
X117782416Y-54960652D01*
X117787082Y-54964528D01*
X117807575Y-54995966D01*
X117806739Y-55031767D01*
X117789264Y-55063127D01*
X117767684Y-55089778D01*
X117120227Y-55089778D01*
X117098647Y-55063127D01*
X117082949Y-55037406D01*
X117077067Y-55016400D01*
X117083877Y-54993386D01*
X117083877Y-54993386D01*
G37*
X117083877Y-54993386D02*
X117098647Y-54969673D01*
X117120227Y-54943022D01*
X117441773Y-54943022D01*
X117535830Y-54943107D01*
X117609932Y-54943471D01*
X117666704Y-54944276D01*
X117708768Y-54945687D01*
X117738748Y-54947867D01*
X117759267Y-54950979D01*
X117772949Y-54955186D01*
X117782416Y-54960652D01*
X117787082Y-54964528D01*
X117807575Y-54995966D01*
X117806739Y-55031767D01*
X117789264Y-55063127D01*
X117767684Y-55089778D01*
X117120227Y-55089778D01*
X117098647Y-55063127D01*
X117082949Y-55037406D01*
X117077067Y-55016400D01*
X117083877Y-54993386D01*
G36*
X117079034Y-55437335D02*
G01*
X117086035Y-55417745D01*
X117086377Y-55416990D01*
X117106678Y-55390387D01*
X117127561Y-55375730D01*
X117137352Y-55372862D01*
X117150361Y-55373004D01*
X117168895Y-55377039D01*
X117195257Y-55385854D01*
X117231752Y-55400331D01*
X117280687Y-55421355D01*
X117344365Y-55449812D01*
X117425093Y-55486585D01*
X117469216Y-55506825D01*
X117547985Y-55543375D01*
X117620423Y-55577685D01*
X117683880Y-55608448D01*
X117735708Y-55634352D01*
X117773259Y-55654090D01*
X117793884Y-55666350D01*
X117796733Y-55668776D01*
X117809302Y-55699817D01*
X117807619Y-55734879D01*
X117792332Y-55763000D01*
X117791089Y-55764146D01*
X117774154Y-55775332D01*
X117741170Y-55794096D01*
X117696380Y-55818125D01*
X117644032Y-55845103D01*
X117624742Y-55854799D01*
X117478150Y-55927986D01*
X117637393Y-56007760D01*
X117692415Y-56036233D01*
X117740132Y-56062650D01*
X117776893Y-56084852D01*
X117799044Y-56100681D01*
X117803741Y-56106046D01*
X117810102Y-56147743D01*
X117796733Y-56182151D01*
X117782446Y-56192272D01*
X117750692Y-56209786D01*
X117704597Y-56233265D01*
X117647285Y-56261280D01*
X117581880Y-56292401D01*
X117511507Y-56325201D01*
X117439291Y-56358250D01*
X117368355Y-56390119D01*
X117301825Y-56419381D01*
X117242826Y-56444605D01*
X117194481Y-56464364D01*
X117159915Y-56477228D01*
X117142253Y-56481769D01*
X117141613Y-56481723D01*
X117119388Y-56470674D01*
X117096753Y-56448590D01*
X117095768Y-56447290D01*
X117080425Y-56420147D01*
X117080574Y-56395042D01*
X117083466Y-56385632D01*
X117089718Y-56374166D01*
X117102014Y-56361990D01*
X117122908Y-56347643D01*
X117154949Y-56329664D01*
X117200688Y-56306593D01*
X117262677Y-56276970D01*
X117319898Y-56250255D01*
X117386226Y-56219520D01*
X117445874Y-56191979D01*
X117495725Y-56169062D01*
X117532664Y-56152202D01*
X117553573Y-56142827D01*
X117556845Y-56141460D01*
X117551497Y-56135311D01*
X117529109Y-56121178D01*
X117492946Y-56100943D01*
X117446277Y-56076485D01*
X117427022Y-56066752D01*
X117362004Y-56033783D01*
X117314654Y-56008357D01*
X117282219Y-55988388D01*
X117261946Y-55971790D01*
X117251082Y-55956476D01*
X117246875Y-55940360D01*
X117246400Y-55929857D01*
X117248042Y-55911330D01*
X117254831Y-55895096D01*
X117269566Y-55878965D01*
X117295044Y-55860749D01*
X117334061Y-55838261D01*
X117389414Y-55809311D01*
X117420903Y-55793338D01*
X117471087Y-55767430D01*
X117512704Y-55744833D01*
X117542242Y-55727542D01*
X117556189Y-55717550D01*
X117556770Y-55716191D01*
X117545793Y-55709739D01*
X117517290Y-55695292D01*
X117474244Y-55674297D01*
X117419638Y-55648203D01*
X117356454Y-55618454D01*
X117325071Y-55603820D01*
X117244078Y-55565750D01*
X117181756Y-55535095D01*
X117136071Y-55510263D01*
X117104989Y-55489663D01*
X117086478Y-55471702D01*
X117078504Y-55454790D01*
X117079034Y-55437335D01*
X117079034Y-55437335D01*
G37*
X117079034Y-55437335D02*
X117086035Y-55417745D01*
X117086377Y-55416990D01*
X117106678Y-55390387D01*
X117127561Y-55375730D01*
X117137352Y-55372862D01*
X117150361Y-55373004D01*
X117168895Y-55377039D01*
X117195257Y-55385854D01*
X117231752Y-55400331D01*
X117280687Y-55421355D01*
X117344365Y-55449812D01*
X117425093Y-55486585D01*
X117469216Y-55506825D01*
X117547985Y-55543375D01*
X117620423Y-55577685D01*
X117683880Y-55608448D01*
X117735708Y-55634352D01*
X117773259Y-55654090D01*
X117793884Y-55666350D01*
X117796733Y-55668776D01*
X117809302Y-55699817D01*
X117807619Y-55734879D01*
X117792332Y-55763000D01*
X117791089Y-55764146D01*
X117774154Y-55775332D01*
X117741170Y-55794096D01*
X117696380Y-55818125D01*
X117644032Y-55845103D01*
X117624742Y-55854799D01*
X117478150Y-55927986D01*
X117637393Y-56007760D01*
X117692415Y-56036233D01*
X117740132Y-56062650D01*
X117776893Y-56084852D01*
X117799044Y-56100681D01*
X117803741Y-56106046D01*
X117810102Y-56147743D01*
X117796733Y-56182151D01*
X117782446Y-56192272D01*
X117750692Y-56209786D01*
X117704597Y-56233265D01*
X117647285Y-56261280D01*
X117581880Y-56292401D01*
X117511507Y-56325201D01*
X117439291Y-56358250D01*
X117368355Y-56390119D01*
X117301825Y-56419381D01*
X117242826Y-56444605D01*
X117194481Y-56464364D01*
X117159915Y-56477228D01*
X117142253Y-56481769D01*
X117141613Y-56481723D01*
X117119388Y-56470674D01*
X117096753Y-56448590D01*
X117095768Y-56447290D01*
X117080425Y-56420147D01*
X117080574Y-56395042D01*
X117083466Y-56385632D01*
X117089718Y-56374166D01*
X117102014Y-56361990D01*
X117122908Y-56347643D01*
X117154949Y-56329664D01*
X117200688Y-56306593D01*
X117262677Y-56276970D01*
X117319898Y-56250255D01*
X117386226Y-56219520D01*
X117445874Y-56191979D01*
X117495725Y-56169062D01*
X117532664Y-56152202D01*
X117553573Y-56142827D01*
X117556845Y-56141460D01*
X117551497Y-56135311D01*
X117529109Y-56121178D01*
X117492946Y-56100943D01*
X117446277Y-56076485D01*
X117427022Y-56066752D01*
X117362004Y-56033783D01*
X117314654Y-56008357D01*
X117282219Y-55988388D01*
X117261946Y-55971790D01*
X117251082Y-55956476D01*
X117246875Y-55940360D01*
X117246400Y-55929857D01*
X117248042Y-55911330D01*
X117254831Y-55895096D01*
X117269566Y-55878965D01*
X117295044Y-55860749D01*
X117334061Y-55838261D01*
X117389414Y-55809311D01*
X117420903Y-55793338D01*
X117471087Y-55767430D01*
X117512704Y-55744833D01*
X117542242Y-55727542D01*
X117556189Y-55717550D01*
X117556770Y-55716191D01*
X117545793Y-55709739D01*
X117517290Y-55695292D01*
X117474244Y-55674297D01*
X117419638Y-55648203D01*
X117356454Y-55618454D01*
X117325071Y-55603820D01*
X117244078Y-55565750D01*
X117181756Y-55535095D01*
X117136071Y-55510263D01*
X117104989Y-55489663D01*
X117086478Y-55471702D01*
X117078504Y-55454790D01*
X117079034Y-55437335D01*
G36*
X117077275Y-58163691D02*
G01*
X117081636Y-58034712D01*
X117094861Y-57925009D01*
X117117741Y-57832774D01*
X117151070Y-57756198D01*
X117195638Y-57693473D01*
X117252236Y-57642788D01*
X117321658Y-57602337D01*
X117323351Y-57601541D01*
X117385483Y-57577399D01*
X117440509Y-57568797D01*
X117495887Y-57575769D01*
X117559073Y-57598346D01*
X117568689Y-57602628D01*
X117624966Y-57631828D01*
X117668451Y-57664644D01*
X117705417Y-57706998D01*
X117742135Y-57764810D01*
X117744052Y-57768169D01*
X117768227Y-57818496D01*
X117786282Y-57875379D01*
X117798839Y-57942473D01*
X117806522Y-58023435D01*
X117809953Y-58121918D01*
X117810251Y-58156714D01*
X117810845Y-58322406D01*
X117781100Y-58345803D01*
X117771319Y-58352743D01*
X117759897Y-58358158D01*
X117744095Y-58362235D01*
X117721175Y-58365163D01*
X117688396Y-58367133D01*
X117664089Y-58367775D01*
X117664089Y-58211156D01*
X117664089Y-58117274D01*
X117662483Y-58062336D01*
X117658255Y-58005940D01*
X117652292Y-57959655D01*
X117651790Y-57956861D01*
X117629736Y-57874652D01*
X117596600Y-57810886D01*
X117550847Y-57763548D01*
X117490939Y-57730618D01*
X117475061Y-57724892D01*
X117450333Y-57719279D01*
X117425902Y-57721709D01*
X117393400Y-57733533D01*
X117377434Y-57740660D01*
X117335006Y-57764000D01*
X117305240Y-57792120D01*
X117284511Y-57823060D01*
X117257537Y-57885034D01*
X117237998Y-57964349D01*
X117226746Y-58056747D01*
X117224270Y-58123667D01*
X117223822Y-58211156D01*
X117664089Y-58211156D01*
X117664089Y-58367775D01*
X117643021Y-58368332D01*
X117582311Y-58368950D01*
X117503526Y-58369175D01*
X117441920Y-58369200D01*
X117132485Y-58369200D01*
X117104776Y-58341491D01*
X117093544Y-58329194D01*
X117085853Y-58315897D01*
X117081040Y-58297328D01*
X117078446Y-58269214D01*
X117077410Y-58227283D01*
X117077270Y-58167263D01*
X117077275Y-58163691D01*
X117077275Y-58163691D01*
G37*
X117077275Y-58163691D02*
X117081636Y-58034712D01*
X117094861Y-57925009D01*
X117117741Y-57832774D01*
X117151070Y-57756198D01*
X117195638Y-57693473D01*
X117252236Y-57642788D01*
X117321658Y-57602337D01*
X117323351Y-57601541D01*
X117385483Y-57577399D01*
X117440509Y-57568797D01*
X117495887Y-57575769D01*
X117559073Y-57598346D01*
X117568689Y-57602628D01*
X117624966Y-57631828D01*
X117668451Y-57664644D01*
X117705417Y-57706998D01*
X117742135Y-57764810D01*
X117744052Y-57768169D01*
X117768227Y-57818496D01*
X117786282Y-57875379D01*
X117798839Y-57942473D01*
X117806522Y-58023435D01*
X117809953Y-58121918D01*
X117810251Y-58156714D01*
X117810845Y-58322406D01*
X117781100Y-58345803D01*
X117771319Y-58352743D01*
X117759897Y-58358158D01*
X117744095Y-58362235D01*
X117721175Y-58365163D01*
X117688396Y-58367133D01*
X117664089Y-58367775D01*
X117664089Y-58211156D01*
X117664089Y-58117274D01*
X117662483Y-58062336D01*
X117658255Y-58005940D01*
X117652292Y-57959655D01*
X117651790Y-57956861D01*
X117629736Y-57874652D01*
X117596600Y-57810886D01*
X117550847Y-57763548D01*
X117490939Y-57730618D01*
X117475061Y-57724892D01*
X117450333Y-57719279D01*
X117425902Y-57721709D01*
X117393400Y-57733533D01*
X117377434Y-57740660D01*
X117335006Y-57764000D01*
X117305240Y-57792120D01*
X117284511Y-57823060D01*
X117257537Y-57885034D01*
X117237998Y-57964349D01*
X117226746Y-58056747D01*
X117224270Y-58123667D01*
X117223822Y-58211156D01*
X117664089Y-58211156D01*
X117664089Y-58367775D01*
X117643021Y-58368332D01*
X117582311Y-58368950D01*
X117503526Y-58369175D01*
X117441920Y-58369200D01*
X117132485Y-58369200D01*
X117104776Y-58341491D01*
X117093544Y-58329194D01*
X117085853Y-58315897D01*
X117081040Y-58297328D01*
X117078446Y-58269214D01*
X117077410Y-58227283D01*
X117077270Y-58167263D01*
X117077275Y-58163691D01*
G36*
X117077260Y-58951657D02*
G01*
X117078174Y-58875299D01*
X117080311Y-58816783D01*
X117084175Y-58773745D01*
X117090267Y-58743817D01*
X117099090Y-58724632D01*
X117111146Y-58713824D01*
X117126939Y-58709027D01*
X117146970Y-58707873D01*
X117149335Y-58707867D01*
X117171992Y-58708869D01*
X117189503Y-58713604D01*
X117202574Y-58724667D01*
X117211913Y-58744652D01*
X117218227Y-58776154D01*
X117222222Y-58821768D01*
X117224606Y-58884087D01*
X117226086Y-58965707D01*
X117226414Y-58990723D01*
X117229467Y-59232800D01*
X117294378Y-59236186D01*
X117359289Y-59239571D01*
X117359289Y-59071424D01*
X117359531Y-59005734D01*
X117360556Y-58958828D01*
X117362811Y-58926917D01*
X117366742Y-58906209D01*
X117372798Y-58892916D01*
X117381424Y-58883245D01*
X117381493Y-58883183D01*
X117415112Y-58865644D01*
X117451448Y-58866278D01*
X117482423Y-58884686D01*
X117485607Y-58888329D01*
X117493812Y-58901259D01*
X117499521Y-58918976D01*
X117503162Y-58945430D01*
X117505167Y-58984568D01*
X117505964Y-59040338D01*
X117506045Y-59076006D01*
X117506045Y-59238445D01*
X117664089Y-59238445D01*
X117664089Y-58991839D01*
X117664231Y-58910420D01*
X117664814Y-58848590D01*
X117666068Y-58803363D01*
X117668227Y-58771752D01*
X117671523Y-58750769D01*
X117676189Y-58737427D01*
X117682457Y-58728739D01*
X117684733Y-58726550D01*
X117716280Y-58710386D01*
X117752168Y-58709203D01*
X117783285Y-58722464D01*
X117793271Y-58732957D01*
X117798769Y-58743871D01*
X117803022Y-58760783D01*
X117806180Y-58786367D01*
X117808392Y-58823299D01*
X117809806Y-58874254D01*
X117810572Y-58941906D01*
X117810838Y-59028931D01*
X117810845Y-59048606D01*
X117810787Y-59137089D01*
X117810467Y-59205773D01*
X117809667Y-59257436D01*
X117808167Y-59294855D01*
X117805749Y-59320810D01*
X117802194Y-59338078D01*
X117797282Y-59349438D01*
X117790795Y-59357668D01*
X117786138Y-59362183D01*
X117777889Y-59368979D01*
X117767669Y-59374288D01*
X117752800Y-59378294D01*
X117730602Y-59381179D01*
X117698393Y-59383126D01*
X117653496Y-59384319D01*
X117593228Y-59384939D01*
X117514911Y-59385171D01*
X117448994Y-59385200D01*
X117356628Y-59385129D01*
X117284117Y-59384792D01*
X117228737Y-59384002D01*
X117187765Y-59382574D01*
X117158478Y-59380321D01*
X117138153Y-59377057D01*
X117124066Y-59372596D01*
X117113495Y-59366752D01*
X117106811Y-59361803D01*
X117077067Y-59338406D01*
X117077067Y-59048226D01*
X117077260Y-58951657D01*
X117077260Y-58951657D01*
G37*
X117077260Y-58951657D02*
X117078174Y-58875299D01*
X117080311Y-58816783D01*
X117084175Y-58773745D01*
X117090267Y-58743817D01*
X117099090Y-58724632D01*
X117111146Y-58713824D01*
X117126939Y-58709027D01*
X117146970Y-58707873D01*
X117149335Y-58707867D01*
X117171992Y-58708869D01*
X117189503Y-58713604D01*
X117202574Y-58724667D01*
X117211913Y-58744652D01*
X117218227Y-58776154D01*
X117222222Y-58821768D01*
X117224606Y-58884087D01*
X117226086Y-58965707D01*
X117226414Y-58990723D01*
X117229467Y-59232800D01*
X117294378Y-59236186D01*
X117359289Y-59239571D01*
X117359289Y-59071424D01*
X117359531Y-59005734D01*
X117360556Y-58958828D01*
X117362811Y-58926917D01*
X117366742Y-58906209D01*
X117372798Y-58892916D01*
X117381424Y-58883245D01*
X117381493Y-58883183D01*
X117415112Y-58865644D01*
X117451448Y-58866278D01*
X117482423Y-58884686D01*
X117485607Y-58888329D01*
X117493812Y-58901259D01*
X117499521Y-58918976D01*
X117503162Y-58945430D01*
X117505167Y-58984568D01*
X117505964Y-59040338D01*
X117506045Y-59076006D01*
X117506045Y-59238445D01*
X117664089Y-59238445D01*
X117664089Y-58991839D01*
X117664231Y-58910420D01*
X117664814Y-58848590D01*
X117666068Y-58803363D01*
X117668227Y-58771752D01*
X117671523Y-58750769D01*
X117676189Y-58737427D01*
X117682457Y-58728739D01*
X117684733Y-58726550D01*
X117716280Y-58710386D01*
X117752168Y-58709203D01*
X117783285Y-58722464D01*
X117793271Y-58732957D01*
X117798769Y-58743871D01*
X117803022Y-58760783D01*
X117806180Y-58786367D01*
X117808392Y-58823299D01*
X117809806Y-58874254D01*
X117810572Y-58941906D01*
X117810838Y-59028931D01*
X117810845Y-59048606D01*
X117810787Y-59137089D01*
X117810467Y-59205773D01*
X117809667Y-59257436D01*
X117808167Y-59294855D01*
X117805749Y-59320810D01*
X117802194Y-59338078D01*
X117797282Y-59349438D01*
X117790795Y-59357668D01*
X117786138Y-59362183D01*
X117777889Y-59368979D01*
X117767669Y-59374288D01*
X117752800Y-59378294D01*
X117730602Y-59381179D01*
X117698393Y-59383126D01*
X117653496Y-59384319D01*
X117593228Y-59384939D01*
X117514911Y-59385171D01*
X117448994Y-59385200D01*
X117356628Y-59385129D01*
X117284117Y-59384792D01*
X117228737Y-59384002D01*
X117187765Y-59382574D01*
X117158478Y-59380321D01*
X117138153Y-59377057D01*
X117124066Y-59372596D01*
X117113495Y-59366752D01*
X117106811Y-59361803D01*
X117077067Y-59338406D01*
X117077067Y-59048226D01*
X117077260Y-58951657D01*
G36*
X117081448Y-60482114D02*
G01*
X117095273Y-60458548D01*
X117117881Y-60427735D01*
X117150338Y-60388078D01*
X117193708Y-60337980D01*
X117249058Y-60275843D01*
X117317451Y-60200072D01*
X117396084Y-60113334D01*
X117559878Y-59932711D01*
X117340029Y-59927067D01*
X117264351Y-59925029D01*
X117207994Y-59923063D01*
X117167706Y-59920734D01*
X117140235Y-59917606D01*
X117122329Y-59913245D01*
X117110737Y-59907216D01*
X117102208Y-59899084D01*
X117098623Y-59894772D01*
X117079670Y-59860241D01*
X117082441Y-59827383D01*
X117098633Y-59801318D01*
X117120199Y-59774667D01*
X117435151Y-59771352D01*
X117527779Y-59770435D01*
X117600544Y-59769968D01*
X117656161Y-59770113D01*
X117697342Y-59771032D01*
X117726803Y-59772887D01*
X117747255Y-59775839D01*
X117761413Y-59780050D01*
X117771991Y-59785682D01*
X117780474Y-59791927D01*
X117796207Y-59805439D01*
X117806636Y-59818883D01*
X117810639Y-59834124D01*
X117807094Y-59853026D01*
X117794879Y-59877455D01*
X117772871Y-59909273D01*
X117739949Y-59950348D01*
X117694991Y-60002542D01*
X117636875Y-60067722D01*
X117570099Y-60141556D01*
X117329458Y-60406845D01*
X117548589Y-60412489D01*
X117624128Y-60414531D01*
X117680354Y-60416502D01*
X117720524Y-60418839D01*
X117747896Y-60421981D01*
X117765728Y-60426364D01*
X117777279Y-60432424D01*
X117785807Y-60440600D01*
X117789282Y-60444784D01*
X117808372Y-60481765D01*
X117805493Y-60516708D01*
X117781100Y-60547136D01*
X117771286Y-60554097D01*
X117759826Y-60559523D01*
X117743968Y-60563603D01*
X117720963Y-60566529D01*
X117688062Y-60568492D01*
X117642516Y-60569683D01*
X117581573Y-60570292D01*
X117502486Y-60570511D01*
X117443956Y-60570534D01*
X117352407Y-60570460D01*
X117280687Y-60570113D01*
X117226045Y-60569301D01*
X117185732Y-60567833D01*
X117156998Y-60565519D01*
X117137093Y-60562167D01*
X117123268Y-60557588D01*
X117112772Y-60551589D01*
X117106811Y-60547136D01*
X117092691Y-60535850D01*
X117082029Y-60525301D01*
X117075892Y-60513893D01*
X117075343Y-60500030D01*
X117081448Y-60482114D01*
X117081448Y-60482114D01*
G37*
X117081448Y-60482114D02*
X117095273Y-60458548D01*
X117117881Y-60427735D01*
X117150338Y-60388078D01*
X117193708Y-60337980D01*
X117249058Y-60275843D01*
X117317451Y-60200072D01*
X117396084Y-60113334D01*
X117559878Y-59932711D01*
X117340029Y-59927067D01*
X117264351Y-59925029D01*
X117207994Y-59923063D01*
X117167706Y-59920734D01*
X117140235Y-59917606D01*
X117122329Y-59913245D01*
X117110737Y-59907216D01*
X117102208Y-59899084D01*
X117098623Y-59894772D01*
X117079670Y-59860241D01*
X117082441Y-59827383D01*
X117098633Y-59801318D01*
X117120199Y-59774667D01*
X117435151Y-59771352D01*
X117527779Y-59770435D01*
X117600544Y-59769968D01*
X117656161Y-59770113D01*
X117697342Y-59771032D01*
X117726803Y-59772887D01*
X117747255Y-59775839D01*
X117761413Y-59780050D01*
X117771991Y-59785682D01*
X117780474Y-59791927D01*
X117796207Y-59805439D01*
X117806636Y-59818883D01*
X117810639Y-59834124D01*
X117807094Y-59853026D01*
X117794879Y-59877455D01*
X117772871Y-59909273D01*
X117739949Y-59950348D01*
X117694991Y-60002542D01*
X117636875Y-60067722D01*
X117570099Y-60141556D01*
X117329458Y-60406845D01*
X117548589Y-60412489D01*
X117624128Y-60414531D01*
X117680354Y-60416502D01*
X117720524Y-60418839D01*
X117747896Y-60421981D01*
X117765728Y-60426364D01*
X117777279Y-60432424D01*
X117785807Y-60440600D01*
X117789282Y-60444784D01*
X117808372Y-60481765D01*
X117805493Y-60516708D01*
X117781100Y-60547136D01*
X117771286Y-60554097D01*
X117759826Y-60559523D01*
X117743968Y-60563603D01*
X117720963Y-60566529D01*
X117688062Y-60568492D01*
X117642516Y-60569683D01*
X117581573Y-60570292D01*
X117502486Y-60570511D01*
X117443956Y-60570534D01*
X117352407Y-60570460D01*
X117280687Y-60570113D01*
X117226045Y-60569301D01*
X117185732Y-60567833D01*
X117156998Y-60565519D01*
X117137093Y-60562167D01*
X117123268Y-60557588D01*
X117112772Y-60551589D01*
X117106811Y-60547136D01*
X117092691Y-60535850D01*
X117082029Y-60525301D01*
X117075892Y-60513893D01*
X117075343Y-60500030D01*
X117081448Y-60482114D01*
G36*
X117082599Y-61132081D02*
G01*
X117094095Y-61063565D01*
X117111967Y-61010943D01*
X117135499Y-60976708D01*
X117148924Y-60967379D01*
X117180148Y-60957893D01*
X117208395Y-60964277D01*
X117235182Y-60984430D01*
X117247713Y-61015745D01*
X117246696Y-61061183D01*
X117239906Y-61096326D01*
X117226971Y-61174419D01*
X117225742Y-61254226D01*
X117236241Y-61343555D01*
X117240690Y-61368229D01*
X117264108Y-61451291D01*
X117298945Y-61516273D01*
X117344604Y-61562461D01*
X117400494Y-61589145D01*
X117429388Y-61594663D01*
X117488012Y-61591051D01*
X117539879Y-61567729D01*
X117583978Y-61526824D01*
X117619299Y-61470459D01*
X117644829Y-61400760D01*
X117659559Y-61319852D01*
X117662478Y-61229860D01*
X117652575Y-61132910D01*
X117651641Y-61127436D01*
X117644459Y-61088875D01*
X117637521Y-61067494D01*
X117627227Y-61058227D01*
X117609976Y-61056006D01*
X117600841Y-61055956D01*
X117562489Y-61055956D01*
X117562489Y-61124431D01*
X117558347Y-61184900D01*
X117545147Y-61226165D01*
X117521730Y-61250175D01*
X117486936Y-61258877D01*
X117482394Y-61258983D01*
X117452654Y-61253892D01*
X117431419Y-61236433D01*
X117417366Y-61203939D01*
X117409173Y-61153743D01*
X117406161Y-61105123D01*
X117404433Y-61034456D01*
X117407070Y-60983198D01*
X117416800Y-60948239D01*
X117436353Y-60926470D01*
X117468456Y-60914780D01*
X117515838Y-60910060D01*
X117578071Y-60909200D01*
X117647535Y-60910609D01*
X117694786Y-60914848D01*
X117720012Y-60921936D01*
X117721988Y-60923311D01*
X117753508Y-60962228D01*
X117778470Y-61019286D01*
X117796340Y-61090869D01*
X117806586Y-61173358D01*
X117808673Y-61263139D01*
X117802068Y-61356592D01*
X117793956Y-61411556D01*
X117769554Y-61497766D01*
X117729662Y-61577892D01*
X117677887Y-61644977D01*
X117667539Y-61655173D01*
X117624035Y-61688302D01*
X117570118Y-61718194D01*
X117513592Y-61741357D01*
X117462259Y-61754298D01*
X117442544Y-61755858D01*
X117401419Y-61749218D01*
X117350252Y-61731568D01*
X117296394Y-61706297D01*
X117247195Y-61676789D01*
X117214334Y-61650719D01*
X117165452Y-61589765D01*
X117126545Y-61510969D01*
X117098494Y-61417157D01*
X117082179Y-61311150D01*
X117078192Y-61214000D01*
X117082599Y-61132081D01*
X117082599Y-61132081D01*
G37*
X117082599Y-61132081D02*
X117094095Y-61063565D01*
X117111967Y-61010943D01*
X117135499Y-60976708D01*
X117148924Y-60967379D01*
X117180148Y-60957893D01*
X117208395Y-60964277D01*
X117235182Y-60984430D01*
X117247713Y-61015745D01*
X117246696Y-61061183D01*
X117239906Y-61096326D01*
X117226971Y-61174419D01*
X117225742Y-61254226D01*
X117236241Y-61343555D01*
X117240690Y-61368229D01*
X117264108Y-61451291D01*
X117298945Y-61516273D01*
X117344604Y-61562461D01*
X117400494Y-61589145D01*
X117429388Y-61594663D01*
X117488012Y-61591051D01*
X117539879Y-61567729D01*
X117583978Y-61526824D01*
X117619299Y-61470459D01*
X117644829Y-61400760D01*
X117659559Y-61319852D01*
X117662478Y-61229860D01*
X117652575Y-61132910D01*
X117651641Y-61127436D01*
X117644459Y-61088875D01*
X117637521Y-61067494D01*
X117627227Y-61058227D01*
X117609976Y-61056006D01*
X117600841Y-61055956D01*
X117562489Y-61055956D01*
X117562489Y-61124431D01*
X117558347Y-61184900D01*
X117545147Y-61226165D01*
X117521730Y-61250175D01*
X117486936Y-61258877D01*
X117482394Y-61258983D01*
X117452654Y-61253892D01*
X117431419Y-61236433D01*
X117417366Y-61203939D01*
X117409173Y-61153743D01*
X117406161Y-61105123D01*
X117404433Y-61034456D01*
X117407070Y-60983198D01*
X117416800Y-60948239D01*
X117436353Y-60926470D01*
X117468456Y-60914780D01*
X117515838Y-60910060D01*
X117578071Y-60909200D01*
X117647535Y-60910609D01*
X117694786Y-60914848D01*
X117720012Y-60921936D01*
X117721988Y-60923311D01*
X117753508Y-60962228D01*
X117778470Y-61019286D01*
X117796340Y-61090869D01*
X117806586Y-61173358D01*
X117808673Y-61263139D01*
X117802068Y-61356592D01*
X117793956Y-61411556D01*
X117769554Y-61497766D01*
X117729662Y-61577892D01*
X117677887Y-61644977D01*
X117667539Y-61655173D01*
X117624035Y-61688302D01*
X117570118Y-61718194D01*
X117513592Y-61741357D01*
X117462259Y-61754298D01*
X117442544Y-61755858D01*
X117401419Y-61749218D01*
X117350252Y-61731568D01*
X117296394Y-61706297D01*
X117247195Y-61676789D01*
X117214334Y-61650719D01*
X117165452Y-61589765D01*
X117126545Y-61510969D01*
X117098494Y-61417157D01*
X117082179Y-61311150D01*
X117078192Y-61214000D01*
X117082599Y-61132081D01*
G36*
X117099645Y-62105822D02*
G01*
X117107218Y-62099242D01*
X117116987Y-62094079D01*
X117131571Y-62090164D01*
X117153585Y-62087324D01*
X117185648Y-62085387D01*
X117230375Y-62084183D01*
X117290385Y-62083539D01*
X117368294Y-62083284D01*
X117443956Y-62083245D01*
X117537802Y-62083314D01*
X117611689Y-62083638D01*
X117668232Y-62084386D01*
X117710049Y-62085732D01*
X117739757Y-62087846D01*
X117759973Y-62090900D01*
X117773314Y-62095066D01*
X117782398Y-62100516D01*
X117788267Y-62105822D01*
X117807947Y-62138826D01*
X117806181Y-62173991D01*
X117784717Y-62205455D01*
X117776337Y-62212684D01*
X117766614Y-62218334D01*
X117752861Y-62222599D01*
X117732389Y-62225673D01*
X117702512Y-62227752D01*
X117660541Y-62229030D01*
X117603789Y-62229701D01*
X117529567Y-62229959D01*
X117445537Y-62230000D01*
X117132485Y-62230000D01*
X117104776Y-62202291D01*
X117081463Y-62168137D01*
X117080623Y-62135006D01*
X117099645Y-62105822D01*
X117099645Y-62105822D01*
G37*
X117099645Y-62105822D02*
X117107218Y-62099242D01*
X117116987Y-62094079D01*
X117131571Y-62090164D01*
X117153585Y-62087324D01*
X117185648Y-62085387D01*
X117230375Y-62084183D01*
X117290385Y-62083539D01*
X117368294Y-62083284D01*
X117443956Y-62083245D01*
X117537802Y-62083314D01*
X117611689Y-62083638D01*
X117668232Y-62084386D01*
X117710049Y-62085732D01*
X117739757Y-62087846D01*
X117759973Y-62090900D01*
X117773314Y-62095066D01*
X117782398Y-62100516D01*
X117788267Y-62105822D01*
X117807947Y-62138826D01*
X117806181Y-62173991D01*
X117784717Y-62205455D01*
X117776337Y-62212684D01*
X117766614Y-62218334D01*
X117752861Y-62222599D01*
X117732389Y-62225673D01*
X117702512Y-62227752D01*
X117660541Y-62229030D01*
X117603789Y-62229701D01*
X117529567Y-62229959D01*
X117445537Y-62230000D01*
X117132485Y-62230000D01*
X117104776Y-62202291D01*
X117081463Y-62168137D01*
X117080623Y-62135006D01*
X117099645Y-62105822D01*
G36*
X117078351Y-62873703D02*
G01*
X117083581Y-62798888D01*
X117091750Y-62729306D01*
X117102550Y-62669002D01*
X117115673Y-62622020D01*
X117130813Y-62592406D01*
X117135269Y-62587860D01*
X117169850Y-62572054D01*
X117205351Y-62576847D01*
X117235725Y-62601364D01*
X117236596Y-62602534D01*
X117245954Y-62616954D01*
X117250876Y-62632008D01*
X117251473Y-62653005D01*
X117247861Y-62685257D01*
X117240154Y-62734073D01*
X117239505Y-62738000D01*
X117230569Y-62810739D01*
X117226161Y-62889217D01*
X117226119Y-62967927D01*
X117230279Y-63041361D01*
X117238479Y-63104011D01*
X117250557Y-63150370D01*
X117251771Y-63153416D01*
X117270615Y-63187048D01*
X117289685Y-63198864D01*
X117308439Y-63189614D01*
X117326337Y-63160047D01*
X117342837Y-63110911D01*
X117357396Y-63042957D01*
X117364406Y-62997645D01*
X117377889Y-62903456D01*
X117390214Y-62828544D01*
X117402449Y-62769717D01*
X117415661Y-62723785D01*
X117430917Y-62687555D01*
X117449285Y-62657838D01*
X117471831Y-62631442D01*
X117493971Y-62610230D01*
X117524819Y-62585065D01*
X117551345Y-62572681D01*
X117584026Y-62568808D01*
X117595995Y-62568667D01*
X117635712Y-62571576D01*
X117665259Y-62583202D01*
X117691486Y-62603323D01*
X117731576Y-62644216D01*
X117762149Y-62689817D01*
X117784203Y-62743513D01*
X117798735Y-62808692D01*
X117806741Y-62888744D01*
X117809218Y-62987057D01*
X117809177Y-63003289D01*
X117807818Y-63068849D01*
X117804730Y-63133866D01*
X117800356Y-63191252D01*
X117795140Y-63233922D01*
X117794541Y-63237372D01*
X117784491Y-63279796D01*
X117771796Y-63315780D01*
X117760190Y-63336150D01*
X117729572Y-63355107D01*
X117693918Y-63356427D01*
X117662144Y-63340085D01*
X117658551Y-63336429D01*
X117647876Y-63321315D01*
X117643276Y-63302415D01*
X117644059Y-63273162D01*
X117648127Y-63237651D01*
X117651762Y-63197970D01*
X117654828Y-63142345D01*
X117657053Y-63077406D01*
X117658164Y-63009785D01*
X117658237Y-62992000D01*
X117657964Y-62924128D01*
X117656646Y-62874454D01*
X117653827Y-62838610D01*
X117649050Y-62812224D01*
X117641857Y-62790926D01*
X117635867Y-62778126D01*
X117619233Y-62750000D01*
X117604168Y-62732068D01*
X117599897Y-62729447D01*
X117582263Y-62734976D01*
X117565192Y-62761260D01*
X117549458Y-62806478D01*
X117535838Y-62868808D01*
X117532804Y-62887171D01*
X117517738Y-62983090D01*
X117505146Y-63059641D01*
X117494111Y-63119780D01*
X117483720Y-63166460D01*
X117473056Y-63202637D01*
X117461205Y-63231265D01*
X117447251Y-63255298D01*
X117430281Y-63277692D01*
X117409378Y-63301402D01*
X117402049Y-63309380D01*
X117374699Y-63337353D01*
X117353029Y-63352160D01*
X117328232Y-63357952D01*
X117296983Y-63358889D01*
X117235705Y-63348575D01*
X117183640Y-63317752D01*
X117140958Y-63266595D01*
X117107825Y-63195283D01*
X117092964Y-63144400D01*
X117083366Y-63089100D01*
X117077936Y-63022853D01*
X117076367Y-62949706D01*
X117078351Y-62873703D01*
X117078351Y-62873703D01*
G37*
X117078351Y-62873703D02*
X117083581Y-62798888D01*
X117091750Y-62729306D01*
X117102550Y-62669002D01*
X117115673Y-62622020D01*
X117130813Y-62592406D01*
X117135269Y-62587860D01*
X117169850Y-62572054D01*
X117205351Y-62576847D01*
X117235725Y-62601364D01*
X117236596Y-62602534D01*
X117245954Y-62616954D01*
X117250876Y-62632008D01*
X117251473Y-62653005D01*
X117247861Y-62685257D01*
X117240154Y-62734073D01*
X117239505Y-62738000D01*
X117230569Y-62810739D01*
X117226161Y-62889217D01*
X117226119Y-62967927D01*
X117230279Y-63041361D01*
X117238479Y-63104011D01*
X117250557Y-63150370D01*
X117251771Y-63153416D01*
X117270615Y-63187048D01*
X117289685Y-63198864D01*
X117308439Y-63189614D01*
X117326337Y-63160047D01*
X117342837Y-63110911D01*
X117357396Y-63042957D01*
X117364406Y-62997645D01*
X117377889Y-62903456D01*
X117390214Y-62828544D01*
X117402449Y-62769717D01*
X117415661Y-62723785D01*
X117430917Y-62687555D01*
X117449285Y-62657838D01*
X117471831Y-62631442D01*
X117493971Y-62610230D01*
X117524819Y-62585065D01*
X117551345Y-62572681D01*
X117584026Y-62568808D01*
X117595995Y-62568667D01*
X117635712Y-62571576D01*
X117665259Y-62583202D01*
X117691486Y-62603323D01*
X117731576Y-62644216D01*
X117762149Y-62689817D01*
X117784203Y-62743513D01*
X117798735Y-62808692D01*
X117806741Y-62888744D01*
X117809218Y-62987057D01*
X117809177Y-63003289D01*
X117807818Y-63068849D01*
X117804730Y-63133866D01*
X117800356Y-63191252D01*
X117795140Y-63233922D01*
X117794541Y-63237372D01*
X117784491Y-63279796D01*
X117771796Y-63315780D01*
X117760190Y-63336150D01*
X117729572Y-63355107D01*
X117693918Y-63356427D01*
X117662144Y-63340085D01*
X117658551Y-63336429D01*
X117647876Y-63321315D01*
X117643276Y-63302415D01*
X117644059Y-63273162D01*
X117648127Y-63237651D01*
X117651762Y-63197970D01*
X117654828Y-63142345D01*
X117657053Y-63077406D01*
X117658164Y-63009785D01*
X117658237Y-62992000D01*
X117657964Y-62924128D01*
X117656646Y-62874454D01*
X117653827Y-62838610D01*
X117649050Y-62812224D01*
X117641857Y-62790926D01*
X117635867Y-62778126D01*
X117619233Y-62750000D01*
X117604168Y-62732068D01*
X117599897Y-62729447D01*
X117582263Y-62734976D01*
X117565192Y-62761260D01*
X117549458Y-62806478D01*
X117535838Y-62868808D01*
X117532804Y-62887171D01*
X117517738Y-62983090D01*
X117505146Y-63059641D01*
X117494111Y-63119780D01*
X117483720Y-63166460D01*
X117473056Y-63202637D01*
X117461205Y-63231265D01*
X117447251Y-63255298D01*
X117430281Y-63277692D01*
X117409378Y-63301402D01*
X117402049Y-63309380D01*
X117374699Y-63337353D01*
X117353029Y-63352160D01*
X117328232Y-63357952D01*
X117296983Y-63358889D01*
X117235705Y-63348575D01*
X117183640Y-63317752D01*
X117140958Y-63266595D01*
X117107825Y-63195283D01*
X117092964Y-63144400D01*
X117083366Y-63089100D01*
X117077936Y-63022853D01*
X117076367Y-62949706D01*
X117078351Y-62873703D01*
G36*
X117077146Y-63894794D02*
G01*
X117077518Y-63825386D01*
X117078385Y-63772997D01*
X117079946Y-63734847D01*
X117082403Y-63708159D01*
X117085957Y-63690153D01*
X117090810Y-63678049D01*
X117097161Y-63669069D01*
X117100084Y-63665818D01*
X117131142Y-63646043D01*
X117166828Y-63642482D01*
X117198510Y-63655491D01*
X117204913Y-63661506D01*
X117211121Y-63671235D01*
X117215910Y-63686901D01*
X117219514Y-63711408D01*
X117222164Y-63747661D01*
X117224095Y-63798565D01*
X117225539Y-63867026D01*
X117226418Y-63929617D01*
X117229467Y-64177334D01*
X117294378Y-64180719D01*
X117359289Y-64184105D01*
X117359289Y-64015958D01*
X117359919Y-63942959D01*
X117362553Y-63889517D01*
X117368309Y-63852628D01*
X117378304Y-63829288D01*
X117393656Y-63816494D01*
X117415482Y-63811242D01*
X117435738Y-63810445D01*
X117460592Y-63812923D01*
X117478906Y-63822277D01*
X117491637Y-63841383D01*
X117499741Y-63873118D01*
X117504176Y-63920359D01*
X117505899Y-63985983D01*
X117506045Y-64021801D01*
X117506045Y-64182978D01*
X117664089Y-64182978D01*
X117664089Y-63934622D01*
X117664202Y-63853213D01*
X117664712Y-63791342D01*
X117665870Y-63745968D01*
X117667930Y-63714054D01*
X117671146Y-63692559D01*
X117675772Y-63678443D01*
X117682059Y-63668668D01*
X117686667Y-63663689D01*
X117713560Y-63646610D01*
X117737467Y-63641111D01*
X117766667Y-63648963D01*
X117788267Y-63663689D01*
X117795066Y-63671546D01*
X117800346Y-63681688D01*
X117804298Y-63696844D01*
X117807113Y-63719741D01*
X117808982Y-63753109D01*
X117810098Y-63799675D01*
X117810651Y-63862167D01*
X117810833Y-63943314D01*
X117810845Y-63985422D01*
X117810765Y-64075598D01*
X117810398Y-64145924D01*
X117809552Y-64199129D01*
X117808036Y-64237940D01*
X117805659Y-64265087D01*
X117802229Y-64283298D01*
X117797554Y-64295300D01*
X117791444Y-64303822D01*
X117788267Y-64307156D01*
X117780670Y-64313755D01*
X117770870Y-64318927D01*
X117756239Y-64322846D01*
X117734152Y-64325684D01*
X117701982Y-64327615D01*
X117657103Y-64328812D01*
X117596889Y-64329448D01*
X117518713Y-64329697D01*
X117445923Y-64329734D01*
X117352707Y-64329700D01*
X117279431Y-64329465D01*
X117223458Y-64328830D01*
X117182151Y-64327594D01*
X117152872Y-64325556D01*
X117132984Y-64322517D01*
X117119850Y-64318277D01*
X117110832Y-64312635D01*
X117103293Y-64305391D01*
X117101612Y-64303606D01*
X117094172Y-64294945D01*
X117088409Y-64284882D01*
X117084112Y-64270625D01*
X117081064Y-64249383D01*
X117079051Y-64218364D01*
X117077860Y-64174777D01*
X117077275Y-64115831D01*
X117077083Y-64038734D01*
X117077067Y-63984001D01*
X117077146Y-63894794D01*
X117077146Y-63894794D01*
G37*
X117077146Y-63894794D02*
X117077518Y-63825386D01*
X117078385Y-63772997D01*
X117079946Y-63734847D01*
X117082403Y-63708159D01*
X117085957Y-63690153D01*
X117090810Y-63678049D01*
X117097161Y-63669069D01*
X117100084Y-63665818D01*
X117131142Y-63646043D01*
X117166828Y-63642482D01*
X117198510Y-63655491D01*
X117204913Y-63661506D01*
X117211121Y-63671235D01*
X117215910Y-63686901D01*
X117219514Y-63711408D01*
X117222164Y-63747661D01*
X117224095Y-63798565D01*
X117225539Y-63867026D01*
X117226418Y-63929617D01*
X117229467Y-64177334D01*
X117294378Y-64180719D01*
X117359289Y-64184105D01*
X117359289Y-64015958D01*
X117359919Y-63942959D01*
X117362553Y-63889517D01*
X117368309Y-63852628D01*
X117378304Y-63829288D01*
X117393656Y-63816494D01*
X117415482Y-63811242D01*
X117435738Y-63810445D01*
X117460592Y-63812923D01*
X117478906Y-63822277D01*
X117491637Y-63841383D01*
X117499741Y-63873118D01*
X117504176Y-63920359D01*
X117505899Y-63985983D01*
X117506045Y-64021801D01*
X117506045Y-64182978D01*
X117664089Y-64182978D01*
X117664089Y-63934622D01*
X117664202Y-63853213D01*
X117664712Y-63791342D01*
X117665870Y-63745968D01*
X117667930Y-63714054D01*
X117671146Y-63692559D01*
X117675772Y-63678443D01*
X117682059Y-63668668D01*
X117686667Y-63663689D01*
X117713560Y-63646610D01*
X117737467Y-63641111D01*
X117766667Y-63648963D01*
X117788267Y-63663689D01*
X117795066Y-63671546D01*
X117800346Y-63681688D01*
X117804298Y-63696844D01*
X117807113Y-63719741D01*
X117808982Y-63753109D01*
X117810098Y-63799675D01*
X117810651Y-63862167D01*
X117810833Y-63943314D01*
X117810845Y-63985422D01*
X117810765Y-64075598D01*
X117810398Y-64145924D01*
X117809552Y-64199129D01*
X117808036Y-64237940D01*
X117805659Y-64265087D01*
X117802229Y-64283298D01*
X117797554Y-64295300D01*
X117791444Y-64303822D01*
X117788267Y-64307156D01*
X117780670Y-64313755D01*
X117770870Y-64318927D01*
X117756239Y-64322846D01*
X117734152Y-64325684D01*
X117701982Y-64327615D01*
X117657103Y-64328812D01*
X117596889Y-64329448D01*
X117518713Y-64329697D01*
X117445923Y-64329734D01*
X117352707Y-64329700D01*
X117279431Y-64329465D01*
X117223458Y-64328830D01*
X117182151Y-64327594D01*
X117152872Y-64325556D01*
X117132984Y-64322517D01*
X117119850Y-64318277D01*
X117110832Y-64312635D01*
X117103293Y-64305391D01*
X117101612Y-64303606D01*
X117094172Y-64294945D01*
X117088409Y-64284882D01*
X117084112Y-64270625D01*
X117081064Y-64249383D01*
X117079051Y-64218364D01*
X117077860Y-64174777D01*
X117077275Y-64115831D01*
X117077083Y-64038734D01*
X117077067Y-63984001D01*
X117077146Y-63894794D01*
G36*
X117077066Y-65303371D02*
G01*
X117077467Y-65263889D01*
X117080259Y-65148200D01*
X117088550Y-65051311D01*
X117103232Y-64969919D01*
X117125193Y-64900723D01*
X117155322Y-64840420D01*
X117194510Y-64785708D01*
X117211532Y-64766167D01*
X117251363Y-64733750D01*
X117305413Y-64704520D01*
X117365323Y-64681991D01*
X117422739Y-64669679D01*
X117443956Y-64668400D01*
X117502769Y-64676417D01*
X117567013Y-64697899D01*
X117627821Y-64728999D01*
X117676330Y-64765866D01*
X117682182Y-64771854D01*
X117723321Y-64822579D01*
X117755435Y-64878125D01*
X117779365Y-64941696D01*
X117795953Y-65016494D01*
X117806041Y-65105722D01*
X117810469Y-65212582D01*
X117810845Y-65261528D01*
X117810545Y-65323762D01*
X117809292Y-65367528D01*
X117806554Y-65396931D01*
X117801801Y-65416079D01*
X117794501Y-65429077D01*
X117788267Y-65436045D01*
X117780694Y-65442626D01*
X117770924Y-65447788D01*
X117756340Y-65451703D01*
X117734326Y-65454543D01*
X117702264Y-65456480D01*
X117657536Y-65457684D01*
X117597526Y-65458328D01*
X117519617Y-65458583D01*
X117443956Y-65458622D01*
X117343041Y-65458870D01*
X117262427Y-65458817D01*
X117223822Y-65457857D01*
X117223822Y-65311867D01*
X117664089Y-65311867D01*
X117664004Y-65218734D01*
X117662396Y-65162693D01*
X117658256Y-65103999D01*
X117652464Y-65055028D01*
X117652226Y-65053538D01*
X117633090Y-64974392D01*
X117603287Y-64913002D01*
X117560878Y-64866305D01*
X117514961Y-64836635D01*
X117464026Y-64818353D01*
X117416200Y-64819771D01*
X117364933Y-64840988D01*
X117311899Y-64882489D01*
X117272600Y-64939998D01*
X117246331Y-65014750D01*
X117237035Y-65064708D01*
X117230507Y-65121416D01*
X117225782Y-65181519D01*
X117223817Y-65232639D01*
X117223808Y-65235667D01*
X117223822Y-65311867D01*
X117223822Y-65457857D01*
X117199851Y-65457260D01*
X117153055Y-65452998D01*
X117119778Y-65444830D01*
X117097759Y-65431556D01*
X117084739Y-65411974D01*
X117078457Y-65384883D01*
X117076653Y-65349082D01*
X117077066Y-65303371D01*
X117077066Y-65303371D01*
G37*
X117077066Y-65303371D02*
X117077467Y-65263889D01*
X117080259Y-65148200D01*
X117088550Y-65051311D01*
X117103232Y-64969919D01*
X117125193Y-64900723D01*
X117155322Y-64840420D01*
X117194510Y-64785708D01*
X117211532Y-64766167D01*
X117251363Y-64733750D01*
X117305413Y-64704520D01*
X117365323Y-64681991D01*
X117422739Y-64669679D01*
X117443956Y-64668400D01*
X117502769Y-64676417D01*
X117567013Y-64697899D01*
X117627821Y-64728999D01*
X117676330Y-64765866D01*
X117682182Y-64771854D01*
X117723321Y-64822579D01*
X117755435Y-64878125D01*
X117779365Y-64941696D01*
X117795953Y-65016494D01*
X117806041Y-65105722D01*
X117810469Y-65212582D01*
X117810845Y-65261528D01*
X117810545Y-65323762D01*
X117809292Y-65367528D01*
X117806554Y-65396931D01*
X117801801Y-65416079D01*
X117794501Y-65429077D01*
X117788267Y-65436045D01*
X117780694Y-65442626D01*
X117770924Y-65447788D01*
X117756340Y-65451703D01*
X117734326Y-65454543D01*
X117702264Y-65456480D01*
X117657536Y-65457684D01*
X117597526Y-65458328D01*
X117519617Y-65458583D01*
X117443956Y-65458622D01*
X117343041Y-65458870D01*
X117262427Y-65458817D01*
X117223822Y-65457857D01*
X117223822Y-65311867D01*
X117664089Y-65311867D01*
X117664004Y-65218734D01*
X117662396Y-65162693D01*
X117658256Y-65103999D01*
X117652464Y-65055028D01*
X117652226Y-65053538D01*
X117633090Y-64974392D01*
X117603287Y-64913002D01*
X117560878Y-64866305D01*
X117514961Y-64836635D01*
X117464026Y-64818353D01*
X117416200Y-64819771D01*
X117364933Y-64840988D01*
X117311899Y-64882489D01*
X117272600Y-64939998D01*
X117246331Y-65014750D01*
X117237035Y-65064708D01*
X117230507Y-65121416D01*
X117225782Y-65181519D01*
X117223817Y-65232639D01*
X117223808Y-65235667D01*
X117223822Y-65311867D01*
X117223822Y-65457857D01*
X117199851Y-65457260D01*
X117153055Y-65452998D01*
X117119778Y-65444830D01*
X117097759Y-65431556D01*
X117084739Y-65411974D01*
X117078457Y-65384883D01*
X117076653Y-65349082D01*
X117077066Y-65303371D01*
G36*
X111834571Y-61455043D02*
G01*
X111858809Y-61358768D01*
X111901641Y-61272184D01*
X111961419Y-61197373D01*
X112036494Y-61136418D01*
X112125220Y-61091399D01*
X112221530Y-61065136D01*
X112318795Y-61059286D01*
X112412654Y-61074140D01*
X112500511Y-61107840D01*
X112579770Y-61158528D01*
X112647836Y-61224345D01*
X112702112Y-61303434D01*
X112740002Y-61393934D01*
X112752426Y-61445200D01*
X112759947Y-61489698D01*
X112762919Y-61523999D01*
X112761094Y-61556960D01*
X112754225Y-61597434D01*
X112747250Y-61630531D01*
X112715741Y-61723947D01*
X112664617Y-61807619D01*
X112595429Y-61879665D01*
X112509728Y-61938200D01*
X112482489Y-61952148D01*
X112446122Y-61968586D01*
X112415582Y-61978894D01*
X112383450Y-61984460D01*
X112342307Y-61986669D01*
X112296222Y-61986948D01*
X112211865Y-61982861D01*
X112142586Y-61969446D01*
X112081961Y-61944256D01*
X112023567Y-61904846D01*
X111979302Y-61866298D01*
X111913484Y-61794406D01*
X111868053Y-61719313D01*
X111840850Y-61636562D01*
X111830576Y-61558928D01*
X111834571Y-61455043D01*
X111834571Y-61455043D01*
G37*
X111834571Y-61455043D02*
X111858809Y-61358768D01*
X111901641Y-61272184D01*
X111961419Y-61197373D01*
X112036494Y-61136418D01*
X112125220Y-61091399D01*
X112221530Y-61065136D01*
X112318795Y-61059286D01*
X112412654Y-61074140D01*
X112500511Y-61107840D01*
X112579770Y-61158528D01*
X112647836Y-61224345D01*
X112702112Y-61303434D01*
X112740002Y-61393934D01*
X112752426Y-61445200D01*
X112759947Y-61489698D01*
X112762919Y-61523999D01*
X112761094Y-61556960D01*
X112754225Y-61597434D01*
X112747250Y-61630531D01*
X112715741Y-61723947D01*
X112664617Y-61807619D01*
X112595429Y-61879665D01*
X112509728Y-61938200D01*
X112482489Y-61952148D01*
X112446122Y-61968586D01*
X112415582Y-61978894D01*
X112383450Y-61984460D01*
X112342307Y-61986669D01*
X112296222Y-61986948D01*
X112211865Y-61982861D01*
X112142586Y-61969446D01*
X112081961Y-61944256D01*
X112023567Y-61904846D01*
X111979302Y-61866298D01*
X111913484Y-61794406D01*
X111868053Y-61719313D01*
X111840850Y-61636562D01*
X111830576Y-61558928D01*
X111834571Y-61455043D01*
G36*
X114280245Y-52995493D02*
G01*
X114514662Y-52995474D01*
X114727603Y-52995448D01*
X114920168Y-52995375D01*
X115093459Y-52995218D01*
X115248576Y-52994936D01*
X115386620Y-52994491D01*
X115508692Y-52993844D01*
X115615894Y-52992955D01*
X115709326Y-52991787D01*
X115790090Y-52990299D01*
X115859286Y-52988454D01*
X115918015Y-52986211D01*
X115967379Y-52983531D01*
X116008478Y-52980377D01*
X116042413Y-52976708D01*
X116070286Y-52972487D01*
X116093198Y-52967673D01*
X116112249Y-52962227D01*
X116128540Y-52956112D01*
X116143173Y-52949288D01*
X116157249Y-52941715D01*
X116171868Y-52933355D01*
X116180974Y-52928161D01*
X116241689Y-52893896D01*
X116241689Y-53752045D01*
X116145733Y-53752045D01*
X116102370Y-53752776D01*
X116069205Y-53754728D01*
X116051424Y-53757537D01*
X116049778Y-53758779D01*
X116056662Y-53770201D01*
X116074505Y-53792916D01*
X116093879Y-53815615D01*
X116134614Y-53870200D01*
X116175617Y-53939679D01*
X116213123Y-54016730D01*
X116243364Y-54094035D01*
X116253012Y-54124887D01*
X116267578Y-54193384D01*
X116277539Y-54276236D01*
X116282583Y-54365629D01*
X116282396Y-54453752D01*
X116276666Y-54532793D01*
X116270858Y-54570489D01*
X116232797Y-54708586D01*
X116175073Y-54835887D01*
X116098211Y-54951708D01*
X116002739Y-55055363D01*
X115889179Y-55146167D01*
X115778381Y-55212969D01*
X115661625Y-55267836D01*
X115542276Y-55309837D01*
X115416283Y-55339833D01*
X115279594Y-55358689D01*
X115128158Y-55367268D01*
X115050711Y-55367994D01*
X114993934Y-55365900D01*
X114993934Y-54536783D01*
X115087002Y-54536576D01*
X115174692Y-54533663D01*
X115251772Y-54528000D01*
X115313009Y-54519545D01*
X115325350Y-54516962D01*
X115432633Y-54485160D01*
X115519658Y-54443502D01*
X115586642Y-54391637D01*
X115633805Y-54329219D01*
X115661365Y-54255900D01*
X115669541Y-54171331D01*
X115658551Y-54075165D01*
X115642829Y-54011689D01*
X115624639Y-53962546D01*
X115598791Y-53908417D01*
X115575089Y-53867756D01*
X115528721Y-53797200D01*
X114378530Y-53797200D01*
X114334962Y-53864608D01*
X114294040Y-53943133D01*
X114267389Y-54027319D01*
X114255465Y-54112443D01*
X114258722Y-54193784D01*
X114277615Y-54266620D01*
X114293184Y-54298574D01*
X114336181Y-54356499D01*
X114392953Y-54405456D01*
X114465575Y-54446610D01*
X114556121Y-54481126D01*
X114666666Y-54510167D01*
X114672533Y-54511448D01*
X114734788Y-54521619D01*
X114812594Y-54529261D01*
X114900720Y-54534330D01*
X114993934Y-54536783D01*
X114993934Y-55365900D01*
X114837895Y-55360143D01*
X114642059Y-55338198D01*
X114463332Y-55302214D01*
X114301845Y-55252241D01*
X114157726Y-55188332D01*
X114031106Y-55110538D01*
X113922115Y-55018911D01*
X113830883Y-54913503D01*
X113799932Y-54868338D01*
X113743785Y-54767389D01*
X113704174Y-54664099D01*
X113680014Y-54554011D01*
X113670219Y-54432670D01*
X113671265Y-54340164D01*
X113682231Y-54210510D01*
X113704046Y-54097916D01*
X113737714Y-53999125D01*
X113784236Y-53910879D01*
X113818448Y-53862014D01*
X113840362Y-53832647D01*
X113855333Y-53810957D01*
X113859733Y-53802747D01*
X113848904Y-53801132D01*
X113818251Y-53799841D01*
X113770526Y-53798862D01*
X113708479Y-53798183D01*
X113634862Y-53797790D01*
X113552427Y-53797670D01*
X113463925Y-53797812D01*
X113372107Y-53798203D01*
X113279724Y-53798829D01*
X113189528Y-53799680D01*
X113104271Y-53800740D01*
X113026703Y-53801999D01*
X112959576Y-53803444D01*
X112905641Y-53805062D01*
X112867650Y-53806839D01*
X112860667Y-53807331D01*
X112790251Y-53814908D01*
X112735102Y-53826469D01*
X112687981Y-53844208D01*
X112641647Y-53870318D01*
X112632067Y-53876585D01*
X112595378Y-53901017D01*
X112595378Y-52995689D01*
X114280245Y-52995493D01*
X114280245Y-52995493D01*
G37*
X114280245Y-52995493D02*
X114514662Y-52995474D01*
X114727603Y-52995448D01*
X114920168Y-52995375D01*
X115093459Y-52995218D01*
X115248576Y-52994936D01*
X115386620Y-52994491D01*
X115508692Y-52993844D01*
X115615894Y-52992955D01*
X115709326Y-52991787D01*
X115790090Y-52990299D01*
X115859286Y-52988454D01*
X115918015Y-52986211D01*
X115967379Y-52983531D01*
X116008478Y-52980377D01*
X116042413Y-52976708D01*
X116070286Y-52972487D01*
X116093198Y-52967673D01*
X116112249Y-52962227D01*
X116128540Y-52956112D01*
X116143173Y-52949288D01*
X116157249Y-52941715D01*
X116171868Y-52933355D01*
X116180974Y-52928161D01*
X116241689Y-52893896D01*
X116241689Y-53752045D01*
X116145733Y-53752045D01*
X116102370Y-53752776D01*
X116069205Y-53754728D01*
X116051424Y-53757537D01*
X116049778Y-53758779D01*
X116056662Y-53770201D01*
X116074505Y-53792916D01*
X116093879Y-53815615D01*
X116134614Y-53870200D01*
X116175617Y-53939679D01*
X116213123Y-54016730D01*
X116243364Y-54094035D01*
X116253012Y-54124887D01*
X116267578Y-54193384D01*
X116277539Y-54276236D01*
X116282583Y-54365629D01*
X116282396Y-54453752D01*
X116276666Y-54532793D01*
X116270858Y-54570489D01*
X116232797Y-54708586D01*
X116175073Y-54835887D01*
X116098211Y-54951708D01*
X116002739Y-55055363D01*
X115889179Y-55146167D01*
X115778381Y-55212969D01*
X115661625Y-55267836D01*
X115542276Y-55309837D01*
X115416283Y-55339833D01*
X115279594Y-55358689D01*
X115128158Y-55367268D01*
X115050711Y-55367994D01*
X114993934Y-55365900D01*
X114993934Y-54536783D01*
X115087002Y-54536576D01*
X115174692Y-54533663D01*
X115251772Y-54528000D01*
X115313009Y-54519545D01*
X115325350Y-54516962D01*
X115432633Y-54485160D01*
X115519658Y-54443502D01*
X115586642Y-54391637D01*
X115633805Y-54329219D01*
X115661365Y-54255900D01*
X115669541Y-54171331D01*
X115658551Y-54075165D01*
X115642829Y-54011689D01*
X115624639Y-53962546D01*
X115598791Y-53908417D01*
X115575089Y-53867756D01*
X115528721Y-53797200D01*
X114378530Y-53797200D01*
X114334962Y-53864608D01*
X114294040Y-53943133D01*
X114267389Y-54027319D01*
X114255465Y-54112443D01*
X114258722Y-54193784D01*
X114277615Y-54266620D01*
X114293184Y-54298574D01*
X114336181Y-54356499D01*
X114392953Y-54405456D01*
X114465575Y-54446610D01*
X114556121Y-54481126D01*
X114666666Y-54510167D01*
X114672533Y-54511448D01*
X114734788Y-54521619D01*
X114812594Y-54529261D01*
X114900720Y-54534330D01*
X114993934Y-54536783D01*
X114993934Y-55365900D01*
X114837895Y-55360143D01*
X114642059Y-55338198D01*
X114463332Y-55302214D01*
X114301845Y-55252241D01*
X114157726Y-55188332D01*
X114031106Y-55110538D01*
X113922115Y-55018911D01*
X113830883Y-54913503D01*
X113799932Y-54868338D01*
X113743785Y-54767389D01*
X113704174Y-54664099D01*
X113680014Y-54554011D01*
X113670219Y-54432670D01*
X113671265Y-54340164D01*
X113682231Y-54210510D01*
X113704046Y-54097916D01*
X113737714Y-53999125D01*
X113784236Y-53910879D01*
X113818448Y-53862014D01*
X113840362Y-53832647D01*
X113855333Y-53810957D01*
X113859733Y-53802747D01*
X113848904Y-53801132D01*
X113818251Y-53799841D01*
X113770526Y-53798862D01*
X113708479Y-53798183D01*
X113634862Y-53797790D01*
X113552427Y-53797670D01*
X113463925Y-53797812D01*
X113372107Y-53798203D01*
X113279724Y-53798829D01*
X113189528Y-53799680D01*
X113104271Y-53800740D01*
X113026703Y-53801999D01*
X112959576Y-53803444D01*
X112905641Y-53805062D01*
X112867650Y-53806839D01*
X112860667Y-53807331D01*
X112790251Y-53814908D01*
X112735102Y-53826469D01*
X112687981Y-53844208D01*
X112641647Y-53870318D01*
X112632067Y-53876585D01*
X112595378Y-53901017D01*
X112595378Y-52995689D01*
X114280245Y-52995493D01*
G36*
X113674552Y-56508426D02*
G01*
X113694567Y-56356508D01*
X113728202Y-56221244D01*
X113775725Y-56101761D01*
X113837405Y-55997185D01*
X113900965Y-55919576D01*
X113975099Y-55850735D01*
X114054871Y-55796994D01*
X114147091Y-55754090D01*
X114190161Y-55738616D01*
X114229142Y-55725756D01*
X114265289Y-55714554D01*
X114300434Y-55704880D01*
X114336410Y-55696604D01*
X114375050Y-55689597D01*
X114418185Y-55683728D01*
X114467649Y-55678869D01*
X114525273Y-55674890D01*
X114592891Y-55671660D01*
X114672334Y-55669051D01*
X114765436Y-55666933D01*
X114874027Y-55665176D01*
X114999942Y-55663651D01*
X115145012Y-55662228D01*
X115287778Y-55660975D01*
X115443968Y-55659649D01*
X115579239Y-55658444D01*
X115695246Y-55657234D01*
X115793645Y-55655894D01*
X115876093Y-55654300D01*
X115944246Y-55652325D01*
X115999760Y-55649844D01*
X116044292Y-55646731D01*
X116079498Y-55642862D01*
X116107034Y-55638111D01*
X116128556Y-55632352D01*
X116145722Y-55625461D01*
X116160186Y-55617311D01*
X116173606Y-55607777D01*
X116187638Y-55596734D01*
X116193071Y-55592434D01*
X116215910Y-55576614D01*
X116231463Y-55569578D01*
X116231922Y-55569556D01*
X116234121Y-55580433D01*
X116236147Y-55611418D01*
X116237942Y-55660043D01*
X116239451Y-55723837D01*
X116240616Y-55800331D01*
X116241380Y-55887056D01*
X116241686Y-55981543D01*
X116241689Y-55992450D01*
X116241689Y-56415343D01*
X116145622Y-56418605D01*
X116049556Y-56421867D01*
X116100543Y-56483956D01*
X116168057Y-56581286D01*
X116222749Y-56691187D01*
X116252978Y-56777651D01*
X116267666Y-56846722D01*
X116277659Y-56930075D01*
X116282646Y-57019841D01*
X116282313Y-57108155D01*
X116276351Y-57187149D01*
X116270638Y-57223378D01*
X116232776Y-57363397D01*
X116177932Y-57489822D01*
X116106924Y-57601740D01*
X116020568Y-57698238D01*
X115919679Y-57778400D01*
X115805076Y-57841313D01*
X115678984Y-57885688D01*
X115622401Y-57898022D01*
X115560202Y-57905632D01*
X115485363Y-57909261D01*
X115451467Y-57909755D01*
X115448282Y-57909690D01*
X115448282Y-57149752D01*
X115523333Y-57140459D01*
X115587160Y-57112272D01*
X115642798Y-57063803D01*
X115647211Y-57058746D01*
X115682037Y-57010452D01*
X115704620Y-56958743D01*
X115716540Y-56898011D01*
X115719383Y-56822648D01*
X115718978Y-56804541D01*
X115716325Y-56750722D01*
X115710909Y-56710692D01*
X115700745Y-56675676D01*
X115683850Y-56636897D01*
X115678672Y-56626255D01*
X115642844Y-56565604D01*
X115600212Y-56518785D01*
X115584973Y-56506048D01*
X115528462Y-56461378D01*
X115332586Y-56461378D01*
X115253939Y-56461914D01*
X115195988Y-56463604D01*
X115156875Y-56466572D01*
X115134741Y-56470943D01*
X115128274Y-56475028D01*
X115125111Y-56490953D01*
X115122488Y-56524736D01*
X115120655Y-56571660D01*
X115119857Y-56627007D01*
X115119842Y-56635894D01*
X115125096Y-56756670D01*
X115141263Y-56859340D01*
X115168961Y-56945894D01*
X115208808Y-57018319D01*
X115255758Y-57073249D01*
X115313645Y-57117796D01*
X115376693Y-57142520D01*
X115448282Y-57149752D01*
X115448282Y-57909690D01*
X115357712Y-57907822D01*
X115278812Y-57899478D01*
X115207590Y-57883232D01*
X115136864Y-57857595D01*
X115084493Y-57833599D01*
X114989196Y-57774980D01*
X114901170Y-57696883D01*
X114822017Y-57601685D01*
X114753340Y-57491762D01*
X114696741Y-57369490D01*
X114653821Y-57237245D01*
X114638882Y-57172578D01*
X114616777Y-57036396D01*
X114602194Y-56887951D01*
X114595813Y-56736495D01*
X114597445Y-56609936D01*
X114604224Y-56448050D01*
X114545245Y-56455470D01*
X114446092Y-56474762D01*
X114365372Y-56505896D01*
X114302466Y-56549731D01*
X114256756Y-56607129D01*
X114227622Y-56678952D01*
X114214447Y-56766059D01*
X114216611Y-56869314D01*
X114220612Y-56907289D01*
X114245780Y-57048480D01*
X114286814Y-57185293D01*
X114324815Y-57279822D01*
X114344190Y-57324982D01*
X114359760Y-57363415D01*
X114369405Y-57389766D01*
X114371452Y-57397454D01*
X114362374Y-57407198D01*
X114333405Y-57423917D01*
X114284217Y-57447768D01*
X114214484Y-57478907D01*
X114123879Y-57517493D01*
X114108089Y-57524090D01*
X114035772Y-57554147D01*
X113970425Y-57581126D01*
X113914906Y-57603864D01*
X113872072Y-57621194D01*
X113844781Y-57631952D01*
X113835942Y-57635059D01*
X113831187Y-57625060D01*
X113825910Y-57598783D01*
X113822231Y-57570511D01*
X113817474Y-57540354D01*
X113808028Y-57492567D01*
X113794820Y-57431388D01*
X113778776Y-57361054D01*
X113760820Y-57285806D01*
X113753797Y-57257245D01*
X113728209Y-57152184D01*
X113708147Y-57064520D01*
X113692969Y-56989932D01*
X113682035Y-56924097D01*
X113674704Y-56862693D01*
X113670335Y-56801398D01*
X113668287Y-56735890D01*
X113667889Y-56677872D01*
X113674552Y-56508426D01*
X113674552Y-56508426D01*
G37*
X113674552Y-56508426D02*
X113694567Y-56356508D01*
X113728202Y-56221244D01*
X113775725Y-56101761D01*
X113837405Y-55997185D01*
X113900965Y-55919576D01*
X113975099Y-55850735D01*
X114054871Y-55796994D01*
X114147091Y-55754090D01*
X114190161Y-55738616D01*
X114229142Y-55725756D01*
X114265289Y-55714554D01*
X114300434Y-55704880D01*
X114336410Y-55696604D01*
X114375050Y-55689597D01*
X114418185Y-55683728D01*
X114467649Y-55678869D01*
X114525273Y-55674890D01*
X114592891Y-55671660D01*
X114672334Y-55669051D01*
X114765436Y-55666933D01*
X114874027Y-55665176D01*
X114999942Y-55663651D01*
X115145012Y-55662228D01*
X115287778Y-55660975D01*
X115443968Y-55659649D01*
X115579239Y-55658444D01*
X115695246Y-55657234D01*
X115793645Y-55655894D01*
X115876093Y-55654300D01*
X115944246Y-55652325D01*
X115999760Y-55649844D01*
X116044292Y-55646731D01*
X116079498Y-55642862D01*
X116107034Y-55638111D01*
X116128556Y-55632352D01*
X116145722Y-55625461D01*
X116160186Y-55617311D01*
X116173606Y-55607777D01*
X116187638Y-55596734D01*
X116193071Y-55592434D01*
X116215910Y-55576614D01*
X116231463Y-55569578D01*
X116231922Y-55569556D01*
X116234121Y-55580433D01*
X116236147Y-55611418D01*
X116237942Y-55660043D01*
X116239451Y-55723837D01*
X116240616Y-55800331D01*
X116241380Y-55887056D01*
X116241686Y-55981543D01*
X116241689Y-55992450D01*
X116241689Y-56415343D01*
X116145622Y-56418605D01*
X116049556Y-56421867D01*
X116100543Y-56483956D01*
X116168057Y-56581286D01*
X116222749Y-56691187D01*
X116252978Y-56777651D01*
X116267666Y-56846722D01*
X116277659Y-56930075D01*
X116282646Y-57019841D01*
X116282313Y-57108155D01*
X116276351Y-57187149D01*
X116270638Y-57223378D01*
X116232776Y-57363397D01*
X116177932Y-57489822D01*
X116106924Y-57601740D01*
X116020568Y-57698238D01*
X115919679Y-57778400D01*
X115805076Y-57841313D01*
X115678984Y-57885688D01*
X115622401Y-57898022D01*
X115560202Y-57905632D01*
X115485363Y-57909261D01*
X115451467Y-57909755D01*
X115448282Y-57909690D01*
X115448282Y-57149752D01*
X115523333Y-57140459D01*
X115587160Y-57112272D01*
X115642798Y-57063803D01*
X115647211Y-57058746D01*
X115682037Y-57010452D01*
X115704620Y-56958743D01*
X115716540Y-56898011D01*
X115719383Y-56822648D01*
X115718978Y-56804541D01*
X115716325Y-56750722D01*
X115710909Y-56710692D01*
X115700745Y-56675676D01*
X115683850Y-56636897D01*
X115678672Y-56626255D01*
X115642844Y-56565604D01*
X115600212Y-56518785D01*
X115584973Y-56506048D01*
X115528462Y-56461378D01*
X115332586Y-56461378D01*
X115253939Y-56461914D01*
X115195988Y-56463604D01*
X115156875Y-56466572D01*
X115134741Y-56470943D01*
X115128274Y-56475028D01*
X115125111Y-56490953D01*
X115122488Y-56524736D01*
X115120655Y-56571660D01*
X115119857Y-56627007D01*
X115119842Y-56635894D01*
X115125096Y-56756670D01*
X115141263Y-56859340D01*
X115168961Y-56945894D01*
X115208808Y-57018319D01*
X115255758Y-57073249D01*
X115313645Y-57117796D01*
X115376693Y-57142520D01*
X115448282Y-57149752D01*
X115448282Y-57909690D01*
X115357712Y-57907822D01*
X115278812Y-57899478D01*
X115207590Y-57883232D01*
X115136864Y-57857595D01*
X115084493Y-57833599D01*
X114989196Y-57774980D01*
X114901170Y-57696883D01*
X114822017Y-57601685D01*
X114753340Y-57491762D01*
X114696741Y-57369490D01*
X114653821Y-57237245D01*
X114638882Y-57172578D01*
X114616777Y-57036396D01*
X114602194Y-56887951D01*
X114595813Y-56736495D01*
X114597445Y-56609936D01*
X114604224Y-56448050D01*
X114545245Y-56455470D01*
X114446092Y-56474762D01*
X114365372Y-56505896D01*
X114302466Y-56549731D01*
X114256756Y-56607129D01*
X114227622Y-56678952D01*
X114214447Y-56766059D01*
X114216611Y-56869314D01*
X114220612Y-56907289D01*
X114245780Y-57048480D01*
X114286814Y-57185293D01*
X114324815Y-57279822D01*
X114344190Y-57324982D01*
X114359760Y-57363415D01*
X114369405Y-57389766D01*
X114371452Y-57397454D01*
X114362374Y-57407198D01*
X114333405Y-57423917D01*
X114284217Y-57447768D01*
X114214484Y-57478907D01*
X114123879Y-57517493D01*
X114108089Y-57524090D01*
X114035772Y-57554147D01*
X113970425Y-57581126D01*
X113914906Y-57603864D01*
X113872072Y-57621194D01*
X113844781Y-57631952D01*
X113835942Y-57635059D01*
X113831187Y-57625060D01*
X113825910Y-57598783D01*
X113822231Y-57570511D01*
X113817474Y-57540354D01*
X113808028Y-57492567D01*
X113794820Y-57431388D01*
X113778776Y-57361054D01*
X113760820Y-57285806D01*
X113753797Y-57257245D01*
X113728209Y-57152184D01*
X113708147Y-57064520D01*
X113692969Y-56989932D01*
X113682035Y-56924097D01*
X113674704Y-56862693D01*
X113670335Y-56801398D01*
X113668287Y-56735890D01*
X113667889Y-56677872D01*
X113674552Y-56508426D01*
G36*
X112757071Y-58853571D02*
G01*
X112778245Y-58693430D01*
X112818385Y-58529490D01*
X112877889Y-58359687D01*
X112957154Y-58181957D01*
X112962699Y-58170690D01*
X112990725Y-58112995D01*
X113014802Y-58061448D01*
X113033249Y-58019809D01*
X113044386Y-57991838D01*
X113046933Y-57982267D01*
X113051941Y-57963050D01*
X113056147Y-57958439D01*
X113066580Y-57963542D01*
X113092868Y-57979582D01*
X113132257Y-58004712D01*
X113181991Y-58037086D01*
X113239315Y-58074857D01*
X113301476Y-58116178D01*
X113365718Y-58159202D01*
X113429285Y-58202083D01*
X113489425Y-58242974D01*
X113543380Y-58280029D01*
X113588397Y-58311400D01*
X113621721Y-58335241D01*
X113640597Y-58349706D01*
X113642787Y-58351691D01*
X113638138Y-58361809D01*
X113620962Y-58384150D01*
X113594440Y-58414720D01*
X113579964Y-58430464D01*
X113504682Y-58526953D01*
X113449241Y-58633664D01*
X113414141Y-58749168D01*
X113399880Y-58872038D01*
X113401051Y-58941439D01*
X113418212Y-59062577D01*
X113454094Y-59171795D01*
X113508959Y-59269418D01*
X113583070Y-59355772D01*
X113676688Y-59431185D01*
X113790076Y-59495982D01*
X113876667Y-59533399D01*
X114012366Y-59577252D01*
X114159850Y-59609572D01*
X114315314Y-59630443D01*
X114474956Y-59639949D01*
X114634973Y-59638173D01*
X114791561Y-59625197D01*
X114940918Y-59601106D01*
X115079240Y-59565982D01*
X115202724Y-59519908D01*
X115236978Y-59503627D01*
X115351064Y-59435380D01*
X115447557Y-59354921D01*
X115525670Y-59263430D01*
X115584617Y-59162089D01*
X115623612Y-59052080D01*
X115641868Y-58934585D01*
X115643211Y-58893117D01*
X115632290Y-58771559D01*
X115599474Y-58651122D01*
X115545439Y-58533334D01*
X115470865Y-58419723D01*
X115392539Y-58328315D01*
X115348008Y-58281785D01*
X115645271Y-58100517D01*
X115719433Y-58055420D01*
X115787646Y-58014181D01*
X115847459Y-57978265D01*
X115896420Y-57949134D01*
X115932079Y-57928250D01*
X115951984Y-57917076D01*
X115955079Y-57915625D01*
X115964718Y-57923854D01*
X115981999Y-57949433D01*
X116005283Y-57989127D01*
X116032934Y-58039703D01*
X116063315Y-58097926D01*
X116094790Y-58160563D01*
X116125722Y-58224379D01*
X116154473Y-58286140D01*
X116179408Y-58342612D01*
X116198889Y-58390562D01*
X116207318Y-58414014D01*
X116245133Y-58547779D01*
X116270136Y-58685673D01*
X116283140Y-58833378D01*
X116285468Y-58960167D01*
X116284373Y-59028122D01*
X116282275Y-59093723D01*
X116279434Y-59151153D01*
X116276106Y-59194597D01*
X116274422Y-59208702D01*
X116245587Y-59347716D01*
X116200468Y-59489243D01*
X116141750Y-59626725D01*
X116072120Y-59753606D01*
X116019441Y-59831111D01*
X115911239Y-59958519D01*
X115784671Y-60076822D01*
X115642866Y-60183828D01*
X115488951Y-60277348D01*
X115326053Y-60355190D01*
X115208756Y-60399044D01*
X115025128Y-60449292D01*
X114830581Y-60482791D01*
X114629325Y-60499551D01*
X114425568Y-60499584D01*
X114223521Y-60482899D01*
X114027392Y-60449507D01*
X113841391Y-60399420D01*
X113829803Y-60395603D01*
X113667750Y-60332719D01*
X113519832Y-60255972D01*
X113381865Y-60162758D01*
X113249661Y-60050473D01*
X113204399Y-60006608D01*
X113080457Y-59870466D01*
X112977915Y-59730509D01*
X112895656Y-59584589D01*
X112832564Y-59430558D01*
X112787523Y-59266268D01*
X112770033Y-59170711D01*
X112754466Y-59011977D01*
X112757071Y-58853571D01*
X112757071Y-58853571D01*
G37*
X112757071Y-58853571D02*
X112778245Y-58693430D01*
X112818385Y-58529490D01*
X112877889Y-58359687D01*
X112957154Y-58181957D01*
X112962699Y-58170690D01*
X112990725Y-58112995D01*
X113014802Y-58061448D01*
X113033249Y-58019809D01*
X113044386Y-57991838D01*
X113046933Y-57982267D01*
X113051941Y-57963050D01*
X113056147Y-57958439D01*
X113066580Y-57963542D01*
X113092868Y-57979582D01*
X113132257Y-58004712D01*
X113181991Y-58037086D01*
X113239315Y-58074857D01*
X113301476Y-58116178D01*
X113365718Y-58159202D01*
X113429285Y-58202083D01*
X113489425Y-58242974D01*
X113543380Y-58280029D01*
X113588397Y-58311400D01*
X113621721Y-58335241D01*
X113640597Y-58349706D01*
X113642787Y-58351691D01*
X113638138Y-58361809D01*
X113620962Y-58384150D01*
X113594440Y-58414720D01*
X113579964Y-58430464D01*
X113504682Y-58526953D01*
X113449241Y-58633664D01*
X113414141Y-58749168D01*
X113399880Y-58872038D01*
X113401051Y-58941439D01*
X113418212Y-59062577D01*
X113454094Y-59171795D01*
X113508959Y-59269418D01*
X113583070Y-59355772D01*
X113676688Y-59431185D01*
X113790076Y-59495982D01*
X113876667Y-59533399D01*
X114012366Y-59577252D01*
X114159850Y-59609572D01*
X114315314Y-59630443D01*
X114474956Y-59639949D01*
X114634973Y-59638173D01*
X114791561Y-59625197D01*
X114940918Y-59601106D01*
X115079240Y-59565982D01*
X115202724Y-59519908D01*
X115236978Y-59503627D01*
X115351064Y-59435380D01*
X115447557Y-59354921D01*
X115525670Y-59263430D01*
X115584617Y-59162089D01*
X115623612Y-59052080D01*
X115641868Y-58934585D01*
X115643211Y-58893117D01*
X115632290Y-58771559D01*
X115599474Y-58651122D01*
X115545439Y-58533334D01*
X115470865Y-58419723D01*
X115392539Y-58328315D01*
X115348008Y-58281785D01*
X115645271Y-58100517D01*
X115719433Y-58055420D01*
X115787646Y-58014181D01*
X115847459Y-57978265D01*
X115896420Y-57949134D01*
X115932079Y-57928250D01*
X115951984Y-57917076D01*
X115955079Y-57915625D01*
X115964718Y-57923854D01*
X115981999Y-57949433D01*
X116005283Y-57989127D01*
X116032934Y-58039703D01*
X116063315Y-58097926D01*
X116094790Y-58160563D01*
X116125722Y-58224379D01*
X116154473Y-58286140D01*
X116179408Y-58342612D01*
X116198889Y-58390562D01*
X116207318Y-58414014D01*
X116245133Y-58547779D01*
X116270136Y-58685673D01*
X116283140Y-58833378D01*
X116285468Y-58960167D01*
X116284373Y-59028122D01*
X116282275Y-59093723D01*
X116279434Y-59151153D01*
X116276106Y-59194597D01*
X116274422Y-59208702D01*
X116245587Y-59347716D01*
X116200468Y-59489243D01*
X116141750Y-59626725D01*
X116072120Y-59753606D01*
X116019441Y-59831111D01*
X115911239Y-59958519D01*
X115784671Y-60076822D01*
X115642866Y-60183828D01*
X115488951Y-60277348D01*
X115326053Y-60355190D01*
X115208756Y-60399044D01*
X115025128Y-60449292D01*
X114830581Y-60482791D01*
X114629325Y-60499551D01*
X114425568Y-60499584D01*
X114223521Y-60482899D01*
X114027392Y-60449507D01*
X113841391Y-60399420D01*
X113829803Y-60395603D01*
X113667750Y-60332719D01*
X113519832Y-60255972D01*
X113381865Y-60162758D01*
X113249661Y-60050473D01*
X113204399Y-60006608D01*
X113080457Y-59870466D01*
X112977915Y-59730509D01*
X112895656Y-59584589D01*
X112832564Y-59430558D01*
X112787523Y-59266268D01*
X112770033Y-59170711D01*
X112754466Y-59011977D01*
X112757071Y-58853571D01*
G36*
X112297054Y-62128400D02*
G01*
X112410993Y-62117535D01*
X112518616Y-62085918D01*
X112617615Y-62035015D01*
X112705684Y-61966293D01*
X112780516Y-61881219D01*
X112838384Y-61784232D01*
X112878005Y-61677964D01*
X112896573Y-61570950D01*
X112895434Y-61465300D01*
X112875930Y-61363125D01*
X112839406Y-61266534D01*
X112787205Y-61177638D01*
X112720673Y-61098546D01*
X112641152Y-61031369D01*
X112549987Y-60978217D01*
X112448523Y-60941199D01*
X112338102Y-60922427D01*
X112288206Y-60920489D01*
X112200267Y-60920489D01*
X112200267Y-60868560D01*
X112203111Y-60832253D01*
X112214911Y-60805355D01*
X112238649Y-60778249D01*
X112277031Y-60739867D01*
X114468602Y-60739867D01*
X114730739Y-60739876D01*
X114971241Y-60739908D01*
X115191048Y-60739972D01*
X115391101Y-60740076D01*
X115572344Y-60740227D01*
X115735716Y-60740434D01*
X115882160Y-60740706D01*
X116012617Y-60741050D01*
X116128029Y-60741474D01*
X116229338Y-60741987D01*
X116317484Y-60742597D01*
X116393410Y-60743312D01*
X116458057Y-60744140D01*
X116512367Y-60745089D01*
X116557280Y-60746167D01*
X116593740Y-60747383D01*
X116622687Y-60748745D01*
X116645063Y-60750261D01*
X116661809Y-60751938D01*
X116673868Y-60753786D01*
X116682180Y-60755813D01*
X116687687Y-60758025D01*
X116689537Y-60759108D01*
X116696549Y-60763271D01*
X116702996Y-60766805D01*
X116708900Y-60770635D01*
X116714286Y-60775682D01*
X116719178Y-60782871D01*
X116723598Y-60793123D01*
X116727572Y-60807364D01*
X116731121Y-60826514D01*
X116734270Y-60851499D01*
X116737042Y-60883240D01*
X116739461Y-60922662D01*
X116741551Y-60970686D01*
X116743335Y-61028237D01*
X116744837Y-61096237D01*
X116746080Y-61175610D01*
X116747089Y-61267279D01*
X116747885Y-61372166D01*
X116748494Y-61491196D01*
X116748939Y-61625290D01*
X116749243Y-61775373D01*
X116749430Y-61942367D01*
X116749524Y-62127196D01*
X116749548Y-62330783D01*
X116749525Y-62554050D01*
X116749480Y-62797922D01*
X116749437Y-63063321D01*
X116749432Y-63101704D01*
X116749389Y-63368682D01*
X116749318Y-63614002D01*
X116749213Y-63838583D01*
X116749066Y-64043345D01*
X116748869Y-64229206D01*
X116748616Y-64397088D01*
X116748300Y-64547908D01*
X116747913Y-64682587D01*
X116747447Y-64802044D01*
X116746897Y-64907199D01*
X116746253Y-64998971D01*
X116745511Y-65078279D01*
X116744661Y-65146043D01*
X116743697Y-65203182D01*
X116742611Y-65250617D01*
X116741397Y-65289266D01*
X116740047Y-65320049D01*
X116738555Y-65343885D01*
X116736911Y-65361694D01*
X116735111Y-65374395D01*
X116733145Y-65382908D01*
X116731477Y-65387266D01*
X116727906Y-65395728D01*
X116725270Y-65403497D01*
X116722634Y-65410602D01*
X116719062Y-65417073D01*
X116713621Y-65422939D01*
X116705375Y-65428229D01*
X116693390Y-65432974D01*
X116676731Y-65437202D01*
X116654463Y-65440943D01*
X116625652Y-65444227D01*
X116589363Y-65447083D01*
X116544661Y-65449540D01*
X116490611Y-65451629D01*
X116426279Y-65453378D01*
X116350730Y-65454817D01*
X116263030Y-65455976D01*
X116162243Y-65456883D01*
X116047434Y-65457569D01*
X115917670Y-65458063D01*
X115772015Y-65458395D01*
X115609535Y-65458593D01*
X115429295Y-65458687D01*
X115230360Y-65458708D01*
X115011796Y-65458685D01*
X114772668Y-65458646D01*
X114512040Y-65458622D01*
X114469889Y-65458622D01*
X114206992Y-65458636D01*
X113965732Y-65458661D01*
X113745165Y-65458671D01*
X113544352Y-65458642D01*
X113362349Y-65458548D01*
X113198216Y-65458362D01*
X113051011Y-65458059D01*
X112919792Y-65457614D01*
X112809867Y-65457034D01*
X112809867Y-65154197D01*
X112867711Y-65114407D01*
X112883479Y-65103236D01*
X112897441Y-65093166D01*
X112910784Y-65084138D01*
X112924693Y-65076097D01*
X112940356Y-65068986D01*
X112958958Y-65062747D01*
X112981686Y-65057325D01*
X113009727Y-65052662D01*
X113044267Y-65048701D01*
X113086492Y-65045385D01*
X113137589Y-65042659D01*
X113198744Y-65040464D01*
X113271144Y-65038745D01*
X113355975Y-65037444D01*
X113454422Y-65036505D01*
X113567674Y-65035870D01*
X113696916Y-65035484D01*
X113843334Y-65035288D01*
X114008116Y-65035227D01*
X114192447Y-65035243D01*
X114397513Y-65035280D01*
X114520133Y-65035289D01*
X114737082Y-65035265D01*
X114932642Y-65035231D01*
X115107999Y-65035243D01*
X115264341Y-65035358D01*
X115402857Y-65035630D01*
X115524734Y-65036118D01*
X115631160Y-65036876D01*
X115723322Y-65037962D01*
X115802409Y-65039431D01*
X115869608Y-65041340D01*
X115926107Y-65043744D01*
X115973093Y-65046701D01*
X116011755Y-65050266D01*
X116043280Y-65054495D01*
X116068855Y-65059446D01*
X116089670Y-65065173D01*
X116106911Y-65071733D01*
X116121765Y-65079183D01*
X116135422Y-65087579D01*
X116149069Y-65096976D01*
X116163893Y-65107432D01*
X116172783Y-65113523D01*
X116230400Y-65152296D01*
X116230400Y-64620732D01*
X116230365Y-64497483D01*
X116230215Y-64394987D01*
X116229878Y-64311420D01*
X116229286Y-64244956D01*
X116228367Y-64193771D01*
X116227051Y-64156041D01*
X116225269Y-64129940D01*
X116222951Y-64113644D01*
X116220026Y-64105328D01*
X116216424Y-64103168D01*
X116212075Y-64105339D01*
X116210645Y-64106535D01*
X116173573Y-64131685D01*
X116120772Y-64157583D01*
X116058770Y-64181192D01*
X116032357Y-64189461D01*
X116014416Y-64194078D01*
X115993355Y-64197979D01*
X115967089Y-64201248D01*
X115933532Y-64203966D01*
X115890599Y-64206215D01*
X115836204Y-64208077D01*
X115768262Y-64209636D01*
X115684688Y-64210972D01*
X115583395Y-64212169D01*
X115462300Y-64213308D01*
X115417600Y-64213685D01*
X115292449Y-64214702D01*
X115188082Y-64215460D01*
X115102707Y-64215903D01*
X115034533Y-64215970D01*
X114981765Y-64215605D01*
X114942614Y-64214748D01*
X114915285Y-64213341D01*
X114897986Y-64211325D01*
X114888926Y-64208643D01*
X114886312Y-64205236D01*
X114888351Y-64201044D01*
X114892667Y-64196571D01*
X114905602Y-64186216D01*
X114934676Y-64164158D01*
X114977759Y-64131957D01*
X115032718Y-64091174D01*
X115097423Y-64043370D01*
X115169742Y-63990105D01*
X115247544Y-63932940D01*
X115328698Y-63873437D01*
X115411072Y-63813155D01*
X115492536Y-63753655D01*
X115570957Y-63696498D01*
X115644204Y-63643245D01*
X115710147Y-63595457D01*
X115766654Y-63554693D01*
X115811593Y-63522516D01*
X115842834Y-63500485D01*
X115849466Y-63495917D01*
X115886369Y-63472996D01*
X115934359Y-63446188D01*
X115983897Y-63420789D01*
X115990577Y-63417568D01*
X116038772Y-63395890D01*
X116076334Y-63383304D01*
X116112160Y-63377574D01*
X116154200Y-63376456D01*
X116230400Y-63377090D01*
X116230400Y-62222651D01*
X116136669Y-62313815D01*
X116086775Y-62360612D01*
X116030295Y-62410899D01*
X115976026Y-62456944D01*
X115950673Y-62477369D01*
X115911128Y-62507807D01*
X115857916Y-62547862D01*
X115792667Y-62596361D01*
X115717011Y-62652135D01*
X115632577Y-62714011D01*
X115540994Y-62780819D01*
X115443892Y-62851387D01*
X115342901Y-62924545D01*
X115239650Y-62999121D01*
X115135768Y-63073944D01*
X115032885Y-63147843D01*
X114932631Y-63219646D01*
X114836636Y-63288184D01*
X114746527Y-63352284D01*
X114663936Y-63410775D01*
X114590492Y-63462486D01*
X114527824Y-63506247D01*
X114477561Y-63540885D01*
X114441334Y-63565230D01*
X114420771Y-63578111D01*
X114416668Y-63579869D01*
X114405342Y-63571910D01*
X114378162Y-63551115D01*
X114336829Y-63518847D01*
X114283044Y-63476470D01*
X114218506Y-63425347D01*
X114144918Y-63366841D01*
X114063978Y-63302314D01*
X113977388Y-63233131D01*
X113886848Y-63160653D01*
X113794060Y-63086246D01*
X113719702Y-63026517D01*
X113719702Y-62015511D01*
X113732659Y-62009602D01*
X113754908Y-61995272D01*
X113756391Y-61994225D01*
X113786544Y-61975438D01*
X113823375Y-61955791D01*
X113831511Y-61951892D01*
X113839940Y-61948356D01*
X113850059Y-61945230D01*
X113863260Y-61942486D01*
X113880938Y-61940092D01*
X113904484Y-61938019D01*
X113935293Y-61936235D01*
X113974757Y-61934712D01*
X114024269Y-61933419D01*
X114085223Y-61932326D01*
X114159011Y-61931403D01*
X114247028Y-61930619D01*
X114350665Y-61929945D01*
X114471316Y-61929350D01*
X114610374Y-61928805D01*
X114769232Y-61928279D01*
X114948089Y-61927745D01*
X115133207Y-61927206D01*
X115297145Y-61926772D01*
X115441303Y-61926509D01*
X115567079Y-61926484D01*
X115675871Y-61926765D01*
X115769077Y-61927419D01*
X115848097Y-61928514D01*
X115914328Y-61930118D01*
X115969170Y-61932297D01*
X116014021Y-61935119D01*
X116050278Y-61938651D01*
X116079341Y-61942961D01*
X116102609Y-61948117D01*
X116121479Y-61954185D01*
X116137351Y-61961233D01*
X116151622Y-61969329D01*
X116165691Y-61978540D01*
X116178158Y-61987040D01*
X116204452Y-62004176D01*
X116222037Y-62014322D01*
X116225257Y-62015511D01*
X116226334Y-62004604D01*
X116227335Y-61973411D01*
X116228235Y-61924223D01*
X116229010Y-61859333D01*
X116229637Y-61781030D01*
X116230091Y-61691607D01*
X116230349Y-61593356D01*
X116230400Y-61524445D01*
X116230180Y-61419452D01*
X116229548Y-61322610D01*
X116228549Y-61236107D01*
X116227227Y-61162132D01*
X116225626Y-61102874D01*
X116223791Y-61060520D01*
X116221765Y-61037260D01*
X116220493Y-61033378D01*
X116205591Y-61041076D01*
X116197560Y-61049074D01*
X116180434Y-61062246D01*
X116150183Y-61079485D01*
X116125622Y-61091407D01*
X116066711Y-61118045D01*
X114889845Y-61121120D01*
X113712978Y-61124195D01*
X113712978Y-61569853D01*
X113713142Y-61667670D01*
X113713611Y-61758064D01*
X113714347Y-61838630D01*
X113715316Y-61906962D01*
X113716480Y-61960656D01*
X113717803Y-61997305D01*
X113719249Y-62014504D01*
X113719702Y-62015511D01*
X113719702Y-63026517D01*
X113700722Y-63011270D01*
X113608537Y-62937090D01*
X113519204Y-62865069D01*
X113434424Y-62796569D01*
X113355898Y-62732955D01*
X113285326Y-62675588D01*
X113224409Y-62625833D01*
X113174847Y-62585052D01*
X113154178Y-62567888D01*
X113053516Y-62481596D01*
X112970259Y-62404997D01*
X112902438Y-62336183D01*
X112848089Y-62273248D01*
X112840722Y-62263867D01*
X112810117Y-62224356D01*
X112809867Y-63356116D01*
X112857844Y-63350827D01*
X112915188Y-63354130D01*
X112983463Y-63375661D01*
X113063212Y-63415635D01*
X113135495Y-63460943D01*
X113158140Y-63477161D01*
X113195696Y-63505214D01*
X113246021Y-63543430D01*
X113306973Y-63590137D01*
X113376411Y-63643661D01*
X113452194Y-63702331D01*
X113532180Y-63764475D01*
X113614228Y-63828421D01*
X113696196Y-63892495D01*
X113775943Y-63955027D01*
X113851327Y-64014343D01*
X113920207Y-64068771D01*
X113980442Y-64116639D01*
X114029889Y-64156275D01*
X114066408Y-64186006D01*
X114087858Y-64204161D01*
X114091156Y-64207220D01*
X114083149Y-64210079D01*
X114052855Y-64212293D01*
X114000556Y-64213857D01*
X113926531Y-64214767D01*
X113831063Y-64215020D01*
X113714434Y-64214613D01*
X113594445Y-64213704D01*
X113462333Y-64212382D01*
X113350594Y-64210857D01*
X113257025Y-64208881D01*
X113179419Y-64206206D01*
X113115574Y-64202582D01*
X113063283Y-64197761D01*
X113020344Y-64191494D01*
X112984551Y-64183532D01*
X112953700Y-64173627D01*
X112925586Y-64161531D01*
X112898005Y-64146993D01*
X112872966Y-64132311D01*
X112809867Y-64094314D01*
X112809867Y-65154197D01*
X112809867Y-65457034D01*
X112803617Y-65457001D01*
X112701544Y-65456195D01*
X112612633Y-65455170D01*
X112535941Y-65453900D01*
X112470527Y-65452360D01*
X112415449Y-65450524D01*
X112369765Y-65448367D01*
X112332534Y-65445863D01*
X112302813Y-65442987D01*
X112279662Y-65439713D01*
X112262139Y-65436015D01*
X112249301Y-65431869D01*
X112240208Y-65427247D01*
X112233918Y-65422126D01*
X112229488Y-65416478D01*
X112225978Y-65410279D01*
X112222445Y-65403504D01*
X112218876Y-65397508D01*
X112216300Y-65392275D01*
X112213972Y-65384099D01*
X112211878Y-65371886D01*
X112210007Y-65354541D01*
X112208347Y-65330969D01*
X112206884Y-65300077D01*
X112205608Y-65260768D01*
X112204504Y-65211950D01*
X112203561Y-65152527D01*
X112202767Y-65081404D01*
X112202109Y-64997488D01*
X112201575Y-64899683D01*
X112201153Y-64786894D01*
X112200829Y-64658029D01*
X112200592Y-64511991D01*
X112200430Y-64347686D01*
X112200330Y-64164020D01*
X112200280Y-63959897D01*
X112200267Y-63748753D01*
X112200267Y-62128400D01*
X112297054Y-62128400D01*
X112297054Y-62128400D01*
G37*
X112297054Y-62128400D02*
X112410993Y-62117535D01*
X112518616Y-62085918D01*
X112617615Y-62035015D01*
X112705684Y-61966293D01*
X112780516Y-61881219D01*
X112838384Y-61784232D01*
X112878005Y-61677964D01*
X112896573Y-61570950D01*
X112895434Y-61465300D01*
X112875930Y-61363125D01*
X112839406Y-61266534D01*
X112787205Y-61177638D01*
X112720673Y-61098546D01*
X112641152Y-61031369D01*
X112549987Y-60978217D01*
X112448523Y-60941199D01*
X112338102Y-60922427D01*
X112288206Y-60920489D01*
X112200267Y-60920489D01*
X112200267Y-60868560D01*
X112203111Y-60832253D01*
X112214911Y-60805355D01*
X112238649Y-60778249D01*
X112277031Y-60739867D01*
X114468602Y-60739867D01*
X114730739Y-60739876D01*
X114971241Y-60739908D01*
X115191048Y-60739972D01*
X115391101Y-60740076D01*
X115572344Y-60740227D01*
X115735716Y-60740434D01*
X115882160Y-60740706D01*
X116012617Y-60741050D01*
X116128029Y-60741474D01*
X116229338Y-60741987D01*
X116317484Y-60742597D01*
X116393410Y-60743312D01*
X116458057Y-60744140D01*
X116512367Y-60745089D01*
X116557280Y-60746167D01*
X116593740Y-60747383D01*
X116622687Y-60748745D01*
X116645063Y-60750261D01*
X116661809Y-60751938D01*
X116673868Y-60753786D01*
X116682180Y-60755813D01*
X116687687Y-60758025D01*
X116689537Y-60759108D01*
X116696549Y-60763271D01*
X116702996Y-60766805D01*
X116708900Y-60770635D01*
X116714286Y-60775682D01*
X116719178Y-60782871D01*
X116723598Y-60793123D01*
X116727572Y-60807364D01*
X116731121Y-60826514D01*
X116734270Y-60851499D01*
X116737042Y-60883240D01*
X116739461Y-60922662D01*
X116741551Y-60970686D01*
X116743335Y-61028237D01*
X116744837Y-61096237D01*
X116746080Y-61175610D01*
X116747089Y-61267279D01*
X116747885Y-61372166D01*
X116748494Y-61491196D01*
X116748939Y-61625290D01*
X116749243Y-61775373D01*
X116749430Y-61942367D01*
X116749524Y-62127196D01*
X116749548Y-62330783D01*
X116749525Y-62554050D01*
X116749480Y-62797922D01*
X116749437Y-63063321D01*
X116749432Y-63101704D01*
X116749389Y-63368682D01*
X116749318Y-63614002D01*
X116749213Y-63838583D01*
X116749066Y-64043345D01*
X116748869Y-64229206D01*
X116748616Y-64397088D01*
X116748300Y-64547908D01*
X116747913Y-64682587D01*
X116747447Y-64802044D01*
X116746897Y-64907199D01*
X116746253Y-64998971D01*
X116745511Y-65078279D01*
X116744661Y-65146043D01*
X116743697Y-65203182D01*
X116742611Y-65250617D01*
X116741397Y-65289266D01*
X116740047Y-65320049D01*
X116738555Y-65343885D01*
X116736911Y-65361694D01*
X116735111Y-65374395D01*
X116733145Y-65382908D01*
X116731477Y-65387266D01*
X116727906Y-65395728D01*
X116725270Y-65403497D01*
X116722634Y-65410602D01*
X116719062Y-65417073D01*
X116713621Y-65422939D01*
X116705375Y-65428229D01*
X116693390Y-65432974D01*
X116676731Y-65437202D01*
X116654463Y-65440943D01*
X116625652Y-65444227D01*
X116589363Y-65447083D01*
X116544661Y-65449540D01*
X116490611Y-65451629D01*
X116426279Y-65453378D01*
X116350730Y-65454817D01*
X116263030Y-65455976D01*
X116162243Y-65456883D01*
X116047434Y-65457569D01*
X115917670Y-65458063D01*
X115772015Y-65458395D01*
X115609535Y-65458593D01*
X115429295Y-65458687D01*
X115230360Y-65458708D01*
X115011796Y-65458685D01*
X114772668Y-65458646D01*
X114512040Y-65458622D01*
X114469889Y-65458622D01*
X114206992Y-65458636D01*
X113965732Y-65458661D01*
X113745165Y-65458671D01*
X113544352Y-65458642D01*
X113362349Y-65458548D01*
X113198216Y-65458362D01*
X113051011Y-65458059D01*
X112919792Y-65457614D01*
X112809867Y-65457034D01*
X112809867Y-65154197D01*
X112867711Y-65114407D01*
X112883479Y-65103236D01*
X112897441Y-65093166D01*
X112910784Y-65084138D01*
X112924693Y-65076097D01*
X112940356Y-65068986D01*
X112958958Y-65062747D01*
X112981686Y-65057325D01*
X113009727Y-65052662D01*
X113044267Y-65048701D01*
X113086492Y-65045385D01*
X113137589Y-65042659D01*
X113198744Y-65040464D01*
X113271144Y-65038745D01*
X113355975Y-65037444D01*
X113454422Y-65036505D01*
X113567674Y-65035870D01*
X113696916Y-65035484D01*
X113843334Y-65035288D01*
X114008116Y-65035227D01*
X114192447Y-65035243D01*
X114397513Y-65035280D01*
X114520133Y-65035289D01*
X114737082Y-65035265D01*
X114932642Y-65035231D01*
X115107999Y-65035243D01*
X115264341Y-65035358D01*
X115402857Y-65035630D01*
X115524734Y-65036118D01*
X115631160Y-65036876D01*
X115723322Y-65037962D01*
X115802409Y-65039431D01*
X115869608Y-65041340D01*
X115926107Y-65043744D01*
X115973093Y-65046701D01*
X116011755Y-65050266D01*
X116043280Y-65054495D01*
X116068855Y-65059446D01*
X116089670Y-65065173D01*
X116106911Y-65071733D01*
X116121765Y-65079183D01*
X116135422Y-65087579D01*
X116149069Y-65096976D01*
X116163893Y-65107432D01*
X116172783Y-65113523D01*
X116230400Y-65152296D01*
X116230400Y-64620732D01*
X116230365Y-64497483D01*
X116230215Y-64394987D01*
X116229878Y-64311420D01*
X116229286Y-64244956D01*
X116228367Y-64193771D01*
X116227051Y-64156041D01*
X116225269Y-64129940D01*
X116222951Y-64113644D01*
X116220026Y-64105328D01*
X116216424Y-64103168D01*
X116212075Y-64105339D01*
X116210645Y-64106535D01*
X116173573Y-64131685D01*
X116120772Y-64157583D01*
X116058770Y-64181192D01*
X116032357Y-64189461D01*
X116014416Y-64194078D01*
X115993355Y-64197979D01*
X115967089Y-64201248D01*
X115933532Y-64203966D01*
X115890599Y-64206215D01*
X115836204Y-64208077D01*
X115768262Y-64209636D01*
X115684688Y-64210972D01*
X115583395Y-64212169D01*
X115462300Y-64213308D01*
X115417600Y-64213685D01*
X115292449Y-64214702D01*
X115188082Y-64215460D01*
X115102707Y-64215903D01*
X115034533Y-64215970D01*
X114981765Y-64215605D01*
X114942614Y-64214748D01*
X114915285Y-64213341D01*
X114897986Y-64211325D01*
X114888926Y-64208643D01*
X114886312Y-64205236D01*
X114888351Y-64201044D01*
X114892667Y-64196571D01*
X114905602Y-64186216D01*
X114934676Y-64164158D01*
X114977759Y-64131957D01*
X115032718Y-64091174D01*
X115097423Y-64043370D01*
X115169742Y-63990105D01*
X115247544Y-63932940D01*
X115328698Y-63873437D01*
X115411072Y-63813155D01*
X115492536Y-63753655D01*
X115570957Y-63696498D01*
X115644204Y-63643245D01*
X115710147Y-63595457D01*
X115766654Y-63554693D01*
X115811593Y-63522516D01*
X115842834Y-63500485D01*
X115849466Y-63495917D01*
X115886369Y-63472996D01*
X115934359Y-63446188D01*
X115983897Y-63420789D01*
X115990577Y-63417568D01*
X116038772Y-63395890D01*
X116076334Y-63383304D01*
X116112160Y-63377574D01*
X116154200Y-63376456D01*
X116230400Y-63377090D01*
X116230400Y-62222651D01*
X116136669Y-62313815D01*
X116086775Y-62360612D01*
X116030295Y-62410899D01*
X115976026Y-62456944D01*
X115950673Y-62477369D01*
X115911128Y-62507807D01*
X115857916Y-62547862D01*
X115792667Y-62596361D01*
X115717011Y-62652135D01*
X115632577Y-62714011D01*
X115540994Y-62780819D01*
X115443892Y-62851387D01*
X115342901Y-62924545D01*
X115239650Y-62999121D01*
X115135768Y-63073944D01*
X115032885Y-63147843D01*
X114932631Y-63219646D01*
X114836636Y-63288184D01*
X114746527Y-63352284D01*
X114663936Y-63410775D01*
X114590492Y-63462486D01*
X114527824Y-63506247D01*
X114477561Y-63540885D01*
X114441334Y-63565230D01*
X114420771Y-63578111D01*
X114416668Y-63579869D01*
X114405342Y-63571910D01*
X114378162Y-63551115D01*
X114336829Y-63518847D01*
X114283044Y-63476470D01*
X114218506Y-63425347D01*
X114144918Y-63366841D01*
X114063978Y-63302314D01*
X113977388Y-63233131D01*
X113886848Y-63160653D01*
X113794060Y-63086246D01*
X113719702Y-63026517D01*
X113719702Y-62015511D01*
X113732659Y-62009602D01*
X113754908Y-61995272D01*
X113756391Y-61994225D01*
X113786544Y-61975438D01*
X113823375Y-61955791D01*
X113831511Y-61951892D01*
X113839940Y-61948356D01*
X113850059Y-61945230D01*
X113863260Y-61942486D01*
X113880938Y-61940092D01*
X113904484Y-61938019D01*
X113935293Y-61936235D01*
X113974757Y-61934712D01*
X114024269Y-61933419D01*
X114085223Y-61932326D01*
X114159011Y-61931403D01*
X114247028Y-61930619D01*
X114350665Y-61929945D01*
X114471316Y-61929350D01*
X114610374Y-61928805D01*
X114769232Y-61928279D01*
X114948089Y-61927745D01*
X115133207Y-61927206D01*
X115297145Y-61926772D01*
X115441303Y-61926509D01*
X115567079Y-61926484D01*
X115675871Y-61926765D01*
X115769077Y-61927419D01*
X115848097Y-61928514D01*
X115914328Y-61930118D01*
X115969170Y-61932297D01*
X116014021Y-61935119D01*
X116050278Y-61938651D01*
X116079341Y-61942961D01*
X116102609Y-61948117D01*
X116121479Y-61954185D01*
X116137351Y-61961233D01*
X116151622Y-61969329D01*
X116165691Y-61978540D01*
X116178158Y-61987040D01*
X116204452Y-62004176D01*
X116222037Y-62014322D01*
X116225257Y-62015511D01*
X116226334Y-62004604D01*
X116227335Y-61973411D01*
X116228235Y-61924223D01*
X116229010Y-61859333D01*
X116229637Y-61781030D01*
X116230091Y-61691607D01*
X116230349Y-61593356D01*
X116230400Y-61524445D01*
X116230180Y-61419452D01*
X116229548Y-61322610D01*
X116228549Y-61236107D01*
X116227227Y-61162132D01*
X116225626Y-61102874D01*
X116223791Y-61060520D01*
X116221765Y-61037260D01*
X116220493Y-61033378D01*
X116205591Y-61041076D01*
X116197560Y-61049074D01*
X116180434Y-61062246D01*
X116150183Y-61079485D01*
X116125622Y-61091407D01*
X116066711Y-61118045D01*
X114889845Y-61121120D01*
X113712978Y-61124195D01*
X113712978Y-61569853D01*
X113713142Y-61667670D01*
X113713611Y-61758064D01*
X113714347Y-61838630D01*
X113715316Y-61906962D01*
X113716480Y-61960656D01*
X113717803Y-61997305D01*
X113719249Y-62014504D01*
X113719702Y-62015511D01*
X113719702Y-63026517D01*
X113700722Y-63011270D01*
X113608537Y-62937090D01*
X113519204Y-62865069D01*
X113434424Y-62796569D01*
X113355898Y-62732955D01*
X113285326Y-62675588D01*
X113224409Y-62625833D01*
X113174847Y-62585052D01*
X113154178Y-62567888D01*
X113053516Y-62481596D01*
X112970259Y-62404997D01*
X112902438Y-62336183D01*
X112848089Y-62273248D01*
X112840722Y-62263867D01*
X112810117Y-62224356D01*
X112809867Y-63356116D01*
X112857844Y-63350827D01*
X112915188Y-63354130D01*
X112983463Y-63375661D01*
X113063212Y-63415635D01*
X113135495Y-63460943D01*
X113158140Y-63477161D01*
X113195696Y-63505214D01*
X113246021Y-63543430D01*
X113306973Y-63590137D01*
X113376411Y-63643661D01*
X113452194Y-63702331D01*
X113532180Y-63764475D01*
X113614228Y-63828421D01*
X113696196Y-63892495D01*
X113775943Y-63955027D01*
X113851327Y-64014343D01*
X113920207Y-64068771D01*
X113980442Y-64116639D01*
X114029889Y-64156275D01*
X114066408Y-64186006D01*
X114087858Y-64204161D01*
X114091156Y-64207220D01*
X114083149Y-64210079D01*
X114052855Y-64212293D01*
X114000556Y-64213857D01*
X113926531Y-64214767D01*
X113831063Y-64215020D01*
X113714434Y-64214613D01*
X113594445Y-64213704D01*
X113462333Y-64212382D01*
X113350594Y-64210857D01*
X113257025Y-64208881D01*
X113179419Y-64206206D01*
X113115574Y-64202582D01*
X113063283Y-64197761D01*
X113020344Y-64191494D01*
X112984551Y-64183532D01*
X112953700Y-64173627D01*
X112925586Y-64161531D01*
X112898005Y-64146993D01*
X112872966Y-64132311D01*
X112809867Y-64094314D01*
X112809867Y-65154197D01*
X112809867Y-65457034D01*
X112803617Y-65457001D01*
X112701544Y-65456195D01*
X112612633Y-65455170D01*
X112535941Y-65453900D01*
X112470527Y-65452360D01*
X112415449Y-65450524D01*
X112369765Y-65448367D01*
X112332534Y-65445863D01*
X112302813Y-65442987D01*
X112279662Y-65439713D01*
X112262139Y-65436015D01*
X112249301Y-65431869D01*
X112240208Y-65427247D01*
X112233918Y-65422126D01*
X112229488Y-65416478D01*
X112225978Y-65410279D01*
X112222445Y-65403504D01*
X112218876Y-65397508D01*
X112216300Y-65392275D01*
X112213972Y-65384099D01*
X112211878Y-65371886D01*
X112210007Y-65354541D01*
X112208347Y-65330969D01*
X112206884Y-65300077D01*
X112205608Y-65260768D01*
X112204504Y-65211950D01*
X112203561Y-65152527D01*
X112202767Y-65081404D01*
X112202109Y-64997488D01*
X112201575Y-64899683D01*
X112201153Y-64786894D01*
X112200829Y-64658029D01*
X112200592Y-64511991D01*
X112200430Y-64347686D01*
X112200330Y-64164020D01*
X112200280Y-63959897D01*
X112200267Y-63748753D01*
X112200267Y-62128400D01*
X112297054Y-62128400D01*
D13*
X126298000Y-80391000D02*
X126298000Y-81721000D01*
X126298000Y-81721000D02*
X124968000Y-81721000D01*
X123698000Y-81721000D02*
X121098000Y-81721000D01*
X121098000Y-79061000D02*
X121098000Y-81721000D01*
X123698000Y-79061000D02*
X121098000Y-79061000D01*
X123698000Y-79061000D02*
X123698000Y-81721000D01*
X130175000Y-55475000D02*
X130175000Y-54705000D01*
X130175000Y-47395000D02*
X130175000Y-48165000D01*
X131545000Y-54705000D02*
X131545000Y-48165000D01*
X128805000Y-54705000D02*
X131545000Y-54705000D01*
X128805000Y-48165000D02*
X128805000Y-54705000D01*
X131545000Y-48165000D02*
X128805000Y-48165000D01*
X135890000Y-47395000D02*
X135890000Y-48165000D01*
X135890000Y-55475000D02*
X135890000Y-54705000D01*
X134520000Y-48165000D02*
X134520000Y-54705000D01*
X137260000Y-48165000D02*
X134520000Y-48165000D01*
X137260000Y-54705000D02*
X137260000Y-48165000D01*
X134520000Y-54705000D02*
X137260000Y-54705000D01*
X123825000Y-47395000D02*
X123825000Y-48165000D01*
X123825000Y-55475000D02*
X123825000Y-54705000D01*
X122455000Y-48165000D02*
X122455000Y-54705000D01*
X125195000Y-48165000D02*
X122455000Y-48165000D01*
X125195000Y-54705000D02*
X125195000Y-48165000D01*
X122455000Y-54705000D02*
X125195000Y-54705000D01*
X121400000Y-69321001D02*
G75*
G03X121400000Y-69321001I-3270000J0D01*
G01*
X118130000Y-72551001D02*
X118130000Y-66091001D01*
X118090000Y-72551001D02*
X118090000Y-66091001D01*
X118050000Y-72551001D02*
X118050000Y-66091001D01*
X118010000Y-72549001D02*
X118010000Y-66093001D01*
X117970000Y-72548001D02*
X117970000Y-66094001D01*
X117930000Y-72545001D02*
X117930000Y-66097001D01*
X117890000Y-72543001D02*
X117890000Y-70361001D01*
X117890000Y-68281001D02*
X117890000Y-66099001D01*
X117850000Y-72539001D02*
X117850000Y-70361001D01*
X117850000Y-68281001D02*
X117850000Y-66103001D01*
X117810000Y-72536001D02*
X117810000Y-70361001D01*
X117810000Y-68281001D02*
X117810000Y-66106001D01*
X117770000Y-72532001D02*
X117770000Y-70361001D01*
X117770000Y-68281001D02*
X117770000Y-66110001D01*
X117730000Y-72527001D02*
X117730000Y-70361001D01*
X117730000Y-68281001D02*
X117730000Y-66115001D01*
X117690000Y-72522001D02*
X117690000Y-70361001D01*
X117690000Y-68281001D02*
X117690000Y-66120001D01*
X117650000Y-72516001D02*
X117650000Y-70361001D01*
X117650000Y-68281001D02*
X117650000Y-66126001D01*
X117610000Y-72510001D02*
X117610000Y-70361001D01*
X117610000Y-68281001D02*
X117610000Y-66132001D01*
X117570000Y-72503001D02*
X117570000Y-70361001D01*
X117570000Y-68281001D02*
X117570000Y-66139001D01*
X117530000Y-72496001D02*
X117530000Y-70361001D01*
X117530000Y-68281001D02*
X117530000Y-66146001D01*
X117490000Y-72488001D02*
X117490000Y-70361001D01*
X117490000Y-68281001D02*
X117490000Y-66154001D01*
X117450000Y-72480001D02*
X117450000Y-70361001D01*
X117450000Y-68281001D02*
X117450000Y-66162001D01*
X117409000Y-72471001D02*
X117409000Y-70361001D01*
X117409000Y-68281001D02*
X117409000Y-66171001D01*
X117369000Y-72462001D02*
X117369000Y-70361001D01*
X117369000Y-68281001D02*
X117369000Y-66180001D01*
X117329000Y-72452001D02*
X117329000Y-70361001D01*
X117329000Y-68281001D02*
X117329000Y-66190001D01*
X117289000Y-72442001D02*
X117289000Y-70361001D01*
X117289000Y-68281001D02*
X117289000Y-66200001D01*
X117249000Y-72431001D02*
X117249000Y-70361001D01*
X117249000Y-68281001D02*
X117249000Y-66211001D01*
X117209000Y-72419001D02*
X117209000Y-70361001D01*
X117209000Y-68281001D02*
X117209000Y-66223001D01*
X117169000Y-72407001D02*
X117169000Y-70361001D01*
X117169000Y-68281001D02*
X117169000Y-66235001D01*
X117129000Y-72395001D02*
X117129000Y-70361001D01*
X117129000Y-68281001D02*
X117129000Y-66247001D01*
X117089000Y-72382001D02*
X117089000Y-70361001D01*
X117089000Y-68281001D02*
X117089000Y-66260001D01*
X117049000Y-72368001D02*
X117049000Y-70361001D01*
X117049000Y-68281001D02*
X117049000Y-66274001D01*
X117009000Y-72354001D02*
X117009000Y-70361001D01*
X117009000Y-68281001D02*
X117009000Y-66288001D01*
X116969000Y-72339001D02*
X116969000Y-70361001D01*
X116969000Y-68281001D02*
X116969000Y-66303001D01*
X116929000Y-72323001D02*
X116929000Y-70361001D01*
X116929000Y-68281001D02*
X116929000Y-66319001D01*
X116889000Y-72307001D02*
X116889000Y-70361001D01*
X116889000Y-68281001D02*
X116889000Y-66335001D01*
X116849000Y-72291001D02*
X116849000Y-70361001D01*
X116849000Y-68281001D02*
X116849000Y-66351001D01*
X116809000Y-72273001D02*
X116809000Y-70361001D01*
X116809000Y-68281001D02*
X116809000Y-66369001D01*
X116769000Y-72255001D02*
X116769000Y-70361001D01*
X116769000Y-68281001D02*
X116769000Y-66387001D01*
X116729000Y-72237001D02*
X116729000Y-70361001D01*
X116729000Y-68281001D02*
X116729000Y-66405001D01*
X116689000Y-72217001D02*
X116689000Y-70361001D01*
X116689000Y-68281001D02*
X116689000Y-66425001D01*
X116649000Y-72197001D02*
X116649000Y-70361001D01*
X116649000Y-68281001D02*
X116649000Y-66445001D01*
X116609000Y-72177001D02*
X116609000Y-70361001D01*
X116609000Y-68281001D02*
X116609000Y-66465001D01*
X116569000Y-72155001D02*
X116569000Y-70361001D01*
X116569000Y-68281001D02*
X116569000Y-66487001D01*
X116529000Y-72133001D02*
X116529000Y-70361001D01*
X116529000Y-68281001D02*
X116529000Y-66509001D01*
X116489000Y-72111001D02*
X116489000Y-70361001D01*
X116489000Y-68281001D02*
X116489000Y-66531001D01*
X116449000Y-72087001D02*
X116449000Y-70361001D01*
X116449000Y-68281001D02*
X116449000Y-66555001D01*
X116409000Y-72063001D02*
X116409000Y-70361001D01*
X116409000Y-68281001D02*
X116409000Y-66579001D01*
X116369000Y-72037001D02*
X116369000Y-70361001D01*
X116369000Y-68281001D02*
X116369000Y-66605001D01*
X116329000Y-72011001D02*
X116329000Y-70361001D01*
X116329000Y-68281001D02*
X116329000Y-66631001D01*
X116289000Y-71985001D02*
X116289000Y-70361001D01*
X116289000Y-68281001D02*
X116289000Y-66657001D01*
X116249000Y-71957001D02*
X116249000Y-70361001D01*
X116249000Y-68281001D02*
X116249000Y-66685001D01*
X116209000Y-71928001D02*
X116209000Y-70361001D01*
X116209000Y-68281001D02*
X116209000Y-66714001D01*
X116169000Y-71899001D02*
X116169000Y-70361001D01*
X116169000Y-68281001D02*
X116169000Y-66743001D01*
X116129000Y-71869001D02*
X116129000Y-70361001D01*
X116129000Y-68281001D02*
X116129000Y-66773001D01*
X116089000Y-71837001D02*
X116089000Y-70361001D01*
X116089000Y-68281001D02*
X116089000Y-66805001D01*
X116049000Y-71805001D02*
X116049000Y-70361001D01*
X116049000Y-68281001D02*
X116049000Y-66837001D01*
X116009000Y-71771001D02*
X116009000Y-70361001D01*
X116009000Y-68281001D02*
X116009000Y-66871001D01*
X115969000Y-71737001D02*
X115969000Y-70361001D01*
X115969000Y-68281001D02*
X115969000Y-66905001D01*
X115929000Y-71701001D02*
X115929000Y-70361001D01*
X115929000Y-68281001D02*
X115929000Y-66941001D01*
X115889000Y-71664001D02*
X115889000Y-70361001D01*
X115889000Y-68281001D02*
X115889000Y-66978001D01*
X115849000Y-71626001D02*
X115849000Y-70361001D01*
X115849000Y-68281001D02*
X115849000Y-67016001D01*
X115809000Y-71586001D02*
X115809000Y-67056001D01*
X115769000Y-71545001D02*
X115769000Y-67097001D01*
X115729000Y-71503001D02*
X115729000Y-67139001D01*
X115689000Y-71458001D02*
X115689000Y-67184001D01*
X115649000Y-71413001D02*
X115649000Y-67229001D01*
X115609000Y-71365001D02*
X115609000Y-67277001D01*
X115569000Y-71316001D02*
X115569000Y-67326001D01*
X115529000Y-71265001D02*
X115529000Y-67377001D01*
X115489000Y-71211001D02*
X115489000Y-67431001D01*
X115449000Y-71155001D02*
X115449000Y-67487001D01*
X115409000Y-71097001D02*
X115409000Y-67545001D01*
X115369000Y-71035001D02*
X115369000Y-67607001D01*
X115329000Y-70971001D02*
X115329000Y-67671001D01*
X115289000Y-70902001D02*
X115289000Y-67740001D01*
X115249000Y-70830001D02*
X115249000Y-67812001D01*
X115209000Y-70753001D02*
X115209000Y-67889001D01*
X115169000Y-70671001D02*
X115169000Y-67971001D01*
X115129000Y-70583001D02*
X115129000Y-68059001D01*
X115089000Y-70486001D02*
X115089000Y-68156001D01*
X115049000Y-70380001D02*
X115049000Y-68262001D01*
X115009000Y-70261001D02*
X115009000Y-68381001D01*
X114969000Y-70123001D02*
X114969000Y-68519001D01*
X114929000Y-69954001D02*
X114929000Y-68688001D01*
X114889000Y-69723001D02*
X114889000Y-68919001D01*
X121630241Y-71160001D02*
X121000241Y-71160001D01*
X121315241Y-71475001D02*
X121315241Y-70845001D01*
X130790000Y-36555000D02*
X130790000Y-39645000D01*
X135850000Y-38100000D02*
G75*
G03X135850000Y-38100000I-2500000J0D01*
G01*
X136340000Y-38100462D02*
G75*
G03X130790000Y-36555170I-2990000J462D01*
G01*
X136340000Y-38099538D02*
G75*
G02X130790000Y-39644830I-2990000J-462D01*
G01*
X128720000Y-38099538D02*
G75*
G02X123170000Y-39644830I-2990000J-462D01*
G01*
X128720000Y-38100462D02*
G75*
G03X123170000Y-36555170I-2990000J462D01*
G01*
X128230000Y-38100000D02*
G75*
G03X128230000Y-38100000I-2500000J0D01*
G01*
X123170000Y-36555000D02*
X123170000Y-39645000D01*
X131810000Y-64710000D02*
G75*
G02X129810000Y-64710000I-1000000J0D01*
G01*
X129810000Y-64710000D02*
X128160000Y-64710000D01*
X128160000Y-64710000D02*
X128160000Y-74990000D01*
X128160000Y-74990000D02*
X133460000Y-74990000D01*
X133460000Y-74990000D02*
X133460000Y-64710000D01*
X133460000Y-64710000D02*
X131810000Y-64710000D01*
X143304000Y-65063000D02*
X143304000Y-54063000D01*
X143304000Y-54063000D02*
X149304000Y-54063000D01*
X149304000Y-54063000D02*
X149304000Y-65063000D01*
X149304000Y-65063000D02*
X143304000Y-65063000D01*
X143304000Y-61563000D02*
X149304000Y-61563000D01*
D11*
X118467285Y-80319571D02*
X118610142Y-80367190D01*
X118657761Y-80414809D01*
X118705380Y-80510047D01*
X118705380Y-80652904D01*
X118657761Y-80748142D01*
X118610142Y-80795761D01*
X118514904Y-80843380D01*
X118133952Y-80843380D01*
X118133952Y-79843380D01*
X118467285Y-79843380D01*
X118562523Y-79891000D01*
X118610142Y-79938619D01*
X118657761Y-80033857D01*
X118657761Y-80129095D01*
X118610142Y-80224333D01*
X118562523Y-80271952D01*
X118467285Y-80319571D01*
X118133952Y-80319571D01*
X118991095Y-79843380D02*
X119562523Y-79843380D01*
X119276809Y-80843380D02*
X119276809Y-79843380D01*
X120419666Y-80843380D02*
X119848238Y-80843380D01*
X120133952Y-80843380D02*
X120133952Y-79843380D01*
X120038714Y-79986238D01*
X119943476Y-80081476D01*
X119848238Y-80129095D01*
X128087380Y-51601666D02*
X127611190Y-51935000D01*
X128087380Y-52173095D02*
X127087380Y-52173095D01*
X127087380Y-51792142D01*
X127135000Y-51696904D01*
X127182619Y-51649285D01*
X127277857Y-51601666D01*
X127420714Y-51601666D01*
X127515952Y-51649285D01*
X127563571Y-51696904D01*
X127611190Y-51792142D01*
X127611190Y-52173095D01*
X127087380Y-51268333D02*
X127087380Y-50649285D01*
X127468333Y-50982619D01*
X127468333Y-50839761D01*
X127515952Y-50744523D01*
X127563571Y-50696904D01*
X127658809Y-50649285D01*
X127896904Y-50649285D01*
X127992142Y-50696904D01*
X128039761Y-50744523D01*
X128087380Y-50839761D01*
X128087380Y-51125476D01*
X128039761Y-51220714D01*
X127992142Y-51268333D01*
X133972380Y-51601666D02*
X133496190Y-51935000D01*
X133972380Y-52173095D02*
X132972380Y-52173095D01*
X132972380Y-51792142D01*
X133020000Y-51696904D01*
X133067619Y-51649285D01*
X133162857Y-51601666D01*
X133305714Y-51601666D01*
X133400952Y-51649285D01*
X133448571Y-51696904D01*
X133496190Y-51792142D01*
X133496190Y-52173095D01*
X133067619Y-51220714D02*
X133020000Y-51173095D01*
X132972380Y-51077857D01*
X132972380Y-50839761D01*
X133020000Y-50744523D01*
X133067619Y-50696904D01*
X133162857Y-50649285D01*
X133258095Y-50649285D01*
X133400952Y-50696904D01*
X133972380Y-51268333D01*
X133972380Y-50649285D01*
X121907380Y-51601666D02*
X121431190Y-51935000D01*
X121907380Y-52173095D02*
X120907380Y-52173095D01*
X120907380Y-51792142D01*
X120955000Y-51696904D01*
X121002619Y-51649285D01*
X121097857Y-51601666D01*
X121240714Y-51601666D01*
X121335952Y-51649285D01*
X121383571Y-51696904D01*
X121431190Y-51792142D01*
X121431190Y-52173095D01*
X121907380Y-50649285D02*
X121907380Y-51220714D01*
X121907380Y-50935000D02*
X120907380Y-50935000D01*
X121050238Y-51030238D01*
X121145476Y-51125476D01*
X121193095Y-51220714D01*
X117963333Y-74078143D02*
X117915714Y-74125762D01*
X117772857Y-74173381D01*
X117677619Y-74173381D01*
X117534761Y-74125762D01*
X117439523Y-74030524D01*
X117391904Y-73935286D01*
X117344285Y-73744810D01*
X117344285Y-73601953D01*
X117391904Y-73411477D01*
X117439523Y-73316239D01*
X117534761Y-73221001D01*
X117677619Y-73173381D01*
X117772857Y-73173381D01*
X117915714Y-73221001D01*
X117963333Y-73268620D01*
X118915714Y-74173381D02*
X118344285Y-74173381D01*
X118630000Y-74173381D02*
X118630000Y-73173381D01*
X118534761Y-73316239D01*
X118439523Y-73411477D01*
X118344285Y-73459096D01*
X132611904Y-34592380D02*
X132611904Y-33592380D01*
X132850000Y-33592380D01*
X132992857Y-33640000D01*
X133088095Y-33735238D01*
X133135714Y-33830476D01*
X133183333Y-34020952D01*
X133183333Y-34163809D01*
X133135714Y-34354285D01*
X133088095Y-34449523D01*
X132992857Y-34544761D01*
X132850000Y-34592380D01*
X132611904Y-34592380D01*
X134135714Y-34592380D02*
X133564285Y-34592380D01*
X133850000Y-34592380D02*
X133850000Y-33592380D01*
X133754761Y-33735238D01*
X133659523Y-33830476D01*
X133564285Y-33878095D01*
X124991904Y-34592380D02*
X124991904Y-33592380D01*
X125230000Y-33592380D01*
X125372857Y-33640000D01*
X125468095Y-33735238D01*
X125515714Y-33830476D01*
X125563333Y-34020952D01*
X125563333Y-34163809D01*
X125515714Y-34354285D01*
X125468095Y-34449523D01*
X125372857Y-34544761D01*
X125230000Y-34592380D01*
X124991904Y-34592380D01*
X125944285Y-33687619D02*
X125991904Y-33640000D01*
X126087142Y-33592380D01*
X126325238Y-33592380D01*
X126420476Y-33640000D01*
X126468095Y-33687619D01*
X126515714Y-33782857D01*
X126515714Y-33878095D01*
X126468095Y-34020952D01*
X125896666Y-34592380D01*
X126515714Y-34592380D01*
X129833809Y-64162380D02*
X129833809Y-63162380D01*
X130881428Y-64067142D02*
X130833809Y-64114761D01*
X130690952Y-64162380D01*
X130595714Y-64162380D01*
X130452857Y-64114761D01*
X130357619Y-64019523D01*
X130310000Y-63924285D01*
X130262380Y-63733809D01*
X130262380Y-63590952D01*
X130310000Y-63400476D01*
X130357619Y-63305238D01*
X130452857Y-63210000D01*
X130595714Y-63162380D01*
X130690952Y-63162380D01*
X130833809Y-63210000D01*
X130881428Y-63257619D01*
X131833809Y-64162380D02*
X131262380Y-64162380D01*
X131548095Y-64162380D02*
X131548095Y-63162380D01*
X131452857Y-63305238D01*
X131357619Y-63400476D01*
X131262380Y-63448095D01*
X144970666Y-52855761D02*
X145113523Y-52903380D01*
X145351619Y-52903380D01*
X145446857Y-52855761D01*
X145494476Y-52808142D01*
X145542095Y-52712904D01*
X145542095Y-52617666D01*
X145494476Y-52522428D01*
X145446857Y-52474809D01*
X145351619Y-52427190D01*
X145161142Y-52379571D01*
X145065904Y-52331952D01*
X145018285Y-52284333D01*
X144970666Y-52189095D01*
X144970666Y-52093857D01*
X145018285Y-51998619D01*
X145065904Y-51951000D01*
X145161142Y-51903380D01*
X145399238Y-51903380D01*
X145542095Y-51951000D01*
X145875428Y-51903380D02*
X146113523Y-52903380D01*
X146304000Y-52189095D01*
X146494476Y-52903380D01*
X146732571Y-51903380D01*
X147637333Y-52903380D02*
X147065904Y-52903380D01*
X147351619Y-52903380D02*
X147351619Y-51903380D01*
X147256380Y-52046238D01*
X147161142Y-52141476D01*
X147065904Y-52189095D01*
X111506095Y-77724380D02*
X111506095Y-76724380D01*
X111506095Y-77200571D02*
X112077523Y-77200571D01*
X112077523Y-77724380D02*
X112077523Y-76724380D01*
X113077523Y-77724380D02*
X112506095Y-77724380D01*
X112791809Y-77724380D02*
X112791809Y-76724380D01*
X112696571Y-76867238D01*
X112601333Y-76962476D01*
X112506095Y-77010095D01*
X145669095Y-77724380D02*
X145669095Y-76724380D01*
X145669095Y-77200571D02*
X146240523Y-77200571D01*
X146240523Y-77724380D02*
X146240523Y-76724380D01*
X146669095Y-76819619D02*
X146716714Y-76772000D01*
X146811952Y-76724380D01*
X147050047Y-76724380D01*
X147145285Y-76772000D01*
X147192904Y-76819619D01*
X147240523Y-76914857D01*
X147240523Y-77010095D01*
X147192904Y-77152952D01*
X146621476Y-77724380D01*
X147240523Y-77724380D01*
X111633095Y-43815380D02*
X111633095Y-42815380D01*
X111633095Y-43291571D02*
X112204523Y-43291571D01*
X112204523Y-43815380D02*
X112204523Y-42815380D01*
X112585476Y-42815380D02*
X113204523Y-42815380D01*
X112871190Y-43196333D01*
X113014047Y-43196333D01*
X113109285Y-43243952D01*
X113156904Y-43291571D01*
X113204523Y-43386809D01*
X113204523Y-43624904D01*
X113156904Y-43720142D01*
X113109285Y-43767761D01*
X113014047Y-43815380D01*
X112728333Y-43815380D01*
X112633095Y-43767761D01*
X112585476Y-43720142D01*
X145669095Y-43688380D02*
X145669095Y-42688380D01*
X145669095Y-43164571D02*
X146240523Y-43164571D01*
X146240523Y-43688380D02*
X146240523Y-42688380D01*
X147145285Y-43021714D02*
X147145285Y-43688380D01*
X146907190Y-42640761D02*
X146669095Y-43355047D01*
X147288142Y-43355047D01*
M02*
