G04 #@! TF.GenerationSoftware,KiCad,Pcbnew,(5.1.0)-1*
G04 #@! TF.CreationDate,2019-06-14T11:01:10+01:00*
G04 #@! TF.ProjectId,Fibre Tester,46696272-6520-4546-9573-7465722e6b69,rev?*
G04 #@! TF.SameCoordinates,Original*
G04 #@! TF.FileFunction,Copper,L2,Bot*
G04 #@! TF.FilePolarity,Positive*
%FSLAX46Y46*%
G04 Gerber Fmt 4.6, Leading zero omitted, Abs format (unit mm)*
G04 Created by KiCad (PCBNEW (5.1.0)-1) date 2019-06-14 11:01:10*
%MOMM*%
%LPD*%
G04 APERTURE LIST*
%ADD10O,1.700000X1.700000*%
%ADD11R,1.700000X1.700000*%
%ADD12O,1.600000X1.600000*%
%ADD13C,1.600000*%
%ADD14R,1.600000X1.600000*%
%ADD15R,1.800000X1.800000*%
%ADD16C,1.800000*%
%ADD17O,5.000000X2.000000*%
%ADD18C,0.250000*%
%ADD19C,0.254000*%
G04 APERTURE END LIST*
D10*
X122428000Y-80391000D03*
D11*
X124968000Y-80391000D03*
D12*
X130175000Y-56515000D03*
D13*
X130175000Y-46355000D03*
D12*
X135890000Y-46355000D03*
D13*
X135890000Y-56515000D03*
D12*
X123825000Y-46355000D03*
D13*
X123825000Y-56515000D03*
D14*
X119380000Y-69321001D03*
D13*
X116880000Y-69321001D03*
D15*
X132080000Y-38100000D03*
D16*
X134620000Y-38100000D03*
X127000000Y-38100000D03*
D15*
X124460000Y-38100000D03*
D14*
X127000000Y-66040000D03*
D12*
X134620000Y-73660000D03*
X127000000Y-68580000D03*
X134620000Y-71120000D03*
X127000000Y-71120000D03*
X134620000Y-68580000D03*
X127000000Y-73660000D03*
X134620000Y-66040000D03*
D17*
X146304000Y-63563000D03*
X146304000Y-59563000D03*
X146304000Y-55563000D03*
D18*
X127000000Y-64990000D02*
X127000000Y-66040000D01*
X122699999Y-60689999D02*
X127000000Y-64990000D01*
X122699999Y-41010001D02*
X122699999Y-60689999D01*
X124460000Y-39250000D02*
X122699999Y-41010001D01*
X124460000Y-38100000D02*
X124460000Y-39250000D01*
X122428000Y-80391000D02*
X121031000Y-80391000D01*
X116880000Y-76240000D02*
X116880000Y-69321001D01*
X121031000Y-80391000D02*
X116880000Y-76240000D01*
X117679999Y-68521002D02*
X117679999Y-65708001D01*
X116880000Y-69321001D02*
X117679999Y-68521002D01*
X116880000Y-68189631D02*
X122682000Y-62387631D01*
X116880000Y-69321001D02*
X116880000Y-68189631D01*
X122682000Y-60707998D02*
X122699999Y-60689999D01*
X122682000Y-62387631D02*
X122682000Y-60707998D01*
X145820000Y-59500000D02*
X147320000Y-59500000D01*
X134112000Y-80391000D02*
X124968000Y-80391000D01*
X142113000Y-72390000D02*
X134112000Y-80391000D01*
X142113000Y-61004000D02*
X142113000Y-72390000D01*
X143554000Y-59563000D02*
X142113000Y-61004000D01*
X146304000Y-59563000D02*
X143554000Y-59563000D01*
X126258999Y-69321001D02*
X127000000Y-68580000D01*
X119380000Y-69321001D02*
X126258999Y-69321001D01*
X132080000Y-68580000D02*
X134620000Y-71120000D01*
X127000000Y-68580000D02*
X132080000Y-68580000D01*
X132080000Y-42545000D02*
X132080000Y-38100000D01*
X135890000Y-46355000D02*
X132080000Y-42545000D01*
X145820000Y-55500000D02*
X147320000Y-55500000D01*
X134620000Y-38100000D02*
X134620000Y-40894000D01*
X146304000Y-52578000D02*
X146304000Y-55563000D01*
X134620000Y-40894000D02*
X146304000Y-52578000D01*
X127000000Y-43180000D02*
X127000000Y-38100000D01*
X130175000Y-46355000D02*
X127000000Y-43180000D01*
X134758630Y-56515000D02*
X130175000Y-56515000D01*
X135890000Y-56515000D02*
X134758630Y-56515000D01*
X130175000Y-52705000D02*
X123825000Y-46355000D01*
X130175000Y-56515000D02*
X130175000Y-52705000D01*
D19*
G36*
X149280607Y-54857120D02*
G01*
X149170031Y-54650248D01*
X148965714Y-54401286D01*
X148716752Y-54196969D01*
X148432715Y-54045148D01*
X148124516Y-53951657D01*
X147884322Y-53928000D01*
X147064000Y-53928000D01*
X147064000Y-52615322D01*
X147067676Y-52577999D01*
X147064000Y-52540676D01*
X147064000Y-52540667D01*
X147053003Y-52429014D01*
X147009546Y-52285753D01*
X146938974Y-52153724D01*
X146844001Y-52037999D01*
X146815004Y-52014202D01*
X141351146Y-46550344D01*
X144546000Y-46550344D01*
X144546000Y-46921656D01*
X144618439Y-47285834D01*
X144760534Y-47628882D01*
X144966825Y-47937618D01*
X145229382Y-48200175D01*
X145538118Y-48406466D01*
X145881166Y-48548561D01*
X146245344Y-48621000D01*
X146616656Y-48621000D01*
X146980834Y-48548561D01*
X147323882Y-48406466D01*
X147632618Y-48200175D01*
X147895175Y-47937618D01*
X148101466Y-47628882D01*
X148243561Y-47285834D01*
X148316000Y-46921656D01*
X148316000Y-46550344D01*
X148243561Y-46186166D01*
X148101466Y-45843118D01*
X147895175Y-45534382D01*
X147632618Y-45271825D01*
X147323882Y-45065534D01*
X146980834Y-44923439D01*
X146616656Y-44851000D01*
X146245344Y-44851000D01*
X145881166Y-44923439D01*
X145538118Y-45065534D01*
X145229382Y-45271825D01*
X144966825Y-45534382D01*
X144760534Y-45843118D01*
X144618439Y-46186166D01*
X144546000Y-46550344D01*
X141351146Y-46550344D01*
X135380000Y-40579199D01*
X135380000Y-39438313D01*
X135598505Y-39292312D01*
X135812312Y-39078505D01*
X135980299Y-38827095D01*
X136096011Y-38547743D01*
X136155000Y-38251184D01*
X136155000Y-37948816D01*
X136096011Y-37652257D01*
X135980299Y-37372905D01*
X135812312Y-37121495D01*
X135598505Y-36907688D01*
X135347095Y-36739701D01*
X135067743Y-36623989D01*
X134771184Y-36565000D01*
X134468816Y-36565000D01*
X134172257Y-36623989D01*
X133892905Y-36739701D01*
X133641495Y-36907688D01*
X133575056Y-36974127D01*
X133569502Y-36955820D01*
X133510537Y-36845506D01*
X133431185Y-36748815D01*
X133334494Y-36669463D01*
X133224180Y-36610498D01*
X133104482Y-36574188D01*
X132980000Y-36561928D01*
X131180000Y-36561928D01*
X131055518Y-36574188D01*
X130935820Y-36610498D01*
X130825506Y-36669463D01*
X130728815Y-36748815D01*
X130649463Y-36845506D01*
X130590498Y-36955820D01*
X130554188Y-37075518D01*
X130541928Y-37200000D01*
X130541928Y-39000000D01*
X130554188Y-39124482D01*
X130590498Y-39244180D01*
X130649463Y-39354494D01*
X130728815Y-39451185D01*
X130825506Y-39530537D01*
X130935820Y-39589502D01*
X131055518Y-39625812D01*
X131180000Y-39638072D01*
X131320001Y-39638072D01*
X131320000Y-42507677D01*
X131316324Y-42545000D01*
X131320000Y-42582322D01*
X131320000Y-42582332D01*
X131330997Y-42693985D01*
X131374454Y-42837246D01*
X131445026Y-42969276D01*
X131484871Y-43017826D01*
X131539999Y-43085001D01*
X131569003Y-43108804D01*
X134489292Y-46029094D01*
X134475764Y-46073691D01*
X134448057Y-46355000D01*
X134475764Y-46636309D01*
X134557818Y-46906808D01*
X134691068Y-47156101D01*
X134870392Y-47374608D01*
X135088899Y-47553932D01*
X135338192Y-47687182D01*
X135608691Y-47769236D01*
X135819508Y-47790000D01*
X135960492Y-47790000D01*
X136171309Y-47769236D01*
X136441808Y-47687182D01*
X136691101Y-47553932D01*
X136909608Y-47374608D01*
X137088932Y-47156101D01*
X137222182Y-46906808D01*
X137304236Y-46636309D01*
X137331943Y-46355000D01*
X137304236Y-46073691D01*
X137222182Y-45803192D01*
X137088932Y-45553899D01*
X136909608Y-45335392D01*
X136691101Y-45156068D01*
X136441808Y-45022818D01*
X136171309Y-44940764D01*
X135960492Y-44920000D01*
X135819508Y-44920000D01*
X135608691Y-44940764D01*
X135564094Y-44954292D01*
X132840000Y-42230199D01*
X132840000Y-39638072D01*
X132980000Y-39638072D01*
X133104482Y-39625812D01*
X133224180Y-39589502D01*
X133334494Y-39530537D01*
X133431185Y-39451185D01*
X133510537Y-39354494D01*
X133569502Y-39244180D01*
X133575056Y-39225873D01*
X133641495Y-39292312D01*
X133860000Y-39438313D01*
X133860001Y-40856668D01*
X133856324Y-40894000D01*
X133870998Y-41042985D01*
X133914454Y-41186246D01*
X133985026Y-41318276D01*
X134056201Y-41405002D01*
X134080000Y-41434001D01*
X134108998Y-41457799D01*
X145544000Y-52892802D01*
X145544000Y-53928000D01*
X144723678Y-53928000D01*
X144483484Y-53951657D01*
X144175285Y-54045148D01*
X143891248Y-54196969D01*
X143642286Y-54401286D01*
X143437969Y-54650248D01*
X143286148Y-54934285D01*
X143192657Y-55242484D01*
X143161089Y-55563000D01*
X143192657Y-55883516D01*
X143286148Y-56191715D01*
X143437969Y-56475752D01*
X143642286Y-56724714D01*
X143891248Y-56929031D01*
X144175285Y-57080852D01*
X144483484Y-57174343D01*
X144723678Y-57198000D01*
X147884322Y-57198000D01*
X148124516Y-57174343D01*
X148432715Y-57080852D01*
X148716752Y-56929031D01*
X148965714Y-56724714D01*
X149170031Y-56475752D01*
X149277850Y-56274037D01*
X149272853Y-58842614D01*
X149170031Y-58650248D01*
X148965714Y-58401286D01*
X148716752Y-58196969D01*
X148432715Y-58045148D01*
X148124516Y-57951657D01*
X147884322Y-57928000D01*
X144723678Y-57928000D01*
X144483484Y-57951657D01*
X144175285Y-58045148D01*
X143891248Y-58196969D01*
X143642286Y-58401286D01*
X143437969Y-58650248D01*
X143339883Y-58833754D01*
X143261753Y-58857454D01*
X143129724Y-58928026D01*
X143013999Y-59022999D01*
X142990201Y-59051997D01*
X141602003Y-60440196D01*
X141572999Y-60463999D01*
X141517871Y-60531174D01*
X141478026Y-60579724D01*
X141407455Y-60711753D01*
X141407454Y-60711754D01*
X141363997Y-60855015D01*
X141353000Y-60966668D01*
X141353000Y-60966678D01*
X141349324Y-61004000D01*
X141353000Y-61041322D01*
X141353001Y-72075197D01*
X133797199Y-79631000D01*
X126456072Y-79631000D01*
X126456072Y-79541000D01*
X126443812Y-79416518D01*
X126407502Y-79296820D01*
X126348537Y-79186506D01*
X126269185Y-79089815D01*
X126172494Y-79010463D01*
X126062180Y-78951498D01*
X125942482Y-78915188D01*
X125818000Y-78902928D01*
X124118000Y-78902928D01*
X123993518Y-78915188D01*
X123873820Y-78951498D01*
X123763506Y-79010463D01*
X123666815Y-79089815D01*
X123587463Y-79186506D01*
X123528498Y-79296820D01*
X123504034Y-79377466D01*
X123428269Y-79293412D01*
X123194920Y-79119359D01*
X122932099Y-78994175D01*
X122784890Y-78949524D01*
X122555000Y-79070845D01*
X122555000Y-80264000D01*
X122575000Y-80264000D01*
X122575000Y-80518000D01*
X122555000Y-80518000D01*
X122555000Y-81711155D01*
X122784890Y-81832476D01*
X122932099Y-81787825D01*
X123194920Y-81662641D01*
X123428269Y-81488588D01*
X123504034Y-81404534D01*
X123528498Y-81485180D01*
X123587463Y-81595494D01*
X123666815Y-81692185D01*
X123763506Y-81771537D01*
X123873820Y-81830502D01*
X123993518Y-81866812D01*
X124118000Y-81879072D01*
X125818000Y-81879072D01*
X125942482Y-81866812D01*
X126062180Y-81830502D01*
X126172494Y-81771537D01*
X126269185Y-81692185D01*
X126348537Y-81595494D01*
X126407502Y-81485180D01*
X126443812Y-81365482D01*
X126456072Y-81241000D01*
X126456072Y-81151000D01*
X134074678Y-81151000D01*
X134112000Y-81154676D01*
X134149322Y-81151000D01*
X134149333Y-81151000D01*
X134260986Y-81140003D01*
X134404247Y-81096546D01*
X134536276Y-81025974D01*
X134652001Y-80931001D01*
X134675804Y-80901997D01*
X134991457Y-80586344D01*
X144546000Y-80586344D01*
X144546000Y-80957656D01*
X144618439Y-81321834D01*
X144760534Y-81664882D01*
X144966825Y-81973618D01*
X145229382Y-82236175D01*
X145538118Y-82442466D01*
X145881166Y-82584561D01*
X146245344Y-82657000D01*
X146616656Y-82657000D01*
X146980834Y-82584561D01*
X147323882Y-82442466D01*
X147632618Y-82236175D01*
X147895175Y-81973618D01*
X148101466Y-81664882D01*
X148243561Y-81321834D01*
X148316000Y-80957656D01*
X148316000Y-80586344D01*
X148243561Y-80222166D01*
X148101466Y-79879118D01*
X147895175Y-79570382D01*
X147632618Y-79307825D01*
X147323882Y-79101534D01*
X146980834Y-78959439D01*
X146616656Y-78887000D01*
X146245344Y-78887000D01*
X145881166Y-78959439D01*
X145538118Y-79101534D01*
X145229382Y-79307825D01*
X144966825Y-79570382D01*
X144760534Y-79879118D01*
X144618439Y-80222166D01*
X144546000Y-80586344D01*
X134991457Y-80586344D01*
X142624003Y-72953799D01*
X142653001Y-72930001D01*
X142747974Y-72814276D01*
X142818546Y-72682247D01*
X142862003Y-72538986D01*
X142873000Y-72427333D01*
X142873000Y-72427325D01*
X142876676Y-72390000D01*
X142873000Y-72352675D01*
X142873000Y-61318801D01*
X143563315Y-60628487D01*
X143642286Y-60724714D01*
X143891248Y-60929031D01*
X144175285Y-61080852D01*
X144483484Y-61174343D01*
X144723678Y-61198000D01*
X147884322Y-61198000D01*
X148124516Y-61174343D01*
X148432715Y-61080852D01*
X148716752Y-60929031D01*
X148965714Y-60724714D01*
X149170031Y-60475752D01*
X149270039Y-60288650D01*
X149265099Y-62828107D01*
X149170031Y-62650248D01*
X148965714Y-62401286D01*
X148716752Y-62196969D01*
X148432715Y-62045148D01*
X148124516Y-61951657D01*
X147884322Y-61928000D01*
X144723678Y-61928000D01*
X144483484Y-61951657D01*
X144175285Y-62045148D01*
X143891248Y-62196969D01*
X143642286Y-62401286D01*
X143437969Y-62650248D01*
X143286148Y-62934285D01*
X143192657Y-63242484D01*
X143161089Y-63563000D01*
X143192657Y-63883516D01*
X143286148Y-64191715D01*
X143437969Y-64475752D01*
X143642286Y-64724714D01*
X143891248Y-64929031D01*
X144175285Y-65080852D01*
X144483484Y-65174343D01*
X144723678Y-65198000D01*
X147884322Y-65198000D01*
X148124516Y-65174343D01*
X148432715Y-65080852D01*
X148716752Y-64929031D01*
X148965714Y-64724714D01*
X149170031Y-64475752D01*
X149262229Y-64303262D01*
X149225246Y-83312413D01*
X110553417Y-83438586D01*
X110552196Y-81555426D01*
X110597534Y-81664882D01*
X110803825Y-81973618D01*
X111066382Y-82236175D01*
X111375118Y-82442466D01*
X111718166Y-82584561D01*
X112082344Y-82657000D01*
X112453656Y-82657000D01*
X112817834Y-82584561D01*
X113160882Y-82442466D01*
X113469618Y-82236175D01*
X113732175Y-81973618D01*
X113938466Y-81664882D01*
X114080561Y-81321834D01*
X114153000Y-80957656D01*
X114153000Y-80747891D01*
X120986519Y-80747891D01*
X121083843Y-81022252D01*
X121232822Y-81272355D01*
X121427731Y-81488588D01*
X121661080Y-81662641D01*
X121923901Y-81787825D01*
X122071110Y-81832476D01*
X122301000Y-81711155D01*
X122301000Y-80518000D01*
X121107186Y-80518000D01*
X120986519Y-80747891D01*
X114153000Y-80747891D01*
X114153000Y-80586344D01*
X114080561Y-80222166D01*
X114002666Y-80034109D01*
X120986519Y-80034109D01*
X121107186Y-80264000D01*
X122301000Y-80264000D01*
X122301000Y-79070845D01*
X122071110Y-78949524D01*
X121923901Y-78994175D01*
X121661080Y-79119359D01*
X121427731Y-79293412D01*
X121232822Y-79509645D01*
X121083843Y-79759748D01*
X120986519Y-80034109D01*
X114002666Y-80034109D01*
X113938466Y-79879118D01*
X113732175Y-79570382D01*
X113469618Y-79307825D01*
X113160882Y-79101534D01*
X112817834Y-78959439D01*
X112453656Y-78887000D01*
X112082344Y-78887000D01*
X111718166Y-78959439D01*
X111375118Y-79101534D01*
X111066382Y-79307825D01*
X110803825Y-79570382D01*
X110597534Y-79879118D01*
X110551181Y-79991024D01*
X110544906Y-70313703D01*
X116066903Y-70313703D01*
X116138486Y-70557672D01*
X116393996Y-70678572D01*
X116668184Y-70747301D01*
X116950512Y-70761218D01*
X117230130Y-70719788D01*
X117496292Y-70624604D01*
X117621514Y-70557672D01*
X117693097Y-70313703D01*
X116880000Y-69500606D01*
X116066903Y-70313703D01*
X110544906Y-70313703D01*
X110544308Y-69391513D01*
X115439783Y-69391513D01*
X115481213Y-69671131D01*
X115576397Y-69937293D01*
X115643329Y-70062515D01*
X115887298Y-70134098D01*
X116700395Y-69321001D01*
X117059605Y-69321001D01*
X117872702Y-70134098D01*
X117941928Y-70113786D01*
X117941928Y-70121001D01*
X117954188Y-70245483D01*
X117990498Y-70365181D01*
X118049463Y-70475495D01*
X118128815Y-70572186D01*
X118225506Y-70651538D01*
X118335820Y-70710503D01*
X118455518Y-70746813D01*
X118580000Y-70759073D01*
X120180000Y-70759073D01*
X120304482Y-70746813D01*
X120424180Y-70710503D01*
X120534494Y-70651538D01*
X120631185Y-70572186D01*
X120710537Y-70475495D01*
X120769502Y-70365181D01*
X120805812Y-70245483D01*
X120818072Y-70121001D01*
X120818072Y-70081001D01*
X126004020Y-70081001D01*
X125980392Y-70100392D01*
X125801068Y-70318899D01*
X125667818Y-70568192D01*
X125585764Y-70838691D01*
X125558057Y-71120000D01*
X125585764Y-71401309D01*
X125667818Y-71671808D01*
X125801068Y-71921101D01*
X125980392Y-72139608D01*
X126198899Y-72318932D01*
X126331858Y-72390000D01*
X126198899Y-72461068D01*
X125980392Y-72640392D01*
X125801068Y-72858899D01*
X125667818Y-73108192D01*
X125585764Y-73378691D01*
X125558057Y-73660000D01*
X125585764Y-73941309D01*
X125667818Y-74211808D01*
X125801068Y-74461101D01*
X125980392Y-74679608D01*
X126198899Y-74858932D01*
X126448192Y-74992182D01*
X126718691Y-75074236D01*
X126929508Y-75095000D01*
X127070492Y-75095000D01*
X127281309Y-75074236D01*
X127551808Y-74992182D01*
X127801101Y-74858932D01*
X128019608Y-74679608D01*
X128198932Y-74461101D01*
X128332182Y-74211808D01*
X128414236Y-73941309D01*
X128441943Y-73660000D01*
X128414236Y-73378691D01*
X128332182Y-73108192D01*
X128198932Y-72858899D01*
X128019608Y-72640392D01*
X127801101Y-72461068D01*
X127668142Y-72390000D01*
X127801101Y-72318932D01*
X128019608Y-72139608D01*
X128198932Y-71921101D01*
X128332182Y-71671808D01*
X128414236Y-71401309D01*
X128441943Y-71120000D01*
X128414236Y-70838691D01*
X128332182Y-70568192D01*
X128198932Y-70318899D01*
X128019608Y-70100392D01*
X127801101Y-69921068D01*
X127668142Y-69850000D01*
X127801101Y-69778932D01*
X128019608Y-69599608D01*
X128198932Y-69381101D01*
X128220901Y-69340000D01*
X131765199Y-69340000D01*
X133219292Y-70794094D01*
X133205764Y-70838691D01*
X133178057Y-71120000D01*
X133205764Y-71401309D01*
X133287818Y-71671808D01*
X133421068Y-71921101D01*
X133600392Y-72139608D01*
X133818899Y-72318932D01*
X133951858Y-72390000D01*
X133818899Y-72461068D01*
X133600392Y-72640392D01*
X133421068Y-72858899D01*
X133287818Y-73108192D01*
X133205764Y-73378691D01*
X133178057Y-73660000D01*
X133205764Y-73941309D01*
X133287818Y-74211808D01*
X133421068Y-74461101D01*
X133600392Y-74679608D01*
X133818899Y-74858932D01*
X134068192Y-74992182D01*
X134338691Y-75074236D01*
X134549508Y-75095000D01*
X134690492Y-75095000D01*
X134901309Y-75074236D01*
X135171808Y-74992182D01*
X135421101Y-74858932D01*
X135639608Y-74679608D01*
X135818932Y-74461101D01*
X135952182Y-74211808D01*
X136034236Y-73941309D01*
X136061943Y-73660000D01*
X136034236Y-73378691D01*
X135952182Y-73108192D01*
X135818932Y-72858899D01*
X135639608Y-72640392D01*
X135421101Y-72461068D01*
X135288142Y-72390000D01*
X135421101Y-72318932D01*
X135639608Y-72139608D01*
X135818932Y-71921101D01*
X135952182Y-71671808D01*
X136034236Y-71401309D01*
X136061943Y-71120000D01*
X136034236Y-70838691D01*
X135952182Y-70568192D01*
X135818932Y-70318899D01*
X135639608Y-70100392D01*
X135421101Y-69921068D01*
X135288142Y-69850000D01*
X135421101Y-69778932D01*
X135639608Y-69599608D01*
X135818932Y-69381101D01*
X135952182Y-69131808D01*
X136034236Y-68861309D01*
X136061943Y-68580000D01*
X136034236Y-68298691D01*
X135952182Y-68028192D01*
X135818932Y-67778899D01*
X135639608Y-67560392D01*
X135421101Y-67381068D01*
X135288142Y-67310000D01*
X135421101Y-67238932D01*
X135639608Y-67059608D01*
X135818932Y-66841101D01*
X135952182Y-66591808D01*
X136034236Y-66321309D01*
X136061943Y-66040000D01*
X136034236Y-65758691D01*
X135952182Y-65488192D01*
X135818932Y-65238899D01*
X135639608Y-65020392D01*
X135421101Y-64841068D01*
X135171808Y-64707818D01*
X134901309Y-64625764D01*
X134690492Y-64605000D01*
X134549508Y-64605000D01*
X134338691Y-64625764D01*
X134068192Y-64707818D01*
X133818899Y-64841068D01*
X133600392Y-65020392D01*
X133421068Y-65238899D01*
X133287818Y-65488192D01*
X133205764Y-65758691D01*
X133178057Y-66040000D01*
X133205764Y-66321309D01*
X133287818Y-66591808D01*
X133421068Y-66841101D01*
X133600392Y-67059608D01*
X133818899Y-67238932D01*
X133951858Y-67310000D01*
X133818899Y-67381068D01*
X133600392Y-67560392D01*
X133421068Y-67778899D01*
X133287818Y-68028192D01*
X133205764Y-68298691D01*
X133178057Y-68580000D01*
X133180598Y-68605796D01*
X132643804Y-68069003D01*
X132620001Y-68039999D01*
X132504276Y-67945026D01*
X132372247Y-67874454D01*
X132228986Y-67830997D01*
X132117333Y-67820000D01*
X132117322Y-67820000D01*
X132080000Y-67816324D01*
X132042678Y-67820000D01*
X128220901Y-67820000D01*
X128198932Y-67778899D01*
X128019608Y-67560392D01*
X127906518Y-67467581D01*
X127924482Y-67465812D01*
X128044180Y-67429502D01*
X128154494Y-67370537D01*
X128251185Y-67291185D01*
X128330537Y-67194494D01*
X128389502Y-67084180D01*
X128425812Y-66964482D01*
X128438072Y-66840000D01*
X128435000Y-66325750D01*
X128276250Y-66167000D01*
X127127000Y-66167000D01*
X127127000Y-66187000D01*
X126873000Y-66187000D01*
X126873000Y-66167000D01*
X125723750Y-66167000D01*
X125565000Y-66325750D01*
X125561928Y-66840000D01*
X125574188Y-66964482D01*
X125610498Y-67084180D01*
X125669463Y-67194494D01*
X125748815Y-67291185D01*
X125845506Y-67370537D01*
X125955820Y-67429502D01*
X126075518Y-67465812D01*
X126093482Y-67467581D01*
X125980392Y-67560392D01*
X125801068Y-67778899D01*
X125667818Y-68028192D01*
X125585764Y-68298691D01*
X125559928Y-68561001D01*
X120818072Y-68561001D01*
X120818072Y-68521001D01*
X120805812Y-68396519D01*
X120769502Y-68276821D01*
X120710537Y-68166507D01*
X120631185Y-68069816D01*
X120534494Y-67990464D01*
X120424180Y-67931499D01*
X120304482Y-67895189D01*
X120180000Y-67882929D01*
X118580000Y-67882929D01*
X118455518Y-67895189D01*
X118335820Y-67931499D01*
X118225506Y-67990464D01*
X118128815Y-68069816D01*
X118049463Y-68166507D01*
X117990498Y-68276821D01*
X117954188Y-68396519D01*
X117941928Y-68521001D01*
X117941928Y-68528216D01*
X117872702Y-68507904D01*
X117059605Y-69321001D01*
X116700395Y-69321001D01*
X115887298Y-68507904D01*
X115643329Y-68579487D01*
X115522429Y-68834997D01*
X115453700Y-69109185D01*
X115439783Y-69391513D01*
X110544308Y-69391513D01*
X110543619Y-68328299D01*
X116066903Y-68328299D01*
X116880000Y-69141396D01*
X117693097Y-68328299D01*
X117621514Y-68084330D01*
X117366004Y-67963430D01*
X117091816Y-67894701D01*
X116809488Y-67880784D01*
X116529870Y-67922214D01*
X116263708Y-68017398D01*
X116138486Y-68084330D01*
X116066903Y-68328299D01*
X110543619Y-68328299D01*
X110541617Y-65240000D01*
X125561928Y-65240000D01*
X125565000Y-65754250D01*
X125723750Y-65913000D01*
X126873000Y-65913000D01*
X126873000Y-64763750D01*
X127127000Y-64763750D01*
X127127000Y-65913000D01*
X128276250Y-65913000D01*
X128435000Y-65754250D01*
X128438072Y-65240000D01*
X128425812Y-65115518D01*
X128389502Y-64995820D01*
X128330537Y-64885506D01*
X128251185Y-64788815D01*
X128154494Y-64709463D01*
X128044180Y-64650498D01*
X127924482Y-64614188D01*
X127800000Y-64601928D01*
X127285750Y-64605000D01*
X127127000Y-64763750D01*
X126873000Y-64763750D01*
X126714250Y-64605000D01*
X126200000Y-64601928D01*
X126075518Y-64614188D01*
X125955820Y-64650498D01*
X125845506Y-64709463D01*
X125748815Y-64788815D01*
X125669463Y-64885506D01*
X125610498Y-64995820D01*
X125574188Y-65115518D01*
X125561928Y-65240000D01*
X110541617Y-65240000D01*
X110535866Y-56373665D01*
X122390000Y-56373665D01*
X122390000Y-56656335D01*
X122445147Y-56933574D01*
X122553320Y-57194727D01*
X122710363Y-57429759D01*
X122910241Y-57629637D01*
X123145273Y-57786680D01*
X123406426Y-57894853D01*
X123683665Y-57950000D01*
X123966335Y-57950000D01*
X124243574Y-57894853D01*
X124504727Y-57786680D01*
X124739759Y-57629637D01*
X124939637Y-57429759D01*
X125096680Y-57194727D01*
X125204853Y-56933574D01*
X125260000Y-56656335D01*
X125260000Y-56373665D01*
X125204853Y-56096426D01*
X125096680Y-55835273D01*
X124939637Y-55600241D01*
X124739759Y-55400363D01*
X124504727Y-55243320D01*
X124243574Y-55135147D01*
X123966335Y-55080000D01*
X123683665Y-55080000D01*
X123406426Y-55135147D01*
X123145273Y-55243320D01*
X122910241Y-55400363D01*
X122710363Y-55600241D01*
X122553320Y-55835273D01*
X122445147Y-56096426D01*
X122390000Y-56373665D01*
X110535866Y-56373665D01*
X110529883Y-47148615D01*
X110582439Y-47412834D01*
X110724534Y-47755882D01*
X110930825Y-48064618D01*
X111193382Y-48327175D01*
X111502118Y-48533466D01*
X111845166Y-48675561D01*
X112209344Y-48748000D01*
X112580656Y-48748000D01*
X112944834Y-48675561D01*
X113287882Y-48533466D01*
X113596618Y-48327175D01*
X113859175Y-48064618D01*
X114065466Y-47755882D01*
X114207561Y-47412834D01*
X114280000Y-47048656D01*
X114280000Y-46677344D01*
X114215883Y-46355000D01*
X122383057Y-46355000D01*
X122410764Y-46636309D01*
X122492818Y-46906808D01*
X122626068Y-47156101D01*
X122805392Y-47374608D01*
X123023899Y-47553932D01*
X123273192Y-47687182D01*
X123543691Y-47769236D01*
X123754508Y-47790000D01*
X123895492Y-47790000D01*
X124106309Y-47769236D01*
X124150907Y-47755708D01*
X129415001Y-53019803D01*
X129415000Y-55294099D01*
X129373899Y-55316068D01*
X129155392Y-55495392D01*
X128976068Y-55713899D01*
X128842818Y-55963192D01*
X128760764Y-56233691D01*
X128733057Y-56515000D01*
X128760764Y-56796309D01*
X128842818Y-57066808D01*
X128976068Y-57316101D01*
X129155392Y-57534608D01*
X129373899Y-57713932D01*
X129623192Y-57847182D01*
X129893691Y-57929236D01*
X130104508Y-57950000D01*
X130245492Y-57950000D01*
X130456309Y-57929236D01*
X130726808Y-57847182D01*
X130976101Y-57713932D01*
X131194608Y-57534608D01*
X131373932Y-57316101D01*
X131395901Y-57275000D01*
X134671957Y-57275000D01*
X134775363Y-57429759D01*
X134975241Y-57629637D01*
X135210273Y-57786680D01*
X135471426Y-57894853D01*
X135748665Y-57950000D01*
X136031335Y-57950000D01*
X136308574Y-57894853D01*
X136569727Y-57786680D01*
X136804759Y-57629637D01*
X137004637Y-57429759D01*
X137161680Y-57194727D01*
X137269853Y-56933574D01*
X137325000Y-56656335D01*
X137325000Y-56373665D01*
X137269853Y-56096426D01*
X137161680Y-55835273D01*
X137004637Y-55600241D01*
X136804759Y-55400363D01*
X136569727Y-55243320D01*
X136308574Y-55135147D01*
X136031335Y-55080000D01*
X135748665Y-55080000D01*
X135471426Y-55135147D01*
X135210273Y-55243320D01*
X134975241Y-55400363D01*
X134775363Y-55600241D01*
X134671957Y-55755000D01*
X131395901Y-55755000D01*
X131373932Y-55713899D01*
X131194608Y-55495392D01*
X130976101Y-55316068D01*
X130935000Y-55294099D01*
X130935000Y-52742322D01*
X130938676Y-52704999D01*
X130935000Y-52667676D01*
X130935000Y-52667667D01*
X130924003Y-52556014D01*
X130880546Y-52412753D01*
X130812663Y-52285754D01*
X130809974Y-52280723D01*
X130738799Y-52193997D01*
X130715001Y-52164999D01*
X130686003Y-52141201D01*
X125225708Y-46680907D01*
X125239236Y-46636309D01*
X125266943Y-46355000D01*
X125239236Y-46073691D01*
X125157182Y-45803192D01*
X125023932Y-45553899D01*
X124844608Y-45335392D01*
X124626101Y-45156068D01*
X124376808Y-45022818D01*
X124106309Y-44940764D01*
X123895492Y-44920000D01*
X123754508Y-44920000D01*
X123543691Y-44940764D01*
X123273192Y-45022818D01*
X123023899Y-45156068D01*
X122805392Y-45335392D01*
X122626068Y-45553899D01*
X122492818Y-45803192D01*
X122410764Y-46073691D01*
X122383057Y-46355000D01*
X114215883Y-46355000D01*
X114207561Y-46313166D01*
X114065466Y-45970118D01*
X113859175Y-45661382D01*
X113596618Y-45398825D01*
X113287882Y-45192534D01*
X112944834Y-45050439D01*
X112580656Y-44978000D01*
X112209344Y-44978000D01*
X111845166Y-45050439D01*
X111502118Y-45192534D01*
X111193382Y-45398825D01*
X110930825Y-45661382D01*
X110724534Y-45970118D01*
X110582439Y-46313166D01*
X110529514Y-46579242D01*
X110524599Y-39000000D01*
X122921928Y-39000000D01*
X122934188Y-39124482D01*
X122970498Y-39244180D01*
X123029463Y-39354494D01*
X123108815Y-39451185D01*
X123205506Y-39530537D01*
X123315820Y-39589502D01*
X123435518Y-39625812D01*
X123560000Y-39638072D01*
X124174250Y-39635000D01*
X124333000Y-39476250D01*
X124333000Y-38227000D01*
X123083750Y-38227000D01*
X122925000Y-38385750D01*
X122921928Y-39000000D01*
X110524599Y-39000000D01*
X110523432Y-37200000D01*
X122921928Y-37200000D01*
X122925000Y-37814250D01*
X123083750Y-37973000D01*
X124333000Y-37973000D01*
X124333000Y-36723750D01*
X124587000Y-36723750D01*
X124587000Y-37973000D01*
X124607000Y-37973000D01*
X124607000Y-38227000D01*
X124587000Y-38227000D01*
X124587000Y-39476250D01*
X124745750Y-39635000D01*
X125360000Y-39638072D01*
X125484482Y-39625812D01*
X125604180Y-39589502D01*
X125714494Y-39530537D01*
X125811185Y-39451185D01*
X125890537Y-39354494D01*
X125949502Y-39244180D01*
X125955056Y-39225873D01*
X126021495Y-39292312D01*
X126240001Y-39438313D01*
X126240000Y-43142677D01*
X126236324Y-43180000D01*
X126240000Y-43217322D01*
X126240000Y-43217332D01*
X126250997Y-43328985D01*
X126294454Y-43472246D01*
X126365026Y-43604276D01*
X126404871Y-43652826D01*
X126459999Y-43720001D01*
X126489003Y-43743804D01*
X128776312Y-46031114D01*
X128740000Y-46213665D01*
X128740000Y-46496335D01*
X128795147Y-46773574D01*
X128903320Y-47034727D01*
X129060363Y-47269759D01*
X129260241Y-47469637D01*
X129495273Y-47626680D01*
X129756426Y-47734853D01*
X130033665Y-47790000D01*
X130316335Y-47790000D01*
X130593574Y-47734853D01*
X130854727Y-47626680D01*
X131089759Y-47469637D01*
X131289637Y-47269759D01*
X131446680Y-47034727D01*
X131554853Y-46773574D01*
X131610000Y-46496335D01*
X131610000Y-46213665D01*
X131554853Y-45936426D01*
X131446680Y-45675273D01*
X131289637Y-45440241D01*
X131089759Y-45240363D01*
X130854727Y-45083320D01*
X130593574Y-44975147D01*
X130316335Y-44920000D01*
X130033665Y-44920000D01*
X129851114Y-44956312D01*
X127760000Y-42865199D01*
X127760000Y-39438313D01*
X127978505Y-39292312D01*
X128192312Y-39078505D01*
X128360299Y-38827095D01*
X128476011Y-38547743D01*
X128535000Y-38251184D01*
X128535000Y-37948816D01*
X128476011Y-37652257D01*
X128360299Y-37372905D01*
X128192312Y-37121495D01*
X127978505Y-36907688D01*
X127727095Y-36739701D01*
X127447743Y-36623989D01*
X127151184Y-36565000D01*
X126848816Y-36565000D01*
X126552257Y-36623989D01*
X126272905Y-36739701D01*
X126021495Y-36907688D01*
X125955056Y-36974127D01*
X125949502Y-36955820D01*
X125890537Y-36845506D01*
X125811185Y-36748815D01*
X125714494Y-36669463D01*
X125604180Y-36610498D01*
X125484482Y-36574188D01*
X125360000Y-36561928D01*
X124745750Y-36565000D01*
X124587000Y-36723750D01*
X124333000Y-36723750D01*
X124174250Y-36565000D01*
X123560000Y-36561928D01*
X123435518Y-36574188D01*
X123315820Y-36610498D01*
X123205506Y-36669463D01*
X123108815Y-36748815D01*
X123029463Y-36845506D01*
X122970498Y-36955820D01*
X122934188Y-37075518D01*
X122921928Y-37200000D01*
X110523432Y-37200000D01*
X110521832Y-34734087D01*
X149320002Y-34607914D01*
X149280607Y-54857120D01*
X149280607Y-54857120D01*
G37*
X149280607Y-54857120D02*
X149170031Y-54650248D01*
X148965714Y-54401286D01*
X148716752Y-54196969D01*
X148432715Y-54045148D01*
X148124516Y-53951657D01*
X147884322Y-53928000D01*
X147064000Y-53928000D01*
X147064000Y-52615322D01*
X147067676Y-52577999D01*
X147064000Y-52540676D01*
X147064000Y-52540667D01*
X147053003Y-52429014D01*
X147009546Y-52285753D01*
X146938974Y-52153724D01*
X146844001Y-52037999D01*
X146815004Y-52014202D01*
X141351146Y-46550344D01*
X144546000Y-46550344D01*
X144546000Y-46921656D01*
X144618439Y-47285834D01*
X144760534Y-47628882D01*
X144966825Y-47937618D01*
X145229382Y-48200175D01*
X145538118Y-48406466D01*
X145881166Y-48548561D01*
X146245344Y-48621000D01*
X146616656Y-48621000D01*
X146980834Y-48548561D01*
X147323882Y-48406466D01*
X147632618Y-48200175D01*
X147895175Y-47937618D01*
X148101466Y-47628882D01*
X148243561Y-47285834D01*
X148316000Y-46921656D01*
X148316000Y-46550344D01*
X148243561Y-46186166D01*
X148101466Y-45843118D01*
X147895175Y-45534382D01*
X147632618Y-45271825D01*
X147323882Y-45065534D01*
X146980834Y-44923439D01*
X146616656Y-44851000D01*
X146245344Y-44851000D01*
X145881166Y-44923439D01*
X145538118Y-45065534D01*
X145229382Y-45271825D01*
X144966825Y-45534382D01*
X144760534Y-45843118D01*
X144618439Y-46186166D01*
X144546000Y-46550344D01*
X141351146Y-46550344D01*
X135380000Y-40579199D01*
X135380000Y-39438313D01*
X135598505Y-39292312D01*
X135812312Y-39078505D01*
X135980299Y-38827095D01*
X136096011Y-38547743D01*
X136155000Y-38251184D01*
X136155000Y-37948816D01*
X136096011Y-37652257D01*
X135980299Y-37372905D01*
X135812312Y-37121495D01*
X135598505Y-36907688D01*
X135347095Y-36739701D01*
X135067743Y-36623989D01*
X134771184Y-36565000D01*
X134468816Y-36565000D01*
X134172257Y-36623989D01*
X133892905Y-36739701D01*
X133641495Y-36907688D01*
X133575056Y-36974127D01*
X133569502Y-36955820D01*
X133510537Y-36845506D01*
X133431185Y-36748815D01*
X133334494Y-36669463D01*
X133224180Y-36610498D01*
X133104482Y-36574188D01*
X132980000Y-36561928D01*
X131180000Y-36561928D01*
X131055518Y-36574188D01*
X130935820Y-36610498D01*
X130825506Y-36669463D01*
X130728815Y-36748815D01*
X130649463Y-36845506D01*
X130590498Y-36955820D01*
X130554188Y-37075518D01*
X130541928Y-37200000D01*
X130541928Y-39000000D01*
X130554188Y-39124482D01*
X130590498Y-39244180D01*
X130649463Y-39354494D01*
X130728815Y-39451185D01*
X130825506Y-39530537D01*
X130935820Y-39589502D01*
X131055518Y-39625812D01*
X131180000Y-39638072D01*
X131320001Y-39638072D01*
X131320000Y-42507677D01*
X131316324Y-42545000D01*
X131320000Y-42582322D01*
X131320000Y-42582332D01*
X131330997Y-42693985D01*
X131374454Y-42837246D01*
X131445026Y-42969276D01*
X131484871Y-43017826D01*
X131539999Y-43085001D01*
X131569003Y-43108804D01*
X134489292Y-46029094D01*
X134475764Y-46073691D01*
X134448057Y-46355000D01*
X134475764Y-46636309D01*
X134557818Y-46906808D01*
X134691068Y-47156101D01*
X134870392Y-47374608D01*
X135088899Y-47553932D01*
X135338192Y-47687182D01*
X135608691Y-47769236D01*
X135819508Y-47790000D01*
X135960492Y-47790000D01*
X136171309Y-47769236D01*
X136441808Y-47687182D01*
X136691101Y-47553932D01*
X136909608Y-47374608D01*
X137088932Y-47156101D01*
X137222182Y-46906808D01*
X137304236Y-46636309D01*
X137331943Y-46355000D01*
X137304236Y-46073691D01*
X137222182Y-45803192D01*
X137088932Y-45553899D01*
X136909608Y-45335392D01*
X136691101Y-45156068D01*
X136441808Y-45022818D01*
X136171309Y-44940764D01*
X135960492Y-44920000D01*
X135819508Y-44920000D01*
X135608691Y-44940764D01*
X135564094Y-44954292D01*
X132840000Y-42230199D01*
X132840000Y-39638072D01*
X132980000Y-39638072D01*
X133104482Y-39625812D01*
X133224180Y-39589502D01*
X133334494Y-39530537D01*
X133431185Y-39451185D01*
X133510537Y-39354494D01*
X133569502Y-39244180D01*
X133575056Y-39225873D01*
X133641495Y-39292312D01*
X133860000Y-39438313D01*
X133860001Y-40856668D01*
X133856324Y-40894000D01*
X133870998Y-41042985D01*
X133914454Y-41186246D01*
X133985026Y-41318276D01*
X134056201Y-41405002D01*
X134080000Y-41434001D01*
X134108998Y-41457799D01*
X145544000Y-52892802D01*
X145544000Y-53928000D01*
X144723678Y-53928000D01*
X144483484Y-53951657D01*
X144175285Y-54045148D01*
X143891248Y-54196969D01*
X143642286Y-54401286D01*
X143437969Y-54650248D01*
X143286148Y-54934285D01*
X143192657Y-55242484D01*
X143161089Y-55563000D01*
X143192657Y-55883516D01*
X143286148Y-56191715D01*
X143437969Y-56475752D01*
X143642286Y-56724714D01*
X143891248Y-56929031D01*
X144175285Y-57080852D01*
X144483484Y-57174343D01*
X144723678Y-57198000D01*
X147884322Y-57198000D01*
X148124516Y-57174343D01*
X148432715Y-57080852D01*
X148716752Y-56929031D01*
X148965714Y-56724714D01*
X149170031Y-56475752D01*
X149277850Y-56274037D01*
X149272853Y-58842614D01*
X149170031Y-58650248D01*
X148965714Y-58401286D01*
X148716752Y-58196969D01*
X148432715Y-58045148D01*
X148124516Y-57951657D01*
X147884322Y-57928000D01*
X144723678Y-57928000D01*
X144483484Y-57951657D01*
X144175285Y-58045148D01*
X143891248Y-58196969D01*
X143642286Y-58401286D01*
X143437969Y-58650248D01*
X143339883Y-58833754D01*
X143261753Y-58857454D01*
X143129724Y-58928026D01*
X143013999Y-59022999D01*
X142990201Y-59051997D01*
X141602003Y-60440196D01*
X141572999Y-60463999D01*
X141517871Y-60531174D01*
X141478026Y-60579724D01*
X141407455Y-60711753D01*
X141407454Y-60711754D01*
X141363997Y-60855015D01*
X141353000Y-60966668D01*
X141353000Y-60966678D01*
X141349324Y-61004000D01*
X141353000Y-61041322D01*
X141353001Y-72075197D01*
X133797199Y-79631000D01*
X126456072Y-79631000D01*
X126456072Y-79541000D01*
X126443812Y-79416518D01*
X126407502Y-79296820D01*
X126348537Y-79186506D01*
X126269185Y-79089815D01*
X126172494Y-79010463D01*
X126062180Y-78951498D01*
X125942482Y-78915188D01*
X125818000Y-78902928D01*
X124118000Y-78902928D01*
X123993518Y-78915188D01*
X123873820Y-78951498D01*
X123763506Y-79010463D01*
X123666815Y-79089815D01*
X123587463Y-79186506D01*
X123528498Y-79296820D01*
X123504034Y-79377466D01*
X123428269Y-79293412D01*
X123194920Y-79119359D01*
X122932099Y-78994175D01*
X122784890Y-78949524D01*
X122555000Y-79070845D01*
X122555000Y-80264000D01*
X122575000Y-80264000D01*
X122575000Y-80518000D01*
X122555000Y-80518000D01*
X122555000Y-81711155D01*
X122784890Y-81832476D01*
X122932099Y-81787825D01*
X123194920Y-81662641D01*
X123428269Y-81488588D01*
X123504034Y-81404534D01*
X123528498Y-81485180D01*
X123587463Y-81595494D01*
X123666815Y-81692185D01*
X123763506Y-81771537D01*
X123873820Y-81830502D01*
X123993518Y-81866812D01*
X124118000Y-81879072D01*
X125818000Y-81879072D01*
X125942482Y-81866812D01*
X126062180Y-81830502D01*
X126172494Y-81771537D01*
X126269185Y-81692185D01*
X126348537Y-81595494D01*
X126407502Y-81485180D01*
X126443812Y-81365482D01*
X126456072Y-81241000D01*
X126456072Y-81151000D01*
X134074678Y-81151000D01*
X134112000Y-81154676D01*
X134149322Y-81151000D01*
X134149333Y-81151000D01*
X134260986Y-81140003D01*
X134404247Y-81096546D01*
X134536276Y-81025974D01*
X134652001Y-80931001D01*
X134675804Y-80901997D01*
X134991457Y-80586344D01*
X144546000Y-80586344D01*
X144546000Y-80957656D01*
X144618439Y-81321834D01*
X144760534Y-81664882D01*
X144966825Y-81973618D01*
X145229382Y-82236175D01*
X145538118Y-82442466D01*
X145881166Y-82584561D01*
X146245344Y-82657000D01*
X146616656Y-82657000D01*
X146980834Y-82584561D01*
X147323882Y-82442466D01*
X147632618Y-82236175D01*
X147895175Y-81973618D01*
X148101466Y-81664882D01*
X148243561Y-81321834D01*
X148316000Y-80957656D01*
X148316000Y-80586344D01*
X148243561Y-80222166D01*
X148101466Y-79879118D01*
X147895175Y-79570382D01*
X147632618Y-79307825D01*
X147323882Y-79101534D01*
X146980834Y-78959439D01*
X146616656Y-78887000D01*
X146245344Y-78887000D01*
X145881166Y-78959439D01*
X145538118Y-79101534D01*
X145229382Y-79307825D01*
X144966825Y-79570382D01*
X144760534Y-79879118D01*
X144618439Y-80222166D01*
X144546000Y-80586344D01*
X134991457Y-80586344D01*
X142624003Y-72953799D01*
X142653001Y-72930001D01*
X142747974Y-72814276D01*
X142818546Y-72682247D01*
X142862003Y-72538986D01*
X142873000Y-72427333D01*
X142873000Y-72427325D01*
X142876676Y-72390000D01*
X142873000Y-72352675D01*
X142873000Y-61318801D01*
X143563315Y-60628487D01*
X143642286Y-60724714D01*
X143891248Y-60929031D01*
X144175285Y-61080852D01*
X144483484Y-61174343D01*
X144723678Y-61198000D01*
X147884322Y-61198000D01*
X148124516Y-61174343D01*
X148432715Y-61080852D01*
X148716752Y-60929031D01*
X148965714Y-60724714D01*
X149170031Y-60475752D01*
X149270039Y-60288650D01*
X149265099Y-62828107D01*
X149170031Y-62650248D01*
X148965714Y-62401286D01*
X148716752Y-62196969D01*
X148432715Y-62045148D01*
X148124516Y-61951657D01*
X147884322Y-61928000D01*
X144723678Y-61928000D01*
X144483484Y-61951657D01*
X144175285Y-62045148D01*
X143891248Y-62196969D01*
X143642286Y-62401286D01*
X143437969Y-62650248D01*
X143286148Y-62934285D01*
X143192657Y-63242484D01*
X143161089Y-63563000D01*
X143192657Y-63883516D01*
X143286148Y-64191715D01*
X143437969Y-64475752D01*
X143642286Y-64724714D01*
X143891248Y-64929031D01*
X144175285Y-65080852D01*
X144483484Y-65174343D01*
X144723678Y-65198000D01*
X147884322Y-65198000D01*
X148124516Y-65174343D01*
X148432715Y-65080852D01*
X148716752Y-64929031D01*
X148965714Y-64724714D01*
X149170031Y-64475752D01*
X149262229Y-64303262D01*
X149225246Y-83312413D01*
X110553417Y-83438586D01*
X110552196Y-81555426D01*
X110597534Y-81664882D01*
X110803825Y-81973618D01*
X111066382Y-82236175D01*
X111375118Y-82442466D01*
X111718166Y-82584561D01*
X112082344Y-82657000D01*
X112453656Y-82657000D01*
X112817834Y-82584561D01*
X113160882Y-82442466D01*
X113469618Y-82236175D01*
X113732175Y-81973618D01*
X113938466Y-81664882D01*
X114080561Y-81321834D01*
X114153000Y-80957656D01*
X114153000Y-80747891D01*
X120986519Y-80747891D01*
X121083843Y-81022252D01*
X121232822Y-81272355D01*
X121427731Y-81488588D01*
X121661080Y-81662641D01*
X121923901Y-81787825D01*
X122071110Y-81832476D01*
X122301000Y-81711155D01*
X122301000Y-80518000D01*
X121107186Y-80518000D01*
X120986519Y-80747891D01*
X114153000Y-80747891D01*
X114153000Y-80586344D01*
X114080561Y-80222166D01*
X114002666Y-80034109D01*
X120986519Y-80034109D01*
X121107186Y-80264000D01*
X122301000Y-80264000D01*
X122301000Y-79070845D01*
X122071110Y-78949524D01*
X121923901Y-78994175D01*
X121661080Y-79119359D01*
X121427731Y-79293412D01*
X121232822Y-79509645D01*
X121083843Y-79759748D01*
X120986519Y-80034109D01*
X114002666Y-80034109D01*
X113938466Y-79879118D01*
X113732175Y-79570382D01*
X113469618Y-79307825D01*
X113160882Y-79101534D01*
X112817834Y-78959439D01*
X112453656Y-78887000D01*
X112082344Y-78887000D01*
X111718166Y-78959439D01*
X111375118Y-79101534D01*
X111066382Y-79307825D01*
X110803825Y-79570382D01*
X110597534Y-79879118D01*
X110551181Y-79991024D01*
X110544906Y-70313703D01*
X116066903Y-70313703D01*
X116138486Y-70557672D01*
X116393996Y-70678572D01*
X116668184Y-70747301D01*
X116950512Y-70761218D01*
X117230130Y-70719788D01*
X117496292Y-70624604D01*
X117621514Y-70557672D01*
X117693097Y-70313703D01*
X116880000Y-69500606D01*
X116066903Y-70313703D01*
X110544906Y-70313703D01*
X110544308Y-69391513D01*
X115439783Y-69391513D01*
X115481213Y-69671131D01*
X115576397Y-69937293D01*
X115643329Y-70062515D01*
X115887298Y-70134098D01*
X116700395Y-69321001D01*
X117059605Y-69321001D01*
X117872702Y-70134098D01*
X117941928Y-70113786D01*
X117941928Y-70121001D01*
X117954188Y-70245483D01*
X117990498Y-70365181D01*
X118049463Y-70475495D01*
X118128815Y-70572186D01*
X118225506Y-70651538D01*
X118335820Y-70710503D01*
X118455518Y-70746813D01*
X118580000Y-70759073D01*
X120180000Y-70759073D01*
X120304482Y-70746813D01*
X120424180Y-70710503D01*
X120534494Y-70651538D01*
X120631185Y-70572186D01*
X120710537Y-70475495D01*
X120769502Y-70365181D01*
X120805812Y-70245483D01*
X120818072Y-70121001D01*
X120818072Y-70081001D01*
X126004020Y-70081001D01*
X125980392Y-70100392D01*
X125801068Y-70318899D01*
X125667818Y-70568192D01*
X125585764Y-70838691D01*
X125558057Y-71120000D01*
X125585764Y-71401309D01*
X125667818Y-71671808D01*
X125801068Y-71921101D01*
X125980392Y-72139608D01*
X126198899Y-72318932D01*
X126331858Y-72390000D01*
X126198899Y-72461068D01*
X125980392Y-72640392D01*
X125801068Y-72858899D01*
X125667818Y-73108192D01*
X125585764Y-73378691D01*
X125558057Y-73660000D01*
X125585764Y-73941309D01*
X125667818Y-74211808D01*
X125801068Y-74461101D01*
X125980392Y-74679608D01*
X126198899Y-74858932D01*
X126448192Y-74992182D01*
X126718691Y-75074236D01*
X126929508Y-75095000D01*
X127070492Y-75095000D01*
X127281309Y-75074236D01*
X127551808Y-74992182D01*
X127801101Y-74858932D01*
X128019608Y-74679608D01*
X128198932Y-74461101D01*
X128332182Y-74211808D01*
X128414236Y-73941309D01*
X128441943Y-73660000D01*
X128414236Y-73378691D01*
X128332182Y-73108192D01*
X128198932Y-72858899D01*
X128019608Y-72640392D01*
X127801101Y-72461068D01*
X127668142Y-72390000D01*
X127801101Y-72318932D01*
X128019608Y-72139608D01*
X128198932Y-71921101D01*
X128332182Y-71671808D01*
X128414236Y-71401309D01*
X128441943Y-71120000D01*
X128414236Y-70838691D01*
X128332182Y-70568192D01*
X128198932Y-70318899D01*
X128019608Y-70100392D01*
X127801101Y-69921068D01*
X127668142Y-69850000D01*
X127801101Y-69778932D01*
X128019608Y-69599608D01*
X128198932Y-69381101D01*
X128220901Y-69340000D01*
X131765199Y-69340000D01*
X133219292Y-70794094D01*
X133205764Y-70838691D01*
X133178057Y-71120000D01*
X133205764Y-71401309D01*
X133287818Y-71671808D01*
X133421068Y-71921101D01*
X133600392Y-72139608D01*
X133818899Y-72318932D01*
X133951858Y-72390000D01*
X133818899Y-72461068D01*
X133600392Y-72640392D01*
X133421068Y-72858899D01*
X133287818Y-73108192D01*
X133205764Y-73378691D01*
X133178057Y-73660000D01*
X133205764Y-73941309D01*
X133287818Y-74211808D01*
X133421068Y-74461101D01*
X133600392Y-74679608D01*
X133818899Y-74858932D01*
X134068192Y-74992182D01*
X134338691Y-75074236D01*
X134549508Y-75095000D01*
X134690492Y-75095000D01*
X134901309Y-75074236D01*
X135171808Y-74992182D01*
X135421101Y-74858932D01*
X135639608Y-74679608D01*
X135818932Y-74461101D01*
X135952182Y-74211808D01*
X136034236Y-73941309D01*
X136061943Y-73660000D01*
X136034236Y-73378691D01*
X135952182Y-73108192D01*
X135818932Y-72858899D01*
X135639608Y-72640392D01*
X135421101Y-72461068D01*
X135288142Y-72390000D01*
X135421101Y-72318932D01*
X135639608Y-72139608D01*
X135818932Y-71921101D01*
X135952182Y-71671808D01*
X136034236Y-71401309D01*
X136061943Y-71120000D01*
X136034236Y-70838691D01*
X135952182Y-70568192D01*
X135818932Y-70318899D01*
X135639608Y-70100392D01*
X135421101Y-69921068D01*
X135288142Y-69850000D01*
X135421101Y-69778932D01*
X135639608Y-69599608D01*
X135818932Y-69381101D01*
X135952182Y-69131808D01*
X136034236Y-68861309D01*
X136061943Y-68580000D01*
X136034236Y-68298691D01*
X135952182Y-68028192D01*
X135818932Y-67778899D01*
X135639608Y-67560392D01*
X135421101Y-67381068D01*
X135288142Y-67310000D01*
X135421101Y-67238932D01*
X135639608Y-67059608D01*
X135818932Y-66841101D01*
X135952182Y-66591808D01*
X136034236Y-66321309D01*
X136061943Y-66040000D01*
X136034236Y-65758691D01*
X135952182Y-65488192D01*
X135818932Y-65238899D01*
X135639608Y-65020392D01*
X135421101Y-64841068D01*
X135171808Y-64707818D01*
X134901309Y-64625764D01*
X134690492Y-64605000D01*
X134549508Y-64605000D01*
X134338691Y-64625764D01*
X134068192Y-64707818D01*
X133818899Y-64841068D01*
X133600392Y-65020392D01*
X133421068Y-65238899D01*
X133287818Y-65488192D01*
X133205764Y-65758691D01*
X133178057Y-66040000D01*
X133205764Y-66321309D01*
X133287818Y-66591808D01*
X133421068Y-66841101D01*
X133600392Y-67059608D01*
X133818899Y-67238932D01*
X133951858Y-67310000D01*
X133818899Y-67381068D01*
X133600392Y-67560392D01*
X133421068Y-67778899D01*
X133287818Y-68028192D01*
X133205764Y-68298691D01*
X133178057Y-68580000D01*
X133180598Y-68605796D01*
X132643804Y-68069003D01*
X132620001Y-68039999D01*
X132504276Y-67945026D01*
X132372247Y-67874454D01*
X132228986Y-67830997D01*
X132117333Y-67820000D01*
X132117322Y-67820000D01*
X132080000Y-67816324D01*
X132042678Y-67820000D01*
X128220901Y-67820000D01*
X128198932Y-67778899D01*
X128019608Y-67560392D01*
X127906518Y-67467581D01*
X127924482Y-67465812D01*
X128044180Y-67429502D01*
X128154494Y-67370537D01*
X128251185Y-67291185D01*
X128330537Y-67194494D01*
X128389502Y-67084180D01*
X128425812Y-66964482D01*
X128438072Y-66840000D01*
X128435000Y-66325750D01*
X128276250Y-66167000D01*
X127127000Y-66167000D01*
X127127000Y-66187000D01*
X126873000Y-66187000D01*
X126873000Y-66167000D01*
X125723750Y-66167000D01*
X125565000Y-66325750D01*
X125561928Y-66840000D01*
X125574188Y-66964482D01*
X125610498Y-67084180D01*
X125669463Y-67194494D01*
X125748815Y-67291185D01*
X125845506Y-67370537D01*
X125955820Y-67429502D01*
X126075518Y-67465812D01*
X126093482Y-67467581D01*
X125980392Y-67560392D01*
X125801068Y-67778899D01*
X125667818Y-68028192D01*
X125585764Y-68298691D01*
X125559928Y-68561001D01*
X120818072Y-68561001D01*
X120818072Y-68521001D01*
X120805812Y-68396519D01*
X120769502Y-68276821D01*
X120710537Y-68166507D01*
X120631185Y-68069816D01*
X120534494Y-67990464D01*
X120424180Y-67931499D01*
X120304482Y-67895189D01*
X120180000Y-67882929D01*
X118580000Y-67882929D01*
X118455518Y-67895189D01*
X118335820Y-67931499D01*
X118225506Y-67990464D01*
X118128815Y-68069816D01*
X118049463Y-68166507D01*
X117990498Y-68276821D01*
X117954188Y-68396519D01*
X117941928Y-68521001D01*
X117941928Y-68528216D01*
X117872702Y-68507904D01*
X117059605Y-69321001D01*
X116700395Y-69321001D01*
X115887298Y-68507904D01*
X115643329Y-68579487D01*
X115522429Y-68834997D01*
X115453700Y-69109185D01*
X115439783Y-69391513D01*
X110544308Y-69391513D01*
X110543619Y-68328299D01*
X116066903Y-68328299D01*
X116880000Y-69141396D01*
X117693097Y-68328299D01*
X117621514Y-68084330D01*
X117366004Y-67963430D01*
X117091816Y-67894701D01*
X116809488Y-67880784D01*
X116529870Y-67922214D01*
X116263708Y-68017398D01*
X116138486Y-68084330D01*
X116066903Y-68328299D01*
X110543619Y-68328299D01*
X110541617Y-65240000D01*
X125561928Y-65240000D01*
X125565000Y-65754250D01*
X125723750Y-65913000D01*
X126873000Y-65913000D01*
X126873000Y-64763750D01*
X127127000Y-64763750D01*
X127127000Y-65913000D01*
X128276250Y-65913000D01*
X128435000Y-65754250D01*
X128438072Y-65240000D01*
X128425812Y-65115518D01*
X128389502Y-64995820D01*
X128330537Y-64885506D01*
X128251185Y-64788815D01*
X128154494Y-64709463D01*
X128044180Y-64650498D01*
X127924482Y-64614188D01*
X127800000Y-64601928D01*
X127285750Y-64605000D01*
X127127000Y-64763750D01*
X126873000Y-64763750D01*
X126714250Y-64605000D01*
X126200000Y-64601928D01*
X126075518Y-64614188D01*
X125955820Y-64650498D01*
X125845506Y-64709463D01*
X125748815Y-64788815D01*
X125669463Y-64885506D01*
X125610498Y-64995820D01*
X125574188Y-65115518D01*
X125561928Y-65240000D01*
X110541617Y-65240000D01*
X110535866Y-56373665D01*
X122390000Y-56373665D01*
X122390000Y-56656335D01*
X122445147Y-56933574D01*
X122553320Y-57194727D01*
X122710363Y-57429759D01*
X122910241Y-57629637D01*
X123145273Y-57786680D01*
X123406426Y-57894853D01*
X123683665Y-57950000D01*
X123966335Y-57950000D01*
X124243574Y-57894853D01*
X124504727Y-57786680D01*
X124739759Y-57629637D01*
X124939637Y-57429759D01*
X125096680Y-57194727D01*
X125204853Y-56933574D01*
X125260000Y-56656335D01*
X125260000Y-56373665D01*
X125204853Y-56096426D01*
X125096680Y-55835273D01*
X124939637Y-55600241D01*
X124739759Y-55400363D01*
X124504727Y-55243320D01*
X124243574Y-55135147D01*
X123966335Y-55080000D01*
X123683665Y-55080000D01*
X123406426Y-55135147D01*
X123145273Y-55243320D01*
X122910241Y-55400363D01*
X122710363Y-55600241D01*
X122553320Y-55835273D01*
X122445147Y-56096426D01*
X122390000Y-56373665D01*
X110535866Y-56373665D01*
X110529883Y-47148615D01*
X110582439Y-47412834D01*
X110724534Y-47755882D01*
X110930825Y-48064618D01*
X111193382Y-48327175D01*
X111502118Y-48533466D01*
X111845166Y-48675561D01*
X112209344Y-48748000D01*
X112580656Y-48748000D01*
X112944834Y-48675561D01*
X113287882Y-48533466D01*
X113596618Y-48327175D01*
X113859175Y-48064618D01*
X114065466Y-47755882D01*
X114207561Y-47412834D01*
X114280000Y-47048656D01*
X114280000Y-46677344D01*
X114215883Y-46355000D01*
X122383057Y-46355000D01*
X122410764Y-46636309D01*
X122492818Y-46906808D01*
X122626068Y-47156101D01*
X122805392Y-47374608D01*
X123023899Y-47553932D01*
X123273192Y-47687182D01*
X123543691Y-47769236D01*
X123754508Y-47790000D01*
X123895492Y-47790000D01*
X124106309Y-47769236D01*
X124150907Y-47755708D01*
X129415001Y-53019803D01*
X129415000Y-55294099D01*
X129373899Y-55316068D01*
X129155392Y-55495392D01*
X128976068Y-55713899D01*
X128842818Y-55963192D01*
X128760764Y-56233691D01*
X128733057Y-56515000D01*
X128760764Y-56796309D01*
X128842818Y-57066808D01*
X128976068Y-57316101D01*
X129155392Y-57534608D01*
X129373899Y-57713932D01*
X129623192Y-57847182D01*
X129893691Y-57929236D01*
X130104508Y-57950000D01*
X130245492Y-57950000D01*
X130456309Y-57929236D01*
X130726808Y-57847182D01*
X130976101Y-57713932D01*
X131194608Y-57534608D01*
X131373932Y-57316101D01*
X131395901Y-57275000D01*
X134671957Y-57275000D01*
X134775363Y-57429759D01*
X134975241Y-57629637D01*
X135210273Y-57786680D01*
X135471426Y-57894853D01*
X135748665Y-57950000D01*
X136031335Y-57950000D01*
X136308574Y-57894853D01*
X136569727Y-57786680D01*
X136804759Y-57629637D01*
X137004637Y-57429759D01*
X137161680Y-57194727D01*
X137269853Y-56933574D01*
X137325000Y-56656335D01*
X137325000Y-56373665D01*
X137269853Y-56096426D01*
X137161680Y-55835273D01*
X137004637Y-55600241D01*
X136804759Y-55400363D01*
X136569727Y-55243320D01*
X136308574Y-55135147D01*
X136031335Y-55080000D01*
X135748665Y-55080000D01*
X135471426Y-55135147D01*
X135210273Y-55243320D01*
X134975241Y-55400363D01*
X134775363Y-55600241D01*
X134671957Y-55755000D01*
X131395901Y-55755000D01*
X131373932Y-55713899D01*
X131194608Y-55495392D01*
X130976101Y-55316068D01*
X130935000Y-55294099D01*
X130935000Y-52742322D01*
X130938676Y-52704999D01*
X130935000Y-52667676D01*
X130935000Y-52667667D01*
X130924003Y-52556014D01*
X130880546Y-52412753D01*
X130812663Y-52285754D01*
X130809974Y-52280723D01*
X130738799Y-52193997D01*
X130715001Y-52164999D01*
X130686003Y-52141201D01*
X125225708Y-46680907D01*
X125239236Y-46636309D01*
X125266943Y-46355000D01*
X125239236Y-46073691D01*
X125157182Y-45803192D01*
X125023932Y-45553899D01*
X124844608Y-45335392D01*
X124626101Y-45156068D01*
X124376808Y-45022818D01*
X124106309Y-44940764D01*
X123895492Y-44920000D01*
X123754508Y-44920000D01*
X123543691Y-44940764D01*
X123273192Y-45022818D01*
X123023899Y-45156068D01*
X122805392Y-45335392D01*
X122626068Y-45553899D01*
X122492818Y-45803192D01*
X122410764Y-46073691D01*
X122383057Y-46355000D01*
X114215883Y-46355000D01*
X114207561Y-46313166D01*
X114065466Y-45970118D01*
X113859175Y-45661382D01*
X113596618Y-45398825D01*
X113287882Y-45192534D01*
X112944834Y-45050439D01*
X112580656Y-44978000D01*
X112209344Y-44978000D01*
X111845166Y-45050439D01*
X111502118Y-45192534D01*
X111193382Y-45398825D01*
X110930825Y-45661382D01*
X110724534Y-45970118D01*
X110582439Y-46313166D01*
X110529514Y-46579242D01*
X110524599Y-39000000D01*
X122921928Y-39000000D01*
X122934188Y-39124482D01*
X122970498Y-39244180D01*
X123029463Y-39354494D01*
X123108815Y-39451185D01*
X123205506Y-39530537D01*
X123315820Y-39589502D01*
X123435518Y-39625812D01*
X123560000Y-39638072D01*
X124174250Y-39635000D01*
X124333000Y-39476250D01*
X124333000Y-38227000D01*
X123083750Y-38227000D01*
X122925000Y-38385750D01*
X122921928Y-39000000D01*
X110524599Y-39000000D01*
X110523432Y-37200000D01*
X122921928Y-37200000D01*
X122925000Y-37814250D01*
X123083750Y-37973000D01*
X124333000Y-37973000D01*
X124333000Y-36723750D01*
X124587000Y-36723750D01*
X124587000Y-37973000D01*
X124607000Y-37973000D01*
X124607000Y-38227000D01*
X124587000Y-38227000D01*
X124587000Y-39476250D01*
X124745750Y-39635000D01*
X125360000Y-39638072D01*
X125484482Y-39625812D01*
X125604180Y-39589502D01*
X125714494Y-39530537D01*
X125811185Y-39451185D01*
X125890537Y-39354494D01*
X125949502Y-39244180D01*
X125955056Y-39225873D01*
X126021495Y-39292312D01*
X126240001Y-39438313D01*
X126240000Y-43142677D01*
X126236324Y-43180000D01*
X126240000Y-43217322D01*
X126240000Y-43217332D01*
X126250997Y-43328985D01*
X126294454Y-43472246D01*
X126365026Y-43604276D01*
X126404871Y-43652826D01*
X126459999Y-43720001D01*
X126489003Y-43743804D01*
X128776312Y-46031114D01*
X128740000Y-46213665D01*
X128740000Y-46496335D01*
X128795147Y-46773574D01*
X128903320Y-47034727D01*
X129060363Y-47269759D01*
X129260241Y-47469637D01*
X129495273Y-47626680D01*
X129756426Y-47734853D01*
X130033665Y-47790000D01*
X130316335Y-47790000D01*
X130593574Y-47734853D01*
X130854727Y-47626680D01*
X131089759Y-47469637D01*
X131289637Y-47269759D01*
X131446680Y-47034727D01*
X131554853Y-46773574D01*
X131610000Y-46496335D01*
X131610000Y-46213665D01*
X131554853Y-45936426D01*
X131446680Y-45675273D01*
X131289637Y-45440241D01*
X131089759Y-45240363D01*
X130854727Y-45083320D01*
X130593574Y-44975147D01*
X130316335Y-44920000D01*
X130033665Y-44920000D01*
X129851114Y-44956312D01*
X127760000Y-42865199D01*
X127760000Y-39438313D01*
X127978505Y-39292312D01*
X128192312Y-39078505D01*
X128360299Y-38827095D01*
X128476011Y-38547743D01*
X128535000Y-38251184D01*
X128535000Y-37948816D01*
X128476011Y-37652257D01*
X128360299Y-37372905D01*
X128192312Y-37121495D01*
X127978505Y-36907688D01*
X127727095Y-36739701D01*
X127447743Y-36623989D01*
X127151184Y-36565000D01*
X126848816Y-36565000D01*
X126552257Y-36623989D01*
X126272905Y-36739701D01*
X126021495Y-36907688D01*
X125955056Y-36974127D01*
X125949502Y-36955820D01*
X125890537Y-36845506D01*
X125811185Y-36748815D01*
X125714494Y-36669463D01*
X125604180Y-36610498D01*
X125484482Y-36574188D01*
X125360000Y-36561928D01*
X124745750Y-36565000D01*
X124587000Y-36723750D01*
X124333000Y-36723750D01*
X124174250Y-36565000D01*
X123560000Y-36561928D01*
X123435518Y-36574188D01*
X123315820Y-36610498D01*
X123205506Y-36669463D01*
X123108815Y-36748815D01*
X123029463Y-36845506D01*
X122970498Y-36955820D01*
X122934188Y-37075518D01*
X122921928Y-37200000D01*
X110523432Y-37200000D01*
X110521832Y-34734087D01*
X149320002Y-34607914D01*
X149280607Y-54857120D01*
M02*
