M48
; DRILL file {KiCad (5.1.0)-1} date 14/06/2019 11:01:15
; FORMAT={-:-/ absolute / inch / decimal}
; #@! TF.CreationDate,2019-06-14T11:01:15+01:00
; #@! TF.GenerationSoftware,Kicad,Pcbnew,(5.1.0)-1
; #@! TF.FileFunction,Plated,1,2,PTH
FMAT,2
INCH
T1C0.0315
T2C0.0354
T3C0.0394
%
G90
G05
T1
X5.3Y-2.9
X5.125Y-1.825
X4.875Y-1.825
X4.875Y-2.225
X4.6016Y-2.7292
X5.35Y-1.825
X5.35Y-2.225
X5.0Y-2.6
X5.0Y-2.7
X5.0Y-2.8
X5.0Y-2.9
X5.3Y-2.6
X5.3Y-2.7
X5.3Y-2.8
X5.125Y-2.225
X4.7Y-2.7292
T2
X5.2Y-1.5
X5.3Y-1.5
X4.9Y-1.5
X5.0Y-1.5
T3
X4.82Y-3.165
X4.92Y-3.165
X5.76Y-2.1875
X5.76Y-2.345
X5.76Y-2.5025
T0
M30
