G04 #@! TF.GenerationSoftware,KiCad,Pcbnew,(5.0.0)*
G04 #@! TF.CreationDate,2018-08-06T10:04:36+01:00*
G04 #@! TF.ProjectId,Sonoff_4ch_switch,536F6E6F66665F3463685F7377697463,rev?*
G04 #@! TF.SameCoordinates,Original*
G04 #@! TF.FileFunction,Soldermask,Top*
G04 #@! TF.FilePolarity,Negative*
%FSLAX46Y46*%
G04 Gerber Fmt 4.6, Leading zero omitted, Abs format (unit mm)*
G04 Created by KiCad (PCBNEW (5.0.0)) date 08/06/18 10:04:36*
%MOMM*%
%LPD*%
G01*
G04 APERTURE LIST*
%ADD10C,0.100000*%
%ADD11C,1.350000*%
%ADD12R,2.100000X2.100000*%
%ADD13O,2.100000X2.100000*%
%ADD14C,2.400000*%
%ADD15R,1.700000X1.950000*%
%ADD16R,1.300000X1.600000*%
%ADD17C,2.200000*%
%ADD18R,1.600000X1.300000*%
%ADD19O,2.900000X4.400000*%
%ADD20R,3.900000X3.900000*%
%ADD21R,1.200000X1.300000*%
%ADD22R,2.000000X3.900000*%
%ADD23R,2.400000X4.200000*%
%ADD24R,2.400000X1.900000*%
%ADD25O,2.900000X2.900000*%
%ADD26R,2.900000X2.900000*%
%ADD27C,2.900000*%
%ADD28C,6.000000*%
G04 APERTURE END LIST*
D10*
G04 #@! TO.C,R21*
G36*
X126545581Y-41744625D02*
X126578343Y-41749485D01*
X126610471Y-41757533D01*
X126641656Y-41768691D01*
X126671596Y-41782852D01*
X126700005Y-41799879D01*
X126726608Y-41819609D01*
X126751149Y-41841851D01*
X126773391Y-41866392D01*
X126793121Y-41892995D01*
X126810148Y-41921404D01*
X126824309Y-41951344D01*
X126835467Y-41982529D01*
X126843515Y-42014657D01*
X126848375Y-42047419D01*
X126850000Y-42080500D01*
X126850000Y-42755500D01*
X126848375Y-42788581D01*
X126843515Y-42821343D01*
X126835467Y-42853471D01*
X126824309Y-42884656D01*
X126810148Y-42914596D01*
X126793121Y-42943005D01*
X126773391Y-42969608D01*
X126751149Y-42994149D01*
X126726608Y-43016391D01*
X126700005Y-43036121D01*
X126671596Y-43053148D01*
X126641656Y-43067309D01*
X126610471Y-43078467D01*
X126578343Y-43086515D01*
X126545581Y-43091375D01*
X126512500Y-43093000D01*
X125737500Y-43093000D01*
X125704419Y-43091375D01*
X125671657Y-43086515D01*
X125639529Y-43078467D01*
X125608344Y-43067309D01*
X125578404Y-43053148D01*
X125549995Y-43036121D01*
X125523392Y-43016391D01*
X125498851Y-42994149D01*
X125476609Y-42969608D01*
X125456879Y-42943005D01*
X125439852Y-42914596D01*
X125425691Y-42884656D01*
X125414533Y-42853471D01*
X125406485Y-42821343D01*
X125401625Y-42788581D01*
X125400000Y-42755500D01*
X125400000Y-42080500D01*
X125401625Y-42047419D01*
X125406485Y-42014657D01*
X125414533Y-41982529D01*
X125425691Y-41951344D01*
X125439852Y-41921404D01*
X125456879Y-41892995D01*
X125476609Y-41866392D01*
X125498851Y-41841851D01*
X125523392Y-41819609D01*
X125549995Y-41799879D01*
X125578404Y-41782852D01*
X125608344Y-41768691D01*
X125639529Y-41757533D01*
X125671657Y-41749485D01*
X125704419Y-41744625D01*
X125737500Y-41743000D01*
X126512500Y-41743000D01*
X126545581Y-41744625D01*
X126545581Y-41744625D01*
G37*
D11*
X126125000Y-42418000D03*
D10*
G36*
X128295581Y-41744625D02*
X128328343Y-41749485D01*
X128360471Y-41757533D01*
X128391656Y-41768691D01*
X128421596Y-41782852D01*
X128450005Y-41799879D01*
X128476608Y-41819609D01*
X128501149Y-41841851D01*
X128523391Y-41866392D01*
X128543121Y-41892995D01*
X128560148Y-41921404D01*
X128574309Y-41951344D01*
X128585467Y-41982529D01*
X128593515Y-42014657D01*
X128598375Y-42047419D01*
X128600000Y-42080500D01*
X128600000Y-42755500D01*
X128598375Y-42788581D01*
X128593515Y-42821343D01*
X128585467Y-42853471D01*
X128574309Y-42884656D01*
X128560148Y-42914596D01*
X128543121Y-42943005D01*
X128523391Y-42969608D01*
X128501149Y-42994149D01*
X128476608Y-43016391D01*
X128450005Y-43036121D01*
X128421596Y-43053148D01*
X128391656Y-43067309D01*
X128360471Y-43078467D01*
X128328343Y-43086515D01*
X128295581Y-43091375D01*
X128262500Y-43093000D01*
X127487500Y-43093000D01*
X127454419Y-43091375D01*
X127421657Y-43086515D01*
X127389529Y-43078467D01*
X127358344Y-43067309D01*
X127328404Y-43053148D01*
X127299995Y-43036121D01*
X127273392Y-43016391D01*
X127248851Y-42994149D01*
X127226609Y-42969608D01*
X127206879Y-42943005D01*
X127189852Y-42914596D01*
X127175691Y-42884656D01*
X127164533Y-42853471D01*
X127156485Y-42821343D01*
X127151625Y-42788581D01*
X127150000Y-42755500D01*
X127150000Y-42080500D01*
X127151625Y-42047419D01*
X127156485Y-42014657D01*
X127164533Y-41982529D01*
X127175691Y-41951344D01*
X127189852Y-41921404D01*
X127206879Y-41892995D01*
X127226609Y-41866392D01*
X127248851Y-41841851D01*
X127273392Y-41819609D01*
X127299995Y-41799879D01*
X127328404Y-41782852D01*
X127358344Y-41768691D01*
X127389529Y-41757533D01*
X127421657Y-41749485D01*
X127454419Y-41744625D01*
X127487500Y-41743000D01*
X128262500Y-41743000D01*
X128295581Y-41744625D01*
X128295581Y-41744625D01*
G37*
D11*
X127875000Y-42418000D03*
G04 #@! TD*
D10*
G04 #@! TO.C,R20*
G36*
X108991581Y-41744625D02*
X109024343Y-41749485D01*
X109056471Y-41757533D01*
X109087656Y-41768691D01*
X109117596Y-41782852D01*
X109146005Y-41799879D01*
X109172608Y-41819609D01*
X109197149Y-41841851D01*
X109219391Y-41866392D01*
X109239121Y-41892995D01*
X109256148Y-41921404D01*
X109270309Y-41951344D01*
X109281467Y-41982529D01*
X109289515Y-42014657D01*
X109294375Y-42047419D01*
X109296000Y-42080500D01*
X109296000Y-42755500D01*
X109294375Y-42788581D01*
X109289515Y-42821343D01*
X109281467Y-42853471D01*
X109270309Y-42884656D01*
X109256148Y-42914596D01*
X109239121Y-42943005D01*
X109219391Y-42969608D01*
X109197149Y-42994149D01*
X109172608Y-43016391D01*
X109146005Y-43036121D01*
X109117596Y-43053148D01*
X109087656Y-43067309D01*
X109056471Y-43078467D01*
X109024343Y-43086515D01*
X108991581Y-43091375D01*
X108958500Y-43093000D01*
X108183500Y-43093000D01*
X108150419Y-43091375D01*
X108117657Y-43086515D01*
X108085529Y-43078467D01*
X108054344Y-43067309D01*
X108024404Y-43053148D01*
X107995995Y-43036121D01*
X107969392Y-43016391D01*
X107944851Y-42994149D01*
X107922609Y-42969608D01*
X107902879Y-42943005D01*
X107885852Y-42914596D01*
X107871691Y-42884656D01*
X107860533Y-42853471D01*
X107852485Y-42821343D01*
X107847625Y-42788581D01*
X107846000Y-42755500D01*
X107846000Y-42080500D01*
X107847625Y-42047419D01*
X107852485Y-42014657D01*
X107860533Y-41982529D01*
X107871691Y-41951344D01*
X107885852Y-41921404D01*
X107902879Y-41892995D01*
X107922609Y-41866392D01*
X107944851Y-41841851D01*
X107969392Y-41819609D01*
X107995995Y-41799879D01*
X108024404Y-41782852D01*
X108054344Y-41768691D01*
X108085529Y-41757533D01*
X108117657Y-41749485D01*
X108150419Y-41744625D01*
X108183500Y-41743000D01*
X108958500Y-41743000D01*
X108991581Y-41744625D01*
X108991581Y-41744625D01*
G37*
D11*
X108571000Y-42418000D03*
D10*
G36*
X107241581Y-41744625D02*
X107274343Y-41749485D01*
X107306471Y-41757533D01*
X107337656Y-41768691D01*
X107367596Y-41782852D01*
X107396005Y-41799879D01*
X107422608Y-41819609D01*
X107447149Y-41841851D01*
X107469391Y-41866392D01*
X107489121Y-41892995D01*
X107506148Y-41921404D01*
X107520309Y-41951344D01*
X107531467Y-41982529D01*
X107539515Y-42014657D01*
X107544375Y-42047419D01*
X107546000Y-42080500D01*
X107546000Y-42755500D01*
X107544375Y-42788581D01*
X107539515Y-42821343D01*
X107531467Y-42853471D01*
X107520309Y-42884656D01*
X107506148Y-42914596D01*
X107489121Y-42943005D01*
X107469391Y-42969608D01*
X107447149Y-42994149D01*
X107422608Y-43016391D01*
X107396005Y-43036121D01*
X107367596Y-43053148D01*
X107337656Y-43067309D01*
X107306471Y-43078467D01*
X107274343Y-43086515D01*
X107241581Y-43091375D01*
X107208500Y-43093000D01*
X106433500Y-43093000D01*
X106400419Y-43091375D01*
X106367657Y-43086515D01*
X106335529Y-43078467D01*
X106304344Y-43067309D01*
X106274404Y-43053148D01*
X106245995Y-43036121D01*
X106219392Y-43016391D01*
X106194851Y-42994149D01*
X106172609Y-42969608D01*
X106152879Y-42943005D01*
X106135852Y-42914596D01*
X106121691Y-42884656D01*
X106110533Y-42853471D01*
X106102485Y-42821343D01*
X106097625Y-42788581D01*
X106096000Y-42755500D01*
X106096000Y-42080500D01*
X106097625Y-42047419D01*
X106102485Y-42014657D01*
X106110533Y-41982529D01*
X106121691Y-41951344D01*
X106135852Y-41921404D01*
X106152879Y-41892995D01*
X106172609Y-41866392D01*
X106194851Y-41841851D01*
X106219392Y-41819609D01*
X106245995Y-41799879D01*
X106274404Y-41782852D01*
X106304344Y-41768691D01*
X106335529Y-41757533D01*
X106367657Y-41749485D01*
X106400419Y-41744625D01*
X106433500Y-41743000D01*
X107208500Y-41743000D01*
X107241581Y-41744625D01*
X107241581Y-41744625D01*
G37*
D11*
X106821000Y-42418000D03*
G04 #@! TD*
D10*
G04 #@! TO.C,R19*
G36*
X136705581Y-41744625D02*
X136738343Y-41749485D01*
X136770471Y-41757533D01*
X136801656Y-41768691D01*
X136831596Y-41782852D01*
X136860005Y-41799879D01*
X136886608Y-41819609D01*
X136911149Y-41841851D01*
X136933391Y-41866392D01*
X136953121Y-41892995D01*
X136970148Y-41921404D01*
X136984309Y-41951344D01*
X136995467Y-41982529D01*
X137003515Y-42014657D01*
X137008375Y-42047419D01*
X137010000Y-42080500D01*
X137010000Y-42755500D01*
X137008375Y-42788581D01*
X137003515Y-42821343D01*
X136995467Y-42853471D01*
X136984309Y-42884656D01*
X136970148Y-42914596D01*
X136953121Y-42943005D01*
X136933391Y-42969608D01*
X136911149Y-42994149D01*
X136886608Y-43016391D01*
X136860005Y-43036121D01*
X136831596Y-43053148D01*
X136801656Y-43067309D01*
X136770471Y-43078467D01*
X136738343Y-43086515D01*
X136705581Y-43091375D01*
X136672500Y-43093000D01*
X135897500Y-43093000D01*
X135864419Y-43091375D01*
X135831657Y-43086515D01*
X135799529Y-43078467D01*
X135768344Y-43067309D01*
X135738404Y-43053148D01*
X135709995Y-43036121D01*
X135683392Y-43016391D01*
X135658851Y-42994149D01*
X135636609Y-42969608D01*
X135616879Y-42943005D01*
X135599852Y-42914596D01*
X135585691Y-42884656D01*
X135574533Y-42853471D01*
X135566485Y-42821343D01*
X135561625Y-42788581D01*
X135560000Y-42755500D01*
X135560000Y-42080500D01*
X135561625Y-42047419D01*
X135566485Y-42014657D01*
X135574533Y-41982529D01*
X135585691Y-41951344D01*
X135599852Y-41921404D01*
X135616879Y-41892995D01*
X135636609Y-41866392D01*
X135658851Y-41841851D01*
X135683392Y-41819609D01*
X135709995Y-41799879D01*
X135738404Y-41782852D01*
X135768344Y-41768691D01*
X135799529Y-41757533D01*
X135831657Y-41749485D01*
X135864419Y-41744625D01*
X135897500Y-41743000D01*
X136672500Y-41743000D01*
X136705581Y-41744625D01*
X136705581Y-41744625D01*
G37*
D11*
X136285000Y-42418000D03*
D10*
G36*
X138455581Y-41744625D02*
X138488343Y-41749485D01*
X138520471Y-41757533D01*
X138551656Y-41768691D01*
X138581596Y-41782852D01*
X138610005Y-41799879D01*
X138636608Y-41819609D01*
X138661149Y-41841851D01*
X138683391Y-41866392D01*
X138703121Y-41892995D01*
X138720148Y-41921404D01*
X138734309Y-41951344D01*
X138745467Y-41982529D01*
X138753515Y-42014657D01*
X138758375Y-42047419D01*
X138760000Y-42080500D01*
X138760000Y-42755500D01*
X138758375Y-42788581D01*
X138753515Y-42821343D01*
X138745467Y-42853471D01*
X138734309Y-42884656D01*
X138720148Y-42914596D01*
X138703121Y-42943005D01*
X138683391Y-42969608D01*
X138661149Y-42994149D01*
X138636608Y-43016391D01*
X138610005Y-43036121D01*
X138581596Y-43053148D01*
X138551656Y-43067309D01*
X138520471Y-43078467D01*
X138488343Y-43086515D01*
X138455581Y-43091375D01*
X138422500Y-43093000D01*
X137647500Y-43093000D01*
X137614419Y-43091375D01*
X137581657Y-43086515D01*
X137549529Y-43078467D01*
X137518344Y-43067309D01*
X137488404Y-43053148D01*
X137459995Y-43036121D01*
X137433392Y-43016391D01*
X137408851Y-42994149D01*
X137386609Y-42969608D01*
X137366879Y-42943005D01*
X137349852Y-42914596D01*
X137335691Y-42884656D01*
X137324533Y-42853471D01*
X137316485Y-42821343D01*
X137311625Y-42788581D01*
X137310000Y-42755500D01*
X137310000Y-42080500D01*
X137311625Y-42047419D01*
X137316485Y-42014657D01*
X137324533Y-41982529D01*
X137335691Y-41951344D01*
X137349852Y-41921404D01*
X137366879Y-41892995D01*
X137386609Y-41866392D01*
X137408851Y-41841851D01*
X137433392Y-41819609D01*
X137459995Y-41799879D01*
X137488404Y-41782852D01*
X137518344Y-41768691D01*
X137549529Y-41757533D01*
X137581657Y-41749485D01*
X137614419Y-41744625D01*
X137647500Y-41743000D01*
X138422500Y-41743000D01*
X138455581Y-41744625D01*
X138455581Y-41744625D01*
G37*
D11*
X138035000Y-42418000D03*
G04 #@! TD*
D10*
G04 #@! TO.C,R18*
G36*
X118389581Y-41744625D02*
X118422343Y-41749485D01*
X118454471Y-41757533D01*
X118485656Y-41768691D01*
X118515596Y-41782852D01*
X118544005Y-41799879D01*
X118570608Y-41819609D01*
X118595149Y-41841851D01*
X118617391Y-41866392D01*
X118637121Y-41892995D01*
X118654148Y-41921404D01*
X118668309Y-41951344D01*
X118679467Y-41982529D01*
X118687515Y-42014657D01*
X118692375Y-42047419D01*
X118694000Y-42080500D01*
X118694000Y-42755500D01*
X118692375Y-42788581D01*
X118687515Y-42821343D01*
X118679467Y-42853471D01*
X118668309Y-42884656D01*
X118654148Y-42914596D01*
X118637121Y-42943005D01*
X118617391Y-42969608D01*
X118595149Y-42994149D01*
X118570608Y-43016391D01*
X118544005Y-43036121D01*
X118515596Y-43053148D01*
X118485656Y-43067309D01*
X118454471Y-43078467D01*
X118422343Y-43086515D01*
X118389581Y-43091375D01*
X118356500Y-43093000D01*
X117581500Y-43093000D01*
X117548419Y-43091375D01*
X117515657Y-43086515D01*
X117483529Y-43078467D01*
X117452344Y-43067309D01*
X117422404Y-43053148D01*
X117393995Y-43036121D01*
X117367392Y-43016391D01*
X117342851Y-42994149D01*
X117320609Y-42969608D01*
X117300879Y-42943005D01*
X117283852Y-42914596D01*
X117269691Y-42884656D01*
X117258533Y-42853471D01*
X117250485Y-42821343D01*
X117245625Y-42788581D01*
X117244000Y-42755500D01*
X117244000Y-42080500D01*
X117245625Y-42047419D01*
X117250485Y-42014657D01*
X117258533Y-41982529D01*
X117269691Y-41951344D01*
X117283852Y-41921404D01*
X117300879Y-41892995D01*
X117320609Y-41866392D01*
X117342851Y-41841851D01*
X117367392Y-41819609D01*
X117393995Y-41799879D01*
X117422404Y-41782852D01*
X117452344Y-41768691D01*
X117483529Y-41757533D01*
X117515657Y-41749485D01*
X117548419Y-41744625D01*
X117581500Y-41743000D01*
X118356500Y-41743000D01*
X118389581Y-41744625D01*
X118389581Y-41744625D01*
G37*
D11*
X117969000Y-42418000D03*
D10*
G36*
X116639581Y-41744625D02*
X116672343Y-41749485D01*
X116704471Y-41757533D01*
X116735656Y-41768691D01*
X116765596Y-41782852D01*
X116794005Y-41799879D01*
X116820608Y-41819609D01*
X116845149Y-41841851D01*
X116867391Y-41866392D01*
X116887121Y-41892995D01*
X116904148Y-41921404D01*
X116918309Y-41951344D01*
X116929467Y-41982529D01*
X116937515Y-42014657D01*
X116942375Y-42047419D01*
X116944000Y-42080500D01*
X116944000Y-42755500D01*
X116942375Y-42788581D01*
X116937515Y-42821343D01*
X116929467Y-42853471D01*
X116918309Y-42884656D01*
X116904148Y-42914596D01*
X116887121Y-42943005D01*
X116867391Y-42969608D01*
X116845149Y-42994149D01*
X116820608Y-43016391D01*
X116794005Y-43036121D01*
X116765596Y-43053148D01*
X116735656Y-43067309D01*
X116704471Y-43078467D01*
X116672343Y-43086515D01*
X116639581Y-43091375D01*
X116606500Y-43093000D01*
X115831500Y-43093000D01*
X115798419Y-43091375D01*
X115765657Y-43086515D01*
X115733529Y-43078467D01*
X115702344Y-43067309D01*
X115672404Y-43053148D01*
X115643995Y-43036121D01*
X115617392Y-43016391D01*
X115592851Y-42994149D01*
X115570609Y-42969608D01*
X115550879Y-42943005D01*
X115533852Y-42914596D01*
X115519691Y-42884656D01*
X115508533Y-42853471D01*
X115500485Y-42821343D01*
X115495625Y-42788581D01*
X115494000Y-42755500D01*
X115494000Y-42080500D01*
X115495625Y-42047419D01*
X115500485Y-42014657D01*
X115508533Y-41982529D01*
X115519691Y-41951344D01*
X115533852Y-41921404D01*
X115550879Y-41892995D01*
X115570609Y-41866392D01*
X115592851Y-41841851D01*
X115617392Y-41819609D01*
X115643995Y-41799879D01*
X115672404Y-41782852D01*
X115702344Y-41768691D01*
X115733529Y-41757533D01*
X115765657Y-41749485D01*
X115798419Y-41744625D01*
X115831500Y-41743000D01*
X116606500Y-41743000D01*
X116639581Y-41744625D01*
X116639581Y-41744625D01*
G37*
D11*
X116219000Y-42418000D03*
G04 #@! TD*
D10*
G04 #@! TO.C,R17*
G36*
X101879581Y-44792625D02*
X101912343Y-44797485D01*
X101944471Y-44805533D01*
X101975656Y-44816691D01*
X102005596Y-44830852D01*
X102034005Y-44847879D01*
X102060608Y-44867609D01*
X102085149Y-44889851D01*
X102107391Y-44914392D01*
X102127121Y-44940995D01*
X102144148Y-44969404D01*
X102158309Y-44999344D01*
X102169467Y-45030529D01*
X102177515Y-45062657D01*
X102182375Y-45095419D01*
X102184000Y-45128500D01*
X102184000Y-45803500D01*
X102182375Y-45836581D01*
X102177515Y-45869343D01*
X102169467Y-45901471D01*
X102158309Y-45932656D01*
X102144148Y-45962596D01*
X102127121Y-45991005D01*
X102107391Y-46017608D01*
X102085149Y-46042149D01*
X102060608Y-46064391D01*
X102034005Y-46084121D01*
X102005596Y-46101148D01*
X101975656Y-46115309D01*
X101944471Y-46126467D01*
X101912343Y-46134515D01*
X101879581Y-46139375D01*
X101846500Y-46141000D01*
X101071500Y-46141000D01*
X101038419Y-46139375D01*
X101005657Y-46134515D01*
X100973529Y-46126467D01*
X100942344Y-46115309D01*
X100912404Y-46101148D01*
X100883995Y-46084121D01*
X100857392Y-46064391D01*
X100832851Y-46042149D01*
X100810609Y-46017608D01*
X100790879Y-45991005D01*
X100773852Y-45962596D01*
X100759691Y-45932656D01*
X100748533Y-45901471D01*
X100740485Y-45869343D01*
X100735625Y-45836581D01*
X100734000Y-45803500D01*
X100734000Y-45128500D01*
X100735625Y-45095419D01*
X100740485Y-45062657D01*
X100748533Y-45030529D01*
X100759691Y-44999344D01*
X100773852Y-44969404D01*
X100790879Y-44940995D01*
X100810609Y-44914392D01*
X100832851Y-44889851D01*
X100857392Y-44867609D01*
X100883995Y-44847879D01*
X100912404Y-44830852D01*
X100942344Y-44816691D01*
X100973529Y-44805533D01*
X101005657Y-44797485D01*
X101038419Y-44792625D01*
X101071500Y-44791000D01*
X101846500Y-44791000D01*
X101879581Y-44792625D01*
X101879581Y-44792625D01*
G37*
D11*
X101459000Y-45466000D03*
D10*
G36*
X100129581Y-44792625D02*
X100162343Y-44797485D01*
X100194471Y-44805533D01*
X100225656Y-44816691D01*
X100255596Y-44830852D01*
X100284005Y-44847879D01*
X100310608Y-44867609D01*
X100335149Y-44889851D01*
X100357391Y-44914392D01*
X100377121Y-44940995D01*
X100394148Y-44969404D01*
X100408309Y-44999344D01*
X100419467Y-45030529D01*
X100427515Y-45062657D01*
X100432375Y-45095419D01*
X100434000Y-45128500D01*
X100434000Y-45803500D01*
X100432375Y-45836581D01*
X100427515Y-45869343D01*
X100419467Y-45901471D01*
X100408309Y-45932656D01*
X100394148Y-45962596D01*
X100377121Y-45991005D01*
X100357391Y-46017608D01*
X100335149Y-46042149D01*
X100310608Y-46064391D01*
X100284005Y-46084121D01*
X100255596Y-46101148D01*
X100225656Y-46115309D01*
X100194471Y-46126467D01*
X100162343Y-46134515D01*
X100129581Y-46139375D01*
X100096500Y-46141000D01*
X99321500Y-46141000D01*
X99288419Y-46139375D01*
X99255657Y-46134515D01*
X99223529Y-46126467D01*
X99192344Y-46115309D01*
X99162404Y-46101148D01*
X99133995Y-46084121D01*
X99107392Y-46064391D01*
X99082851Y-46042149D01*
X99060609Y-46017608D01*
X99040879Y-45991005D01*
X99023852Y-45962596D01*
X99009691Y-45932656D01*
X98998533Y-45901471D01*
X98990485Y-45869343D01*
X98985625Y-45836581D01*
X98984000Y-45803500D01*
X98984000Y-45128500D01*
X98985625Y-45095419D01*
X98990485Y-45062657D01*
X98998533Y-45030529D01*
X99009691Y-44999344D01*
X99023852Y-44969404D01*
X99040879Y-44940995D01*
X99060609Y-44914392D01*
X99082851Y-44889851D01*
X99107392Y-44867609D01*
X99133995Y-44847879D01*
X99162404Y-44830852D01*
X99192344Y-44816691D01*
X99223529Y-44805533D01*
X99255657Y-44797485D01*
X99288419Y-44792625D01*
X99321500Y-44791000D01*
X100096500Y-44791000D01*
X100129581Y-44792625D01*
X100129581Y-44792625D01*
G37*
D11*
X99709000Y-45466000D03*
G04 #@! TD*
D10*
G04 #@! TO.C,R15*
G36*
X101208581Y-75109625D02*
X101241343Y-75114485D01*
X101273471Y-75122533D01*
X101304656Y-75133691D01*
X101334596Y-75147852D01*
X101363005Y-75164879D01*
X101389608Y-75184609D01*
X101414149Y-75206851D01*
X101436391Y-75231392D01*
X101456121Y-75257995D01*
X101473148Y-75286404D01*
X101487309Y-75316344D01*
X101498467Y-75347529D01*
X101506515Y-75379657D01*
X101511375Y-75412419D01*
X101513000Y-75445500D01*
X101513000Y-76220500D01*
X101511375Y-76253581D01*
X101506515Y-76286343D01*
X101498467Y-76318471D01*
X101487309Y-76349656D01*
X101473148Y-76379596D01*
X101456121Y-76408005D01*
X101436391Y-76434608D01*
X101414149Y-76459149D01*
X101389608Y-76481391D01*
X101363005Y-76501121D01*
X101334596Y-76518148D01*
X101304656Y-76532309D01*
X101273471Y-76543467D01*
X101241343Y-76551515D01*
X101208581Y-76556375D01*
X101175500Y-76558000D01*
X100500500Y-76558000D01*
X100467419Y-76556375D01*
X100434657Y-76551515D01*
X100402529Y-76543467D01*
X100371344Y-76532309D01*
X100341404Y-76518148D01*
X100312995Y-76501121D01*
X100286392Y-76481391D01*
X100261851Y-76459149D01*
X100239609Y-76434608D01*
X100219879Y-76408005D01*
X100202852Y-76379596D01*
X100188691Y-76349656D01*
X100177533Y-76318471D01*
X100169485Y-76286343D01*
X100164625Y-76253581D01*
X100163000Y-76220500D01*
X100163000Y-75445500D01*
X100164625Y-75412419D01*
X100169485Y-75379657D01*
X100177533Y-75347529D01*
X100188691Y-75316344D01*
X100202852Y-75286404D01*
X100219879Y-75257995D01*
X100239609Y-75231392D01*
X100261851Y-75206851D01*
X100286392Y-75184609D01*
X100312995Y-75164879D01*
X100341404Y-75147852D01*
X100371344Y-75133691D01*
X100402529Y-75122533D01*
X100434657Y-75114485D01*
X100467419Y-75109625D01*
X100500500Y-75108000D01*
X101175500Y-75108000D01*
X101208581Y-75109625D01*
X101208581Y-75109625D01*
G37*
D11*
X100838000Y-75833000D03*
D10*
G36*
X101208581Y-76859625D02*
X101241343Y-76864485D01*
X101273471Y-76872533D01*
X101304656Y-76883691D01*
X101334596Y-76897852D01*
X101363005Y-76914879D01*
X101389608Y-76934609D01*
X101414149Y-76956851D01*
X101436391Y-76981392D01*
X101456121Y-77007995D01*
X101473148Y-77036404D01*
X101487309Y-77066344D01*
X101498467Y-77097529D01*
X101506515Y-77129657D01*
X101511375Y-77162419D01*
X101513000Y-77195500D01*
X101513000Y-77970500D01*
X101511375Y-78003581D01*
X101506515Y-78036343D01*
X101498467Y-78068471D01*
X101487309Y-78099656D01*
X101473148Y-78129596D01*
X101456121Y-78158005D01*
X101436391Y-78184608D01*
X101414149Y-78209149D01*
X101389608Y-78231391D01*
X101363005Y-78251121D01*
X101334596Y-78268148D01*
X101304656Y-78282309D01*
X101273471Y-78293467D01*
X101241343Y-78301515D01*
X101208581Y-78306375D01*
X101175500Y-78308000D01*
X100500500Y-78308000D01*
X100467419Y-78306375D01*
X100434657Y-78301515D01*
X100402529Y-78293467D01*
X100371344Y-78282309D01*
X100341404Y-78268148D01*
X100312995Y-78251121D01*
X100286392Y-78231391D01*
X100261851Y-78209149D01*
X100239609Y-78184608D01*
X100219879Y-78158005D01*
X100202852Y-78129596D01*
X100188691Y-78099656D01*
X100177533Y-78068471D01*
X100169485Y-78036343D01*
X100164625Y-78003581D01*
X100163000Y-77970500D01*
X100163000Y-77195500D01*
X100164625Y-77162419D01*
X100169485Y-77129657D01*
X100177533Y-77097529D01*
X100188691Y-77066344D01*
X100202852Y-77036404D01*
X100219879Y-77007995D01*
X100239609Y-76981392D01*
X100261851Y-76956851D01*
X100286392Y-76934609D01*
X100312995Y-76914879D01*
X100341404Y-76897852D01*
X100371344Y-76883691D01*
X100402529Y-76872533D01*
X100434657Y-76864485D01*
X100467419Y-76859625D01*
X100500500Y-76858000D01*
X101175500Y-76858000D01*
X101208581Y-76859625D01*
X101208581Y-76859625D01*
G37*
D11*
X100838000Y-77583000D03*
G04 #@! TD*
D10*
G04 #@! TO.C,R14*
G36*
X113845581Y-74764625D02*
X113878343Y-74769485D01*
X113910471Y-74777533D01*
X113941656Y-74788691D01*
X113971596Y-74802852D01*
X114000005Y-74819879D01*
X114026608Y-74839609D01*
X114051149Y-74861851D01*
X114073391Y-74886392D01*
X114093121Y-74912995D01*
X114110148Y-74941404D01*
X114124309Y-74971344D01*
X114135467Y-75002529D01*
X114143515Y-75034657D01*
X114148375Y-75067419D01*
X114150000Y-75100500D01*
X114150000Y-75775500D01*
X114148375Y-75808581D01*
X114143515Y-75841343D01*
X114135467Y-75873471D01*
X114124309Y-75904656D01*
X114110148Y-75934596D01*
X114093121Y-75963005D01*
X114073391Y-75989608D01*
X114051149Y-76014149D01*
X114026608Y-76036391D01*
X114000005Y-76056121D01*
X113971596Y-76073148D01*
X113941656Y-76087309D01*
X113910471Y-76098467D01*
X113878343Y-76106515D01*
X113845581Y-76111375D01*
X113812500Y-76113000D01*
X113037500Y-76113000D01*
X113004419Y-76111375D01*
X112971657Y-76106515D01*
X112939529Y-76098467D01*
X112908344Y-76087309D01*
X112878404Y-76073148D01*
X112849995Y-76056121D01*
X112823392Y-76036391D01*
X112798851Y-76014149D01*
X112776609Y-75989608D01*
X112756879Y-75963005D01*
X112739852Y-75934596D01*
X112725691Y-75904656D01*
X112714533Y-75873471D01*
X112706485Y-75841343D01*
X112701625Y-75808581D01*
X112700000Y-75775500D01*
X112700000Y-75100500D01*
X112701625Y-75067419D01*
X112706485Y-75034657D01*
X112714533Y-75002529D01*
X112725691Y-74971344D01*
X112739852Y-74941404D01*
X112756879Y-74912995D01*
X112776609Y-74886392D01*
X112798851Y-74861851D01*
X112823392Y-74839609D01*
X112849995Y-74819879D01*
X112878404Y-74802852D01*
X112908344Y-74788691D01*
X112939529Y-74777533D01*
X112971657Y-74769485D01*
X113004419Y-74764625D01*
X113037500Y-74763000D01*
X113812500Y-74763000D01*
X113845581Y-74764625D01*
X113845581Y-74764625D01*
G37*
D11*
X113425000Y-75438000D03*
D10*
G36*
X115595581Y-74764625D02*
X115628343Y-74769485D01*
X115660471Y-74777533D01*
X115691656Y-74788691D01*
X115721596Y-74802852D01*
X115750005Y-74819879D01*
X115776608Y-74839609D01*
X115801149Y-74861851D01*
X115823391Y-74886392D01*
X115843121Y-74912995D01*
X115860148Y-74941404D01*
X115874309Y-74971344D01*
X115885467Y-75002529D01*
X115893515Y-75034657D01*
X115898375Y-75067419D01*
X115900000Y-75100500D01*
X115900000Y-75775500D01*
X115898375Y-75808581D01*
X115893515Y-75841343D01*
X115885467Y-75873471D01*
X115874309Y-75904656D01*
X115860148Y-75934596D01*
X115843121Y-75963005D01*
X115823391Y-75989608D01*
X115801149Y-76014149D01*
X115776608Y-76036391D01*
X115750005Y-76056121D01*
X115721596Y-76073148D01*
X115691656Y-76087309D01*
X115660471Y-76098467D01*
X115628343Y-76106515D01*
X115595581Y-76111375D01*
X115562500Y-76113000D01*
X114787500Y-76113000D01*
X114754419Y-76111375D01*
X114721657Y-76106515D01*
X114689529Y-76098467D01*
X114658344Y-76087309D01*
X114628404Y-76073148D01*
X114599995Y-76056121D01*
X114573392Y-76036391D01*
X114548851Y-76014149D01*
X114526609Y-75989608D01*
X114506879Y-75963005D01*
X114489852Y-75934596D01*
X114475691Y-75904656D01*
X114464533Y-75873471D01*
X114456485Y-75841343D01*
X114451625Y-75808581D01*
X114450000Y-75775500D01*
X114450000Y-75100500D01*
X114451625Y-75067419D01*
X114456485Y-75034657D01*
X114464533Y-75002529D01*
X114475691Y-74971344D01*
X114489852Y-74941404D01*
X114506879Y-74912995D01*
X114526609Y-74886392D01*
X114548851Y-74861851D01*
X114573392Y-74839609D01*
X114599995Y-74819879D01*
X114628404Y-74802852D01*
X114658344Y-74788691D01*
X114689529Y-74777533D01*
X114721657Y-74769485D01*
X114754419Y-74764625D01*
X114787500Y-74763000D01*
X115562500Y-74763000D01*
X115595581Y-74764625D01*
X115595581Y-74764625D01*
G37*
D11*
X115175000Y-75438000D03*
G04 #@! TD*
D10*
G04 #@! TO.C,R7*
G36*
X92255581Y-79336625D02*
X92288343Y-79341485D01*
X92320471Y-79349533D01*
X92351656Y-79360691D01*
X92381596Y-79374852D01*
X92410005Y-79391879D01*
X92436608Y-79411609D01*
X92461149Y-79433851D01*
X92483391Y-79458392D01*
X92503121Y-79484995D01*
X92520148Y-79513404D01*
X92534309Y-79543344D01*
X92545467Y-79574529D01*
X92553515Y-79606657D01*
X92558375Y-79639419D01*
X92560000Y-79672500D01*
X92560000Y-80347500D01*
X92558375Y-80380581D01*
X92553515Y-80413343D01*
X92545467Y-80445471D01*
X92534309Y-80476656D01*
X92520148Y-80506596D01*
X92503121Y-80535005D01*
X92483391Y-80561608D01*
X92461149Y-80586149D01*
X92436608Y-80608391D01*
X92410005Y-80628121D01*
X92381596Y-80645148D01*
X92351656Y-80659309D01*
X92320471Y-80670467D01*
X92288343Y-80678515D01*
X92255581Y-80683375D01*
X92222500Y-80685000D01*
X91447500Y-80685000D01*
X91414419Y-80683375D01*
X91381657Y-80678515D01*
X91349529Y-80670467D01*
X91318344Y-80659309D01*
X91288404Y-80645148D01*
X91259995Y-80628121D01*
X91233392Y-80608391D01*
X91208851Y-80586149D01*
X91186609Y-80561608D01*
X91166879Y-80535005D01*
X91149852Y-80506596D01*
X91135691Y-80476656D01*
X91124533Y-80445471D01*
X91116485Y-80413343D01*
X91111625Y-80380581D01*
X91110000Y-80347500D01*
X91110000Y-79672500D01*
X91111625Y-79639419D01*
X91116485Y-79606657D01*
X91124533Y-79574529D01*
X91135691Y-79543344D01*
X91149852Y-79513404D01*
X91166879Y-79484995D01*
X91186609Y-79458392D01*
X91208851Y-79433851D01*
X91233392Y-79411609D01*
X91259995Y-79391879D01*
X91288404Y-79374852D01*
X91318344Y-79360691D01*
X91349529Y-79349533D01*
X91381657Y-79341485D01*
X91414419Y-79336625D01*
X91447500Y-79335000D01*
X92222500Y-79335000D01*
X92255581Y-79336625D01*
X92255581Y-79336625D01*
G37*
D11*
X91835000Y-80010000D03*
D10*
G36*
X94005581Y-79336625D02*
X94038343Y-79341485D01*
X94070471Y-79349533D01*
X94101656Y-79360691D01*
X94131596Y-79374852D01*
X94160005Y-79391879D01*
X94186608Y-79411609D01*
X94211149Y-79433851D01*
X94233391Y-79458392D01*
X94253121Y-79484995D01*
X94270148Y-79513404D01*
X94284309Y-79543344D01*
X94295467Y-79574529D01*
X94303515Y-79606657D01*
X94308375Y-79639419D01*
X94310000Y-79672500D01*
X94310000Y-80347500D01*
X94308375Y-80380581D01*
X94303515Y-80413343D01*
X94295467Y-80445471D01*
X94284309Y-80476656D01*
X94270148Y-80506596D01*
X94253121Y-80535005D01*
X94233391Y-80561608D01*
X94211149Y-80586149D01*
X94186608Y-80608391D01*
X94160005Y-80628121D01*
X94131596Y-80645148D01*
X94101656Y-80659309D01*
X94070471Y-80670467D01*
X94038343Y-80678515D01*
X94005581Y-80683375D01*
X93972500Y-80685000D01*
X93197500Y-80685000D01*
X93164419Y-80683375D01*
X93131657Y-80678515D01*
X93099529Y-80670467D01*
X93068344Y-80659309D01*
X93038404Y-80645148D01*
X93009995Y-80628121D01*
X92983392Y-80608391D01*
X92958851Y-80586149D01*
X92936609Y-80561608D01*
X92916879Y-80535005D01*
X92899852Y-80506596D01*
X92885691Y-80476656D01*
X92874533Y-80445471D01*
X92866485Y-80413343D01*
X92861625Y-80380581D01*
X92860000Y-80347500D01*
X92860000Y-79672500D01*
X92861625Y-79639419D01*
X92866485Y-79606657D01*
X92874533Y-79574529D01*
X92885691Y-79543344D01*
X92899852Y-79513404D01*
X92916879Y-79484995D01*
X92936609Y-79458392D01*
X92958851Y-79433851D01*
X92983392Y-79411609D01*
X93009995Y-79391879D01*
X93038404Y-79374852D01*
X93068344Y-79360691D01*
X93099529Y-79349533D01*
X93131657Y-79341485D01*
X93164419Y-79336625D01*
X93197500Y-79335000D01*
X93972500Y-79335000D01*
X94005581Y-79336625D01*
X94005581Y-79336625D01*
G37*
D11*
X93585000Y-80010000D03*
G04 #@! TD*
D10*
G04 #@! TO.C,R5*
G36*
X115595581Y-79336625D02*
X115628343Y-79341485D01*
X115660471Y-79349533D01*
X115691656Y-79360691D01*
X115721596Y-79374852D01*
X115750005Y-79391879D01*
X115776608Y-79411609D01*
X115801149Y-79433851D01*
X115823391Y-79458392D01*
X115843121Y-79484995D01*
X115860148Y-79513404D01*
X115874309Y-79543344D01*
X115885467Y-79574529D01*
X115893515Y-79606657D01*
X115898375Y-79639419D01*
X115900000Y-79672500D01*
X115900000Y-80347500D01*
X115898375Y-80380581D01*
X115893515Y-80413343D01*
X115885467Y-80445471D01*
X115874309Y-80476656D01*
X115860148Y-80506596D01*
X115843121Y-80535005D01*
X115823391Y-80561608D01*
X115801149Y-80586149D01*
X115776608Y-80608391D01*
X115750005Y-80628121D01*
X115721596Y-80645148D01*
X115691656Y-80659309D01*
X115660471Y-80670467D01*
X115628343Y-80678515D01*
X115595581Y-80683375D01*
X115562500Y-80685000D01*
X114787500Y-80685000D01*
X114754419Y-80683375D01*
X114721657Y-80678515D01*
X114689529Y-80670467D01*
X114658344Y-80659309D01*
X114628404Y-80645148D01*
X114599995Y-80628121D01*
X114573392Y-80608391D01*
X114548851Y-80586149D01*
X114526609Y-80561608D01*
X114506879Y-80535005D01*
X114489852Y-80506596D01*
X114475691Y-80476656D01*
X114464533Y-80445471D01*
X114456485Y-80413343D01*
X114451625Y-80380581D01*
X114450000Y-80347500D01*
X114450000Y-79672500D01*
X114451625Y-79639419D01*
X114456485Y-79606657D01*
X114464533Y-79574529D01*
X114475691Y-79543344D01*
X114489852Y-79513404D01*
X114506879Y-79484995D01*
X114526609Y-79458392D01*
X114548851Y-79433851D01*
X114573392Y-79411609D01*
X114599995Y-79391879D01*
X114628404Y-79374852D01*
X114658344Y-79360691D01*
X114689529Y-79349533D01*
X114721657Y-79341485D01*
X114754419Y-79336625D01*
X114787500Y-79335000D01*
X115562500Y-79335000D01*
X115595581Y-79336625D01*
X115595581Y-79336625D01*
G37*
D11*
X115175000Y-80010000D03*
D10*
G36*
X113845581Y-79336625D02*
X113878343Y-79341485D01*
X113910471Y-79349533D01*
X113941656Y-79360691D01*
X113971596Y-79374852D01*
X114000005Y-79391879D01*
X114026608Y-79411609D01*
X114051149Y-79433851D01*
X114073391Y-79458392D01*
X114093121Y-79484995D01*
X114110148Y-79513404D01*
X114124309Y-79543344D01*
X114135467Y-79574529D01*
X114143515Y-79606657D01*
X114148375Y-79639419D01*
X114150000Y-79672500D01*
X114150000Y-80347500D01*
X114148375Y-80380581D01*
X114143515Y-80413343D01*
X114135467Y-80445471D01*
X114124309Y-80476656D01*
X114110148Y-80506596D01*
X114093121Y-80535005D01*
X114073391Y-80561608D01*
X114051149Y-80586149D01*
X114026608Y-80608391D01*
X114000005Y-80628121D01*
X113971596Y-80645148D01*
X113941656Y-80659309D01*
X113910471Y-80670467D01*
X113878343Y-80678515D01*
X113845581Y-80683375D01*
X113812500Y-80685000D01*
X113037500Y-80685000D01*
X113004419Y-80683375D01*
X112971657Y-80678515D01*
X112939529Y-80670467D01*
X112908344Y-80659309D01*
X112878404Y-80645148D01*
X112849995Y-80628121D01*
X112823392Y-80608391D01*
X112798851Y-80586149D01*
X112776609Y-80561608D01*
X112756879Y-80535005D01*
X112739852Y-80506596D01*
X112725691Y-80476656D01*
X112714533Y-80445471D01*
X112706485Y-80413343D01*
X112701625Y-80380581D01*
X112700000Y-80347500D01*
X112700000Y-79672500D01*
X112701625Y-79639419D01*
X112706485Y-79606657D01*
X112714533Y-79574529D01*
X112725691Y-79543344D01*
X112739852Y-79513404D01*
X112756879Y-79484995D01*
X112776609Y-79458392D01*
X112798851Y-79433851D01*
X112823392Y-79411609D01*
X112849995Y-79391879D01*
X112878404Y-79374852D01*
X112908344Y-79360691D01*
X112939529Y-79349533D01*
X112971657Y-79341485D01*
X113004419Y-79336625D01*
X113037500Y-79335000D01*
X113812500Y-79335000D01*
X113845581Y-79336625D01*
X113845581Y-79336625D01*
G37*
D11*
X113425000Y-80010000D03*
G04 #@! TD*
D10*
G04 #@! TO.C,R22*
G36*
X148452581Y-62381625D02*
X148485343Y-62386485D01*
X148517471Y-62394533D01*
X148548656Y-62405691D01*
X148578596Y-62419852D01*
X148607005Y-62436879D01*
X148633608Y-62456609D01*
X148658149Y-62478851D01*
X148680391Y-62503392D01*
X148700121Y-62529995D01*
X148717148Y-62558404D01*
X148731309Y-62588344D01*
X148742467Y-62619529D01*
X148750515Y-62651657D01*
X148755375Y-62684419D01*
X148757000Y-62717500D01*
X148757000Y-63492500D01*
X148755375Y-63525581D01*
X148750515Y-63558343D01*
X148742467Y-63590471D01*
X148731309Y-63621656D01*
X148717148Y-63651596D01*
X148700121Y-63680005D01*
X148680391Y-63706608D01*
X148658149Y-63731149D01*
X148633608Y-63753391D01*
X148607005Y-63773121D01*
X148578596Y-63790148D01*
X148548656Y-63804309D01*
X148517471Y-63815467D01*
X148485343Y-63823515D01*
X148452581Y-63828375D01*
X148419500Y-63830000D01*
X147744500Y-63830000D01*
X147711419Y-63828375D01*
X147678657Y-63823515D01*
X147646529Y-63815467D01*
X147615344Y-63804309D01*
X147585404Y-63790148D01*
X147556995Y-63773121D01*
X147530392Y-63753391D01*
X147505851Y-63731149D01*
X147483609Y-63706608D01*
X147463879Y-63680005D01*
X147446852Y-63651596D01*
X147432691Y-63621656D01*
X147421533Y-63590471D01*
X147413485Y-63558343D01*
X147408625Y-63525581D01*
X147407000Y-63492500D01*
X147407000Y-62717500D01*
X147408625Y-62684419D01*
X147413485Y-62651657D01*
X147421533Y-62619529D01*
X147432691Y-62588344D01*
X147446852Y-62558404D01*
X147463879Y-62529995D01*
X147483609Y-62503392D01*
X147505851Y-62478851D01*
X147530392Y-62456609D01*
X147556995Y-62436879D01*
X147585404Y-62419852D01*
X147615344Y-62405691D01*
X147646529Y-62394533D01*
X147678657Y-62386485D01*
X147711419Y-62381625D01*
X147744500Y-62380000D01*
X148419500Y-62380000D01*
X148452581Y-62381625D01*
X148452581Y-62381625D01*
G37*
D11*
X148082000Y-63105000D03*
D10*
G36*
X148452581Y-60631625D02*
X148485343Y-60636485D01*
X148517471Y-60644533D01*
X148548656Y-60655691D01*
X148578596Y-60669852D01*
X148607005Y-60686879D01*
X148633608Y-60706609D01*
X148658149Y-60728851D01*
X148680391Y-60753392D01*
X148700121Y-60779995D01*
X148717148Y-60808404D01*
X148731309Y-60838344D01*
X148742467Y-60869529D01*
X148750515Y-60901657D01*
X148755375Y-60934419D01*
X148757000Y-60967500D01*
X148757000Y-61742500D01*
X148755375Y-61775581D01*
X148750515Y-61808343D01*
X148742467Y-61840471D01*
X148731309Y-61871656D01*
X148717148Y-61901596D01*
X148700121Y-61930005D01*
X148680391Y-61956608D01*
X148658149Y-61981149D01*
X148633608Y-62003391D01*
X148607005Y-62023121D01*
X148578596Y-62040148D01*
X148548656Y-62054309D01*
X148517471Y-62065467D01*
X148485343Y-62073515D01*
X148452581Y-62078375D01*
X148419500Y-62080000D01*
X147744500Y-62080000D01*
X147711419Y-62078375D01*
X147678657Y-62073515D01*
X147646529Y-62065467D01*
X147615344Y-62054309D01*
X147585404Y-62040148D01*
X147556995Y-62023121D01*
X147530392Y-62003391D01*
X147505851Y-61981149D01*
X147483609Y-61956608D01*
X147463879Y-61930005D01*
X147446852Y-61901596D01*
X147432691Y-61871656D01*
X147421533Y-61840471D01*
X147413485Y-61808343D01*
X147408625Y-61775581D01*
X147407000Y-61742500D01*
X147407000Y-60967500D01*
X147408625Y-60934419D01*
X147413485Y-60901657D01*
X147421533Y-60869529D01*
X147432691Y-60838344D01*
X147446852Y-60808404D01*
X147463879Y-60779995D01*
X147483609Y-60753392D01*
X147505851Y-60728851D01*
X147530392Y-60706609D01*
X147556995Y-60686879D01*
X147585404Y-60669852D01*
X147615344Y-60655691D01*
X147646529Y-60644533D01*
X147678657Y-60636485D01*
X147711419Y-60631625D01*
X147744500Y-60630000D01*
X148419500Y-60630000D01*
X148452581Y-60631625D01*
X148452581Y-60631625D01*
G37*
D11*
X148082000Y-61355000D03*
G04 #@! TD*
D10*
G04 #@! TO.C,R6*
G36*
X110007581Y-74764625D02*
X110040343Y-74769485D01*
X110072471Y-74777533D01*
X110103656Y-74788691D01*
X110133596Y-74802852D01*
X110162005Y-74819879D01*
X110188608Y-74839609D01*
X110213149Y-74861851D01*
X110235391Y-74886392D01*
X110255121Y-74912995D01*
X110272148Y-74941404D01*
X110286309Y-74971344D01*
X110297467Y-75002529D01*
X110305515Y-75034657D01*
X110310375Y-75067419D01*
X110312000Y-75100500D01*
X110312000Y-75775500D01*
X110310375Y-75808581D01*
X110305515Y-75841343D01*
X110297467Y-75873471D01*
X110286309Y-75904656D01*
X110272148Y-75934596D01*
X110255121Y-75963005D01*
X110235391Y-75989608D01*
X110213149Y-76014149D01*
X110188608Y-76036391D01*
X110162005Y-76056121D01*
X110133596Y-76073148D01*
X110103656Y-76087309D01*
X110072471Y-76098467D01*
X110040343Y-76106515D01*
X110007581Y-76111375D01*
X109974500Y-76113000D01*
X109199500Y-76113000D01*
X109166419Y-76111375D01*
X109133657Y-76106515D01*
X109101529Y-76098467D01*
X109070344Y-76087309D01*
X109040404Y-76073148D01*
X109011995Y-76056121D01*
X108985392Y-76036391D01*
X108960851Y-76014149D01*
X108938609Y-75989608D01*
X108918879Y-75963005D01*
X108901852Y-75934596D01*
X108887691Y-75904656D01*
X108876533Y-75873471D01*
X108868485Y-75841343D01*
X108863625Y-75808581D01*
X108862000Y-75775500D01*
X108862000Y-75100500D01*
X108863625Y-75067419D01*
X108868485Y-75034657D01*
X108876533Y-75002529D01*
X108887691Y-74971344D01*
X108901852Y-74941404D01*
X108918879Y-74912995D01*
X108938609Y-74886392D01*
X108960851Y-74861851D01*
X108985392Y-74839609D01*
X109011995Y-74819879D01*
X109040404Y-74802852D01*
X109070344Y-74788691D01*
X109101529Y-74777533D01*
X109133657Y-74769485D01*
X109166419Y-74764625D01*
X109199500Y-74763000D01*
X109974500Y-74763000D01*
X110007581Y-74764625D01*
X110007581Y-74764625D01*
G37*
D11*
X109587000Y-75438000D03*
D10*
G36*
X108257581Y-74764625D02*
X108290343Y-74769485D01*
X108322471Y-74777533D01*
X108353656Y-74788691D01*
X108383596Y-74802852D01*
X108412005Y-74819879D01*
X108438608Y-74839609D01*
X108463149Y-74861851D01*
X108485391Y-74886392D01*
X108505121Y-74912995D01*
X108522148Y-74941404D01*
X108536309Y-74971344D01*
X108547467Y-75002529D01*
X108555515Y-75034657D01*
X108560375Y-75067419D01*
X108562000Y-75100500D01*
X108562000Y-75775500D01*
X108560375Y-75808581D01*
X108555515Y-75841343D01*
X108547467Y-75873471D01*
X108536309Y-75904656D01*
X108522148Y-75934596D01*
X108505121Y-75963005D01*
X108485391Y-75989608D01*
X108463149Y-76014149D01*
X108438608Y-76036391D01*
X108412005Y-76056121D01*
X108383596Y-76073148D01*
X108353656Y-76087309D01*
X108322471Y-76098467D01*
X108290343Y-76106515D01*
X108257581Y-76111375D01*
X108224500Y-76113000D01*
X107449500Y-76113000D01*
X107416419Y-76111375D01*
X107383657Y-76106515D01*
X107351529Y-76098467D01*
X107320344Y-76087309D01*
X107290404Y-76073148D01*
X107261995Y-76056121D01*
X107235392Y-76036391D01*
X107210851Y-76014149D01*
X107188609Y-75989608D01*
X107168879Y-75963005D01*
X107151852Y-75934596D01*
X107137691Y-75904656D01*
X107126533Y-75873471D01*
X107118485Y-75841343D01*
X107113625Y-75808581D01*
X107112000Y-75775500D01*
X107112000Y-75100500D01*
X107113625Y-75067419D01*
X107118485Y-75034657D01*
X107126533Y-75002529D01*
X107137691Y-74971344D01*
X107151852Y-74941404D01*
X107168879Y-74912995D01*
X107188609Y-74886392D01*
X107210851Y-74861851D01*
X107235392Y-74839609D01*
X107261995Y-74819879D01*
X107290404Y-74802852D01*
X107320344Y-74788691D01*
X107351529Y-74777533D01*
X107383657Y-74769485D01*
X107416419Y-74764625D01*
X107449500Y-74763000D01*
X108224500Y-74763000D01*
X108257581Y-74764625D01*
X108257581Y-74764625D01*
G37*
D11*
X107837000Y-75438000D03*
G04 #@! TD*
D10*
G04 #@! TO.C,R16*
G36*
X94005581Y-74764625D02*
X94038343Y-74769485D01*
X94070471Y-74777533D01*
X94101656Y-74788691D01*
X94131596Y-74802852D01*
X94160005Y-74819879D01*
X94186608Y-74839609D01*
X94211149Y-74861851D01*
X94233391Y-74886392D01*
X94253121Y-74912995D01*
X94270148Y-74941404D01*
X94284309Y-74971344D01*
X94295467Y-75002529D01*
X94303515Y-75034657D01*
X94308375Y-75067419D01*
X94310000Y-75100500D01*
X94310000Y-75775500D01*
X94308375Y-75808581D01*
X94303515Y-75841343D01*
X94295467Y-75873471D01*
X94284309Y-75904656D01*
X94270148Y-75934596D01*
X94253121Y-75963005D01*
X94233391Y-75989608D01*
X94211149Y-76014149D01*
X94186608Y-76036391D01*
X94160005Y-76056121D01*
X94131596Y-76073148D01*
X94101656Y-76087309D01*
X94070471Y-76098467D01*
X94038343Y-76106515D01*
X94005581Y-76111375D01*
X93972500Y-76113000D01*
X93197500Y-76113000D01*
X93164419Y-76111375D01*
X93131657Y-76106515D01*
X93099529Y-76098467D01*
X93068344Y-76087309D01*
X93038404Y-76073148D01*
X93009995Y-76056121D01*
X92983392Y-76036391D01*
X92958851Y-76014149D01*
X92936609Y-75989608D01*
X92916879Y-75963005D01*
X92899852Y-75934596D01*
X92885691Y-75904656D01*
X92874533Y-75873471D01*
X92866485Y-75841343D01*
X92861625Y-75808581D01*
X92860000Y-75775500D01*
X92860000Y-75100500D01*
X92861625Y-75067419D01*
X92866485Y-75034657D01*
X92874533Y-75002529D01*
X92885691Y-74971344D01*
X92899852Y-74941404D01*
X92916879Y-74912995D01*
X92936609Y-74886392D01*
X92958851Y-74861851D01*
X92983392Y-74839609D01*
X93009995Y-74819879D01*
X93038404Y-74802852D01*
X93068344Y-74788691D01*
X93099529Y-74777533D01*
X93131657Y-74769485D01*
X93164419Y-74764625D01*
X93197500Y-74763000D01*
X93972500Y-74763000D01*
X94005581Y-74764625D01*
X94005581Y-74764625D01*
G37*
D11*
X93585000Y-75438000D03*
D10*
G36*
X92255581Y-74764625D02*
X92288343Y-74769485D01*
X92320471Y-74777533D01*
X92351656Y-74788691D01*
X92381596Y-74802852D01*
X92410005Y-74819879D01*
X92436608Y-74839609D01*
X92461149Y-74861851D01*
X92483391Y-74886392D01*
X92503121Y-74912995D01*
X92520148Y-74941404D01*
X92534309Y-74971344D01*
X92545467Y-75002529D01*
X92553515Y-75034657D01*
X92558375Y-75067419D01*
X92560000Y-75100500D01*
X92560000Y-75775500D01*
X92558375Y-75808581D01*
X92553515Y-75841343D01*
X92545467Y-75873471D01*
X92534309Y-75904656D01*
X92520148Y-75934596D01*
X92503121Y-75963005D01*
X92483391Y-75989608D01*
X92461149Y-76014149D01*
X92436608Y-76036391D01*
X92410005Y-76056121D01*
X92381596Y-76073148D01*
X92351656Y-76087309D01*
X92320471Y-76098467D01*
X92288343Y-76106515D01*
X92255581Y-76111375D01*
X92222500Y-76113000D01*
X91447500Y-76113000D01*
X91414419Y-76111375D01*
X91381657Y-76106515D01*
X91349529Y-76098467D01*
X91318344Y-76087309D01*
X91288404Y-76073148D01*
X91259995Y-76056121D01*
X91233392Y-76036391D01*
X91208851Y-76014149D01*
X91186609Y-75989608D01*
X91166879Y-75963005D01*
X91149852Y-75934596D01*
X91135691Y-75904656D01*
X91124533Y-75873471D01*
X91116485Y-75841343D01*
X91111625Y-75808581D01*
X91110000Y-75775500D01*
X91110000Y-75100500D01*
X91111625Y-75067419D01*
X91116485Y-75034657D01*
X91124533Y-75002529D01*
X91135691Y-74971344D01*
X91149852Y-74941404D01*
X91166879Y-74912995D01*
X91186609Y-74886392D01*
X91208851Y-74861851D01*
X91233392Y-74839609D01*
X91259995Y-74819879D01*
X91288404Y-74802852D01*
X91318344Y-74788691D01*
X91349529Y-74777533D01*
X91381657Y-74769485D01*
X91414419Y-74764625D01*
X91447500Y-74763000D01*
X92222500Y-74763000D01*
X92255581Y-74764625D01*
X92255581Y-74764625D01*
G37*
D11*
X91835000Y-75438000D03*
G04 #@! TD*
D10*
G04 #@! TO.C,R2*
G36*
X154203581Y-74764625D02*
X154236343Y-74769485D01*
X154268471Y-74777533D01*
X154299656Y-74788691D01*
X154329596Y-74802852D01*
X154358005Y-74819879D01*
X154384608Y-74839609D01*
X154409149Y-74861851D01*
X154431391Y-74886392D01*
X154451121Y-74912995D01*
X154468148Y-74941404D01*
X154482309Y-74971344D01*
X154493467Y-75002529D01*
X154501515Y-75034657D01*
X154506375Y-75067419D01*
X154508000Y-75100500D01*
X154508000Y-75775500D01*
X154506375Y-75808581D01*
X154501515Y-75841343D01*
X154493467Y-75873471D01*
X154482309Y-75904656D01*
X154468148Y-75934596D01*
X154451121Y-75963005D01*
X154431391Y-75989608D01*
X154409149Y-76014149D01*
X154384608Y-76036391D01*
X154358005Y-76056121D01*
X154329596Y-76073148D01*
X154299656Y-76087309D01*
X154268471Y-76098467D01*
X154236343Y-76106515D01*
X154203581Y-76111375D01*
X154170500Y-76113000D01*
X153395500Y-76113000D01*
X153362419Y-76111375D01*
X153329657Y-76106515D01*
X153297529Y-76098467D01*
X153266344Y-76087309D01*
X153236404Y-76073148D01*
X153207995Y-76056121D01*
X153181392Y-76036391D01*
X153156851Y-76014149D01*
X153134609Y-75989608D01*
X153114879Y-75963005D01*
X153097852Y-75934596D01*
X153083691Y-75904656D01*
X153072533Y-75873471D01*
X153064485Y-75841343D01*
X153059625Y-75808581D01*
X153058000Y-75775500D01*
X153058000Y-75100500D01*
X153059625Y-75067419D01*
X153064485Y-75034657D01*
X153072533Y-75002529D01*
X153083691Y-74971344D01*
X153097852Y-74941404D01*
X153114879Y-74912995D01*
X153134609Y-74886392D01*
X153156851Y-74861851D01*
X153181392Y-74839609D01*
X153207995Y-74819879D01*
X153236404Y-74802852D01*
X153266344Y-74788691D01*
X153297529Y-74777533D01*
X153329657Y-74769485D01*
X153362419Y-74764625D01*
X153395500Y-74763000D01*
X154170500Y-74763000D01*
X154203581Y-74764625D01*
X154203581Y-74764625D01*
G37*
D11*
X153783000Y-75438000D03*
D10*
G36*
X152453581Y-74764625D02*
X152486343Y-74769485D01*
X152518471Y-74777533D01*
X152549656Y-74788691D01*
X152579596Y-74802852D01*
X152608005Y-74819879D01*
X152634608Y-74839609D01*
X152659149Y-74861851D01*
X152681391Y-74886392D01*
X152701121Y-74912995D01*
X152718148Y-74941404D01*
X152732309Y-74971344D01*
X152743467Y-75002529D01*
X152751515Y-75034657D01*
X152756375Y-75067419D01*
X152758000Y-75100500D01*
X152758000Y-75775500D01*
X152756375Y-75808581D01*
X152751515Y-75841343D01*
X152743467Y-75873471D01*
X152732309Y-75904656D01*
X152718148Y-75934596D01*
X152701121Y-75963005D01*
X152681391Y-75989608D01*
X152659149Y-76014149D01*
X152634608Y-76036391D01*
X152608005Y-76056121D01*
X152579596Y-76073148D01*
X152549656Y-76087309D01*
X152518471Y-76098467D01*
X152486343Y-76106515D01*
X152453581Y-76111375D01*
X152420500Y-76113000D01*
X151645500Y-76113000D01*
X151612419Y-76111375D01*
X151579657Y-76106515D01*
X151547529Y-76098467D01*
X151516344Y-76087309D01*
X151486404Y-76073148D01*
X151457995Y-76056121D01*
X151431392Y-76036391D01*
X151406851Y-76014149D01*
X151384609Y-75989608D01*
X151364879Y-75963005D01*
X151347852Y-75934596D01*
X151333691Y-75904656D01*
X151322533Y-75873471D01*
X151314485Y-75841343D01*
X151309625Y-75808581D01*
X151308000Y-75775500D01*
X151308000Y-75100500D01*
X151309625Y-75067419D01*
X151314485Y-75034657D01*
X151322533Y-75002529D01*
X151333691Y-74971344D01*
X151347852Y-74941404D01*
X151364879Y-74912995D01*
X151384609Y-74886392D01*
X151406851Y-74861851D01*
X151431392Y-74839609D01*
X151457995Y-74819879D01*
X151486404Y-74802852D01*
X151516344Y-74788691D01*
X151547529Y-74777533D01*
X151579657Y-74769485D01*
X151612419Y-74764625D01*
X151645500Y-74763000D01*
X152420500Y-74763000D01*
X152453581Y-74764625D01*
X152453581Y-74764625D01*
G37*
D11*
X152033000Y-75438000D03*
G04 #@! TD*
D10*
G04 #@! TO.C,R1*
G36*
X157025581Y-79336625D02*
X157058343Y-79341485D01*
X157090471Y-79349533D01*
X157121656Y-79360691D01*
X157151596Y-79374852D01*
X157180005Y-79391879D01*
X157206608Y-79411609D01*
X157231149Y-79433851D01*
X157253391Y-79458392D01*
X157273121Y-79484995D01*
X157290148Y-79513404D01*
X157304309Y-79543344D01*
X157315467Y-79574529D01*
X157323515Y-79606657D01*
X157328375Y-79639419D01*
X157330000Y-79672500D01*
X157330000Y-80347500D01*
X157328375Y-80380581D01*
X157323515Y-80413343D01*
X157315467Y-80445471D01*
X157304309Y-80476656D01*
X157290148Y-80506596D01*
X157273121Y-80535005D01*
X157253391Y-80561608D01*
X157231149Y-80586149D01*
X157206608Y-80608391D01*
X157180005Y-80628121D01*
X157151596Y-80645148D01*
X157121656Y-80659309D01*
X157090471Y-80670467D01*
X157058343Y-80678515D01*
X157025581Y-80683375D01*
X156992500Y-80685000D01*
X156217500Y-80685000D01*
X156184419Y-80683375D01*
X156151657Y-80678515D01*
X156119529Y-80670467D01*
X156088344Y-80659309D01*
X156058404Y-80645148D01*
X156029995Y-80628121D01*
X156003392Y-80608391D01*
X155978851Y-80586149D01*
X155956609Y-80561608D01*
X155936879Y-80535005D01*
X155919852Y-80506596D01*
X155905691Y-80476656D01*
X155894533Y-80445471D01*
X155886485Y-80413343D01*
X155881625Y-80380581D01*
X155880000Y-80347500D01*
X155880000Y-79672500D01*
X155881625Y-79639419D01*
X155886485Y-79606657D01*
X155894533Y-79574529D01*
X155905691Y-79543344D01*
X155919852Y-79513404D01*
X155936879Y-79484995D01*
X155956609Y-79458392D01*
X155978851Y-79433851D01*
X156003392Y-79411609D01*
X156029995Y-79391879D01*
X156058404Y-79374852D01*
X156088344Y-79360691D01*
X156119529Y-79349533D01*
X156151657Y-79341485D01*
X156184419Y-79336625D01*
X156217500Y-79335000D01*
X156992500Y-79335000D01*
X157025581Y-79336625D01*
X157025581Y-79336625D01*
G37*
D11*
X156605000Y-80010000D03*
D10*
G36*
X158775581Y-79336625D02*
X158808343Y-79341485D01*
X158840471Y-79349533D01*
X158871656Y-79360691D01*
X158901596Y-79374852D01*
X158930005Y-79391879D01*
X158956608Y-79411609D01*
X158981149Y-79433851D01*
X159003391Y-79458392D01*
X159023121Y-79484995D01*
X159040148Y-79513404D01*
X159054309Y-79543344D01*
X159065467Y-79574529D01*
X159073515Y-79606657D01*
X159078375Y-79639419D01*
X159080000Y-79672500D01*
X159080000Y-80347500D01*
X159078375Y-80380581D01*
X159073515Y-80413343D01*
X159065467Y-80445471D01*
X159054309Y-80476656D01*
X159040148Y-80506596D01*
X159023121Y-80535005D01*
X159003391Y-80561608D01*
X158981149Y-80586149D01*
X158956608Y-80608391D01*
X158930005Y-80628121D01*
X158901596Y-80645148D01*
X158871656Y-80659309D01*
X158840471Y-80670467D01*
X158808343Y-80678515D01*
X158775581Y-80683375D01*
X158742500Y-80685000D01*
X157967500Y-80685000D01*
X157934419Y-80683375D01*
X157901657Y-80678515D01*
X157869529Y-80670467D01*
X157838344Y-80659309D01*
X157808404Y-80645148D01*
X157779995Y-80628121D01*
X157753392Y-80608391D01*
X157728851Y-80586149D01*
X157706609Y-80561608D01*
X157686879Y-80535005D01*
X157669852Y-80506596D01*
X157655691Y-80476656D01*
X157644533Y-80445471D01*
X157636485Y-80413343D01*
X157631625Y-80380581D01*
X157630000Y-80347500D01*
X157630000Y-79672500D01*
X157631625Y-79639419D01*
X157636485Y-79606657D01*
X157644533Y-79574529D01*
X157655691Y-79543344D01*
X157669852Y-79513404D01*
X157686879Y-79484995D01*
X157706609Y-79458392D01*
X157728851Y-79433851D01*
X157753392Y-79411609D01*
X157779995Y-79391879D01*
X157808404Y-79374852D01*
X157838344Y-79360691D01*
X157869529Y-79349533D01*
X157901657Y-79341485D01*
X157934419Y-79336625D01*
X157967500Y-79335000D01*
X158742500Y-79335000D01*
X158775581Y-79336625D01*
X158775581Y-79336625D01*
G37*
D11*
X158355000Y-80010000D03*
G04 #@! TD*
D10*
G04 #@! TO.C,R8*
G36*
X88290581Y-75526625D02*
X88323343Y-75531485D01*
X88355471Y-75539533D01*
X88386656Y-75550691D01*
X88416596Y-75564852D01*
X88445005Y-75581879D01*
X88471608Y-75601609D01*
X88496149Y-75623851D01*
X88518391Y-75648392D01*
X88538121Y-75674995D01*
X88555148Y-75703404D01*
X88569309Y-75733344D01*
X88580467Y-75764529D01*
X88588515Y-75796657D01*
X88593375Y-75829419D01*
X88595000Y-75862500D01*
X88595000Y-76537500D01*
X88593375Y-76570581D01*
X88588515Y-76603343D01*
X88580467Y-76635471D01*
X88569309Y-76666656D01*
X88555148Y-76696596D01*
X88538121Y-76725005D01*
X88518391Y-76751608D01*
X88496149Y-76776149D01*
X88471608Y-76798391D01*
X88445005Y-76818121D01*
X88416596Y-76835148D01*
X88386656Y-76849309D01*
X88355471Y-76860467D01*
X88323343Y-76868515D01*
X88290581Y-76873375D01*
X88257500Y-76875000D01*
X87482500Y-76875000D01*
X87449419Y-76873375D01*
X87416657Y-76868515D01*
X87384529Y-76860467D01*
X87353344Y-76849309D01*
X87323404Y-76835148D01*
X87294995Y-76818121D01*
X87268392Y-76798391D01*
X87243851Y-76776149D01*
X87221609Y-76751608D01*
X87201879Y-76725005D01*
X87184852Y-76696596D01*
X87170691Y-76666656D01*
X87159533Y-76635471D01*
X87151485Y-76603343D01*
X87146625Y-76570581D01*
X87145000Y-76537500D01*
X87145000Y-75862500D01*
X87146625Y-75829419D01*
X87151485Y-75796657D01*
X87159533Y-75764529D01*
X87170691Y-75733344D01*
X87184852Y-75703404D01*
X87201879Y-75674995D01*
X87221609Y-75648392D01*
X87243851Y-75623851D01*
X87268392Y-75601609D01*
X87294995Y-75581879D01*
X87323404Y-75564852D01*
X87353344Y-75550691D01*
X87384529Y-75539533D01*
X87416657Y-75531485D01*
X87449419Y-75526625D01*
X87482500Y-75525000D01*
X88257500Y-75525000D01*
X88290581Y-75526625D01*
X88290581Y-75526625D01*
G37*
D11*
X87870000Y-76200000D03*
D10*
G36*
X86540581Y-75526625D02*
X86573343Y-75531485D01*
X86605471Y-75539533D01*
X86636656Y-75550691D01*
X86666596Y-75564852D01*
X86695005Y-75581879D01*
X86721608Y-75601609D01*
X86746149Y-75623851D01*
X86768391Y-75648392D01*
X86788121Y-75674995D01*
X86805148Y-75703404D01*
X86819309Y-75733344D01*
X86830467Y-75764529D01*
X86838515Y-75796657D01*
X86843375Y-75829419D01*
X86845000Y-75862500D01*
X86845000Y-76537500D01*
X86843375Y-76570581D01*
X86838515Y-76603343D01*
X86830467Y-76635471D01*
X86819309Y-76666656D01*
X86805148Y-76696596D01*
X86788121Y-76725005D01*
X86768391Y-76751608D01*
X86746149Y-76776149D01*
X86721608Y-76798391D01*
X86695005Y-76818121D01*
X86666596Y-76835148D01*
X86636656Y-76849309D01*
X86605471Y-76860467D01*
X86573343Y-76868515D01*
X86540581Y-76873375D01*
X86507500Y-76875000D01*
X85732500Y-76875000D01*
X85699419Y-76873375D01*
X85666657Y-76868515D01*
X85634529Y-76860467D01*
X85603344Y-76849309D01*
X85573404Y-76835148D01*
X85544995Y-76818121D01*
X85518392Y-76798391D01*
X85493851Y-76776149D01*
X85471609Y-76751608D01*
X85451879Y-76725005D01*
X85434852Y-76696596D01*
X85420691Y-76666656D01*
X85409533Y-76635471D01*
X85401485Y-76603343D01*
X85396625Y-76570581D01*
X85395000Y-76537500D01*
X85395000Y-75862500D01*
X85396625Y-75829419D01*
X85401485Y-75796657D01*
X85409533Y-75764529D01*
X85420691Y-75733344D01*
X85434852Y-75703404D01*
X85451879Y-75674995D01*
X85471609Y-75648392D01*
X85493851Y-75623851D01*
X85518392Y-75601609D01*
X85544995Y-75581879D01*
X85573404Y-75564852D01*
X85603344Y-75550691D01*
X85634529Y-75539533D01*
X85666657Y-75531485D01*
X85699419Y-75526625D01*
X85732500Y-75525000D01*
X86507500Y-75525000D01*
X86540581Y-75526625D01*
X86540581Y-75526625D01*
G37*
D11*
X86120000Y-76200000D03*
G04 #@! TD*
D10*
G04 #@! TO.C,R9*
G36*
X165724581Y-75109625D02*
X165757343Y-75114485D01*
X165789471Y-75122533D01*
X165820656Y-75133691D01*
X165850596Y-75147852D01*
X165879005Y-75164879D01*
X165905608Y-75184609D01*
X165930149Y-75206851D01*
X165952391Y-75231392D01*
X165972121Y-75257995D01*
X165989148Y-75286404D01*
X166003309Y-75316344D01*
X166014467Y-75347529D01*
X166022515Y-75379657D01*
X166027375Y-75412419D01*
X166029000Y-75445500D01*
X166029000Y-76220500D01*
X166027375Y-76253581D01*
X166022515Y-76286343D01*
X166014467Y-76318471D01*
X166003309Y-76349656D01*
X165989148Y-76379596D01*
X165972121Y-76408005D01*
X165952391Y-76434608D01*
X165930149Y-76459149D01*
X165905608Y-76481391D01*
X165879005Y-76501121D01*
X165850596Y-76518148D01*
X165820656Y-76532309D01*
X165789471Y-76543467D01*
X165757343Y-76551515D01*
X165724581Y-76556375D01*
X165691500Y-76558000D01*
X165016500Y-76558000D01*
X164983419Y-76556375D01*
X164950657Y-76551515D01*
X164918529Y-76543467D01*
X164887344Y-76532309D01*
X164857404Y-76518148D01*
X164828995Y-76501121D01*
X164802392Y-76481391D01*
X164777851Y-76459149D01*
X164755609Y-76434608D01*
X164735879Y-76408005D01*
X164718852Y-76379596D01*
X164704691Y-76349656D01*
X164693533Y-76318471D01*
X164685485Y-76286343D01*
X164680625Y-76253581D01*
X164679000Y-76220500D01*
X164679000Y-75445500D01*
X164680625Y-75412419D01*
X164685485Y-75379657D01*
X164693533Y-75347529D01*
X164704691Y-75316344D01*
X164718852Y-75286404D01*
X164735879Y-75257995D01*
X164755609Y-75231392D01*
X164777851Y-75206851D01*
X164802392Y-75184609D01*
X164828995Y-75164879D01*
X164857404Y-75147852D01*
X164887344Y-75133691D01*
X164918529Y-75122533D01*
X164950657Y-75114485D01*
X164983419Y-75109625D01*
X165016500Y-75108000D01*
X165691500Y-75108000D01*
X165724581Y-75109625D01*
X165724581Y-75109625D01*
G37*
D11*
X165354000Y-75833000D03*
D10*
G36*
X165724581Y-76859625D02*
X165757343Y-76864485D01*
X165789471Y-76872533D01*
X165820656Y-76883691D01*
X165850596Y-76897852D01*
X165879005Y-76914879D01*
X165905608Y-76934609D01*
X165930149Y-76956851D01*
X165952391Y-76981392D01*
X165972121Y-77007995D01*
X165989148Y-77036404D01*
X166003309Y-77066344D01*
X166014467Y-77097529D01*
X166022515Y-77129657D01*
X166027375Y-77162419D01*
X166029000Y-77195500D01*
X166029000Y-77970500D01*
X166027375Y-78003581D01*
X166022515Y-78036343D01*
X166014467Y-78068471D01*
X166003309Y-78099656D01*
X165989148Y-78129596D01*
X165972121Y-78158005D01*
X165952391Y-78184608D01*
X165930149Y-78209149D01*
X165905608Y-78231391D01*
X165879005Y-78251121D01*
X165850596Y-78268148D01*
X165820656Y-78282309D01*
X165789471Y-78293467D01*
X165757343Y-78301515D01*
X165724581Y-78306375D01*
X165691500Y-78308000D01*
X165016500Y-78308000D01*
X164983419Y-78306375D01*
X164950657Y-78301515D01*
X164918529Y-78293467D01*
X164887344Y-78282309D01*
X164857404Y-78268148D01*
X164828995Y-78251121D01*
X164802392Y-78231391D01*
X164777851Y-78209149D01*
X164755609Y-78184608D01*
X164735879Y-78158005D01*
X164718852Y-78129596D01*
X164704691Y-78099656D01*
X164693533Y-78068471D01*
X164685485Y-78036343D01*
X164680625Y-78003581D01*
X164679000Y-77970500D01*
X164679000Y-77195500D01*
X164680625Y-77162419D01*
X164685485Y-77129657D01*
X164693533Y-77097529D01*
X164704691Y-77066344D01*
X164718852Y-77036404D01*
X164735879Y-77007995D01*
X164755609Y-76981392D01*
X164777851Y-76956851D01*
X164802392Y-76934609D01*
X164828995Y-76914879D01*
X164857404Y-76897852D01*
X164887344Y-76883691D01*
X164918529Y-76872533D01*
X164950657Y-76864485D01*
X164983419Y-76859625D01*
X165016500Y-76858000D01*
X165691500Y-76858000D01*
X165724581Y-76859625D01*
X165724581Y-76859625D01*
G37*
D11*
X165354000Y-77583000D03*
G04 #@! TD*
D10*
G04 #@! TO.C,R10*
G36*
X157025581Y-74764625D02*
X157058343Y-74769485D01*
X157090471Y-74777533D01*
X157121656Y-74788691D01*
X157151596Y-74802852D01*
X157180005Y-74819879D01*
X157206608Y-74839609D01*
X157231149Y-74861851D01*
X157253391Y-74886392D01*
X157273121Y-74912995D01*
X157290148Y-74941404D01*
X157304309Y-74971344D01*
X157315467Y-75002529D01*
X157323515Y-75034657D01*
X157328375Y-75067419D01*
X157330000Y-75100500D01*
X157330000Y-75775500D01*
X157328375Y-75808581D01*
X157323515Y-75841343D01*
X157315467Y-75873471D01*
X157304309Y-75904656D01*
X157290148Y-75934596D01*
X157273121Y-75963005D01*
X157253391Y-75989608D01*
X157231149Y-76014149D01*
X157206608Y-76036391D01*
X157180005Y-76056121D01*
X157151596Y-76073148D01*
X157121656Y-76087309D01*
X157090471Y-76098467D01*
X157058343Y-76106515D01*
X157025581Y-76111375D01*
X156992500Y-76113000D01*
X156217500Y-76113000D01*
X156184419Y-76111375D01*
X156151657Y-76106515D01*
X156119529Y-76098467D01*
X156088344Y-76087309D01*
X156058404Y-76073148D01*
X156029995Y-76056121D01*
X156003392Y-76036391D01*
X155978851Y-76014149D01*
X155956609Y-75989608D01*
X155936879Y-75963005D01*
X155919852Y-75934596D01*
X155905691Y-75904656D01*
X155894533Y-75873471D01*
X155886485Y-75841343D01*
X155881625Y-75808581D01*
X155880000Y-75775500D01*
X155880000Y-75100500D01*
X155881625Y-75067419D01*
X155886485Y-75034657D01*
X155894533Y-75002529D01*
X155905691Y-74971344D01*
X155919852Y-74941404D01*
X155936879Y-74912995D01*
X155956609Y-74886392D01*
X155978851Y-74861851D01*
X156003392Y-74839609D01*
X156029995Y-74819879D01*
X156058404Y-74802852D01*
X156088344Y-74788691D01*
X156119529Y-74777533D01*
X156151657Y-74769485D01*
X156184419Y-74764625D01*
X156217500Y-74763000D01*
X156992500Y-74763000D01*
X157025581Y-74764625D01*
X157025581Y-74764625D01*
G37*
D11*
X156605000Y-75438000D03*
D10*
G36*
X158775581Y-74764625D02*
X158808343Y-74769485D01*
X158840471Y-74777533D01*
X158871656Y-74788691D01*
X158901596Y-74802852D01*
X158930005Y-74819879D01*
X158956608Y-74839609D01*
X158981149Y-74861851D01*
X159003391Y-74886392D01*
X159023121Y-74912995D01*
X159040148Y-74941404D01*
X159054309Y-74971344D01*
X159065467Y-75002529D01*
X159073515Y-75034657D01*
X159078375Y-75067419D01*
X159080000Y-75100500D01*
X159080000Y-75775500D01*
X159078375Y-75808581D01*
X159073515Y-75841343D01*
X159065467Y-75873471D01*
X159054309Y-75904656D01*
X159040148Y-75934596D01*
X159023121Y-75963005D01*
X159003391Y-75989608D01*
X158981149Y-76014149D01*
X158956608Y-76036391D01*
X158930005Y-76056121D01*
X158901596Y-76073148D01*
X158871656Y-76087309D01*
X158840471Y-76098467D01*
X158808343Y-76106515D01*
X158775581Y-76111375D01*
X158742500Y-76113000D01*
X157967500Y-76113000D01*
X157934419Y-76111375D01*
X157901657Y-76106515D01*
X157869529Y-76098467D01*
X157838344Y-76087309D01*
X157808404Y-76073148D01*
X157779995Y-76056121D01*
X157753392Y-76036391D01*
X157728851Y-76014149D01*
X157706609Y-75989608D01*
X157686879Y-75963005D01*
X157669852Y-75934596D01*
X157655691Y-75904656D01*
X157644533Y-75873471D01*
X157636485Y-75841343D01*
X157631625Y-75808581D01*
X157630000Y-75775500D01*
X157630000Y-75100500D01*
X157631625Y-75067419D01*
X157636485Y-75034657D01*
X157644533Y-75002529D01*
X157655691Y-74971344D01*
X157669852Y-74941404D01*
X157686879Y-74912995D01*
X157706609Y-74886392D01*
X157728851Y-74861851D01*
X157753392Y-74839609D01*
X157779995Y-74819879D01*
X157808404Y-74802852D01*
X157838344Y-74788691D01*
X157869529Y-74777533D01*
X157901657Y-74769485D01*
X157934419Y-74764625D01*
X157967500Y-74763000D01*
X158742500Y-74763000D01*
X158775581Y-74764625D01*
X158775581Y-74764625D01*
G37*
D11*
X158355000Y-75438000D03*
G04 #@! TD*
D10*
G04 #@! TO.C,R11*
G36*
X144134581Y-75109625D02*
X144167343Y-75114485D01*
X144199471Y-75122533D01*
X144230656Y-75133691D01*
X144260596Y-75147852D01*
X144289005Y-75164879D01*
X144315608Y-75184609D01*
X144340149Y-75206851D01*
X144362391Y-75231392D01*
X144382121Y-75257995D01*
X144399148Y-75286404D01*
X144413309Y-75316344D01*
X144424467Y-75347529D01*
X144432515Y-75379657D01*
X144437375Y-75412419D01*
X144439000Y-75445500D01*
X144439000Y-76220500D01*
X144437375Y-76253581D01*
X144432515Y-76286343D01*
X144424467Y-76318471D01*
X144413309Y-76349656D01*
X144399148Y-76379596D01*
X144382121Y-76408005D01*
X144362391Y-76434608D01*
X144340149Y-76459149D01*
X144315608Y-76481391D01*
X144289005Y-76501121D01*
X144260596Y-76518148D01*
X144230656Y-76532309D01*
X144199471Y-76543467D01*
X144167343Y-76551515D01*
X144134581Y-76556375D01*
X144101500Y-76558000D01*
X143426500Y-76558000D01*
X143393419Y-76556375D01*
X143360657Y-76551515D01*
X143328529Y-76543467D01*
X143297344Y-76532309D01*
X143267404Y-76518148D01*
X143238995Y-76501121D01*
X143212392Y-76481391D01*
X143187851Y-76459149D01*
X143165609Y-76434608D01*
X143145879Y-76408005D01*
X143128852Y-76379596D01*
X143114691Y-76349656D01*
X143103533Y-76318471D01*
X143095485Y-76286343D01*
X143090625Y-76253581D01*
X143089000Y-76220500D01*
X143089000Y-75445500D01*
X143090625Y-75412419D01*
X143095485Y-75379657D01*
X143103533Y-75347529D01*
X143114691Y-75316344D01*
X143128852Y-75286404D01*
X143145879Y-75257995D01*
X143165609Y-75231392D01*
X143187851Y-75206851D01*
X143212392Y-75184609D01*
X143238995Y-75164879D01*
X143267404Y-75147852D01*
X143297344Y-75133691D01*
X143328529Y-75122533D01*
X143360657Y-75114485D01*
X143393419Y-75109625D01*
X143426500Y-75108000D01*
X144101500Y-75108000D01*
X144134581Y-75109625D01*
X144134581Y-75109625D01*
G37*
D11*
X143764000Y-75833000D03*
D10*
G36*
X144134581Y-76859625D02*
X144167343Y-76864485D01*
X144199471Y-76872533D01*
X144230656Y-76883691D01*
X144260596Y-76897852D01*
X144289005Y-76914879D01*
X144315608Y-76934609D01*
X144340149Y-76956851D01*
X144362391Y-76981392D01*
X144382121Y-77007995D01*
X144399148Y-77036404D01*
X144413309Y-77066344D01*
X144424467Y-77097529D01*
X144432515Y-77129657D01*
X144437375Y-77162419D01*
X144439000Y-77195500D01*
X144439000Y-77970500D01*
X144437375Y-78003581D01*
X144432515Y-78036343D01*
X144424467Y-78068471D01*
X144413309Y-78099656D01*
X144399148Y-78129596D01*
X144382121Y-78158005D01*
X144362391Y-78184608D01*
X144340149Y-78209149D01*
X144315608Y-78231391D01*
X144289005Y-78251121D01*
X144260596Y-78268148D01*
X144230656Y-78282309D01*
X144199471Y-78293467D01*
X144167343Y-78301515D01*
X144134581Y-78306375D01*
X144101500Y-78308000D01*
X143426500Y-78308000D01*
X143393419Y-78306375D01*
X143360657Y-78301515D01*
X143328529Y-78293467D01*
X143297344Y-78282309D01*
X143267404Y-78268148D01*
X143238995Y-78251121D01*
X143212392Y-78231391D01*
X143187851Y-78209149D01*
X143165609Y-78184608D01*
X143145879Y-78158005D01*
X143128852Y-78129596D01*
X143114691Y-78099656D01*
X143103533Y-78068471D01*
X143095485Y-78036343D01*
X143090625Y-78003581D01*
X143089000Y-77970500D01*
X143089000Y-77195500D01*
X143090625Y-77162419D01*
X143095485Y-77129657D01*
X143103533Y-77097529D01*
X143114691Y-77066344D01*
X143128852Y-77036404D01*
X143145879Y-77007995D01*
X143165609Y-76981392D01*
X143187851Y-76956851D01*
X143212392Y-76934609D01*
X143238995Y-76914879D01*
X143267404Y-76897852D01*
X143297344Y-76883691D01*
X143328529Y-76872533D01*
X143360657Y-76864485D01*
X143393419Y-76859625D01*
X143426500Y-76858000D01*
X144101500Y-76858000D01*
X144134581Y-76859625D01*
X144134581Y-76859625D01*
G37*
D11*
X143764000Y-77583000D03*
G04 #@! TD*
D10*
G04 #@! TO.C,R12*
G36*
X135435581Y-74764625D02*
X135468343Y-74769485D01*
X135500471Y-74777533D01*
X135531656Y-74788691D01*
X135561596Y-74802852D01*
X135590005Y-74819879D01*
X135616608Y-74839609D01*
X135641149Y-74861851D01*
X135663391Y-74886392D01*
X135683121Y-74912995D01*
X135700148Y-74941404D01*
X135714309Y-74971344D01*
X135725467Y-75002529D01*
X135733515Y-75034657D01*
X135738375Y-75067419D01*
X135740000Y-75100500D01*
X135740000Y-75775500D01*
X135738375Y-75808581D01*
X135733515Y-75841343D01*
X135725467Y-75873471D01*
X135714309Y-75904656D01*
X135700148Y-75934596D01*
X135683121Y-75963005D01*
X135663391Y-75989608D01*
X135641149Y-76014149D01*
X135616608Y-76036391D01*
X135590005Y-76056121D01*
X135561596Y-76073148D01*
X135531656Y-76087309D01*
X135500471Y-76098467D01*
X135468343Y-76106515D01*
X135435581Y-76111375D01*
X135402500Y-76113000D01*
X134627500Y-76113000D01*
X134594419Y-76111375D01*
X134561657Y-76106515D01*
X134529529Y-76098467D01*
X134498344Y-76087309D01*
X134468404Y-76073148D01*
X134439995Y-76056121D01*
X134413392Y-76036391D01*
X134388851Y-76014149D01*
X134366609Y-75989608D01*
X134346879Y-75963005D01*
X134329852Y-75934596D01*
X134315691Y-75904656D01*
X134304533Y-75873471D01*
X134296485Y-75841343D01*
X134291625Y-75808581D01*
X134290000Y-75775500D01*
X134290000Y-75100500D01*
X134291625Y-75067419D01*
X134296485Y-75034657D01*
X134304533Y-75002529D01*
X134315691Y-74971344D01*
X134329852Y-74941404D01*
X134346879Y-74912995D01*
X134366609Y-74886392D01*
X134388851Y-74861851D01*
X134413392Y-74839609D01*
X134439995Y-74819879D01*
X134468404Y-74802852D01*
X134498344Y-74788691D01*
X134529529Y-74777533D01*
X134561657Y-74769485D01*
X134594419Y-74764625D01*
X134627500Y-74763000D01*
X135402500Y-74763000D01*
X135435581Y-74764625D01*
X135435581Y-74764625D01*
G37*
D11*
X135015000Y-75438000D03*
D10*
G36*
X137185581Y-74764625D02*
X137218343Y-74769485D01*
X137250471Y-74777533D01*
X137281656Y-74788691D01*
X137311596Y-74802852D01*
X137340005Y-74819879D01*
X137366608Y-74839609D01*
X137391149Y-74861851D01*
X137413391Y-74886392D01*
X137433121Y-74912995D01*
X137450148Y-74941404D01*
X137464309Y-74971344D01*
X137475467Y-75002529D01*
X137483515Y-75034657D01*
X137488375Y-75067419D01*
X137490000Y-75100500D01*
X137490000Y-75775500D01*
X137488375Y-75808581D01*
X137483515Y-75841343D01*
X137475467Y-75873471D01*
X137464309Y-75904656D01*
X137450148Y-75934596D01*
X137433121Y-75963005D01*
X137413391Y-75989608D01*
X137391149Y-76014149D01*
X137366608Y-76036391D01*
X137340005Y-76056121D01*
X137311596Y-76073148D01*
X137281656Y-76087309D01*
X137250471Y-76098467D01*
X137218343Y-76106515D01*
X137185581Y-76111375D01*
X137152500Y-76113000D01*
X136377500Y-76113000D01*
X136344419Y-76111375D01*
X136311657Y-76106515D01*
X136279529Y-76098467D01*
X136248344Y-76087309D01*
X136218404Y-76073148D01*
X136189995Y-76056121D01*
X136163392Y-76036391D01*
X136138851Y-76014149D01*
X136116609Y-75989608D01*
X136096879Y-75963005D01*
X136079852Y-75934596D01*
X136065691Y-75904656D01*
X136054533Y-75873471D01*
X136046485Y-75841343D01*
X136041625Y-75808581D01*
X136040000Y-75775500D01*
X136040000Y-75100500D01*
X136041625Y-75067419D01*
X136046485Y-75034657D01*
X136054533Y-75002529D01*
X136065691Y-74971344D01*
X136079852Y-74941404D01*
X136096879Y-74912995D01*
X136116609Y-74886392D01*
X136138851Y-74861851D01*
X136163392Y-74839609D01*
X136189995Y-74819879D01*
X136218404Y-74802852D01*
X136248344Y-74788691D01*
X136279529Y-74777533D01*
X136311657Y-74769485D01*
X136344419Y-74764625D01*
X136377500Y-74763000D01*
X137152500Y-74763000D01*
X137185581Y-74764625D01*
X137185581Y-74764625D01*
G37*
D11*
X136765000Y-75438000D03*
G04 #@! TD*
D10*
G04 #@! TO.C,R3*
G36*
X135435581Y-79336625D02*
X135468343Y-79341485D01*
X135500471Y-79349533D01*
X135531656Y-79360691D01*
X135561596Y-79374852D01*
X135590005Y-79391879D01*
X135616608Y-79411609D01*
X135641149Y-79433851D01*
X135663391Y-79458392D01*
X135683121Y-79484995D01*
X135700148Y-79513404D01*
X135714309Y-79543344D01*
X135725467Y-79574529D01*
X135733515Y-79606657D01*
X135738375Y-79639419D01*
X135740000Y-79672500D01*
X135740000Y-80347500D01*
X135738375Y-80380581D01*
X135733515Y-80413343D01*
X135725467Y-80445471D01*
X135714309Y-80476656D01*
X135700148Y-80506596D01*
X135683121Y-80535005D01*
X135663391Y-80561608D01*
X135641149Y-80586149D01*
X135616608Y-80608391D01*
X135590005Y-80628121D01*
X135561596Y-80645148D01*
X135531656Y-80659309D01*
X135500471Y-80670467D01*
X135468343Y-80678515D01*
X135435581Y-80683375D01*
X135402500Y-80685000D01*
X134627500Y-80685000D01*
X134594419Y-80683375D01*
X134561657Y-80678515D01*
X134529529Y-80670467D01*
X134498344Y-80659309D01*
X134468404Y-80645148D01*
X134439995Y-80628121D01*
X134413392Y-80608391D01*
X134388851Y-80586149D01*
X134366609Y-80561608D01*
X134346879Y-80535005D01*
X134329852Y-80506596D01*
X134315691Y-80476656D01*
X134304533Y-80445471D01*
X134296485Y-80413343D01*
X134291625Y-80380581D01*
X134290000Y-80347500D01*
X134290000Y-79672500D01*
X134291625Y-79639419D01*
X134296485Y-79606657D01*
X134304533Y-79574529D01*
X134315691Y-79543344D01*
X134329852Y-79513404D01*
X134346879Y-79484995D01*
X134366609Y-79458392D01*
X134388851Y-79433851D01*
X134413392Y-79411609D01*
X134439995Y-79391879D01*
X134468404Y-79374852D01*
X134498344Y-79360691D01*
X134529529Y-79349533D01*
X134561657Y-79341485D01*
X134594419Y-79336625D01*
X134627500Y-79335000D01*
X135402500Y-79335000D01*
X135435581Y-79336625D01*
X135435581Y-79336625D01*
G37*
D11*
X135015000Y-80010000D03*
D10*
G36*
X137185581Y-79336625D02*
X137218343Y-79341485D01*
X137250471Y-79349533D01*
X137281656Y-79360691D01*
X137311596Y-79374852D01*
X137340005Y-79391879D01*
X137366608Y-79411609D01*
X137391149Y-79433851D01*
X137413391Y-79458392D01*
X137433121Y-79484995D01*
X137450148Y-79513404D01*
X137464309Y-79543344D01*
X137475467Y-79574529D01*
X137483515Y-79606657D01*
X137488375Y-79639419D01*
X137490000Y-79672500D01*
X137490000Y-80347500D01*
X137488375Y-80380581D01*
X137483515Y-80413343D01*
X137475467Y-80445471D01*
X137464309Y-80476656D01*
X137450148Y-80506596D01*
X137433121Y-80535005D01*
X137413391Y-80561608D01*
X137391149Y-80586149D01*
X137366608Y-80608391D01*
X137340005Y-80628121D01*
X137311596Y-80645148D01*
X137281656Y-80659309D01*
X137250471Y-80670467D01*
X137218343Y-80678515D01*
X137185581Y-80683375D01*
X137152500Y-80685000D01*
X136377500Y-80685000D01*
X136344419Y-80683375D01*
X136311657Y-80678515D01*
X136279529Y-80670467D01*
X136248344Y-80659309D01*
X136218404Y-80645148D01*
X136189995Y-80628121D01*
X136163392Y-80608391D01*
X136138851Y-80586149D01*
X136116609Y-80561608D01*
X136096879Y-80535005D01*
X136079852Y-80506596D01*
X136065691Y-80476656D01*
X136054533Y-80445471D01*
X136046485Y-80413343D01*
X136041625Y-80380581D01*
X136040000Y-80347500D01*
X136040000Y-79672500D01*
X136041625Y-79639419D01*
X136046485Y-79606657D01*
X136054533Y-79574529D01*
X136065691Y-79543344D01*
X136079852Y-79513404D01*
X136096879Y-79484995D01*
X136116609Y-79458392D01*
X136138851Y-79433851D01*
X136163392Y-79411609D01*
X136189995Y-79391879D01*
X136218404Y-79374852D01*
X136248344Y-79360691D01*
X136279529Y-79349533D01*
X136311657Y-79341485D01*
X136344419Y-79336625D01*
X136377500Y-79335000D01*
X137152500Y-79335000D01*
X137185581Y-79336625D01*
X137185581Y-79336625D01*
G37*
D11*
X136765000Y-80010000D03*
G04 #@! TD*
D10*
G04 #@! TO.C,R4*
G36*
X131470581Y-74764625D02*
X131503343Y-74769485D01*
X131535471Y-74777533D01*
X131566656Y-74788691D01*
X131596596Y-74802852D01*
X131625005Y-74819879D01*
X131651608Y-74839609D01*
X131676149Y-74861851D01*
X131698391Y-74886392D01*
X131718121Y-74912995D01*
X131735148Y-74941404D01*
X131749309Y-74971344D01*
X131760467Y-75002529D01*
X131768515Y-75034657D01*
X131773375Y-75067419D01*
X131775000Y-75100500D01*
X131775000Y-75775500D01*
X131773375Y-75808581D01*
X131768515Y-75841343D01*
X131760467Y-75873471D01*
X131749309Y-75904656D01*
X131735148Y-75934596D01*
X131718121Y-75963005D01*
X131698391Y-75989608D01*
X131676149Y-76014149D01*
X131651608Y-76036391D01*
X131625005Y-76056121D01*
X131596596Y-76073148D01*
X131566656Y-76087309D01*
X131535471Y-76098467D01*
X131503343Y-76106515D01*
X131470581Y-76111375D01*
X131437500Y-76113000D01*
X130662500Y-76113000D01*
X130629419Y-76111375D01*
X130596657Y-76106515D01*
X130564529Y-76098467D01*
X130533344Y-76087309D01*
X130503404Y-76073148D01*
X130474995Y-76056121D01*
X130448392Y-76036391D01*
X130423851Y-76014149D01*
X130401609Y-75989608D01*
X130381879Y-75963005D01*
X130364852Y-75934596D01*
X130350691Y-75904656D01*
X130339533Y-75873471D01*
X130331485Y-75841343D01*
X130326625Y-75808581D01*
X130325000Y-75775500D01*
X130325000Y-75100500D01*
X130326625Y-75067419D01*
X130331485Y-75034657D01*
X130339533Y-75002529D01*
X130350691Y-74971344D01*
X130364852Y-74941404D01*
X130381879Y-74912995D01*
X130401609Y-74886392D01*
X130423851Y-74861851D01*
X130448392Y-74839609D01*
X130474995Y-74819879D01*
X130503404Y-74802852D01*
X130533344Y-74788691D01*
X130564529Y-74777533D01*
X130596657Y-74769485D01*
X130629419Y-74764625D01*
X130662500Y-74763000D01*
X131437500Y-74763000D01*
X131470581Y-74764625D01*
X131470581Y-74764625D01*
G37*
D11*
X131050000Y-75438000D03*
D10*
G36*
X129720581Y-74764625D02*
X129753343Y-74769485D01*
X129785471Y-74777533D01*
X129816656Y-74788691D01*
X129846596Y-74802852D01*
X129875005Y-74819879D01*
X129901608Y-74839609D01*
X129926149Y-74861851D01*
X129948391Y-74886392D01*
X129968121Y-74912995D01*
X129985148Y-74941404D01*
X129999309Y-74971344D01*
X130010467Y-75002529D01*
X130018515Y-75034657D01*
X130023375Y-75067419D01*
X130025000Y-75100500D01*
X130025000Y-75775500D01*
X130023375Y-75808581D01*
X130018515Y-75841343D01*
X130010467Y-75873471D01*
X129999309Y-75904656D01*
X129985148Y-75934596D01*
X129968121Y-75963005D01*
X129948391Y-75989608D01*
X129926149Y-76014149D01*
X129901608Y-76036391D01*
X129875005Y-76056121D01*
X129846596Y-76073148D01*
X129816656Y-76087309D01*
X129785471Y-76098467D01*
X129753343Y-76106515D01*
X129720581Y-76111375D01*
X129687500Y-76113000D01*
X128912500Y-76113000D01*
X128879419Y-76111375D01*
X128846657Y-76106515D01*
X128814529Y-76098467D01*
X128783344Y-76087309D01*
X128753404Y-76073148D01*
X128724995Y-76056121D01*
X128698392Y-76036391D01*
X128673851Y-76014149D01*
X128651609Y-75989608D01*
X128631879Y-75963005D01*
X128614852Y-75934596D01*
X128600691Y-75904656D01*
X128589533Y-75873471D01*
X128581485Y-75841343D01*
X128576625Y-75808581D01*
X128575000Y-75775500D01*
X128575000Y-75100500D01*
X128576625Y-75067419D01*
X128581485Y-75034657D01*
X128589533Y-75002529D01*
X128600691Y-74971344D01*
X128614852Y-74941404D01*
X128631879Y-74912995D01*
X128651609Y-74886392D01*
X128673851Y-74861851D01*
X128698392Y-74839609D01*
X128724995Y-74819879D01*
X128753404Y-74802852D01*
X128783344Y-74788691D01*
X128814529Y-74777533D01*
X128846657Y-74769485D01*
X128879419Y-74764625D01*
X128912500Y-74763000D01*
X129687500Y-74763000D01*
X129720581Y-74764625D01*
X129720581Y-74764625D01*
G37*
D11*
X129300000Y-75438000D03*
G04 #@! TD*
D10*
G04 #@! TO.C,R13*
G36*
X122290581Y-75109625D02*
X122323343Y-75114485D01*
X122355471Y-75122533D01*
X122386656Y-75133691D01*
X122416596Y-75147852D01*
X122445005Y-75164879D01*
X122471608Y-75184609D01*
X122496149Y-75206851D01*
X122518391Y-75231392D01*
X122538121Y-75257995D01*
X122555148Y-75286404D01*
X122569309Y-75316344D01*
X122580467Y-75347529D01*
X122588515Y-75379657D01*
X122593375Y-75412419D01*
X122595000Y-75445500D01*
X122595000Y-76220500D01*
X122593375Y-76253581D01*
X122588515Y-76286343D01*
X122580467Y-76318471D01*
X122569309Y-76349656D01*
X122555148Y-76379596D01*
X122538121Y-76408005D01*
X122518391Y-76434608D01*
X122496149Y-76459149D01*
X122471608Y-76481391D01*
X122445005Y-76501121D01*
X122416596Y-76518148D01*
X122386656Y-76532309D01*
X122355471Y-76543467D01*
X122323343Y-76551515D01*
X122290581Y-76556375D01*
X122257500Y-76558000D01*
X121582500Y-76558000D01*
X121549419Y-76556375D01*
X121516657Y-76551515D01*
X121484529Y-76543467D01*
X121453344Y-76532309D01*
X121423404Y-76518148D01*
X121394995Y-76501121D01*
X121368392Y-76481391D01*
X121343851Y-76459149D01*
X121321609Y-76434608D01*
X121301879Y-76408005D01*
X121284852Y-76379596D01*
X121270691Y-76349656D01*
X121259533Y-76318471D01*
X121251485Y-76286343D01*
X121246625Y-76253581D01*
X121245000Y-76220500D01*
X121245000Y-75445500D01*
X121246625Y-75412419D01*
X121251485Y-75379657D01*
X121259533Y-75347529D01*
X121270691Y-75316344D01*
X121284852Y-75286404D01*
X121301879Y-75257995D01*
X121321609Y-75231392D01*
X121343851Y-75206851D01*
X121368392Y-75184609D01*
X121394995Y-75164879D01*
X121423404Y-75147852D01*
X121453344Y-75133691D01*
X121484529Y-75122533D01*
X121516657Y-75114485D01*
X121549419Y-75109625D01*
X121582500Y-75108000D01*
X122257500Y-75108000D01*
X122290581Y-75109625D01*
X122290581Y-75109625D01*
G37*
D11*
X121920000Y-75833000D03*
D10*
G36*
X122290581Y-76859625D02*
X122323343Y-76864485D01*
X122355471Y-76872533D01*
X122386656Y-76883691D01*
X122416596Y-76897852D01*
X122445005Y-76914879D01*
X122471608Y-76934609D01*
X122496149Y-76956851D01*
X122518391Y-76981392D01*
X122538121Y-77007995D01*
X122555148Y-77036404D01*
X122569309Y-77066344D01*
X122580467Y-77097529D01*
X122588515Y-77129657D01*
X122593375Y-77162419D01*
X122595000Y-77195500D01*
X122595000Y-77970500D01*
X122593375Y-78003581D01*
X122588515Y-78036343D01*
X122580467Y-78068471D01*
X122569309Y-78099656D01*
X122555148Y-78129596D01*
X122538121Y-78158005D01*
X122518391Y-78184608D01*
X122496149Y-78209149D01*
X122471608Y-78231391D01*
X122445005Y-78251121D01*
X122416596Y-78268148D01*
X122386656Y-78282309D01*
X122355471Y-78293467D01*
X122323343Y-78301515D01*
X122290581Y-78306375D01*
X122257500Y-78308000D01*
X121582500Y-78308000D01*
X121549419Y-78306375D01*
X121516657Y-78301515D01*
X121484529Y-78293467D01*
X121453344Y-78282309D01*
X121423404Y-78268148D01*
X121394995Y-78251121D01*
X121368392Y-78231391D01*
X121343851Y-78209149D01*
X121321609Y-78184608D01*
X121301879Y-78158005D01*
X121284852Y-78129596D01*
X121270691Y-78099656D01*
X121259533Y-78068471D01*
X121251485Y-78036343D01*
X121246625Y-78003581D01*
X121245000Y-77970500D01*
X121245000Y-77195500D01*
X121246625Y-77162419D01*
X121251485Y-77129657D01*
X121259533Y-77097529D01*
X121270691Y-77066344D01*
X121284852Y-77036404D01*
X121301879Y-77007995D01*
X121321609Y-76981392D01*
X121343851Y-76956851D01*
X121368392Y-76934609D01*
X121394995Y-76914879D01*
X121423404Y-76897852D01*
X121453344Y-76883691D01*
X121484529Y-76872533D01*
X121516657Y-76864485D01*
X121549419Y-76859625D01*
X121582500Y-76858000D01*
X122257500Y-76858000D01*
X122290581Y-76859625D01*
X122290581Y-76859625D01*
G37*
D11*
X121920000Y-77583000D03*
G04 #@! TD*
D12*
G04 #@! TO.C,J5*
X147574000Y-37338000D03*
D13*
X145034000Y-37338000D03*
X142494000Y-37338000D03*
G04 #@! TD*
D14*
G04 #@! TO.C,TP1*
X93980000Y-70485000D03*
G04 #@! TD*
G04 #@! TO.C,TP2*
X149479000Y-69215000D03*
G04 #@! TD*
D15*
G04 #@! TO.C,S1*
X116114000Y-54521000D03*
X116114000Y-46571000D03*
X120614000Y-54521000D03*
X120614000Y-46571000D03*
G04 #@! TD*
D16*
G04 #@! TO.C,D1*
X165226000Y-80645000D03*
X161926000Y-80645000D03*
G04 #@! TD*
G04 #@! TO.C,D2*
X140336000Y-80518000D03*
X143636000Y-80518000D03*
G04 #@! TD*
G04 #@! TO.C,D3*
X122046000Y-80264000D03*
X118746000Y-80264000D03*
G04 #@! TD*
G04 #@! TO.C,D4*
X97410000Y-80518000D03*
X100710000Y-80518000D03*
G04 #@! TD*
D17*
G04 #@! TO.C,U2*
X170434000Y-42926000D03*
X167894000Y-42926000D03*
X165354000Y-42926000D03*
X162814000Y-42926000D03*
X160274000Y-42926000D03*
X157734000Y-42926000D03*
X155194000Y-42926000D03*
X152654000Y-42926000D03*
X152654000Y-65786000D03*
X155194000Y-65786000D03*
X157734000Y-65786000D03*
X160274000Y-65786000D03*
X162814000Y-65786000D03*
X165354000Y-65786000D03*
X167894000Y-65786000D03*
X170434000Y-65786000D03*
G04 #@! TD*
D15*
G04 #@! TO.C,S3*
X106462000Y-54521000D03*
X106462000Y-46571000D03*
X110962000Y-54521000D03*
X110962000Y-46571000D03*
G04 #@! TD*
G04 #@! TO.C,S4*
X130520000Y-46571000D03*
X130520000Y-54521000D03*
X126020000Y-46571000D03*
X126020000Y-54521000D03*
G04 #@! TD*
G04 #@! TO.C,S2*
X140680000Y-46571000D03*
X140680000Y-54521000D03*
X136180000Y-46571000D03*
X136180000Y-54521000D03*
G04 #@! TD*
D18*
G04 #@! TO.C,D5*
X158580000Y-77216000D03*
X156380000Y-77216000D03*
G04 #@! TD*
G04 #@! TO.C,D6*
X134790000Y-77470000D03*
X136990000Y-77470000D03*
G04 #@! TD*
G04 #@! TO.C,D7*
X115400000Y-77470000D03*
X113200000Y-77470000D03*
G04 #@! TD*
G04 #@! TO.C,D8*
X91610000Y-77470000D03*
X93810000Y-77470000D03*
G04 #@! TD*
G04 #@! TO.C,D9*
X101684000Y-42418000D03*
X99484000Y-42418000D03*
G04 #@! TD*
D19*
G04 #@! TO.C,F1*
X172466000Y-94586000D03*
X172466000Y-116586000D03*
G04 #@! TD*
D20*
G04 #@! TO.C,J1*
X91234000Y-53976000D03*
X88234000Y-49276000D03*
X94234000Y-49276000D03*
G04 #@! TD*
D21*
G04 #@! TO.C,Q7*
X118872000Y-77454000D03*
X117922000Y-75454000D03*
X119822000Y-75454000D03*
G04 #@! TD*
G04 #@! TO.C,Q5*
X163256000Y-75454000D03*
X161356000Y-75454000D03*
X162306000Y-77454000D03*
G04 #@! TD*
G04 #@! TO.C,Q6*
X140716000Y-77708000D03*
X139766000Y-75708000D03*
X141666000Y-75708000D03*
G04 #@! TD*
G04 #@! TO.C,Q8*
X98740000Y-75454000D03*
X96840000Y-75454000D03*
X97790000Y-77454000D03*
G04 #@! TD*
D22*
G04 #@! TO.C,C2*
X105664000Y-60446000D03*
X105664000Y-66046000D03*
G04 #@! TD*
G04 #@! TO.C,C1*
X87884000Y-66046000D03*
X87884000Y-60446000D03*
G04 #@! TD*
D21*
G04 #@! TO.C,Q1*
X153858000Y-79010000D03*
X151958000Y-79010000D03*
X152908000Y-81010000D03*
G04 #@! TD*
D23*
G04 #@! TO.C,U1*
X99924000Y-62992000D03*
D24*
X93624000Y-62992000D03*
X93624000Y-65292000D03*
X93624000Y-60692000D03*
G04 #@! TD*
D25*
G04 #@! TO.C,K1*
X163480000Y-88360000D03*
X163480000Y-100560000D03*
X151480000Y-100560000D03*
X151480000Y-88360000D03*
D26*
X157480000Y-86360000D03*
G04 #@! TD*
G04 #@! TO.C,K2*
X135890000Y-86360000D03*
D25*
X129890000Y-88360000D03*
X129890000Y-100560000D03*
X141890000Y-100560000D03*
X141890000Y-88360000D03*
G04 #@! TD*
G04 #@! TO.C,K3*
X120300000Y-88360000D03*
X120300000Y-100560000D03*
X108300000Y-100560000D03*
X108300000Y-88360000D03*
D26*
X114300000Y-86360000D03*
G04 #@! TD*
G04 #@! TO.C,K4*
X92710000Y-86360000D03*
D25*
X86710000Y-88360000D03*
X86710000Y-100560000D03*
X98710000Y-100560000D03*
X98710000Y-88360000D03*
G04 #@! TD*
D21*
G04 #@! TO.C,Q2*
X131125000Y-79010000D03*
X129225000Y-79010000D03*
X130175000Y-81010000D03*
G04 #@! TD*
G04 #@! TO.C,Q3*
X108712000Y-80502000D03*
X107762000Y-78502000D03*
X109662000Y-78502000D03*
G04 #@! TD*
G04 #@! TO.C,Q4*
X87945000Y-79010000D03*
X86045000Y-79010000D03*
X86995000Y-81010000D03*
G04 #@! TD*
D26*
G04 #@! TO.C,J2*
X163195000Y-125095000D03*
D27*
X158195000Y-125095000D03*
X153195000Y-125095000D03*
X148195000Y-125095000D03*
X143195000Y-125095000D03*
G04 #@! TD*
G04 #@! TO.C,J3*
X114620000Y-125095000D03*
X119620000Y-125095000D03*
X124620000Y-125095000D03*
X129620000Y-125095000D03*
D26*
X134620000Y-125095000D03*
G04 #@! TD*
G04 #@! TO.C,J4*
X106045000Y-125095000D03*
D27*
X101045000Y-125095000D03*
X96045000Y-125095000D03*
X91045000Y-125095000D03*
X86045000Y-125095000D03*
G04 #@! TD*
D28*
G04 #@! TO.C,REF\002A\002A*
X85852000Y-37592000D03*
G04 #@! TD*
G04 #@! TO.C,REF\002A\002A*
X176022000Y-38100000D03*
G04 #@! TD*
G04 #@! TO.C,REF\002A\002A*
X176022000Y-127254000D03*
G04 #@! TD*
G04 #@! TO.C,REF\002A\002A*
X85598000Y-114808000D03*
G04 #@! TD*
M02*
