M48
;DRILL file {KiCad (5.0.0)} date 08/06/18 10:04:41
;FORMAT={-:-/ absolute / inch / decimal}
FMAT,2
INCH,TZ
T1C0.0157
T2C0.0394
T3C0.0400
T4C0.0512
T5C0.0591
T6C0.1260
%
G90
G05
M72
T1
X3.24Y-2.05
X3.24Y-2.33
X3.25Y-1.62
X3.25Y-1.78
X3.25Y-2.7
X3.25Y-3.05
X3.49Y-2.85
X3.75Y-3.09
X3.78Y-1.44
X4.03Y-3.15
X4.09Y-1.94
X4.09Y-2.13
X4.14Y-3.09
X4.15Y-2.75
X4.2Y-2.75
X4.51Y-1.35
X4.54Y-1.98
X4.56Y-2.44
X4.56Y-2.73
X4.59Y-3.09
X4.67Y-1.35
X4.85Y-1.35
X4.89Y-3.04
X4.89Y-3.15
X4.99Y-3.06
X5.01Y-1.35
X5.16Y-1.35
X5.31Y-1.35
X5.44Y-1.74
X5.45Y-3.09
X5.46Y-2.33
X5.6Y-1.71
X5.63Y-2.21
X5.74Y-3.05
X5.75Y-3.15
X5.85Y-3.06
X6.02Y-1.56
X6.04Y-2.48
X6.07Y-2.2
X6.29Y-3.08
X6.32Y-2.41
X6.34Y-2.83
X6.465Y-2.46
X6.5Y-1.37
X6.55Y-1.37
X6.57Y-3.15
X6.6Y-1.37
X6.66Y-1.37
X6.72Y-1.37
X6.72Y-1.425
X6.72Y-1.48
X6.72Y-1.53
X6.72Y-1.58
X6.72Y-1.8
X6.72Y-1.85
X6.72Y-1.9
X6.72Y-1.95
X6.72Y-2.
X6.72Y-2.05
X6.72Y-2.1
X6.72Y-2.15
X6.72Y-2.2
X6.72Y-2.25
X6.72Y-2.3
X6.72Y-2.35
X6.72Y-2.4
X6.72Y-2.45
X6.72Y-2.5
X6.72Y-2.69
X6.72Y-2.74
X6.72Y-2.79
X6.72Y-2.84
X6.72Y-2.89
X6.72Y-2.94
X6.72Y-2.99
X6.72Y-3.04
X6.72Y-3.09
T2
X5.61Y-1.47
X5.71Y-1.47
X5.81Y-1.47
T3
X6.01Y-1.69
X6.01Y-2.59
X6.11Y-1.69
X6.11Y-2.59
X6.21Y-1.69
X6.21Y-2.59
X6.31Y-1.69
X6.31Y-2.59
X6.41Y-1.69
X6.41Y-2.59
X6.51Y-1.69
X6.51Y-2.59
X6.61Y-1.69
X6.61Y-2.59
X6.71Y-1.69
X6.71Y-2.59
T4
X3.4138Y-3.4787
X3.4138Y-3.9591
X3.65Y-3.4
X3.8862Y-3.4787
X3.8862Y-3.9591
X5.1138Y-3.4787
X5.1138Y-3.9591
X5.35Y-3.4
X5.5862Y-3.4787
X5.5862Y-3.9591
X4.2638Y-3.4787
X4.2638Y-3.9591
X4.5Y-3.4
X4.7362Y-3.4787
X4.7362Y-3.9591
X3.3876Y-4.925
X3.5844Y-4.925
X3.7813Y-4.925
X3.9781Y-4.925
X4.175Y-4.925
X4.5126Y-4.925
X4.7094Y-4.925
X4.9063Y-4.925
X5.1031Y-4.925
X5.3Y-4.925
X5.9638Y-3.4787
X5.9638Y-3.9591
X6.2Y-3.4
X6.4362Y-3.4787
X6.4362Y-3.9591
X5.6376Y-4.925
X5.8344Y-4.925
X6.0313Y-4.925
X6.2281Y-4.925
X6.425Y-4.925
T5
X6.79Y-3.7239
X6.79Y-4.59
T6
X6.93Y-1.5
X3.38Y-1.48
X3.37Y-4.52
X6.93Y-5.01
T2
X3.4738Y-1.9006G85X3.4738Y-1.9794
G05
X3.5525Y-2.125G85X3.6313Y-2.125
G05
X3.71Y-1.9006G85X3.71Y-1.9794
G05
T0
M30
