G04 #@! TF.GenerationSoftware,KiCad,Pcbnew,(5.0.0)*
G04 #@! TF.CreationDate,2018-08-06T10:04:36+01:00*
G04 #@! TF.ProjectId,Sonoff_4ch_switch,536F6E6F66665F3463685F7377697463,rev?*
G04 #@! TF.SameCoordinates,Original*
G04 #@! TF.FileFunction,Copper,L2,Bot,Signal*
G04 #@! TF.FilePolarity,Positive*
%FSLAX46Y46*%
G04 Gerber Fmt 4.6, Leading zero omitted, Abs format (unit mm)*
G04 Created by KiCad (PCBNEW (5.0.0)) date 08/06/18 10:04:36*
%MOMM*%
%LPD*%
G01*
G04 APERTURE LIST*
G04 #@! TA.AperFunction,ComponentPad*
%ADD10R,1.700000X1.700000*%
G04 #@! TD*
G04 #@! TA.AperFunction,ComponentPad*
%ADD11O,1.700000X1.700000*%
G04 #@! TD*
G04 #@! TA.AperFunction,ComponentPad*
%ADD12C,1.800000*%
G04 #@! TD*
G04 #@! TA.AperFunction,ComponentPad*
%ADD13O,2.500000X4.000000*%
G04 #@! TD*
G04 #@! TA.AperFunction,ComponentPad*
%ADD14R,3.500000X3.500000*%
G04 #@! TD*
G04 #@! TA.AperFunction,ComponentPad*
%ADD15O,2.500000X2.500000*%
G04 #@! TD*
G04 #@! TA.AperFunction,ComponentPad*
%ADD16R,2.500000X2.500000*%
G04 #@! TD*
G04 #@! TA.AperFunction,ComponentPad*
%ADD17C,2.500000*%
G04 #@! TD*
G04 #@! TA.AperFunction,ComponentPad*
%ADD18C,5.600000*%
G04 #@! TD*
G04 #@! TA.AperFunction,ViaPad*
%ADD19C,0.800000*%
G04 #@! TD*
G04 #@! TA.AperFunction,Conductor*
%ADD20C,0.800000*%
G04 #@! TD*
G04 #@! TA.AperFunction,Conductor*
%ADD21C,0.400000*%
G04 #@! TD*
G04 #@! TA.AperFunction,Conductor*
%ADD22C,3.500000*%
G04 #@! TD*
G04 #@! TA.AperFunction,Conductor*
%ADD23C,0.254000*%
G04 #@! TD*
G04 APERTURE END LIST*
D10*
G04 #@! TO.P,J5,1*
G04 #@! TO.N,GND*
X147574000Y-37338000D03*
D11*
G04 #@! TO.P,J5,2*
G04 #@! TO.N,OneWire*
X145034000Y-37338000D03*
G04 #@! TO.P,J5,3*
G04 #@! TO.N,+3V3*
X142494000Y-37338000D03*
G04 #@! TD*
D12*
G04 #@! TO.P,U2,8*
G04 #@! TO.N,Net-(U2-Pad8)*
X170434000Y-42926000D03*
G04 #@! TO.P,U2,7*
G04 #@! TO.N,Net-(U2-Pad7)*
X167894000Y-42926000D03*
G04 #@! TO.P,U2,6*
G04 #@! TO.N,Relay2*
X165354000Y-42926000D03*
G04 #@! TO.P,U2,5*
G04 #@! TO.N,Relay3*
X162814000Y-42926000D03*
G04 #@! TO.P,U2,4*
G04 #@! TO.N,SW0*
X160274000Y-42926000D03*
G04 #@! TO.P,U2,3*
G04 #@! TO.N,SW2*
X157734000Y-42926000D03*
G04 #@! TO.P,U2,2*
G04 #@! TO.N,GND*
X155194000Y-42926000D03*
G04 #@! TO.P,U2,1*
G04 #@! TO.N,+5V*
X152654000Y-42926000D03*
G04 #@! TO.P,U2,16*
G04 #@! TO.N,+3V3*
X152654000Y-65786000D03*
G04 #@! TO.P,U2,15*
G04 #@! TO.N,Relay4*
X155194000Y-65786000D03*
G04 #@! TO.P,U2,14*
G04 #@! TO.N,OneWire*
X157734000Y-65786000D03*
G04 #@! TO.P,U2,13*
G04 #@! TO.N,Relay1*
X160274000Y-65786000D03*
G04 #@! TO.P,U2,12*
G04 #@! TO.N,SW14*
X162814000Y-65786000D03*
G04 #@! TO.P,U2,11*
G04 #@! TO.N,SW16*
X165354000Y-65786000D03*
G04 #@! TO.P,U2,10*
G04 #@! TO.N,Net-(U2-Pad10)*
X167894000Y-65786000D03*
G04 #@! TO.P,U2,9*
G04 #@! TO.N,Net-(U2-Pad9)*
X170434000Y-65786000D03*
G04 #@! TD*
D13*
G04 #@! TO.P,F1,2*
G04 #@! TO.N,LineIN*
X172466000Y-94586000D03*
G04 #@! TO.P,F1,1*
G04 #@! TO.N,AC*
X172466000Y-116586000D03*
G04 #@! TD*
D14*
G04 #@! TO.P,J1,3*
G04 #@! TO.N,GND*
X91234000Y-53976000D03*
G04 #@! TO.P,J1,2*
X88234000Y-49276000D03*
G04 #@! TO.P,J1,1*
G04 #@! TO.N,/DC_IN*
X94234000Y-49276000D03*
G04 #@! TD*
D15*
G04 #@! TO.P,K1,5*
G04 #@! TO.N,+5V*
X163480000Y-88360000D03*
G04 #@! TO.P,K1,4*
G04 #@! TO.N,Net-(K1-Pad4)*
X163480000Y-100560000D03*
G04 #@! TO.P,K1,3*
G04 #@! TO.N,L1*
X151480000Y-100560000D03*
G04 #@! TO.P,K1,2*
G04 #@! TO.N,Net-(D1-Pad2)*
X151480000Y-88360000D03*
D16*
G04 #@! TO.P,K1,1*
G04 #@! TO.N,LineIN*
X157480000Y-86360000D03*
G04 #@! TD*
G04 #@! TO.P,K2,1*
G04 #@! TO.N,LineIN*
X135890000Y-86360000D03*
D15*
G04 #@! TO.P,K2,2*
G04 #@! TO.N,Net-(D2-Pad2)*
X129890000Y-88360000D03*
G04 #@! TO.P,K2,3*
G04 #@! TO.N,L2*
X129890000Y-100560000D03*
G04 #@! TO.P,K2,4*
G04 #@! TO.N,Net-(K2-Pad4)*
X141890000Y-100560000D03*
G04 #@! TO.P,K2,5*
G04 #@! TO.N,+5V*
X141890000Y-88360000D03*
G04 #@! TD*
G04 #@! TO.P,K3,5*
G04 #@! TO.N,+5V*
X120300000Y-88360000D03*
G04 #@! TO.P,K3,4*
G04 #@! TO.N,Net-(K3-Pad4)*
X120300000Y-100560000D03*
G04 #@! TO.P,K3,3*
G04 #@! TO.N,L3*
X108300000Y-100560000D03*
G04 #@! TO.P,K3,2*
G04 #@! TO.N,Net-(D3-Pad2)*
X108300000Y-88360000D03*
D16*
G04 #@! TO.P,K3,1*
G04 #@! TO.N,LineIN*
X114300000Y-86360000D03*
G04 #@! TD*
G04 #@! TO.P,K4,1*
G04 #@! TO.N,LineIN*
X92710000Y-86360000D03*
D15*
G04 #@! TO.P,K4,2*
G04 #@! TO.N,Net-(D4-Pad2)*
X86710000Y-88360000D03*
G04 #@! TO.P,K4,3*
G04 #@! TO.N,L4*
X86710000Y-100560000D03*
G04 #@! TO.P,K4,4*
G04 #@! TO.N,Net-(K4-Pad4)*
X98710000Y-100560000D03*
G04 #@! TO.P,K4,5*
G04 #@! TO.N,+5V*
X98710000Y-88360000D03*
G04 #@! TD*
D16*
G04 #@! TO.P,J2,1*
G04 #@! TO.N,AC*
X163195000Y-125095000D03*
D17*
G04 #@! TO.P,J2,2*
G04 #@! TO.N,L1*
X158195000Y-125095000D03*
G04 #@! TO.P,J2,3*
G04 #@! TO.N,L2*
X153195000Y-125095000D03*
G04 #@! TO.P,J2,4*
G04 #@! TO.N,L3*
X148195000Y-125095000D03*
G04 #@! TO.P,J2,5*
G04 #@! TO.N,L4*
X143195000Y-125095000D03*
G04 #@! TD*
G04 #@! TO.P,J3,5*
G04 #@! TO.N,Neutral*
X114620000Y-125095000D03*
G04 #@! TO.P,J3,4*
X119620000Y-125095000D03*
G04 #@! TO.P,J3,3*
X124620000Y-125095000D03*
G04 #@! TO.P,J3,2*
X129620000Y-125095000D03*
D16*
G04 #@! TO.P,J3,1*
X134620000Y-125095000D03*
G04 #@! TD*
G04 #@! TO.P,J4,1*
G04 #@! TO.N,Earth*
X106045000Y-125095000D03*
D17*
G04 #@! TO.P,J4,2*
X101045000Y-125095000D03*
G04 #@! TO.P,J4,3*
X96045000Y-125095000D03*
G04 #@! TO.P,J4,4*
X91045000Y-125095000D03*
G04 #@! TO.P,J4,5*
X86045000Y-125095000D03*
G04 #@! TD*
D18*
G04 #@! TO.P,REF\002A\002A,1*
G04 #@! TO.N,N/C*
X85852000Y-37592000D03*
G04 #@! TD*
G04 #@! TO.P,REF\002A\002A,1*
G04 #@! TO.N,N/C*
X176022000Y-38100000D03*
G04 #@! TD*
G04 #@! TO.P,REF\002A\002A,1*
G04 #@! TO.N,N/C*
X176022000Y-127254000D03*
G04 #@! TD*
G04 #@! TO.P,REF\002A\002A,1*
G04 #@! TO.N,N/C*
X85598000Y-114808000D03*
G04 #@! TD*
D19*
G04 #@! TO.N,+5V*
X146050000Y-80010000D03*
X102362000Y-80010000D03*
X159766000Y-78232000D03*
X138430000Y-78486000D03*
X116586000Y-78486000D03*
X95250000Y-78486000D03*
X124206000Y-80010000D03*
X105410000Y-69850000D03*
X166878000Y-80010000D03*
X152908000Y-39624000D03*
X106680000Y-69850000D03*
G04 #@! TO.N,GND*
X148590000Y-77724000D03*
X126746000Y-77724000D03*
X105156000Y-78486000D03*
X103886000Y-54102000D03*
X88646000Y-72390000D03*
X115824000Y-61976000D03*
X161036000Y-71882000D03*
X96012000Y-36576000D03*
X115824000Y-69342000D03*
X170688000Y-70866000D03*
X160528000Y-61214000D03*
X164211000Y-62484000D03*
X170688000Y-34798000D03*
X170688000Y-36195000D03*
X170688000Y-37592000D03*
X170688000Y-38862000D03*
X170688000Y-40132000D03*
X170688000Y-45720000D03*
X170688000Y-46990000D03*
X170688000Y-48260000D03*
X170688000Y-49530000D03*
X170688000Y-50800000D03*
X170688000Y-52070000D03*
X170688000Y-53340000D03*
X170688000Y-54610000D03*
X170688000Y-55880000D03*
X170688000Y-57150000D03*
X170688000Y-58420000D03*
X170688000Y-59690000D03*
X170688000Y-60960000D03*
X170688000Y-62230000D03*
X170688000Y-63500000D03*
X169164000Y-34798000D03*
X167640000Y-34798000D03*
X166370000Y-34798000D03*
X165100000Y-34798000D03*
X170688000Y-68326000D03*
X170688000Y-69596000D03*
X170688000Y-72136000D03*
X170688000Y-73406000D03*
X170688000Y-74676000D03*
X170688000Y-75946000D03*
X170688000Y-77216000D03*
X170688000Y-78486000D03*
X153416000Y-62992000D03*
X134874000Y-34290000D03*
X131064000Y-34290000D03*
X127254000Y-34290000D03*
X123190000Y-34290000D03*
X118618000Y-34290000D03*
X114554000Y-34290000D03*
X82550000Y-41148000D03*
X82550000Y-45212000D03*
X82296000Y-52070000D03*
X82296000Y-59182000D03*
X82550000Y-68580000D03*
X82550000Y-77470000D03*
X103886000Y-49276000D03*
X142240000Y-43434000D03*
X115316000Y-50292000D03*
G04 #@! TO.N,Relay2*
X145796000Y-77470000D03*
X154178000Y-55880000D03*
G04 #@! TO.N,Relay3*
X124206000Y-77216000D03*
X143002000Y-56134000D03*
G04 #@! TO.N,+3V3*
X138684000Y-59182000D03*
X138176000Y-44196000D03*
G04 #@! TD*
D20*
G04 #@! TO.N,+5V*
X146050000Y-80010000D02*
X146050000Y-80010000D01*
X102362000Y-80010000D02*
X102362000Y-80010000D01*
X139446000Y-80010000D02*
X146050000Y-80010000D01*
X138430000Y-78486000D02*
X139446000Y-80010000D01*
X96520000Y-80010000D02*
X102362000Y-80010000D01*
X95250000Y-78486000D02*
X96520000Y-80010000D01*
X118110000Y-80010000D02*
X116586000Y-78486000D01*
X124206000Y-80010000D02*
X118110000Y-80010000D01*
X124460000Y-80010000D02*
X146050000Y-80010000D01*
X124206000Y-80010000D02*
X124460000Y-80010000D01*
X102362000Y-80010000D02*
X124206000Y-80010000D01*
X161290000Y-80010000D02*
X159766000Y-78232000D01*
X102362000Y-80010000D02*
X102362000Y-72898000D01*
X102362000Y-72898000D02*
X105410000Y-69850000D01*
X146050000Y-80010000D02*
X166878000Y-80010000D01*
X152908000Y-42672000D02*
X152654000Y-42926000D01*
X152908000Y-39624000D02*
X152908000Y-42672000D01*
X106680000Y-69850000D02*
X105410000Y-69850000D01*
D21*
G04 #@! TO.N,Relay2*
X145796000Y-77216000D02*
X145796000Y-77470000D01*
X145796000Y-76904315D02*
X145796000Y-77470000D01*
X145796000Y-64262000D02*
X145796000Y-76904315D01*
X154178000Y-55880000D02*
X145796000Y-64262000D01*
G04 #@! TO.N,Relay3*
X124206000Y-77216000D02*
X124206000Y-73914000D01*
X124206000Y-73914000D02*
X134874000Y-73914000D01*
X143002000Y-65786000D02*
X134874000Y-73914000D01*
X143002000Y-56134000D02*
X143002000Y-65786000D01*
D22*
G04 #@! TO.N,L1*
X152729999Y-101809999D02*
X151480000Y-100560000D01*
X152736999Y-101809999D02*
X152729999Y-101809999D01*
X158242000Y-107315000D02*
X152736999Y-101809999D01*
X158242000Y-123280234D02*
X158242000Y-107315000D01*
X158195000Y-125095000D02*
X158195000Y-123327234D01*
X158195000Y-123327234D02*
X158242000Y-123280234D01*
G04 #@! TO.N,LineIN*
X92710000Y-91440000D02*
X92710000Y-86360000D01*
X95758000Y-94488000D02*
X92710000Y-91440000D01*
X114300000Y-91110000D02*
X114300000Y-94488000D01*
X114300000Y-86360000D02*
X114300000Y-91110000D01*
X114300000Y-94488000D02*
X95758000Y-94488000D01*
X135890000Y-91110000D02*
X135890000Y-94488000D01*
X135890000Y-86360000D02*
X135890000Y-91110000D01*
X135890000Y-94488000D02*
X114300000Y-94488000D01*
X157480000Y-86360000D02*
X157480000Y-94488000D01*
X157480000Y-94488000D02*
X135890000Y-94488000D01*
X167618000Y-94488000D02*
X157480000Y-94488000D01*
X167716000Y-94586000D02*
X167618000Y-94488000D01*
X172466000Y-94586000D02*
X167716000Y-94586000D01*
G04 #@! TO.N,L2*
X135375000Y-106045000D02*
X129890000Y-100560000D01*
X145415000Y-106045000D02*
X135375000Y-106045000D01*
X153162000Y-114554000D02*
X145415000Y-106045000D01*
X153162000Y-123294234D02*
X153162000Y-114554000D01*
X153195000Y-125095000D02*
X153195000Y-123327234D01*
X153195000Y-123327234D02*
X153162000Y-123294234D01*
G04 #@! TO.N,L3*
X148195000Y-125095000D02*
X148195000Y-123327234D01*
X148209000Y-123313234D02*
X148336000Y-118491000D01*
X108300000Y-100680000D02*
X108300000Y-100560000D01*
X148336000Y-118491000D02*
X142113000Y-112268000D01*
X142113000Y-112268000D02*
X119888000Y-112268000D01*
X148195000Y-123327234D02*
X148209000Y-123313234D01*
X119888000Y-112268000D02*
X108300000Y-100680000D01*
G04 #@! TO.N,L4*
X92576000Y-106426000D02*
X86710000Y-100560000D01*
X98171000Y-106426000D02*
X92576000Y-106426000D01*
X110283010Y-118538010D02*
X98171000Y-106426000D01*
X139874010Y-118538010D02*
X110283010Y-118538010D01*
X143195000Y-125095000D02*
X143195000Y-121859000D01*
X143195000Y-121859000D02*
X139874010Y-118538010D01*
G04 #@! TO.N,Neutral*
X114620000Y-125095000D02*
X119620000Y-125095000D01*
X119620000Y-125095000D02*
X124620000Y-125095000D01*
X124620000Y-125095000D02*
X129620000Y-125095000D01*
X129620000Y-125095000D02*
X134620000Y-125095000D01*
G04 #@! TO.N,Earth*
X86045000Y-125095000D02*
X91045000Y-125095000D01*
X91045000Y-125095000D02*
X96045000Y-125095000D01*
X96045000Y-125095000D02*
X101045000Y-125095000D01*
X101045000Y-125095000D02*
X106045000Y-125095000D01*
G04 #@! TO.N,AC*
X172466000Y-119634000D02*
X172466000Y-116586000D01*
X163195000Y-125095000D02*
X167005000Y-125095000D01*
X167005000Y-125095000D02*
X172466000Y-119634000D01*
D21*
G04 #@! TO.N,+3V3*
X138684000Y-59182000D02*
X138176000Y-58674000D01*
X138176000Y-58674000D02*
X138176000Y-44196000D01*
X142494000Y-39878000D02*
X138176000Y-44196000D01*
X142494000Y-37338000D02*
X142494000Y-39878000D01*
G04 #@! TO.N,OneWire*
X157734000Y-56134000D02*
X157734000Y-65786000D01*
X145034000Y-43434000D02*
X157734000Y-56134000D01*
X145034000Y-37338000D02*
X145034000Y-43434000D01*
G04 #@! TD*
D23*
G04 #@! TO.N,GND*
G36*
X171831000Y-42287509D02*
X171735310Y-42056493D01*
X171303507Y-41624690D01*
X170739330Y-41391000D01*
X170128670Y-41391000D01*
X169564493Y-41624690D01*
X169164000Y-42025183D01*
X168763507Y-41624690D01*
X168199330Y-41391000D01*
X167588670Y-41391000D01*
X167024493Y-41624690D01*
X166624000Y-42025183D01*
X166223507Y-41624690D01*
X165659330Y-41391000D01*
X165048670Y-41391000D01*
X164484493Y-41624690D01*
X164084000Y-42025183D01*
X163683507Y-41624690D01*
X163119330Y-41391000D01*
X162508670Y-41391000D01*
X161944493Y-41624690D01*
X161544000Y-42025183D01*
X161143507Y-41624690D01*
X160579330Y-41391000D01*
X159968670Y-41391000D01*
X159404493Y-41624690D01*
X159004000Y-42025183D01*
X158603507Y-41624690D01*
X158039330Y-41391000D01*
X157428670Y-41391000D01*
X156864493Y-41624690D01*
X156432690Y-42056493D01*
X156424562Y-42076115D01*
X156274159Y-42025446D01*
X155373605Y-42926000D01*
X156274159Y-43826554D01*
X156424562Y-43775885D01*
X156432690Y-43795507D01*
X156864493Y-44227310D01*
X157428670Y-44461000D01*
X158039330Y-44461000D01*
X158603507Y-44227310D01*
X159004000Y-43826817D01*
X159404493Y-44227310D01*
X159968670Y-44461000D01*
X160579330Y-44461000D01*
X161143507Y-44227310D01*
X161544000Y-43826817D01*
X161944493Y-44227310D01*
X162508670Y-44461000D01*
X163119330Y-44461000D01*
X163683507Y-44227310D01*
X164084000Y-43826817D01*
X164484493Y-44227310D01*
X165048670Y-44461000D01*
X165659330Y-44461000D01*
X166223507Y-44227310D01*
X166624000Y-43826817D01*
X167024493Y-44227310D01*
X167588670Y-44461000D01*
X168199330Y-44461000D01*
X168763507Y-44227310D01*
X169164000Y-43826817D01*
X169564493Y-44227310D01*
X170128670Y-44461000D01*
X170739330Y-44461000D01*
X171303507Y-44227310D01*
X171735310Y-43795507D01*
X171831000Y-43564491D01*
X171831000Y-65147509D01*
X171735310Y-64916493D01*
X171303507Y-64484690D01*
X170739330Y-64251000D01*
X170128670Y-64251000D01*
X169564493Y-64484690D01*
X169164000Y-64885183D01*
X168763507Y-64484690D01*
X168199330Y-64251000D01*
X167588670Y-64251000D01*
X167024493Y-64484690D01*
X166624000Y-64885183D01*
X166223507Y-64484690D01*
X165659330Y-64251000D01*
X165048670Y-64251000D01*
X164484493Y-64484690D01*
X164084000Y-64885183D01*
X163683507Y-64484690D01*
X163119330Y-64251000D01*
X162508670Y-64251000D01*
X161944493Y-64484690D01*
X161544000Y-64885183D01*
X161143507Y-64484690D01*
X160579330Y-64251000D01*
X159968670Y-64251000D01*
X159404493Y-64484690D01*
X159004000Y-64885183D01*
X158603507Y-64484690D01*
X158569000Y-64470397D01*
X158569000Y-56216232D01*
X158585357Y-56133999D01*
X158569000Y-56051764D01*
X158569000Y-56051763D01*
X158520552Y-55808199D01*
X158336001Y-55531999D01*
X158266283Y-55485415D01*
X145869000Y-43088133D01*
X145869000Y-42620670D01*
X151119000Y-42620670D01*
X151119000Y-43231330D01*
X151352690Y-43795507D01*
X151784493Y-44227310D01*
X152348670Y-44461000D01*
X152959330Y-44461000D01*
X153523507Y-44227310D01*
X153744658Y-44006159D01*
X154293446Y-44006159D01*
X154379852Y-44262643D01*
X154953336Y-44472458D01*
X155563460Y-44446839D01*
X156008148Y-44262643D01*
X156094554Y-44006159D01*
X155194000Y-43105605D01*
X154293446Y-44006159D01*
X153744658Y-44006159D01*
X153955310Y-43795507D01*
X153963438Y-43775885D01*
X154113841Y-43826554D01*
X155014395Y-42926000D01*
X154113841Y-42025446D01*
X153963438Y-42076115D01*
X153955310Y-42056493D01*
X153943000Y-42044183D01*
X153943000Y-41845841D01*
X154293446Y-41845841D01*
X155194000Y-42746395D01*
X156094554Y-41845841D01*
X156008148Y-41589357D01*
X155434664Y-41379542D01*
X154824540Y-41405161D01*
X154379852Y-41589357D01*
X154293446Y-41845841D01*
X153943000Y-41845841D01*
X153943000Y-39418126D01*
X153903224Y-39322099D01*
X153882948Y-39220163D01*
X153825207Y-39133747D01*
X153785431Y-39037720D01*
X153711935Y-38964224D01*
X153654193Y-38877807D01*
X153567777Y-38820066D01*
X153494280Y-38746569D01*
X153398251Y-38706793D01*
X153311836Y-38649052D01*
X153209902Y-38628776D01*
X153113874Y-38589000D01*
X153009934Y-38589000D01*
X152908000Y-38568724D01*
X152806065Y-38589000D01*
X152702126Y-38589000D01*
X152606098Y-38628776D01*
X152504163Y-38649052D01*
X152417747Y-38706793D01*
X152321720Y-38746569D01*
X152248224Y-38820065D01*
X152161807Y-38877807D01*
X152104066Y-38964223D01*
X152030569Y-39037720D01*
X151990793Y-39133749D01*
X151933052Y-39220164D01*
X151912776Y-39322098D01*
X151873000Y-39418126D01*
X151873000Y-39522066D01*
X151873001Y-41588029D01*
X151784493Y-41624690D01*
X151352690Y-42056493D01*
X151119000Y-42620670D01*
X145869000Y-42620670D01*
X145869000Y-38566065D01*
X146104625Y-38408625D01*
X146119096Y-38386967D01*
X146185673Y-38547698D01*
X146364301Y-38726327D01*
X146597690Y-38823000D01*
X147288250Y-38823000D01*
X147447000Y-38664250D01*
X147447000Y-37465000D01*
X147701000Y-37465000D01*
X147701000Y-38664250D01*
X147859750Y-38823000D01*
X148550310Y-38823000D01*
X148783699Y-38726327D01*
X148962327Y-38547698D01*
X149059000Y-38314309D01*
X149059000Y-37623750D01*
X148900250Y-37465000D01*
X147701000Y-37465000D01*
X147447000Y-37465000D01*
X147427000Y-37465000D01*
X147427000Y-37211000D01*
X147447000Y-37211000D01*
X147447000Y-36011750D01*
X147701000Y-36011750D01*
X147701000Y-37211000D01*
X148900250Y-37211000D01*
X149059000Y-37052250D01*
X149059000Y-36361691D01*
X148962327Y-36128302D01*
X148783699Y-35949673D01*
X148550310Y-35853000D01*
X147859750Y-35853000D01*
X147701000Y-36011750D01*
X147447000Y-36011750D01*
X147288250Y-35853000D01*
X146597690Y-35853000D01*
X146364301Y-35949673D01*
X146185673Y-36128302D01*
X146119096Y-36289033D01*
X146104625Y-36267375D01*
X145613418Y-35939161D01*
X145180256Y-35853000D01*
X144887744Y-35853000D01*
X144454582Y-35939161D01*
X143963375Y-36267375D01*
X143764000Y-36565761D01*
X143564625Y-36267375D01*
X143073418Y-35939161D01*
X142640256Y-35853000D01*
X142347744Y-35853000D01*
X141914582Y-35939161D01*
X141423375Y-36267375D01*
X141095161Y-36758582D01*
X140979908Y-37338000D01*
X141095161Y-37917418D01*
X141423375Y-38408625D01*
X141659000Y-38566065D01*
X141659001Y-39532131D01*
X138030133Y-43161000D01*
X137970126Y-43161000D01*
X137589720Y-43318569D01*
X137298569Y-43609720D01*
X137141000Y-43990126D01*
X137141000Y-44401874D01*
X137298569Y-44782280D01*
X137341001Y-44824712D01*
X137341000Y-58591767D01*
X137324643Y-58674000D01*
X137341000Y-58756233D01*
X137341000Y-58756236D01*
X137389448Y-58999800D01*
X137573999Y-59276001D01*
X137643720Y-59322587D01*
X137649000Y-59327867D01*
X137649000Y-59387874D01*
X137806569Y-59768280D01*
X138097720Y-60059431D01*
X138478126Y-60217000D01*
X138889874Y-60217000D01*
X139270280Y-60059431D01*
X139561431Y-59768280D01*
X139719000Y-59387874D01*
X139719000Y-58976126D01*
X139561431Y-58595720D01*
X139270280Y-58304569D01*
X139011000Y-58197172D01*
X139011000Y-44824711D01*
X139053431Y-44782280D01*
X139211000Y-44401874D01*
X139211000Y-44341867D01*
X143026283Y-40526585D01*
X143096001Y-40480001D01*
X143280552Y-40203801D01*
X143329000Y-39960237D01*
X143329000Y-39960234D01*
X143345357Y-39878001D01*
X143329000Y-39795768D01*
X143329000Y-38566065D01*
X143564625Y-38408625D01*
X143764000Y-38110239D01*
X143963375Y-38408625D01*
X144199000Y-38566065D01*
X144199001Y-43351762D01*
X144182643Y-43434000D01*
X144247448Y-43759800D01*
X144247449Y-43759801D01*
X144432000Y-44036001D01*
X144501718Y-44082585D01*
X156899000Y-56479868D01*
X156899001Y-64470396D01*
X156864493Y-64484690D01*
X156464000Y-64885183D01*
X156063507Y-64484690D01*
X155499330Y-64251000D01*
X154888670Y-64251000D01*
X154324493Y-64484690D01*
X153924000Y-64885183D01*
X153523507Y-64484690D01*
X152959330Y-64251000D01*
X152348670Y-64251000D01*
X151784493Y-64484690D01*
X151352690Y-64916493D01*
X151119000Y-65480670D01*
X151119000Y-66091330D01*
X151352690Y-66655507D01*
X151784493Y-67087310D01*
X152348670Y-67321000D01*
X152959330Y-67321000D01*
X153523507Y-67087310D01*
X153924000Y-66686817D01*
X154324493Y-67087310D01*
X154888670Y-67321000D01*
X155499330Y-67321000D01*
X156063507Y-67087310D01*
X156464000Y-66686817D01*
X156864493Y-67087310D01*
X157428670Y-67321000D01*
X158039330Y-67321000D01*
X158603507Y-67087310D01*
X159004000Y-66686817D01*
X159404493Y-67087310D01*
X159968670Y-67321000D01*
X160579330Y-67321000D01*
X161143507Y-67087310D01*
X161544000Y-66686817D01*
X161944493Y-67087310D01*
X162508670Y-67321000D01*
X163119330Y-67321000D01*
X163683507Y-67087310D01*
X164084000Y-66686817D01*
X164484493Y-67087310D01*
X165048670Y-67321000D01*
X165659330Y-67321000D01*
X166223507Y-67087310D01*
X166624000Y-66686817D01*
X167024493Y-67087310D01*
X167588670Y-67321000D01*
X168199330Y-67321000D01*
X168763507Y-67087310D01*
X169164000Y-66686817D01*
X169564493Y-67087310D01*
X170128670Y-67321000D01*
X170739330Y-67321000D01*
X171303507Y-67087310D01*
X171735310Y-66655507D01*
X171831000Y-66424491D01*
X171831000Y-81915000D01*
X81736000Y-81915000D01*
X81736000Y-78390460D01*
X94199058Y-78390460D01*
X94215000Y-78540734D01*
X94215000Y-78691874D01*
X94236554Y-78743911D01*
X94242495Y-78799910D01*
X94314730Y-78932643D01*
X94372569Y-79072280D01*
X94484949Y-79184660D01*
X95689850Y-80630543D01*
X95773807Y-80756193D01*
X95905950Y-80844488D01*
X96029554Y-80944382D01*
X96075944Y-80958074D01*
X96116163Y-80984948D01*
X96272038Y-81015953D01*
X96424459Y-81060942D01*
X96574733Y-81045000D01*
X102260065Y-81045000D01*
X102362000Y-81065276D01*
X102463934Y-81045000D01*
X118008070Y-81045000D01*
X118109999Y-81065275D01*
X118211929Y-81045000D01*
X139446350Y-81045000D01*
X139650791Y-81045214D01*
X139651309Y-81045000D01*
X161147779Y-81045000D01*
X161209063Y-81062167D01*
X161351944Y-81045000D01*
X167083874Y-81045000D01*
X167179901Y-81005224D01*
X167281837Y-80984948D01*
X167368253Y-80927207D01*
X167464280Y-80887431D01*
X167537777Y-80813934D01*
X167624193Y-80756193D01*
X167681935Y-80669776D01*
X167755431Y-80596280D01*
X167795207Y-80500253D01*
X167852948Y-80413837D01*
X167873224Y-80311902D01*
X167913000Y-80215874D01*
X167913000Y-80111934D01*
X167933276Y-80010000D01*
X167913000Y-79908065D01*
X167913000Y-79804126D01*
X167873224Y-79708098D01*
X167852948Y-79606163D01*
X167795207Y-79519747D01*
X167755431Y-79423720D01*
X167681934Y-79350223D01*
X167624193Y-79263807D01*
X167537776Y-79206065D01*
X167464280Y-79132569D01*
X167368253Y-79092793D01*
X167281837Y-79035052D01*
X167179901Y-79014776D01*
X167083874Y-78975000D01*
X161766032Y-78975000D01*
X160659125Y-77683609D01*
X160643431Y-77645720D01*
X160525956Y-77528245D01*
X160485492Y-77481037D01*
X160454055Y-77456344D01*
X160352280Y-77354569D01*
X160293472Y-77330210D01*
X160243422Y-77290897D01*
X160104849Y-77252080D01*
X159971874Y-77197000D01*
X159908219Y-77197000D01*
X159846935Y-77179833D01*
X159704055Y-77197000D01*
X159560126Y-77197000D01*
X159501319Y-77221359D01*
X159438129Y-77228951D01*
X159312695Y-77299489D01*
X159179720Y-77354569D01*
X159134710Y-77399579D01*
X159079236Y-77430775D01*
X158990343Y-77543946D01*
X158888569Y-77645720D01*
X158864210Y-77704528D01*
X158824897Y-77754578D01*
X158786080Y-77893151D01*
X158731000Y-78026126D01*
X158731000Y-78089781D01*
X158713833Y-78151065D01*
X158731000Y-78293945D01*
X158731000Y-78437874D01*
X158755359Y-78496681D01*
X158762951Y-78559871D01*
X158833490Y-78685307D01*
X158888569Y-78818280D01*
X159006039Y-78935750D01*
X159039682Y-78975000D01*
X139999915Y-78975000D01*
X139347416Y-77996253D01*
X139307431Y-77899720D01*
X139161197Y-77753486D01*
X139017197Y-77609184D01*
X139016680Y-77608969D01*
X139016280Y-77608569D01*
X138825450Y-77529525D01*
X138636956Y-77451217D01*
X138636396Y-77451216D01*
X138635874Y-77451000D01*
X138429650Y-77451000D01*
X138225209Y-77450786D01*
X138224691Y-77451000D01*
X138224126Y-77451000D01*
X138033183Y-77530091D01*
X137844639Y-77607958D01*
X137844244Y-77608352D01*
X137843720Y-77608569D01*
X137697711Y-77754578D01*
X137553184Y-77898803D01*
X137552969Y-77899320D01*
X137552569Y-77899720D01*
X137473525Y-78090550D01*
X137395217Y-78279044D01*
X137395216Y-78279604D01*
X137395000Y-78280126D01*
X137395000Y-78486000D01*
X137394786Y-78690791D01*
X137395000Y-78691309D01*
X137395000Y-78691874D01*
X137474033Y-78882676D01*
X137512162Y-78975000D01*
X118538711Y-78975000D01*
X117172280Y-77608569D01*
X117076250Y-77568792D01*
X116989836Y-77511052D01*
X116887902Y-77490776D01*
X116791874Y-77451000D01*
X116687934Y-77451000D01*
X116586000Y-77430724D01*
X116484066Y-77451000D01*
X116380126Y-77451000D01*
X116284098Y-77490776D01*
X116182164Y-77511052D01*
X116095750Y-77568792D01*
X115999720Y-77608569D01*
X115926220Y-77682069D01*
X115839808Y-77739808D01*
X115782069Y-77826220D01*
X115708569Y-77899720D01*
X115668792Y-77995750D01*
X115611052Y-78082164D01*
X115590776Y-78184098D01*
X115551000Y-78280126D01*
X115551000Y-78384066D01*
X115530724Y-78486000D01*
X115551000Y-78587934D01*
X115551000Y-78691874D01*
X115590776Y-78787902D01*
X115611052Y-78889836D01*
X115667957Y-78975000D01*
X103397000Y-78975000D01*
X103397000Y-77010126D01*
X123171000Y-77010126D01*
X123171000Y-77421874D01*
X123328569Y-77802280D01*
X123619720Y-78093431D01*
X124000126Y-78251000D01*
X124411874Y-78251000D01*
X124792280Y-78093431D01*
X125083431Y-77802280D01*
X125241000Y-77421874D01*
X125241000Y-77264126D01*
X144761000Y-77264126D01*
X144761000Y-77675874D01*
X144918569Y-78056280D01*
X145209720Y-78347431D01*
X145590126Y-78505000D01*
X146001874Y-78505000D01*
X146382280Y-78347431D01*
X146673431Y-78056280D01*
X146831000Y-77675874D01*
X146831000Y-77264126D01*
X146673431Y-76883720D01*
X146631000Y-76841289D01*
X146631000Y-64607867D01*
X154323868Y-56915000D01*
X154383874Y-56915000D01*
X154764280Y-56757431D01*
X155055431Y-56466280D01*
X155213000Y-56085874D01*
X155213000Y-55674126D01*
X155055431Y-55293720D01*
X154764280Y-55002569D01*
X154383874Y-54845000D01*
X153972126Y-54845000D01*
X153591720Y-55002569D01*
X153300569Y-55293720D01*
X153143000Y-55674126D01*
X153143000Y-55734132D01*
X145263720Y-63613413D01*
X145193999Y-63659999D01*
X145009448Y-63936200D01*
X144961000Y-64179764D01*
X144961000Y-64179767D01*
X144944643Y-64262000D01*
X144961000Y-64344233D01*
X144961001Y-76822074D01*
X144961000Y-76822079D01*
X144961000Y-76841289D01*
X144918569Y-76883720D01*
X144761000Y-77264126D01*
X125241000Y-77264126D01*
X125241000Y-77010126D01*
X125083431Y-76629720D01*
X125041000Y-76587289D01*
X125041000Y-74749000D01*
X134791767Y-74749000D01*
X134874000Y-74765357D01*
X134956233Y-74749000D01*
X134956237Y-74749000D01*
X135199801Y-74700552D01*
X135476001Y-74516001D01*
X135522587Y-74446280D01*
X143534283Y-66434585D01*
X143604001Y-66388001D01*
X143788552Y-66111801D01*
X143837000Y-65868237D01*
X143853358Y-65786000D01*
X143837000Y-65703763D01*
X143837000Y-56762711D01*
X143879431Y-56720280D01*
X144037000Y-56339874D01*
X144037000Y-55928126D01*
X143879431Y-55547720D01*
X143588280Y-55256569D01*
X143207874Y-55099000D01*
X142796126Y-55099000D01*
X142415720Y-55256569D01*
X142124569Y-55547720D01*
X141967000Y-55928126D01*
X141967000Y-56339874D01*
X142124569Y-56720280D01*
X142167000Y-56762711D01*
X142167001Y-65440131D01*
X134528133Y-73079000D01*
X124288237Y-73079000D01*
X124206000Y-73062642D01*
X124123763Y-73079000D01*
X123880199Y-73127448D01*
X123603999Y-73311999D01*
X123419448Y-73588199D01*
X123354642Y-73914000D01*
X123371001Y-73996242D01*
X123371000Y-76587289D01*
X123328569Y-76629720D01*
X123171000Y-77010126D01*
X103397000Y-77010126D01*
X103397000Y-73326710D01*
X105838711Y-70885000D01*
X106885874Y-70885000D01*
X106981901Y-70845224D01*
X107083837Y-70824948D01*
X107170253Y-70767207D01*
X107266280Y-70727431D01*
X107339776Y-70653935D01*
X107426193Y-70596193D01*
X107483935Y-70509776D01*
X107557431Y-70436280D01*
X107597207Y-70340253D01*
X107654948Y-70253837D01*
X107675224Y-70151902D01*
X107715000Y-70055874D01*
X107715000Y-69951935D01*
X107735276Y-69850000D01*
X107715000Y-69748065D01*
X107715000Y-69644126D01*
X107675224Y-69548098D01*
X107654948Y-69446163D01*
X107597207Y-69359747D01*
X107557431Y-69263720D01*
X107483935Y-69190224D01*
X107426193Y-69103807D01*
X107339776Y-69046065D01*
X107266280Y-68972569D01*
X107170253Y-68932793D01*
X107083837Y-68875052D01*
X106981901Y-68854776D01*
X106885874Y-68815000D01*
X105511934Y-68815000D01*
X105410000Y-68794724D01*
X105308065Y-68815000D01*
X105204126Y-68815000D01*
X105108099Y-68854776D01*
X105006163Y-68875052D01*
X104919747Y-68932793D01*
X104823720Y-68972569D01*
X104750224Y-69046065D01*
X104663807Y-69103807D01*
X104606065Y-69190224D01*
X101702225Y-72094065D01*
X101615808Y-72151807D01*
X101558066Y-72238224D01*
X101387052Y-72494164D01*
X101306724Y-72898000D01*
X101327001Y-72999939D01*
X101327000Y-78975000D01*
X97004767Y-78975000D01*
X96145942Y-77944411D01*
X96127431Y-77899720D01*
X96015046Y-77787335D01*
X95979851Y-77745101D01*
X95943155Y-77715444D01*
X95836280Y-77608569D01*
X95784243Y-77587015D01*
X95740445Y-77551618D01*
X95595510Y-77508839D01*
X95455874Y-77451000D01*
X95399551Y-77451000D01*
X95345540Y-77435058D01*
X95195266Y-77451000D01*
X95044126Y-77451000D01*
X94992089Y-77472554D01*
X94936090Y-77478495D01*
X94803359Y-77550729D01*
X94663720Y-77608569D01*
X94623893Y-77648396D01*
X94574429Y-77675315D01*
X94479443Y-77792846D01*
X94372569Y-77899720D01*
X94351015Y-77951757D01*
X94315618Y-77995555D01*
X94272839Y-78140490D01*
X94215000Y-78280126D01*
X94215000Y-78336449D01*
X94199058Y-78390460D01*
X81736000Y-78390460D01*
X81736000Y-54261750D01*
X88849000Y-54261750D01*
X88849000Y-55852310D01*
X88945673Y-56085699D01*
X89124302Y-56264327D01*
X89357691Y-56361000D01*
X90948250Y-56361000D01*
X91107000Y-56202250D01*
X91107000Y-54103000D01*
X91361000Y-54103000D01*
X91361000Y-56202250D01*
X91519750Y-56361000D01*
X93110309Y-56361000D01*
X93343698Y-56264327D01*
X93522327Y-56085699D01*
X93619000Y-55852310D01*
X93619000Y-54261750D01*
X93460250Y-54103000D01*
X91361000Y-54103000D01*
X91107000Y-54103000D01*
X89007750Y-54103000D01*
X88849000Y-54261750D01*
X81736000Y-54261750D01*
X81736000Y-49561750D01*
X85849000Y-49561750D01*
X85849000Y-51152310D01*
X85945673Y-51385699D01*
X86124302Y-51564327D01*
X86357691Y-51661000D01*
X87948250Y-51661000D01*
X88107000Y-51502250D01*
X88107000Y-49403000D01*
X88361000Y-49403000D01*
X88361000Y-51502250D01*
X88519750Y-51661000D01*
X89188696Y-51661000D01*
X89124302Y-51687673D01*
X88945673Y-51866301D01*
X88849000Y-52099690D01*
X88849000Y-53690250D01*
X89007750Y-53849000D01*
X91107000Y-53849000D01*
X91107000Y-51749750D01*
X91361000Y-51749750D01*
X91361000Y-53849000D01*
X93460250Y-53849000D01*
X93619000Y-53690250D01*
X93619000Y-52099690D01*
X93522327Y-51866301D01*
X93343698Y-51687673D01*
X93309337Y-51673440D01*
X95984000Y-51673440D01*
X96231765Y-51624157D01*
X96441809Y-51483809D01*
X96582157Y-51273765D01*
X96631440Y-51026000D01*
X96631440Y-47526000D01*
X96582157Y-47278235D01*
X96441809Y-47068191D01*
X96231765Y-46927843D01*
X95984000Y-46878560D01*
X92484000Y-46878560D01*
X92236235Y-46927843D01*
X92026191Y-47068191D01*
X91885843Y-47278235D01*
X91836560Y-47526000D01*
X91836560Y-51026000D01*
X91885843Y-51273765D01*
X92026191Y-51483809D01*
X92186612Y-51591000D01*
X91519750Y-51591000D01*
X91361000Y-51749750D01*
X91107000Y-51749750D01*
X90948250Y-51591000D01*
X90279304Y-51591000D01*
X90343698Y-51564327D01*
X90522327Y-51385699D01*
X90619000Y-51152310D01*
X90619000Y-49561750D01*
X90460250Y-49403000D01*
X88361000Y-49403000D01*
X88107000Y-49403000D01*
X86007750Y-49403000D01*
X85849000Y-49561750D01*
X81736000Y-49561750D01*
X81736000Y-47399690D01*
X85849000Y-47399690D01*
X85849000Y-48990250D01*
X86007750Y-49149000D01*
X88107000Y-49149000D01*
X88107000Y-47049750D01*
X88361000Y-47049750D01*
X88361000Y-49149000D01*
X90460250Y-49149000D01*
X90619000Y-48990250D01*
X90619000Y-47399690D01*
X90522327Y-47166301D01*
X90343698Y-46987673D01*
X90110309Y-46891000D01*
X88519750Y-46891000D01*
X88361000Y-47049750D01*
X88107000Y-47049750D01*
X87948250Y-46891000D01*
X86357691Y-46891000D01*
X86124302Y-46987673D01*
X85945673Y-47166301D01*
X85849000Y-47399690D01*
X81736000Y-47399690D01*
X81736000Y-36908736D01*
X82417000Y-36908736D01*
X82417000Y-38275264D01*
X82939947Y-39537771D01*
X83906229Y-40504053D01*
X85168736Y-41027000D01*
X86535264Y-41027000D01*
X87797771Y-40504053D01*
X88764053Y-39537771D01*
X89287000Y-38275264D01*
X89287000Y-36908736D01*
X88764053Y-35646229D01*
X87797771Y-34679947D01*
X86535264Y-34157000D01*
X85168736Y-34157000D01*
X83906229Y-34679947D01*
X82939947Y-35646229D01*
X82417000Y-36908736D01*
X81736000Y-36908736D01*
X81736000Y-33401000D01*
X171831000Y-33401000D01*
X171831000Y-42287509D01*
X171831000Y-42287509D01*
G37*
X171831000Y-42287509D02*
X171735310Y-42056493D01*
X171303507Y-41624690D01*
X170739330Y-41391000D01*
X170128670Y-41391000D01*
X169564493Y-41624690D01*
X169164000Y-42025183D01*
X168763507Y-41624690D01*
X168199330Y-41391000D01*
X167588670Y-41391000D01*
X167024493Y-41624690D01*
X166624000Y-42025183D01*
X166223507Y-41624690D01*
X165659330Y-41391000D01*
X165048670Y-41391000D01*
X164484493Y-41624690D01*
X164084000Y-42025183D01*
X163683507Y-41624690D01*
X163119330Y-41391000D01*
X162508670Y-41391000D01*
X161944493Y-41624690D01*
X161544000Y-42025183D01*
X161143507Y-41624690D01*
X160579330Y-41391000D01*
X159968670Y-41391000D01*
X159404493Y-41624690D01*
X159004000Y-42025183D01*
X158603507Y-41624690D01*
X158039330Y-41391000D01*
X157428670Y-41391000D01*
X156864493Y-41624690D01*
X156432690Y-42056493D01*
X156424562Y-42076115D01*
X156274159Y-42025446D01*
X155373605Y-42926000D01*
X156274159Y-43826554D01*
X156424562Y-43775885D01*
X156432690Y-43795507D01*
X156864493Y-44227310D01*
X157428670Y-44461000D01*
X158039330Y-44461000D01*
X158603507Y-44227310D01*
X159004000Y-43826817D01*
X159404493Y-44227310D01*
X159968670Y-44461000D01*
X160579330Y-44461000D01*
X161143507Y-44227310D01*
X161544000Y-43826817D01*
X161944493Y-44227310D01*
X162508670Y-44461000D01*
X163119330Y-44461000D01*
X163683507Y-44227310D01*
X164084000Y-43826817D01*
X164484493Y-44227310D01*
X165048670Y-44461000D01*
X165659330Y-44461000D01*
X166223507Y-44227310D01*
X166624000Y-43826817D01*
X167024493Y-44227310D01*
X167588670Y-44461000D01*
X168199330Y-44461000D01*
X168763507Y-44227310D01*
X169164000Y-43826817D01*
X169564493Y-44227310D01*
X170128670Y-44461000D01*
X170739330Y-44461000D01*
X171303507Y-44227310D01*
X171735310Y-43795507D01*
X171831000Y-43564491D01*
X171831000Y-65147509D01*
X171735310Y-64916493D01*
X171303507Y-64484690D01*
X170739330Y-64251000D01*
X170128670Y-64251000D01*
X169564493Y-64484690D01*
X169164000Y-64885183D01*
X168763507Y-64484690D01*
X168199330Y-64251000D01*
X167588670Y-64251000D01*
X167024493Y-64484690D01*
X166624000Y-64885183D01*
X166223507Y-64484690D01*
X165659330Y-64251000D01*
X165048670Y-64251000D01*
X164484493Y-64484690D01*
X164084000Y-64885183D01*
X163683507Y-64484690D01*
X163119330Y-64251000D01*
X162508670Y-64251000D01*
X161944493Y-64484690D01*
X161544000Y-64885183D01*
X161143507Y-64484690D01*
X160579330Y-64251000D01*
X159968670Y-64251000D01*
X159404493Y-64484690D01*
X159004000Y-64885183D01*
X158603507Y-64484690D01*
X158569000Y-64470397D01*
X158569000Y-56216232D01*
X158585357Y-56133999D01*
X158569000Y-56051764D01*
X158569000Y-56051763D01*
X158520552Y-55808199D01*
X158336001Y-55531999D01*
X158266283Y-55485415D01*
X145869000Y-43088133D01*
X145869000Y-42620670D01*
X151119000Y-42620670D01*
X151119000Y-43231330D01*
X151352690Y-43795507D01*
X151784493Y-44227310D01*
X152348670Y-44461000D01*
X152959330Y-44461000D01*
X153523507Y-44227310D01*
X153744658Y-44006159D01*
X154293446Y-44006159D01*
X154379852Y-44262643D01*
X154953336Y-44472458D01*
X155563460Y-44446839D01*
X156008148Y-44262643D01*
X156094554Y-44006159D01*
X155194000Y-43105605D01*
X154293446Y-44006159D01*
X153744658Y-44006159D01*
X153955310Y-43795507D01*
X153963438Y-43775885D01*
X154113841Y-43826554D01*
X155014395Y-42926000D01*
X154113841Y-42025446D01*
X153963438Y-42076115D01*
X153955310Y-42056493D01*
X153943000Y-42044183D01*
X153943000Y-41845841D01*
X154293446Y-41845841D01*
X155194000Y-42746395D01*
X156094554Y-41845841D01*
X156008148Y-41589357D01*
X155434664Y-41379542D01*
X154824540Y-41405161D01*
X154379852Y-41589357D01*
X154293446Y-41845841D01*
X153943000Y-41845841D01*
X153943000Y-39418126D01*
X153903224Y-39322099D01*
X153882948Y-39220163D01*
X153825207Y-39133747D01*
X153785431Y-39037720D01*
X153711935Y-38964224D01*
X153654193Y-38877807D01*
X153567777Y-38820066D01*
X153494280Y-38746569D01*
X153398251Y-38706793D01*
X153311836Y-38649052D01*
X153209902Y-38628776D01*
X153113874Y-38589000D01*
X153009934Y-38589000D01*
X152908000Y-38568724D01*
X152806065Y-38589000D01*
X152702126Y-38589000D01*
X152606098Y-38628776D01*
X152504163Y-38649052D01*
X152417747Y-38706793D01*
X152321720Y-38746569D01*
X152248224Y-38820065D01*
X152161807Y-38877807D01*
X152104066Y-38964223D01*
X152030569Y-39037720D01*
X151990793Y-39133749D01*
X151933052Y-39220164D01*
X151912776Y-39322098D01*
X151873000Y-39418126D01*
X151873000Y-39522066D01*
X151873001Y-41588029D01*
X151784493Y-41624690D01*
X151352690Y-42056493D01*
X151119000Y-42620670D01*
X145869000Y-42620670D01*
X145869000Y-38566065D01*
X146104625Y-38408625D01*
X146119096Y-38386967D01*
X146185673Y-38547698D01*
X146364301Y-38726327D01*
X146597690Y-38823000D01*
X147288250Y-38823000D01*
X147447000Y-38664250D01*
X147447000Y-37465000D01*
X147701000Y-37465000D01*
X147701000Y-38664250D01*
X147859750Y-38823000D01*
X148550310Y-38823000D01*
X148783699Y-38726327D01*
X148962327Y-38547698D01*
X149059000Y-38314309D01*
X149059000Y-37623750D01*
X148900250Y-37465000D01*
X147701000Y-37465000D01*
X147447000Y-37465000D01*
X147427000Y-37465000D01*
X147427000Y-37211000D01*
X147447000Y-37211000D01*
X147447000Y-36011750D01*
X147701000Y-36011750D01*
X147701000Y-37211000D01*
X148900250Y-37211000D01*
X149059000Y-37052250D01*
X149059000Y-36361691D01*
X148962327Y-36128302D01*
X148783699Y-35949673D01*
X148550310Y-35853000D01*
X147859750Y-35853000D01*
X147701000Y-36011750D01*
X147447000Y-36011750D01*
X147288250Y-35853000D01*
X146597690Y-35853000D01*
X146364301Y-35949673D01*
X146185673Y-36128302D01*
X146119096Y-36289033D01*
X146104625Y-36267375D01*
X145613418Y-35939161D01*
X145180256Y-35853000D01*
X144887744Y-35853000D01*
X144454582Y-35939161D01*
X143963375Y-36267375D01*
X143764000Y-36565761D01*
X143564625Y-36267375D01*
X143073418Y-35939161D01*
X142640256Y-35853000D01*
X142347744Y-35853000D01*
X141914582Y-35939161D01*
X141423375Y-36267375D01*
X141095161Y-36758582D01*
X140979908Y-37338000D01*
X141095161Y-37917418D01*
X141423375Y-38408625D01*
X141659000Y-38566065D01*
X141659001Y-39532131D01*
X138030133Y-43161000D01*
X137970126Y-43161000D01*
X137589720Y-43318569D01*
X137298569Y-43609720D01*
X137141000Y-43990126D01*
X137141000Y-44401874D01*
X137298569Y-44782280D01*
X137341001Y-44824712D01*
X137341000Y-58591767D01*
X137324643Y-58674000D01*
X137341000Y-58756233D01*
X137341000Y-58756236D01*
X137389448Y-58999800D01*
X137573999Y-59276001D01*
X137643720Y-59322587D01*
X137649000Y-59327867D01*
X137649000Y-59387874D01*
X137806569Y-59768280D01*
X138097720Y-60059431D01*
X138478126Y-60217000D01*
X138889874Y-60217000D01*
X139270280Y-60059431D01*
X139561431Y-59768280D01*
X139719000Y-59387874D01*
X139719000Y-58976126D01*
X139561431Y-58595720D01*
X139270280Y-58304569D01*
X139011000Y-58197172D01*
X139011000Y-44824711D01*
X139053431Y-44782280D01*
X139211000Y-44401874D01*
X139211000Y-44341867D01*
X143026283Y-40526585D01*
X143096001Y-40480001D01*
X143280552Y-40203801D01*
X143329000Y-39960237D01*
X143329000Y-39960234D01*
X143345357Y-39878001D01*
X143329000Y-39795768D01*
X143329000Y-38566065D01*
X143564625Y-38408625D01*
X143764000Y-38110239D01*
X143963375Y-38408625D01*
X144199000Y-38566065D01*
X144199001Y-43351762D01*
X144182643Y-43434000D01*
X144247448Y-43759800D01*
X144247449Y-43759801D01*
X144432000Y-44036001D01*
X144501718Y-44082585D01*
X156899000Y-56479868D01*
X156899001Y-64470396D01*
X156864493Y-64484690D01*
X156464000Y-64885183D01*
X156063507Y-64484690D01*
X155499330Y-64251000D01*
X154888670Y-64251000D01*
X154324493Y-64484690D01*
X153924000Y-64885183D01*
X153523507Y-64484690D01*
X152959330Y-64251000D01*
X152348670Y-64251000D01*
X151784493Y-64484690D01*
X151352690Y-64916493D01*
X151119000Y-65480670D01*
X151119000Y-66091330D01*
X151352690Y-66655507D01*
X151784493Y-67087310D01*
X152348670Y-67321000D01*
X152959330Y-67321000D01*
X153523507Y-67087310D01*
X153924000Y-66686817D01*
X154324493Y-67087310D01*
X154888670Y-67321000D01*
X155499330Y-67321000D01*
X156063507Y-67087310D01*
X156464000Y-66686817D01*
X156864493Y-67087310D01*
X157428670Y-67321000D01*
X158039330Y-67321000D01*
X158603507Y-67087310D01*
X159004000Y-66686817D01*
X159404493Y-67087310D01*
X159968670Y-67321000D01*
X160579330Y-67321000D01*
X161143507Y-67087310D01*
X161544000Y-66686817D01*
X161944493Y-67087310D01*
X162508670Y-67321000D01*
X163119330Y-67321000D01*
X163683507Y-67087310D01*
X164084000Y-66686817D01*
X164484493Y-67087310D01*
X165048670Y-67321000D01*
X165659330Y-67321000D01*
X166223507Y-67087310D01*
X166624000Y-66686817D01*
X167024493Y-67087310D01*
X167588670Y-67321000D01*
X168199330Y-67321000D01*
X168763507Y-67087310D01*
X169164000Y-66686817D01*
X169564493Y-67087310D01*
X170128670Y-67321000D01*
X170739330Y-67321000D01*
X171303507Y-67087310D01*
X171735310Y-66655507D01*
X171831000Y-66424491D01*
X171831000Y-81915000D01*
X81736000Y-81915000D01*
X81736000Y-78390460D01*
X94199058Y-78390460D01*
X94215000Y-78540734D01*
X94215000Y-78691874D01*
X94236554Y-78743911D01*
X94242495Y-78799910D01*
X94314730Y-78932643D01*
X94372569Y-79072280D01*
X94484949Y-79184660D01*
X95689850Y-80630543D01*
X95773807Y-80756193D01*
X95905950Y-80844488D01*
X96029554Y-80944382D01*
X96075944Y-80958074D01*
X96116163Y-80984948D01*
X96272038Y-81015953D01*
X96424459Y-81060942D01*
X96574733Y-81045000D01*
X102260065Y-81045000D01*
X102362000Y-81065276D01*
X102463934Y-81045000D01*
X118008070Y-81045000D01*
X118109999Y-81065275D01*
X118211929Y-81045000D01*
X139446350Y-81045000D01*
X139650791Y-81045214D01*
X139651309Y-81045000D01*
X161147779Y-81045000D01*
X161209063Y-81062167D01*
X161351944Y-81045000D01*
X167083874Y-81045000D01*
X167179901Y-81005224D01*
X167281837Y-80984948D01*
X167368253Y-80927207D01*
X167464280Y-80887431D01*
X167537777Y-80813934D01*
X167624193Y-80756193D01*
X167681935Y-80669776D01*
X167755431Y-80596280D01*
X167795207Y-80500253D01*
X167852948Y-80413837D01*
X167873224Y-80311902D01*
X167913000Y-80215874D01*
X167913000Y-80111934D01*
X167933276Y-80010000D01*
X167913000Y-79908065D01*
X167913000Y-79804126D01*
X167873224Y-79708098D01*
X167852948Y-79606163D01*
X167795207Y-79519747D01*
X167755431Y-79423720D01*
X167681934Y-79350223D01*
X167624193Y-79263807D01*
X167537776Y-79206065D01*
X167464280Y-79132569D01*
X167368253Y-79092793D01*
X167281837Y-79035052D01*
X167179901Y-79014776D01*
X167083874Y-78975000D01*
X161766032Y-78975000D01*
X160659125Y-77683609D01*
X160643431Y-77645720D01*
X160525956Y-77528245D01*
X160485492Y-77481037D01*
X160454055Y-77456344D01*
X160352280Y-77354569D01*
X160293472Y-77330210D01*
X160243422Y-77290897D01*
X160104849Y-77252080D01*
X159971874Y-77197000D01*
X159908219Y-77197000D01*
X159846935Y-77179833D01*
X159704055Y-77197000D01*
X159560126Y-77197000D01*
X159501319Y-77221359D01*
X159438129Y-77228951D01*
X159312695Y-77299489D01*
X159179720Y-77354569D01*
X159134710Y-77399579D01*
X159079236Y-77430775D01*
X158990343Y-77543946D01*
X158888569Y-77645720D01*
X158864210Y-77704528D01*
X158824897Y-77754578D01*
X158786080Y-77893151D01*
X158731000Y-78026126D01*
X158731000Y-78089781D01*
X158713833Y-78151065D01*
X158731000Y-78293945D01*
X158731000Y-78437874D01*
X158755359Y-78496681D01*
X158762951Y-78559871D01*
X158833490Y-78685307D01*
X158888569Y-78818280D01*
X159006039Y-78935750D01*
X159039682Y-78975000D01*
X139999915Y-78975000D01*
X139347416Y-77996253D01*
X139307431Y-77899720D01*
X139161197Y-77753486D01*
X139017197Y-77609184D01*
X139016680Y-77608969D01*
X139016280Y-77608569D01*
X138825450Y-77529525D01*
X138636956Y-77451217D01*
X138636396Y-77451216D01*
X138635874Y-77451000D01*
X138429650Y-77451000D01*
X138225209Y-77450786D01*
X138224691Y-77451000D01*
X138224126Y-77451000D01*
X138033183Y-77530091D01*
X137844639Y-77607958D01*
X137844244Y-77608352D01*
X137843720Y-77608569D01*
X137697711Y-77754578D01*
X137553184Y-77898803D01*
X137552969Y-77899320D01*
X137552569Y-77899720D01*
X137473525Y-78090550D01*
X137395217Y-78279044D01*
X137395216Y-78279604D01*
X137395000Y-78280126D01*
X137395000Y-78486000D01*
X137394786Y-78690791D01*
X137395000Y-78691309D01*
X137395000Y-78691874D01*
X137474033Y-78882676D01*
X137512162Y-78975000D01*
X118538711Y-78975000D01*
X117172280Y-77608569D01*
X117076250Y-77568792D01*
X116989836Y-77511052D01*
X116887902Y-77490776D01*
X116791874Y-77451000D01*
X116687934Y-77451000D01*
X116586000Y-77430724D01*
X116484066Y-77451000D01*
X116380126Y-77451000D01*
X116284098Y-77490776D01*
X116182164Y-77511052D01*
X116095750Y-77568792D01*
X115999720Y-77608569D01*
X115926220Y-77682069D01*
X115839808Y-77739808D01*
X115782069Y-77826220D01*
X115708569Y-77899720D01*
X115668792Y-77995750D01*
X115611052Y-78082164D01*
X115590776Y-78184098D01*
X115551000Y-78280126D01*
X115551000Y-78384066D01*
X115530724Y-78486000D01*
X115551000Y-78587934D01*
X115551000Y-78691874D01*
X115590776Y-78787902D01*
X115611052Y-78889836D01*
X115667957Y-78975000D01*
X103397000Y-78975000D01*
X103397000Y-77010126D01*
X123171000Y-77010126D01*
X123171000Y-77421874D01*
X123328569Y-77802280D01*
X123619720Y-78093431D01*
X124000126Y-78251000D01*
X124411874Y-78251000D01*
X124792280Y-78093431D01*
X125083431Y-77802280D01*
X125241000Y-77421874D01*
X125241000Y-77264126D01*
X144761000Y-77264126D01*
X144761000Y-77675874D01*
X144918569Y-78056280D01*
X145209720Y-78347431D01*
X145590126Y-78505000D01*
X146001874Y-78505000D01*
X146382280Y-78347431D01*
X146673431Y-78056280D01*
X146831000Y-77675874D01*
X146831000Y-77264126D01*
X146673431Y-76883720D01*
X146631000Y-76841289D01*
X146631000Y-64607867D01*
X154323868Y-56915000D01*
X154383874Y-56915000D01*
X154764280Y-56757431D01*
X155055431Y-56466280D01*
X155213000Y-56085874D01*
X155213000Y-55674126D01*
X155055431Y-55293720D01*
X154764280Y-55002569D01*
X154383874Y-54845000D01*
X153972126Y-54845000D01*
X153591720Y-55002569D01*
X153300569Y-55293720D01*
X153143000Y-55674126D01*
X153143000Y-55734132D01*
X145263720Y-63613413D01*
X145193999Y-63659999D01*
X145009448Y-63936200D01*
X144961000Y-64179764D01*
X144961000Y-64179767D01*
X144944643Y-64262000D01*
X144961000Y-64344233D01*
X144961001Y-76822074D01*
X144961000Y-76822079D01*
X144961000Y-76841289D01*
X144918569Y-76883720D01*
X144761000Y-77264126D01*
X125241000Y-77264126D01*
X125241000Y-77010126D01*
X125083431Y-76629720D01*
X125041000Y-76587289D01*
X125041000Y-74749000D01*
X134791767Y-74749000D01*
X134874000Y-74765357D01*
X134956233Y-74749000D01*
X134956237Y-74749000D01*
X135199801Y-74700552D01*
X135476001Y-74516001D01*
X135522587Y-74446280D01*
X143534283Y-66434585D01*
X143604001Y-66388001D01*
X143788552Y-66111801D01*
X143837000Y-65868237D01*
X143853358Y-65786000D01*
X143837000Y-65703763D01*
X143837000Y-56762711D01*
X143879431Y-56720280D01*
X144037000Y-56339874D01*
X144037000Y-55928126D01*
X143879431Y-55547720D01*
X143588280Y-55256569D01*
X143207874Y-55099000D01*
X142796126Y-55099000D01*
X142415720Y-55256569D01*
X142124569Y-55547720D01*
X141967000Y-55928126D01*
X141967000Y-56339874D01*
X142124569Y-56720280D01*
X142167000Y-56762711D01*
X142167001Y-65440131D01*
X134528133Y-73079000D01*
X124288237Y-73079000D01*
X124206000Y-73062642D01*
X124123763Y-73079000D01*
X123880199Y-73127448D01*
X123603999Y-73311999D01*
X123419448Y-73588199D01*
X123354642Y-73914000D01*
X123371001Y-73996242D01*
X123371000Y-76587289D01*
X123328569Y-76629720D01*
X123171000Y-77010126D01*
X103397000Y-77010126D01*
X103397000Y-73326710D01*
X105838711Y-70885000D01*
X106885874Y-70885000D01*
X106981901Y-70845224D01*
X107083837Y-70824948D01*
X107170253Y-70767207D01*
X107266280Y-70727431D01*
X107339776Y-70653935D01*
X107426193Y-70596193D01*
X107483935Y-70509776D01*
X107557431Y-70436280D01*
X107597207Y-70340253D01*
X107654948Y-70253837D01*
X107675224Y-70151902D01*
X107715000Y-70055874D01*
X107715000Y-69951935D01*
X107735276Y-69850000D01*
X107715000Y-69748065D01*
X107715000Y-69644126D01*
X107675224Y-69548098D01*
X107654948Y-69446163D01*
X107597207Y-69359747D01*
X107557431Y-69263720D01*
X107483935Y-69190224D01*
X107426193Y-69103807D01*
X107339776Y-69046065D01*
X107266280Y-68972569D01*
X107170253Y-68932793D01*
X107083837Y-68875052D01*
X106981901Y-68854776D01*
X106885874Y-68815000D01*
X105511934Y-68815000D01*
X105410000Y-68794724D01*
X105308065Y-68815000D01*
X105204126Y-68815000D01*
X105108099Y-68854776D01*
X105006163Y-68875052D01*
X104919747Y-68932793D01*
X104823720Y-68972569D01*
X104750224Y-69046065D01*
X104663807Y-69103807D01*
X104606065Y-69190224D01*
X101702225Y-72094065D01*
X101615808Y-72151807D01*
X101558066Y-72238224D01*
X101387052Y-72494164D01*
X101306724Y-72898000D01*
X101327001Y-72999939D01*
X101327000Y-78975000D01*
X97004767Y-78975000D01*
X96145942Y-77944411D01*
X96127431Y-77899720D01*
X96015046Y-77787335D01*
X95979851Y-77745101D01*
X95943155Y-77715444D01*
X95836280Y-77608569D01*
X95784243Y-77587015D01*
X95740445Y-77551618D01*
X95595510Y-77508839D01*
X95455874Y-77451000D01*
X95399551Y-77451000D01*
X95345540Y-77435058D01*
X95195266Y-77451000D01*
X95044126Y-77451000D01*
X94992089Y-77472554D01*
X94936090Y-77478495D01*
X94803359Y-77550729D01*
X94663720Y-77608569D01*
X94623893Y-77648396D01*
X94574429Y-77675315D01*
X94479443Y-77792846D01*
X94372569Y-77899720D01*
X94351015Y-77951757D01*
X94315618Y-77995555D01*
X94272839Y-78140490D01*
X94215000Y-78280126D01*
X94215000Y-78336449D01*
X94199058Y-78390460D01*
X81736000Y-78390460D01*
X81736000Y-54261750D01*
X88849000Y-54261750D01*
X88849000Y-55852310D01*
X88945673Y-56085699D01*
X89124302Y-56264327D01*
X89357691Y-56361000D01*
X90948250Y-56361000D01*
X91107000Y-56202250D01*
X91107000Y-54103000D01*
X91361000Y-54103000D01*
X91361000Y-56202250D01*
X91519750Y-56361000D01*
X93110309Y-56361000D01*
X93343698Y-56264327D01*
X93522327Y-56085699D01*
X93619000Y-55852310D01*
X93619000Y-54261750D01*
X93460250Y-54103000D01*
X91361000Y-54103000D01*
X91107000Y-54103000D01*
X89007750Y-54103000D01*
X88849000Y-54261750D01*
X81736000Y-54261750D01*
X81736000Y-49561750D01*
X85849000Y-49561750D01*
X85849000Y-51152310D01*
X85945673Y-51385699D01*
X86124302Y-51564327D01*
X86357691Y-51661000D01*
X87948250Y-51661000D01*
X88107000Y-51502250D01*
X88107000Y-49403000D01*
X88361000Y-49403000D01*
X88361000Y-51502250D01*
X88519750Y-51661000D01*
X89188696Y-51661000D01*
X89124302Y-51687673D01*
X88945673Y-51866301D01*
X88849000Y-52099690D01*
X88849000Y-53690250D01*
X89007750Y-53849000D01*
X91107000Y-53849000D01*
X91107000Y-51749750D01*
X91361000Y-51749750D01*
X91361000Y-53849000D01*
X93460250Y-53849000D01*
X93619000Y-53690250D01*
X93619000Y-52099690D01*
X93522327Y-51866301D01*
X93343698Y-51687673D01*
X93309337Y-51673440D01*
X95984000Y-51673440D01*
X96231765Y-51624157D01*
X96441809Y-51483809D01*
X96582157Y-51273765D01*
X96631440Y-51026000D01*
X96631440Y-47526000D01*
X96582157Y-47278235D01*
X96441809Y-47068191D01*
X96231765Y-46927843D01*
X95984000Y-46878560D01*
X92484000Y-46878560D01*
X92236235Y-46927843D01*
X92026191Y-47068191D01*
X91885843Y-47278235D01*
X91836560Y-47526000D01*
X91836560Y-51026000D01*
X91885843Y-51273765D01*
X92026191Y-51483809D01*
X92186612Y-51591000D01*
X91519750Y-51591000D01*
X91361000Y-51749750D01*
X91107000Y-51749750D01*
X90948250Y-51591000D01*
X90279304Y-51591000D01*
X90343698Y-51564327D01*
X90522327Y-51385699D01*
X90619000Y-51152310D01*
X90619000Y-49561750D01*
X90460250Y-49403000D01*
X88361000Y-49403000D01*
X88107000Y-49403000D01*
X86007750Y-49403000D01*
X85849000Y-49561750D01*
X81736000Y-49561750D01*
X81736000Y-47399690D01*
X85849000Y-47399690D01*
X85849000Y-48990250D01*
X86007750Y-49149000D01*
X88107000Y-49149000D01*
X88107000Y-47049750D01*
X88361000Y-47049750D01*
X88361000Y-49149000D01*
X90460250Y-49149000D01*
X90619000Y-48990250D01*
X90619000Y-47399690D01*
X90522327Y-47166301D01*
X90343698Y-46987673D01*
X90110309Y-46891000D01*
X88519750Y-46891000D01*
X88361000Y-47049750D01*
X88107000Y-47049750D01*
X87948250Y-46891000D01*
X86357691Y-46891000D01*
X86124302Y-46987673D01*
X85945673Y-47166301D01*
X85849000Y-47399690D01*
X81736000Y-47399690D01*
X81736000Y-36908736D01*
X82417000Y-36908736D01*
X82417000Y-38275264D01*
X82939947Y-39537771D01*
X83906229Y-40504053D01*
X85168736Y-41027000D01*
X86535264Y-41027000D01*
X87797771Y-40504053D01*
X88764053Y-39537771D01*
X89287000Y-38275264D01*
X89287000Y-36908736D01*
X88764053Y-35646229D01*
X87797771Y-34679947D01*
X86535264Y-34157000D01*
X85168736Y-34157000D01*
X83906229Y-34679947D01*
X82939947Y-35646229D01*
X82417000Y-36908736D01*
X81736000Y-36908736D01*
X81736000Y-33401000D01*
X171831000Y-33401000D01*
X171831000Y-42287509D01*
G04 #@! TD*
M02*
