G04 #@! TF.GenerationSoftware,KiCad,Pcbnew,(5.0.0)*
G04 #@! TF.CreationDate,2018-08-06T10:04:36+01:00*
G04 #@! TF.ProjectId,Sonoff_4ch_switch,536F6E6F66665F3463685F7377697463,rev?*
G04 #@! TF.SameCoordinates,Original*
G04 #@! TF.FileFunction,Paste,Top*
G04 #@! TF.FilePolarity,Positive*
%FSLAX46Y46*%
G04 Gerber Fmt 4.6, Leading zero omitted, Abs format (unit mm)*
G04 Created by KiCad (PCBNEW (5.0.0)) date 08/06/18 10:04:36*
%MOMM*%
%LPD*%
G01*
G04 APERTURE LIST*
%ADD10C,0.100000*%
%ADD11C,0.950000*%
%ADD12R,1.300000X1.550000*%
%ADD13R,0.900000X1.200000*%
%ADD14R,1.200000X0.900000*%
%ADD15R,0.800000X0.900000*%
%ADD16R,1.600000X3.500000*%
%ADD17R,2.000000X3.800000*%
%ADD18R,2.000000X1.500000*%
G04 APERTURE END LIST*
D10*
G04 #@! TO.C,R21*
G36*
X126435779Y-41944144D02*
X126458834Y-41947563D01*
X126481443Y-41953227D01*
X126503387Y-41961079D01*
X126524457Y-41971044D01*
X126544448Y-41983026D01*
X126563168Y-41996910D01*
X126580438Y-42012562D01*
X126596090Y-42029832D01*
X126609974Y-42048552D01*
X126621956Y-42068543D01*
X126631921Y-42089613D01*
X126639773Y-42111557D01*
X126645437Y-42134166D01*
X126648856Y-42157221D01*
X126650000Y-42180500D01*
X126650000Y-42655500D01*
X126648856Y-42678779D01*
X126645437Y-42701834D01*
X126639773Y-42724443D01*
X126631921Y-42746387D01*
X126621956Y-42767457D01*
X126609974Y-42787448D01*
X126596090Y-42806168D01*
X126580438Y-42823438D01*
X126563168Y-42839090D01*
X126544448Y-42852974D01*
X126524457Y-42864956D01*
X126503387Y-42874921D01*
X126481443Y-42882773D01*
X126458834Y-42888437D01*
X126435779Y-42891856D01*
X126412500Y-42893000D01*
X125837500Y-42893000D01*
X125814221Y-42891856D01*
X125791166Y-42888437D01*
X125768557Y-42882773D01*
X125746613Y-42874921D01*
X125725543Y-42864956D01*
X125705552Y-42852974D01*
X125686832Y-42839090D01*
X125669562Y-42823438D01*
X125653910Y-42806168D01*
X125640026Y-42787448D01*
X125628044Y-42767457D01*
X125618079Y-42746387D01*
X125610227Y-42724443D01*
X125604563Y-42701834D01*
X125601144Y-42678779D01*
X125600000Y-42655500D01*
X125600000Y-42180500D01*
X125601144Y-42157221D01*
X125604563Y-42134166D01*
X125610227Y-42111557D01*
X125618079Y-42089613D01*
X125628044Y-42068543D01*
X125640026Y-42048552D01*
X125653910Y-42029832D01*
X125669562Y-42012562D01*
X125686832Y-41996910D01*
X125705552Y-41983026D01*
X125725543Y-41971044D01*
X125746613Y-41961079D01*
X125768557Y-41953227D01*
X125791166Y-41947563D01*
X125814221Y-41944144D01*
X125837500Y-41943000D01*
X126412500Y-41943000D01*
X126435779Y-41944144D01*
X126435779Y-41944144D01*
G37*
D11*
X126125000Y-42418000D03*
D10*
G36*
X128185779Y-41944144D02*
X128208834Y-41947563D01*
X128231443Y-41953227D01*
X128253387Y-41961079D01*
X128274457Y-41971044D01*
X128294448Y-41983026D01*
X128313168Y-41996910D01*
X128330438Y-42012562D01*
X128346090Y-42029832D01*
X128359974Y-42048552D01*
X128371956Y-42068543D01*
X128381921Y-42089613D01*
X128389773Y-42111557D01*
X128395437Y-42134166D01*
X128398856Y-42157221D01*
X128400000Y-42180500D01*
X128400000Y-42655500D01*
X128398856Y-42678779D01*
X128395437Y-42701834D01*
X128389773Y-42724443D01*
X128381921Y-42746387D01*
X128371956Y-42767457D01*
X128359974Y-42787448D01*
X128346090Y-42806168D01*
X128330438Y-42823438D01*
X128313168Y-42839090D01*
X128294448Y-42852974D01*
X128274457Y-42864956D01*
X128253387Y-42874921D01*
X128231443Y-42882773D01*
X128208834Y-42888437D01*
X128185779Y-42891856D01*
X128162500Y-42893000D01*
X127587500Y-42893000D01*
X127564221Y-42891856D01*
X127541166Y-42888437D01*
X127518557Y-42882773D01*
X127496613Y-42874921D01*
X127475543Y-42864956D01*
X127455552Y-42852974D01*
X127436832Y-42839090D01*
X127419562Y-42823438D01*
X127403910Y-42806168D01*
X127390026Y-42787448D01*
X127378044Y-42767457D01*
X127368079Y-42746387D01*
X127360227Y-42724443D01*
X127354563Y-42701834D01*
X127351144Y-42678779D01*
X127350000Y-42655500D01*
X127350000Y-42180500D01*
X127351144Y-42157221D01*
X127354563Y-42134166D01*
X127360227Y-42111557D01*
X127368079Y-42089613D01*
X127378044Y-42068543D01*
X127390026Y-42048552D01*
X127403910Y-42029832D01*
X127419562Y-42012562D01*
X127436832Y-41996910D01*
X127455552Y-41983026D01*
X127475543Y-41971044D01*
X127496613Y-41961079D01*
X127518557Y-41953227D01*
X127541166Y-41947563D01*
X127564221Y-41944144D01*
X127587500Y-41943000D01*
X128162500Y-41943000D01*
X128185779Y-41944144D01*
X128185779Y-41944144D01*
G37*
D11*
X127875000Y-42418000D03*
G04 #@! TD*
D10*
G04 #@! TO.C,R20*
G36*
X108881779Y-41944144D02*
X108904834Y-41947563D01*
X108927443Y-41953227D01*
X108949387Y-41961079D01*
X108970457Y-41971044D01*
X108990448Y-41983026D01*
X109009168Y-41996910D01*
X109026438Y-42012562D01*
X109042090Y-42029832D01*
X109055974Y-42048552D01*
X109067956Y-42068543D01*
X109077921Y-42089613D01*
X109085773Y-42111557D01*
X109091437Y-42134166D01*
X109094856Y-42157221D01*
X109096000Y-42180500D01*
X109096000Y-42655500D01*
X109094856Y-42678779D01*
X109091437Y-42701834D01*
X109085773Y-42724443D01*
X109077921Y-42746387D01*
X109067956Y-42767457D01*
X109055974Y-42787448D01*
X109042090Y-42806168D01*
X109026438Y-42823438D01*
X109009168Y-42839090D01*
X108990448Y-42852974D01*
X108970457Y-42864956D01*
X108949387Y-42874921D01*
X108927443Y-42882773D01*
X108904834Y-42888437D01*
X108881779Y-42891856D01*
X108858500Y-42893000D01*
X108283500Y-42893000D01*
X108260221Y-42891856D01*
X108237166Y-42888437D01*
X108214557Y-42882773D01*
X108192613Y-42874921D01*
X108171543Y-42864956D01*
X108151552Y-42852974D01*
X108132832Y-42839090D01*
X108115562Y-42823438D01*
X108099910Y-42806168D01*
X108086026Y-42787448D01*
X108074044Y-42767457D01*
X108064079Y-42746387D01*
X108056227Y-42724443D01*
X108050563Y-42701834D01*
X108047144Y-42678779D01*
X108046000Y-42655500D01*
X108046000Y-42180500D01*
X108047144Y-42157221D01*
X108050563Y-42134166D01*
X108056227Y-42111557D01*
X108064079Y-42089613D01*
X108074044Y-42068543D01*
X108086026Y-42048552D01*
X108099910Y-42029832D01*
X108115562Y-42012562D01*
X108132832Y-41996910D01*
X108151552Y-41983026D01*
X108171543Y-41971044D01*
X108192613Y-41961079D01*
X108214557Y-41953227D01*
X108237166Y-41947563D01*
X108260221Y-41944144D01*
X108283500Y-41943000D01*
X108858500Y-41943000D01*
X108881779Y-41944144D01*
X108881779Y-41944144D01*
G37*
D11*
X108571000Y-42418000D03*
D10*
G36*
X107131779Y-41944144D02*
X107154834Y-41947563D01*
X107177443Y-41953227D01*
X107199387Y-41961079D01*
X107220457Y-41971044D01*
X107240448Y-41983026D01*
X107259168Y-41996910D01*
X107276438Y-42012562D01*
X107292090Y-42029832D01*
X107305974Y-42048552D01*
X107317956Y-42068543D01*
X107327921Y-42089613D01*
X107335773Y-42111557D01*
X107341437Y-42134166D01*
X107344856Y-42157221D01*
X107346000Y-42180500D01*
X107346000Y-42655500D01*
X107344856Y-42678779D01*
X107341437Y-42701834D01*
X107335773Y-42724443D01*
X107327921Y-42746387D01*
X107317956Y-42767457D01*
X107305974Y-42787448D01*
X107292090Y-42806168D01*
X107276438Y-42823438D01*
X107259168Y-42839090D01*
X107240448Y-42852974D01*
X107220457Y-42864956D01*
X107199387Y-42874921D01*
X107177443Y-42882773D01*
X107154834Y-42888437D01*
X107131779Y-42891856D01*
X107108500Y-42893000D01*
X106533500Y-42893000D01*
X106510221Y-42891856D01*
X106487166Y-42888437D01*
X106464557Y-42882773D01*
X106442613Y-42874921D01*
X106421543Y-42864956D01*
X106401552Y-42852974D01*
X106382832Y-42839090D01*
X106365562Y-42823438D01*
X106349910Y-42806168D01*
X106336026Y-42787448D01*
X106324044Y-42767457D01*
X106314079Y-42746387D01*
X106306227Y-42724443D01*
X106300563Y-42701834D01*
X106297144Y-42678779D01*
X106296000Y-42655500D01*
X106296000Y-42180500D01*
X106297144Y-42157221D01*
X106300563Y-42134166D01*
X106306227Y-42111557D01*
X106314079Y-42089613D01*
X106324044Y-42068543D01*
X106336026Y-42048552D01*
X106349910Y-42029832D01*
X106365562Y-42012562D01*
X106382832Y-41996910D01*
X106401552Y-41983026D01*
X106421543Y-41971044D01*
X106442613Y-41961079D01*
X106464557Y-41953227D01*
X106487166Y-41947563D01*
X106510221Y-41944144D01*
X106533500Y-41943000D01*
X107108500Y-41943000D01*
X107131779Y-41944144D01*
X107131779Y-41944144D01*
G37*
D11*
X106821000Y-42418000D03*
G04 #@! TD*
D10*
G04 #@! TO.C,R19*
G36*
X136595779Y-41944144D02*
X136618834Y-41947563D01*
X136641443Y-41953227D01*
X136663387Y-41961079D01*
X136684457Y-41971044D01*
X136704448Y-41983026D01*
X136723168Y-41996910D01*
X136740438Y-42012562D01*
X136756090Y-42029832D01*
X136769974Y-42048552D01*
X136781956Y-42068543D01*
X136791921Y-42089613D01*
X136799773Y-42111557D01*
X136805437Y-42134166D01*
X136808856Y-42157221D01*
X136810000Y-42180500D01*
X136810000Y-42655500D01*
X136808856Y-42678779D01*
X136805437Y-42701834D01*
X136799773Y-42724443D01*
X136791921Y-42746387D01*
X136781956Y-42767457D01*
X136769974Y-42787448D01*
X136756090Y-42806168D01*
X136740438Y-42823438D01*
X136723168Y-42839090D01*
X136704448Y-42852974D01*
X136684457Y-42864956D01*
X136663387Y-42874921D01*
X136641443Y-42882773D01*
X136618834Y-42888437D01*
X136595779Y-42891856D01*
X136572500Y-42893000D01*
X135997500Y-42893000D01*
X135974221Y-42891856D01*
X135951166Y-42888437D01*
X135928557Y-42882773D01*
X135906613Y-42874921D01*
X135885543Y-42864956D01*
X135865552Y-42852974D01*
X135846832Y-42839090D01*
X135829562Y-42823438D01*
X135813910Y-42806168D01*
X135800026Y-42787448D01*
X135788044Y-42767457D01*
X135778079Y-42746387D01*
X135770227Y-42724443D01*
X135764563Y-42701834D01*
X135761144Y-42678779D01*
X135760000Y-42655500D01*
X135760000Y-42180500D01*
X135761144Y-42157221D01*
X135764563Y-42134166D01*
X135770227Y-42111557D01*
X135778079Y-42089613D01*
X135788044Y-42068543D01*
X135800026Y-42048552D01*
X135813910Y-42029832D01*
X135829562Y-42012562D01*
X135846832Y-41996910D01*
X135865552Y-41983026D01*
X135885543Y-41971044D01*
X135906613Y-41961079D01*
X135928557Y-41953227D01*
X135951166Y-41947563D01*
X135974221Y-41944144D01*
X135997500Y-41943000D01*
X136572500Y-41943000D01*
X136595779Y-41944144D01*
X136595779Y-41944144D01*
G37*
D11*
X136285000Y-42418000D03*
D10*
G36*
X138345779Y-41944144D02*
X138368834Y-41947563D01*
X138391443Y-41953227D01*
X138413387Y-41961079D01*
X138434457Y-41971044D01*
X138454448Y-41983026D01*
X138473168Y-41996910D01*
X138490438Y-42012562D01*
X138506090Y-42029832D01*
X138519974Y-42048552D01*
X138531956Y-42068543D01*
X138541921Y-42089613D01*
X138549773Y-42111557D01*
X138555437Y-42134166D01*
X138558856Y-42157221D01*
X138560000Y-42180500D01*
X138560000Y-42655500D01*
X138558856Y-42678779D01*
X138555437Y-42701834D01*
X138549773Y-42724443D01*
X138541921Y-42746387D01*
X138531956Y-42767457D01*
X138519974Y-42787448D01*
X138506090Y-42806168D01*
X138490438Y-42823438D01*
X138473168Y-42839090D01*
X138454448Y-42852974D01*
X138434457Y-42864956D01*
X138413387Y-42874921D01*
X138391443Y-42882773D01*
X138368834Y-42888437D01*
X138345779Y-42891856D01*
X138322500Y-42893000D01*
X137747500Y-42893000D01*
X137724221Y-42891856D01*
X137701166Y-42888437D01*
X137678557Y-42882773D01*
X137656613Y-42874921D01*
X137635543Y-42864956D01*
X137615552Y-42852974D01*
X137596832Y-42839090D01*
X137579562Y-42823438D01*
X137563910Y-42806168D01*
X137550026Y-42787448D01*
X137538044Y-42767457D01*
X137528079Y-42746387D01*
X137520227Y-42724443D01*
X137514563Y-42701834D01*
X137511144Y-42678779D01*
X137510000Y-42655500D01*
X137510000Y-42180500D01*
X137511144Y-42157221D01*
X137514563Y-42134166D01*
X137520227Y-42111557D01*
X137528079Y-42089613D01*
X137538044Y-42068543D01*
X137550026Y-42048552D01*
X137563910Y-42029832D01*
X137579562Y-42012562D01*
X137596832Y-41996910D01*
X137615552Y-41983026D01*
X137635543Y-41971044D01*
X137656613Y-41961079D01*
X137678557Y-41953227D01*
X137701166Y-41947563D01*
X137724221Y-41944144D01*
X137747500Y-41943000D01*
X138322500Y-41943000D01*
X138345779Y-41944144D01*
X138345779Y-41944144D01*
G37*
D11*
X138035000Y-42418000D03*
G04 #@! TD*
D10*
G04 #@! TO.C,R18*
G36*
X118279779Y-41944144D02*
X118302834Y-41947563D01*
X118325443Y-41953227D01*
X118347387Y-41961079D01*
X118368457Y-41971044D01*
X118388448Y-41983026D01*
X118407168Y-41996910D01*
X118424438Y-42012562D01*
X118440090Y-42029832D01*
X118453974Y-42048552D01*
X118465956Y-42068543D01*
X118475921Y-42089613D01*
X118483773Y-42111557D01*
X118489437Y-42134166D01*
X118492856Y-42157221D01*
X118494000Y-42180500D01*
X118494000Y-42655500D01*
X118492856Y-42678779D01*
X118489437Y-42701834D01*
X118483773Y-42724443D01*
X118475921Y-42746387D01*
X118465956Y-42767457D01*
X118453974Y-42787448D01*
X118440090Y-42806168D01*
X118424438Y-42823438D01*
X118407168Y-42839090D01*
X118388448Y-42852974D01*
X118368457Y-42864956D01*
X118347387Y-42874921D01*
X118325443Y-42882773D01*
X118302834Y-42888437D01*
X118279779Y-42891856D01*
X118256500Y-42893000D01*
X117681500Y-42893000D01*
X117658221Y-42891856D01*
X117635166Y-42888437D01*
X117612557Y-42882773D01*
X117590613Y-42874921D01*
X117569543Y-42864956D01*
X117549552Y-42852974D01*
X117530832Y-42839090D01*
X117513562Y-42823438D01*
X117497910Y-42806168D01*
X117484026Y-42787448D01*
X117472044Y-42767457D01*
X117462079Y-42746387D01*
X117454227Y-42724443D01*
X117448563Y-42701834D01*
X117445144Y-42678779D01*
X117444000Y-42655500D01*
X117444000Y-42180500D01*
X117445144Y-42157221D01*
X117448563Y-42134166D01*
X117454227Y-42111557D01*
X117462079Y-42089613D01*
X117472044Y-42068543D01*
X117484026Y-42048552D01*
X117497910Y-42029832D01*
X117513562Y-42012562D01*
X117530832Y-41996910D01*
X117549552Y-41983026D01*
X117569543Y-41971044D01*
X117590613Y-41961079D01*
X117612557Y-41953227D01*
X117635166Y-41947563D01*
X117658221Y-41944144D01*
X117681500Y-41943000D01*
X118256500Y-41943000D01*
X118279779Y-41944144D01*
X118279779Y-41944144D01*
G37*
D11*
X117969000Y-42418000D03*
D10*
G36*
X116529779Y-41944144D02*
X116552834Y-41947563D01*
X116575443Y-41953227D01*
X116597387Y-41961079D01*
X116618457Y-41971044D01*
X116638448Y-41983026D01*
X116657168Y-41996910D01*
X116674438Y-42012562D01*
X116690090Y-42029832D01*
X116703974Y-42048552D01*
X116715956Y-42068543D01*
X116725921Y-42089613D01*
X116733773Y-42111557D01*
X116739437Y-42134166D01*
X116742856Y-42157221D01*
X116744000Y-42180500D01*
X116744000Y-42655500D01*
X116742856Y-42678779D01*
X116739437Y-42701834D01*
X116733773Y-42724443D01*
X116725921Y-42746387D01*
X116715956Y-42767457D01*
X116703974Y-42787448D01*
X116690090Y-42806168D01*
X116674438Y-42823438D01*
X116657168Y-42839090D01*
X116638448Y-42852974D01*
X116618457Y-42864956D01*
X116597387Y-42874921D01*
X116575443Y-42882773D01*
X116552834Y-42888437D01*
X116529779Y-42891856D01*
X116506500Y-42893000D01*
X115931500Y-42893000D01*
X115908221Y-42891856D01*
X115885166Y-42888437D01*
X115862557Y-42882773D01*
X115840613Y-42874921D01*
X115819543Y-42864956D01*
X115799552Y-42852974D01*
X115780832Y-42839090D01*
X115763562Y-42823438D01*
X115747910Y-42806168D01*
X115734026Y-42787448D01*
X115722044Y-42767457D01*
X115712079Y-42746387D01*
X115704227Y-42724443D01*
X115698563Y-42701834D01*
X115695144Y-42678779D01*
X115694000Y-42655500D01*
X115694000Y-42180500D01*
X115695144Y-42157221D01*
X115698563Y-42134166D01*
X115704227Y-42111557D01*
X115712079Y-42089613D01*
X115722044Y-42068543D01*
X115734026Y-42048552D01*
X115747910Y-42029832D01*
X115763562Y-42012562D01*
X115780832Y-41996910D01*
X115799552Y-41983026D01*
X115819543Y-41971044D01*
X115840613Y-41961079D01*
X115862557Y-41953227D01*
X115885166Y-41947563D01*
X115908221Y-41944144D01*
X115931500Y-41943000D01*
X116506500Y-41943000D01*
X116529779Y-41944144D01*
X116529779Y-41944144D01*
G37*
D11*
X116219000Y-42418000D03*
G04 #@! TD*
D10*
G04 #@! TO.C,R17*
G36*
X101769779Y-44992144D02*
X101792834Y-44995563D01*
X101815443Y-45001227D01*
X101837387Y-45009079D01*
X101858457Y-45019044D01*
X101878448Y-45031026D01*
X101897168Y-45044910D01*
X101914438Y-45060562D01*
X101930090Y-45077832D01*
X101943974Y-45096552D01*
X101955956Y-45116543D01*
X101965921Y-45137613D01*
X101973773Y-45159557D01*
X101979437Y-45182166D01*
X101982856Y-45205221D01*
X101984000Y-45228500D01*
X101984000Y-45703500D01*
X101982856Y-45726779D01*
X101979437Y-45749834D01*
X101973773Y-45772443D01*
X101965921Y-45794387D01*
X101955956Y-45815457D01*
X101943974Y-45835448D01*
X101930090Y-45854168D01*
X101914438Y-45871438D01*
X101897168Y-45887090D01*
X101878448Y-45900974D01*
X101858457Y-45912956D01*
X101837387Y-45922921D01*
X101815443Y-45930773D01*
X101792834Y-45936437D01*
X101769779Y-45939856D01*
X101746500Y-45941000D01*
X101171500Y-45941000D01*
X101148221Y-45939856D01*
X101125166Y-45936437D01*
X101102557Y-45930773D01*
X101080613Y-45922921D01*
X101059543Y-45912956D01*
X101039552Y-45900974D01*
X101020832Y-45887090D01*
X101003562Y-45871438D01*
X100987910Y-45854168D01*
X100974026Y-45835448D01*
X100962044Y-45815457D01*
X100952079Y-45794387D01*
X100944227Y-45772443D01*
X100938563Y-45749834D01*
X100935144Y-45726779D01*
X100934000Y-45703500D01*
X100934000Y-45228500D01*
X100935144Y-45205221D01*
X100938563Y-45182166D01*
X100944227Y-45159557D01*
X100952079Y-45137613D01*
X100962044Y-45116543D01*
X100974026Y-45096552D01*
X100987910Y-45077832D01*
X101003562Y-45060562D01*
X101020832Y-45044910D01*
X101039552Y-45031026D01*
X101059543Y-45019044D01*
X101080613Y-45009079D01*
X101102557Y-45001227D01*
X101125166Y-44995563D01*
X101148221Y-44992144D01*
X101171500Y-44991000D01*
X101746500Y-44991000D01*
X101769779Y-44992144D01*
X101769779Y-44992144D01*
G37*
D11*
X101459000Y-45466000D03*
D10*
G36*
X100019779Y-44992144D02*
X100042834Y-44995563D01*
X100065443Y-45001227D01*
X100087387Y-45009079D01*
X100108457Y-45019044D01*
X100128448Y-45031026D01*
X100147168Y-45044910D01*
X100164438Y-45060562D01*
X100180090Y-45077832D01*
X100193974Y-45096552D01*
X100205956Y-45116543D01*
X100215921Y-45137613D01*
X100223773Y-45159557D01*
X100229437Y-45182166D01*
X100232856Y-45205221D01*
X100234000Y-45228500D01*
X100234000Y-45703500D01*
X100232856Y-45726779D01*
X100229437Y-45749834D01*
X100223773Y-45772443D01*
X100215921Y-45794387D01*
X100205956Y-45815457D01*
X100193974Y-45835448D01*
X100180090Y-45854168D01*
X100164438Y-45871438D01*
X100147168Y-45887090D01*
X100128448Y-45900974D01*
X100108457Y-45912956D01*
X100087387Y-45922921D01*
X100065443Y-45930773D01*
X100042834Y-45936437D01*
X100019779Y-45939856D01*
X99996500Y-45941000D01*
X99421500Y-45941000D01*
X99398221Y-45939856D01*
X99375166Y-45936437D01*
X99352557Y-45930773D01*
X99330613Y-45922921D01*
X99309543Y-45912956D01*
X99289552Y-45900974D01*
X99270832Y-45887090D01*
X99253562Y-45871438D01*
X99237910Y-45854168D01*
X99224026Y-45835448D01*
X99212044Y-45815457D01*
X99202079Y-45794387D01*
X99194227Y-45772443D01*
X99188563Y-45749834D01*
X99185144Y-45726779D01*
X99184000Y-45703500D01*
X99184000Y-45228500D01*
X99185144Y-45205221D01*
X99188563Y-45182166D01*
X99194227Y-45159557D01*
X99202079Y-45137613D01*
X99212044Y-45116543D01*
X99224026Y-45096552D01*
X99237910Y-45077832D01*
X99253562Y-45060562D01*
X99270832Y-45044910D01*
X99289552Y-45031026D01*
X99309543Y-45019044D01*
X99330613Y-45009079D01*
X99352557Y-45001227D01*
X99375166Y-44995563D01*
X99398221Y-44992144D01*
X99421500Y-44991000D01*
X99996500Y-44991000D01*
X100019779Y-44992144D01*
X100019779Y-44992144D01*
G37*
D11*
X99709000Y-45466000D03*
G04 #@! TD*
D10*
G04 #@! TO.C,R15*
G36*
X101098779Y-75309144D02*
X101121834Y-75312563D01*
X101144443Y-75318227D01*
X101166387Y-75326079D01*
X101187457Y-75336044D01*
X101207448Y-75348026D01*
X101226168Y-75361910D01*
X101243438Y-75377562D01*
X101259090Y-75394832D01*
X101272974Y-75413552D01*
X101284956Y-75433543D01*
X101294921Y-75454613D01*
X101302773Y-75476557D01*
X101308437Y-75499166D01*
X101311856Y-75522221D01*
X101313000Y-75545500D01*
X101313000Y-76120500D01*
X101311856Y-76143779D01*
X101308437Y-76166834D01*
X101302773Y-76189443D01*
X101294921Y-76211387D01*
X101284956Y-76232457D01*
X101272974Y-76252448D01*
X101259090Y-76271168D01*
X101243438Y-76288438D01*
X101226168Y-76304090D01*
X101207448Y-76317974D01*
X101187457Y-76329956D01*
X101166387Y-76339921D01*
X101144443Y-76347773D01*
X101121834Y-76353437D01*
X101098779Y-76356856D01*
X101075500Y-76358000D01*
X100600500Y-76358000D01*
X100577221Y-76356856D01*
X100554166Y-76353437D01*
X100531557Y-76347773D01*
X100509613Y-76339921D01*
X100488543Y-76329956D01*
X100468552Y-76317974D01*
X100449832Y-76304090D01*
X100432562Y-76288438D01*
X100416910Y-76271168D01*
X100403026Y-76252448D01*
X100391044Y-76232457D01*
X100381079Y-76211387D01*
X100373227Y-76189443D01*
X100367563Y-76166834D01*
X100364144Y-76143779D01*
X100363000Y-76120500D01*
X100363000Y-75545500D01*
X100364144Y-75522221D01*
X100367563Y-75499166D01*
X100373227Y-75476557D01*
X100381079Y-75454613D01*
X100391044Y-75433543D01*
X100403026Y-75413552D01*
X100416910Y-75394832D01*
X100432562Y-75377562D01*
X100449832Y-75361910D01*
X100468552Y-75348026D01*
X100488543Y-75336044D01*
X100509613Y-75326079D01*
X100531557Y-75318227D01*
X100554166Y-75312563D01*
X100577221Y-75309144D01*
X100600500Y-75308000D01*
X101075500Y-75308000D01*
X101098779Y-75309144D01*
X101098779Y-75309144D01*
G37*
D11*
X100838000Y-75833000D03*
D10*
G36*
X101098779Y-77059144D02*
X101121834Y-77062563D01*
X101144443Y-77068227D01*
X101166387Y-77076079D01*
X101187457Y-77086044D01*
X101207448Y-77098026D01*
X101226168Y-77111910D01*
X101243438Y-77127562D01*
X101259090Y-77144832D01*
X101272974Y-77163552D01*
X101284956Y-77183543D01*
X101294921Y-77204613D01*
X101302773Y-77226557D01*
X101308437Y-77249166D01*
X101311856Y-77272221D01*
X101313000Y-77295500D01*
X101313000Y-77870500D01*
X101311856Y-77893779D01*
X101308437Y-77916834D01*
X101302773Y-77939443D01*
X101294921Y-77961387D01*
X101284956Y-77982457D01*
X101272974Y-78002448D01*
X101259090Y-78021168D01*
X101243438Y-78038438D01*
X101226168Y-78054090D01*
X101207448Y-78067974D01*
X101187457Y-78079956D01*
X101166387Y-78089921D01*
X101144443Y-78097773D01*
X101121834Y-78103437D01*
X101098779Y-78106856D01*
X101075500Y-78108000D01*
X100600500Y-78108000D01*
X100577221Y-78106856D01*
X100554166Y-78103437D01*
X100531557Y-78097773D01*
X100509613Y-78089921D01*
X100488543Y-78079956D01*
X100468552Y-78067974D01*
X100449832Y-78054090D01*
X100432562Y-78038438D01*
X100416910Y-78021168D01*
X100403026Y-78002448D01*
X100391044Y-77982457D01*
X100381079Y-77961387D01*
X100373227Y-77939443D01*
X100367563Y-77916834D01*
X100364144Y-77893779D01*
X100363000Y-77870500D01*
X100363000Y-77295500D01*
X100364144Y-77272221D01*
X100367563Y-77249166D01*
X100373227Y-77226557D01*
X100381079Y-77204613D01*
X100391044Y-77183543D01*
X100403026Y-77163552D01*
X100416910Y-77144832D01*
X100432562Y-77127562D01*
X100449832Y-77111910D01*
X100468552Y-77098026D01*
X100488543Y-77086044D01*
X100509613Y-77076079D01*
X100531557Y-77068227D01*
X100554166Y-77062563D01*
X100577221Y-77059144D01*
X100600500Y-77058000D01*
X101075500Y-77058000D01*
X101098779Y-77059144D01*
X101098779Y-77059144D01*
G37*
D11*
X100838000Y-77583000D03*
G04 #@! TD*
D10*
G04 #@! TO.C,R14*
G36*
X113735779Y-74964144D02*
X113758834Y-74967563D01*
X113781443Y-74973227D01*
X113803387Y-74981079D01*
X113824457Y-74991044D01*
X113844448Y-75003026D01*
X113863168Y-75016910D01*
X113880438Y-75032562D01*
X113896090Y-75049832D01*
X113909974Y-75068552D01*
X113921956Y-75088543D01*
X113931921Y-75109613D01*
X113939773Y-75131557D01*
X113945437Y-75154166D01*
X113948856Y-75177221D01*
X113950000Y-75200500D01*
X113950000Y-75675500D01*
X113948856Y-75698779D01*
X113945437Y-75721834D01*
X113939773Y-75744443D01*
X113931921Y-75766387D01*
X113921956Y-75787457D01*
X113909974Y-75807448D01*
X113896090Y-75826168D01*
X113880438Y-75843438D01*
X113863168Y-75859090D01*
X113844448Y-75872974D01*
X113824457Y-75884956D01*
X113803387Y-75894921D01*
X113781443Y-75902773D01*
X113758834Y-75908437D01*
X113735779Y-75911856D01*
X113712500Y-75913000D01*
X113137500Y-75913000D01*
X113114221Y-75911856D01*
X113091166Y-75908437D01*
X113068557Y-75902773D01*
X113046613Y-75894921D01*
X113025543Y-75884956D01*
X113005552Y-75872974D01*
X112986832Y-75859090D01*
X112969562Y-75843438D01*
X112953910Y-75826168D01*
X112940026Y-75807448D01*
X112928044Y-75787457D01*
X112918079Y-75766387D01*
X112910227Y-75744443D01*
X112904563Y-75721834D01*
X112901144Y-75698779D01*
X112900000Y-75675500D01*
X112900000Y-75200500D01*
X112901144Y-75177221D01*
X112904563Y-75154166D01*
X112910227Y-75131557D01*
X112918079Y-75109613D01*
X112928044Y-75088543D01*
X112940026Y-75068552D01*
X112953910Y-75049832D01*
X112969562Y-75032562D01*
X112986832Y-75016910D01*
X113005552Y-75003026D01*
X113025543Y-74991044D01*
X113046613Y-74981079D01*
X113068557Y-74973227D01*
X113091166Y-74967563D01*
X113114221Y-74964144D01*
X113137500Y-74963000D01*
X113712500Y-74963000D01*
X113735779Y-74964144D01*
X113735779Y-74964144D01*
G37*
D11*
X113425000Y-75438000D03*
D10*
G36*
X115485779Y-74964144D02*
X115508834Y-74967563D01*
X115531443Y-74973227D01*
X115553387Y-74981079D01*
X115574457Y-74991044D01*
X115594448Y-75003026D01*
X115613168Y-75016910D01*
X115630438Y-75032562D01*
X115646090Y-75049832D01*
X115659974Y-75068552D01*
X115671956Y-75088543D01*
X115681921Y-75109613D01*
X115689773Y-75131557D01*
X115695437Y-75154166D01*
X115698856Y-75177221D01*
X115700000Y-75200500D01*
X115700000Y-75675500D01*
X115698856Y-75698779D01*
X115695437Y-75721834D01*
X115689773Y-75744443D01*
X115681921Y-75766387D01*
X115671956Y-75787457D01*
X115659974Y-75807448D01*
X115646090Y-75826168D01*
X115630438Y-75843438D01*
X115613168Y-75859090D01*
X115594448Y-75872974D01*
X115574457Y-75884956D01*
X115553387Y-75894921D01*
X115531443Y-75902773D01*
X115508834Y-75908437D01*
X115485779Y-75911856D01*
X115462500Y-75913000D01*
X114887500Y-75913000D01*
X114864221Y-75911856D01*
X114841166Y-75908437D01*
X114818557Y-75902773D01*
X114796613Y-75894921D01*
X114775543Y-75884956D01*
X114755552Y-75872974D01*
X114736832Y-75859090D01*
X114719562Y-75843438D01*
X114703910Y-75826168D01*
X114690026Y-75807448D01*
X114678044Y-75787457D01*
X114668079Y-75766387D01*
X114660227Y-75744443D01*
X114654563Y-75721834D01*
X114651144Y-75698779D01*
X114650000Y-75675500D01*
X114650000Y-75200500D01*
X114651144Y-75177221D01*
X114654563Y-75154166D01*
X114660227Y-75131557D01*
X114668079Y-75109613D01*
X114678044Y-75088543D01*
X114690026Y-75068552D01*
X114703910Y-75049832D01*
X114719562Y-75032562D01*
X114736832Y-75016910D01*
X114755552Y-75003026D01*
X114775543Y-74991044D01*
X114796613Y-74981079D01*
X114818557Y-74973227D01*
X114841166Y-74967563D01*
X114864221Y-74964144D01*
X114887500Y-74963000D01*
X115462500Y-74963000D01*
X115485779Y-74964144D01*
X115485779Y-74964144D01*
G37*
D11*
X115175000Y-75438000D03*
G04 #@! TD*
D10*
G04 #@! TO.C,R7*
G36*
X92145779Y-79536144D02*
X92168834Y-79539563D01*
X92191443Y-79545227D01*
X92213387Y-79553079D01*
X92234457Y-79563044D01*
X92254448Y-79575026D01*
X92273168Y-79588910D01*
X92290438Y-79604562D01*
X92306090Y-79621832D01*
X92319974Y-79640552D01*
X92331956Y-79660543D01*
X92341921Y-79681613D01*
X92349773Y-79703557D01*
X92355437Y-79726166D01*
X92358856Y-79749221D01*
X92360000Y-79772500D01*
X92360000Y-80247500D01*
X92358856Y-80270779D01*
X92355437Y-80293834D01*
X92349773Y-80316443D01*
X92341921Y-80338387D01*
X92331956Y-80359457D01*
X92319974Y-80379448D01*
X92306090Y-80398168D01*
X92290438Y-80415438D01*
X92273168Y-80431090D01*
X92254448Y-80444974D01*
X92234457Y-80456956D01*
X92213387Y-80466921D01*
X92191443Y-80474773D01*
X92168834Y-80480437D01*
X92145779Y-80483856D01*
X92122500Y-80485000D01*
X91547500Y-80485000D01*
X91524221Y-80483856D01*
X91501166Y-80480437D01*
X91478557Y-80474773D01*
X91456613Y-80466921D01*
X91435543Y-80456956D01*
X91415552Y-80444974D01*
X91396832Y-80431090D01*
X91379562Y-80415438D01*
X91363910Y-80398168D01*
X91350026Y-80379448D01*
X91338044Y-80359457D01*
X91328079Y-80338387D01*
X91320227Y-80316443D01*
X91314563Y-80293834D01*
X91311144Y-80270779D01*
X91310000Y-80247500D01*
X91310000Y-79772500D01*
X91311144Y-79749221D01*
X91314563Y-79726166D01*
X91320227Y-79703557D01*
X91328079Y-79681613D01*
X91338044Y-79660543D01*
X91350026Y-79640552D01*
X91363910Y-79621832D01*
X91379562Y-79604562D01*
X91396832Y-79588910D01*
X91415552Y-79575026D01*
X91435543Y-79563044D01*
X91456613Y-79553079D01*
X91478557Y-79545227D01*
X91501166Y-79539563D01*
X91524221Y-79536144D01*
X91547500Y-79535000D01*
X92122500Y-79535000D01*
X92145779Y-79536144D01*
X92145779Y-79536144D01*
G37*
D11*
X91835000Y-80010000D03*
D10*
G36*
X93895779Y-79536144D02*
X93918834Y-79539563D01*
X93941443Y-79545227D01*
X93963387Y-79553079D01*
X93984457Y-79563044D01*
X94004448Y-79575026D01*
X94023168Y-79588910D01*
X94040438Y-79604562D01*
X94056090Y-79621832D01*
X94069974Y-79640552D01*
X94081956Y-79660543D01*
X94091921Y-79681613D01*
X94099773Y-79703557D01*
X94105437Y-79726166D01*
X94108856Y-79749221D01*
X94110000Y-79772500D01*
X94110000Y-80247500D01*
X94108856Y-80270779D01*
X94105437Y-80293834D01*
X94099773Y-80316443D01*
X94091921Y-80338387D01*
X94081956Y-80359457D01*
X94069974Y-80379448D01*
X94056090Y-80398168D01*
X94040438Y-80415438D01*
X94023168Y-80431090D01*
X94004448Y-80444974D01*
X93984457Y-80456956D01*
X93963387Y-80466921D01*
X93941443Y-80474773D01*
X93918834Y-80480437D01*
X93895779Y-80483856D01*
X93872500Y-80485000D01*
X93297500Y-80485000D01*
X93274221Y-80483856D01*
X93251166Y-80480437D01*
X93228557Y-80474773D01*
X93206613Y-80466921D01*
X93185543Y-80456956D01*
X93165552Y-80444974D01*
X93146832Y-80431090D01*
X93129562Y-80415438D01*
X93113910Y-80398168D01*
X93100026Y-80379448D01*
X93088044Y-80359457D01*
X93078079Y-80338387D01*
X93070227Y-80316443D01*
X93064563Y-80293834D01*
X93061144Y-80270779D01*
X93060000Y-80247500D01*
X93060000Y-79772500D01*
X93061144Y-79749221D01*
X93064563Y-79726166D01*
X93070227Y-79703557D01*
X93078079Y-79681613D01*
X93088044Y-79660543D01*
X93100026Y-79640552D01*
X93113910Y-79621832D01*
X93129562Y-79604562D01*
X93146832Y-79588910D01*
X93165552Y-79575026D01*
X93185543Y-79563044D01*
X93206613Y-79553079D01*
X93228557Y-79545227D01*
X93251166Y-79539563D01*
X93274221Y-79536144D01*
X93297500Y-79535000D01*
X93872500Y-79535000D01*
X93895779Y-79536144D01*
X93895779Y-79536144D01*
G37*
D11*
X93585000Y-80010000D03*
G04 #@! TD*
D10*
G04 #@! TO.C,R5*
G36*
X115485779Y-79536144D02*
X115508834Y-79539563D01*
X115531443Y-79545227D01*
X115553387Y-79553079D01*
X115574457Y-79563044D01*
X115594448Y-79575026D01*
X115613168Y-79588910D01*
X115630438Y-79604562D01*
X115646090Y-79621832D01*
X115659974Y-79640552D01*
X115671956Y-79660543D01*
X115681921Y-79681613D01*
X115689773Y-79703557D01*
X115695437Y-79726166D01*
X115698856Y-79749221D01*
X115700000Y-79772500D01*
X115700000Y-80247500D01*
X115698856Y-80270779D01*
X115695437Y-80293834D01*
X115689773Y-80316443D01*
X115681921Y-80338387D01*
X115671956Y-80359457D01*
X115659974Y-80379448D01*
X115646090Y-80398168D01*
X115630438Y-80415438D01*
X115613168Y-80431090D01*
X115594448Y-80444974D01*
X115574457Y-80456956D01*
X115553387Y-80466921D01*
X115531443Y-80474773D01*
X115508834Y-80480437D01*
X115485779Y-80483856D01*
X115462500Y-80485000D01*
X114887500Y-80485000D01*
X114864221Y-80483856D01*
X114841166Y-80480437D01*
X114818557Y-80474773D01*
X114796613Y-80466921D01*
X114775543Y-80456956D01*
X114755552Y-80444974D01*
X114736832Y-80431090D01*
X114719562Y-80415438D01*
X114703910Y-80398168D01*
X114690026Y-80379448D01*
X114678044Y-80359457D01*
X114668079Y-80338387D01*
X114660227Y-80316443D01*
X114654563Y-80293834D01*
X114651144Y-80270779D01*
X114650000Y-80247500D01*
X114650000Y-79772500D01*
X114651144Y-79749221D01*
X114654563Y-79726166D01*
X114660227Y-79703557D01*
X114668079Y-79681613D01*
X114678044Y-79660543D01*
X114690026Y-79640552D01*
X114703910Y-79621832D01*
X114719562Y-79604562D01*
X114736832Y-79588910D01*
X114755552Y-79575026D01*
X114775543Y-79563044D01*
X114796613Y-79553079D01*
X114818557Y-79545227D01*
X114841166Y-79539563D01*
X114864221Y-79536144D01*
X114887500Y-79535000D01*
X115462500Y-79535000D01*
X115485779Y-79536144D01*
X115485779Y-79536144D01*
G37*
D11*
X115175000Y-80010000D03*
D10*
G36*
X113735779Y-79536144D02*
X113758834Y-79539563D01*
X113781443Y-79545227D01*
X113803387Y-79553079D01*
X113824457Y-79563044D01*
X113844448Y-79575026D01*
X113863168Y-79588910D01*
X113880438Y-79604562D01*
X113896090Y-79621832D01*
X113909974Y-79640552D01*
X113921956Y-79660543D01*
X113931921Y-79681613D01*
X113939773Y-79703557D01*
X113945437Y-79726166D01*
X113948856Y-79749221D01*
X113950000Y-79772500D01*
X113950000Y-80247500D01*
X113948856Y-80270779D01*
X113945437Y-80293834D01*
X113939773Y-80316443D01*
X113931921Y-80338387D01*
X113921956Y-80359457D01*
X113909974Y-80379448D01*
X113896090Y-80398168D01*
X113880438Y-80415438D01*
X113863168Y-80431090D01*
X113844448Y-80444974D01*
X113824457Y-80456956D01*
X113803387Y-80466921D01*
X113781443Y-80474773D01*
X113758834Y-80480437D01*
X113735779Y-80483856D01*
X113712500Y-80485000D01*
X113137500Y-80485000D01*
X113114221Y-80483856D01*
X113091166Y-80480437D01*
X113068557Y-80474773D01*
X113046613Y-80466921D01*
X113025543Y-80456956D01*
X113005552Y-80444974D01*
X112986832Y-80431090D01*
X112969562Y-80415438D01*
X112953910Y-80398168D01*
X112940026Y-80379448D01*
X112928044Y-80359457D01*
X112918079Y-80338387D01*
X112910227Y-80316443D01*
X112904563Y-80293834D01*
X112901144Y-80270779D01*
X112900000Y-80247500D01*
X112900000Y-79772500D01*
X112901144Y-79749221D01*
X112904563Y-79726166D01*
X112910227Y-79703557D01*
X112918079Y-79681613D01*
X112928044Y-79660543D01*
X112940026Y-79640552D01*
X112953910Y-79621832D01*
X112969562Y-79604562D01*
X112986832Y-79588910D01*
X113005552Y-79575026D01*
X113025543Y-79563044D01*
X113046613Y-79553079D01*
X113068557Y-79545227D01*
X113091166Y-79539563D01*
X113114221Y-79536144D01*
X113137500Y-79535000D01*
X113712500Y-79535000D01*
X113735779Y-79536144D01*
X113735779Y-79536144D01*
G37*
D11*
X113425000Y-80010000D03*
G04 #@! TD*
D10*
G04 #@! TO.C,R22*
G36*
X148342779Y-62581144D02*
X148365834Y-62584563D01*
X148388443Y-62590227D01*
X148410387Y-62598079D01*
X148431457Y-62608044D01*
X148451448Y-62620026D01*
X148470168Y-62633910D01*
X148487438Y-62649562D01*
X148503090Y-62666832D01*
X148516974Y-62685552D01*
X148528956Y-62705543D01*
X148538921Y-62726613D01*
X148546773Y-62748557D01*
X148552437Y-62771166D01*
X148555856Y-62794221D01*
X148557000Y-62817500D01*
X148557000Y-63392500D01*
X148555856Y-63415779D01*
X148552437Y-63438834D01*
X148546773Y-63461443D01*
X148538921Y-63483387D01*
X148528956Y-63504457D01*
X148516974Y-63524448D01*
X148503090Y-63543168D01*
X148487438Y-63560438D01*
X148470168Y-63576090D01*
X148451448Y-63589974D01*
X148431457Y-63601956D01*
X148410387Y-63611921D01*
X148388443Y-63619773D01*
X148365834Y-63625437D01*
X148342779Y-63628856D01*
X148319500Y-63630000D01*
X147844500Y-63630000D01*
X147821221Y-63628856D01*
X147798166Y-63625437D01*
X147775557Y-63619773D01*
X147753613Y-63611921D01*
X147732543Y-63601956D01*
X147712552Y-63589974D01*
X147693832Y-63576090D01*
X147676562Y-63560438D01*
X147660910Y-63543168D01*
X147647026Y-63524448D01*
X147635044Y-63504457D01*
X147625079Y-63483387D01*
X147617227Y-63461443D01*
X147611563Y-63438834D01*
X147608144Y-63415779D01*
X147607000Y-63392500D01*
X147607000Y-62817500D01*
X147608144Y-62794221D01*
X147611563Y-62771166D01*
X147617227Y-62748557D01*
X147625079Y-62726613D01*
X147635044Y-62705543D01*
X147647026Y-62685552D01*
X147660910Y-62666832D01*
X147676562Y-62649562D01*
X147693832Y-62633910D01*
X147712552Y-62620026D01*
X147732543Y-62608044D01*
X147753613Y-62598079D01*
X147775557Y-62590227D01*
X147798166Y-62584563D01*
X147821221Y-62581144D01*
X147844500Y-62580000D01*
X148319500Y-62580000D01*
X148342779Y-62581144D01*
X148342779Y-62581144D01*
G37*
D11*
X148082000Y-63105000D03*
D10*
G36*
X148342779Y-60831144D02*
X148365834Y-60834563D01*
X148388443Y-60840227D01*
X148410387Y-60848079D01*
X148431457Y-60858044D01*
X148451448Y-60870026D01*
X148470168Y-60883910D01*
X148487438Y-60899562D01*
X148503090Y-60916832D01*
X148516974Y-60935552D01*
X148528956Y-60955543D01*
X148538921Y-60976613D01*
X148546773Y-60998557D01*
X148552437Y-61021166D01*
X148555856Y-61044221D01*
X148557000Y-61067500D01*
X148557000Y-61642500D01*
X148555856Y-61665779D01*
X148552437Y-61688834D01*
X148546773Y-61711443D01*
X148538921Y-61733387D01*
X148528956Y-61754457D01*
X148516974Y-61774448D01*
X148503090Y-61793168D01*
X148487438Y-61810438D01*
X148470168Y-61826090D01*
X148451448Y-61839974D01*
X148431457Y-61851956D01*
X148410387Y-61861921D01*
X148388443Y-61869773D01*
X148365834Y-61875437D01*
X148342779Y-61878856D01*
X148319500Y-61880000D01*
X147844500Y-61880000D01*
X147821221Y-61878856D01*
X147798166Y-61875437D01*
X147775557Y-61869773D01*
X147753613Y-61861921D01*
X147732543Y-61851956D01*
X147712552Y-61839974D01*
X147693832Y-61826090D01*
X147676562Y-61810438D01*
X147660910Y-61793168D01*
X147647026Y-61774448D01*
X147635044Y-61754457D01*
X147625079Y-61733387D01*
X147617227Y-61711443D01*
X147611563Y-61688834D01*
X147608144Y-61665779D01*
X147607000Y-61642500D01*
X147607000Y-61067500D01*
X147608144Y-61044221D01*
X147611563Y-61021166D01*
X147617227Y-60998557D01*
X147625079Y-60976613D01*
X147635044Y-60955543D01*
X147647026Y-60935552D01*
X147660910Y-60916832D01*
X147676562Y-60899562D01*
X147693832Y-60883910D01*
X147712552Y-60870026D01*
X147732543Y-60858044D01*
X147753613Y-60848079D01*
X147775557Y-60840227D01*
X147798166Y-60834563D01*
X147821221Y-60831144D01*
X147844500Y-60830000D01*
X148319500Y-60830000D01*
X148342779Y-60831144D01*
X148342779Y-60831144D01*
G37*
D11*
X148082000Y-61355000D03*
G04 #@! TD*
D10*
G04 #@! TO.C,R6*
G36*
X109897779Y-74964144D02*
X109920834Y-74967563D01*
X109943443Y-74973227D01*
X109965387Y-74981079D01*
X109986457Y-74991044D01*
X110006448Y-75003026D01*
X110025168Y-75016910D01*
X110042438Y-75032562D01*
X110058090Y-75049832D01*
X110071974Y-75068552D01*
X110083956Y-75088543D01*
X110093921Y-75109613D01*
X110101773Y-75131557D01*
X110107437Y-75154166D01*
X110110856Y-75177221D01*
X110112000Y-75200500D01*
X110112000Y-75675500D01*
X110110856Y-75698779D01*
X110107437Y-75721834D01*
X110101773Y-75744443D01*
X110093921Y-75766387D01*
X110083956Y-75787457D01*
X110071974Y-75807448D01*
X110058090Y-75826168D01*
X110042438Y-75843438D01*
X110025168Y-75859090D01*
X110006448Y-75872974D01*
X109986457Y-75884956D01*
X109965387Y-75894921D01*
X109943443Y-75902773D01*
X109920834Y-75908437D01*
X109897779Y-75911856D01*
X109874500Y-75913000D01*
X109299500Y-75913000D01*
X109276221Y-75911856D01*
X109253166Y-75908437D01*
X109230557Y-75902773D01*
X109208613Y-75894921D01*
X109187543Y-75884956D01*
X109167552Y-75872974D01*
X109148832Y-75859090D01*
X109131562Y-75843438D01*
X109115910Y-75826168D01*
X109102026Y-75807448D01*
X109090044Y-75787457D01*
X109080079Y-75766387D01*
X109072227Y-75744443D01*
X109066563Y-75721834D01*
X109063144Y-75698779D01*
X109062000Y-75675500D01*
X109062000Y-75200500D01*
X109063144Y-75177221D01*
X109066563Y-75154166D01*
X109072227Y-75131557D01*
X109080079Y-75109613D01*
X109090044Y-75088543D01*
X109102026Y-75068552D01*
X109115910Y-75049832D01*
X109131562Y-75032562D01*
X109148832Y-75016910D01*
X109167552Y-75003026D01*
X109187543Y-74991044D01*
X109208613Y-74981079D01*
X109230557Y-74973227D01*
X109253166Y-74967563D01*
X109276221Y-74964144D01*
X109299500Y-74963000D01*
X109874500Y-74963000D01*
X109897779Y-74964144D01*
X109897779Y-74964144D01*
G37*
D11*
X109587000Y-75438000D03*
D10*
G36*
X108147779Y-74964144D02*
X108170834Y-74967563D01*
X108193443Y-74973227D01*
X108215387Y-74981079D01*
X108236457Y-74991044D01*
X108256448Y-75003026D01*
X108275168Y-75016910D01*
X108292438Y-75032562D01*
X108308090Y-75049832D01*
X108321974Y-75068552D01*
X108333956Y-75088543D01*
X108343921Y-75109613D01*
X108351773Y-75131557D01*
X108357437Y-75154166D01*
X108360856Y-75177221D01*
X108362000Y-75200500D01*
X108362000Y-75675500D01*
X108360856Y-75698779D01*
X108357437Y-75721834D01*
X108351773Y-75744443D01*
X108343921Y-75766387D01*
X108333956Y-75787457D01*
X108321974Y-75807448D01*
X108308090Y-75826168D01*
X108292438Y-75843438D01*
X108275168Y-75859090D01*
X108256448Y-75872974D01*
X108236457Y-75884956D01*
X108215387Y-75894921D01*
X108193443Y-75902773D01*
X108170834Y-75908437D01*
X108147779Y-75911856D01*
X108124500Y-75913000D01*
X107549500Y-75913000D01*
X107526221Y-75911856D01*
X107503166Y-75908437D01*
X107480557Y-75902773D01*
X107458613Y-75894921D01*
X107437543Y-75884956D01*
X107417552Y-75872974D01*
X107398832Y-75859090D01*
X107381562Y-75843438D01*
X107365910Y-75826168D01*
X107352026Y-75807448D01*
X107340044Y-75787457D01*
X107330079Y-75766387D01*
X107322227Y-75744443D01*
X107316563Y-75721834D01*
X107313144Y-75698779D01*
X107312000Y-75675500D01*
X107312000Y-75200500D01*
X107313144Y-75177221D01*
X107316563Y-75154166D01*
X107322227Y-75131557D01*
X107330079Y-75109613D01*
X107340044Y-75088543D01*
X107352026Y-75068552D01*
X107365910Y-75049832D01*
X107381562Y-75032562D01*
X107398832Y-75016910D01*
X107417552Y-75003026D01*
X107437543Y-74991044D01*
X107458613Y-74981079D01*
X107480557Y-74973227D01*
X107503166Y-74967563D01*
X107526221Y-74964144D01*
X107549500Y-74963000D01*
X108124500Y-74963000D01*
X108147779Y-74964144D01*
X108147779Y-74964144D01*
G37*
D11*
X107837000Y-75438000D03*
G04 #@! TD*
D10*
G04 #@! TO.C,R16*
G36*
X93895779Y-74964144D02*
X93918834Y-74967563D01*
X93941443Y-74973227D01*
X93963387Y-74981079D01*
X93984457Y-74991044D01*
X94004448Y-75003026D01*
X94023168Y-75016910D01*
X94040438Y-75032562D01*
X94056090Y-75049832D01*
X94069974Y-75068552D01*
X94081956Y-75088543D01*
X94091921Y-75109613D01*
X94099773Y-75131557D01*
X94105437Y-75154166D01*
X94108856Y-75177221D01*
X94110000Y-75200500D01*
X94110000Y-75675500D01*
X94108856Y-75698779D01*
X94105437Y-75721834D01*
X94099773Y-75744443D01*
X94091921Y-75766387D01*
X94081956Y-75787457D01*
X94069974Y-75807448D01*
X94056090Y-75826168D01*
X94040438Y-75843438D01*
X94023168Y-75859090D01*
X94004448Y-75872974D01*
X93984457Y-75884956D01*
X93963387Y-75894921D01*
X93941443Y-75902773D01*
X93918834Y-75908437D01*
X93895779Y-75911856D01*
X93872500Y-75913000D01*
X93297500Y-75913000D01*
X93274221Y-75911856D01*
X93251166Y-75908437D01*
X93228557Y-75902773D01*
X93206613Y-75894921D01*
X93185543Y-75884956D01*
X93165552Y-75872974D01*
X93146832Y-75859090D01*
X93129562Y-75843438D01*
X93113910Y-75826168D01*
X93100026Y-75807448D01*
X93088044Y-75787457D01*
X93078079Y-75766387D01*
X93070227Y-75744443D01*
X93064563Y-75721834D01*
X93061144Y-75698779D01*
X93060000Y-75675500D01*
X93060000Y-75200500D01*
X93061144Y-75177221D01*
X93064563Y-75154166D01*
X93070227Y-75131557D01*
X93078079Y-75109613D01*
X93088044Y-75088543D01*
X93100026Y-75068552D01*
X93113910Y-75049832D01*
X93129562Y-75032562D01*
X93146832Y-75016910D01*
X93165552Y-75003026D01*
X93185543Y-74991044D01*
X93206613Y-74981079D01*
X93228557Y-74973227D01*
X93251166Y-74967563D01*
X93274221Y-74964144D01*
X93297500Y-74963000D01*
X93872500Y-74963000D01*
X93895779Y-74964144D01*
X93895779Y-74964144D01*
G37*
D11*
X93585000Y-75438000D03*
D10*
G36*
X92145779Y-74964144D02*
X92168834Y-74967563D01*
X92191443Y-74973227D01*
X92213387Y-74981079D01*
X92234457Y-74991044D01*
X92254448Y-75003026D01*
X92273168Y-75016910D01*
X92290438Y-75032562D01*
X92306090Y-75049832D01*
X92319974Y-75068552D01*
X92331956Y-75088543D01*
X92341921Y-75109613D01*
X92349773Y-75131557D01*
X92355437Y-75154166D01*
X92358856Y-75177221D01*
X92360000Y-75200500D01*
X92360000Y-75675500D01*
X92358856Y-75698779D01*
X92355437Y-75721834D01*
X92349773Y-75744443D01*
X92341921Y-75766387D01*
X92331956Y-75787457D01*
X92319974Y-75807448D01*
X92306090Y-75826168D01*
X92290438Y-75843438D01*
X92273168Y-75859090D01*
X92254448Y-75872974D01*
X92234457Y-75884956D01*
X92213387Y-75894921D01*
X92191443Y-75902773D01*
X92168834Y-75908437D01*
X92145779Y-75911856D01*
X92122500Y-75913000D01*
X91547500Y-75913000D01*
X91524221Y-75911856D01*
X91501166Y-75908437D01*
X91478557Y-75902773D01*
X91456613Y-75894921D01*
X91435543Y-75884956D01*
X91415552Y-75872974D01*
X91396832Y-75859090D01*
X91379562Y-75843438D01*
X91363910Y-75826168D01*
X91350026Y-75807448D01*
X91338044Y-75787457D01*
X91328079Y-75766387D01*
X91320227Y-75744443D01*
X91314563Y-75721834D01*
X91311144Y-75698779D01*
X91310000Y-75675500D01*
X91310000Y-75200500D01*
X91311144Y-75177221D01*
X91314563Y-75154166D01*
X91320227Y-75131557D01*
X91328079Y-75109613D01*
X91338044Y-75088543D01*
X91350026Y-75068552D01*
X91363910Y-75049832D01*
X91379562Y-75032562D01*
X91396832Y-75016910D01*
X91415552Y-75003026D01*
X91435543Y-74991044D01*
X91456613Y-74981079D01*
X91478557Y-74973227D01*
X91501166Y-74967563D01*
X91524221Y-74964144D01*
X91547500Y-74963000D01*
X92122500Y-74963000D01*
X92145779Y-74964144D01*
X92145779Y-74964144D01*
G37*
D11*
X91835000Y-75438000D03*
G04 #@! TD*
D10*
G04 #@! TO.C,R2*
G36*
X154093779Y-74964144D02*
X154116834Y-74967563D01*
X154139443Y-74973227D01*
X154161387Y-74981079D01*
X154182457Y-74991044D01*
X154202448Y-75003026D01*
X154221168Y-75016910D01*
X154238438Y-75032562D01*
X154254090Y-75049832D01*
X154267974Y-75068552D01*
X154279956Y-75088543D01*
X154289921Y-75109613D01*
X154297773Y-75131557D01*
X154303437Y-75154166D01*
X154306856Y-75177221D01*
X154308000Y-75200500D01*
X154308000Y-75675500D01*
X154306856Y-75698779D01*
X154303437Y-75721834D01*
X154297773Y-75744443D01*
X154289921Y-75766387D01*
X154279956Y-75787457D01*
X154267974Y-75807448D01*
X154254090Y-75826168D01*
X154238438Y-75843438D01*
X154221168Y-75859090D01*
X154202448Y-75872974D01*
X154182457Y-75884956D01*
X154161387Y-75894921D01*
X154139443Y-75902773D01*
X154116834Y-75908437D01*
X154093779Y-75911856D01*
X154070500Y-75913000D01*
X153495500Y-75913000D01*
X153472221Y-75911856D01*
X153449166Y-75908437D01*
X153426557Y-75902773D01*
X153404613Y-75894921D01*
X153383543Y-75884956D01*
X153363552Y-75872974D01*
X153344832Y-75859090D01*
X153327562Y-75843438D01*
X153311910Y-75826168D01*
X153298026Y-75807448D01*
X153286044Y-75787457D01*
X153276079Y-75766387D01*
X153268227Y-75744443D01*
X153262563Y-75721834D01*
X153259144Y-75698779D01*
X153258000Y-75675500D01*
X153258000Y-75200500D01*
X153259144Y-75177221D01*
X153262563Y-75154166D01*
X153268227Y-75131557D01*
X153276079Y-75109613D01*
X153286044Y-75088543D01*
X153298026Y-75068552D01*
X153311910Y-75049832D01*
X153327562Y-75032562D01*
X153344832Y-75016910D01*
X153363552Y-75003026D01*
X153383543Y-74991044D01*
X153404613Y-74981079D01*
X153426557Y-74973227D01*
X153449166Y-74967563D01*
X153472221Y-74964144D01*
X153495500Y-74963000D01*
X154070500Y-74963000D01*
X154093779Y-74964144D01*
X154093779Y-74964144D01*
G37*
D11*
X153783000Y-75438000D03*
D10*
G36*
X152343779Y-74964144D02*
X152366834Y-74967563D01*
X152389443Y-74973227D01*
X152411387Y-74981079D01*
X152432457Y-74991044D01*
X152452448Y-75003026D01*
X152471168Y-75016910D01*
X152488438Y-75032562D01*
X152504090Y-75049832D01*
X152517974Y-75068552D01*
X152529956Y-75088543D01*
X152539921Y-75109613D01*
X152547773Y-75131557D01*
X152553437Y-75154166D01*
X152556856Y-75177221D01*
X152558000Y-75200500D01*
X152558000Y-75675500D01*
X152556856Y-75698779D01*
X152553437Y-75721834D01*
X152547773Y-75744443D01*
X152539921Y-75766387D01*
X152529956Y-75787457D01*
X152517974Y-75807448D01*
X152504090Y-75826168D01*
X152488438Y-75843438D01*
X152471168Y-75859090D01*
X152452448Y-75872974D01*
X152432457Y-75884956D01*
X152411387Y-75894921D01*
X152389443Y-75902773D01*
X152366834Y-75908437D01*
X152343779Y-75911856D01*
X152320500Y-75913000D01*
X151745500Y-75913000D01*
X151722221Y-75911856D01*
X151699166Y-75908437D01*
X151676557Y-75902773D01*
X151654613Y-75894921D01*
X151633543Y-75884956D01*
X151613552Y-75872974D01*
X151594832Y-75859090D01*
X151577562Y-75843438D01*
X151561910Y-75826168D01*
X151548026Y-75807448D01*
X151536044Y-75787457D01*
X151526079Y-75766387D01*
X151518227Y-75744443D01*
X151512563Y-75721834D01*
X151509144Y-75698779D01*
X151508000Y-75675500D01*
X151508000Y-75200500D01*
X151509144Y-75177221D01*
X151512563Y-75154166D01*
X151518227Y-75131557D01*
X151526079Y-75109613D01*
X151536044Y-75088543D01*
X151548026Y-75068552D01*
X151561910Y-75049832D01*
X151577562Y-75032562D01*
X151594832Y-75016910D01*
X151613552Y-75003026D01*
X151633543Y-74991044D01*
X151654613Y-74981079D01*
X151676557Y-74973227D01*
X151699166Y-74967563D01*
X151722221Y-74964144D01*
X151745500Y-74963000D01*
X152320500Y-74963000D01*
X152343779Y-74964144D01*
X152343779Y-74964144D01*
G37*
D11*
X152033000Y-75438000D03*
G04 #@! TD*
D10*
G04 #@! TO.C,R1*
G36*
X156915779Y-79536144D02*
X156938834Y-79539563D01*
X156961443Y-79545227D01*
X156983387Y-79553079D01*
X157004457Y-79563044D01*
X157024448Y-79575026D01*
X157043168Y-79588910D01*
X157060438Y-79604562D01*
X157076090Y-79621832D01*
X157089974Y-79640552D01*
X157101956Y-79660543D01*
X157111921Y-79681613D01*
X157119773Y-79703557D01*
X157125437Y-79726166D01*
X157128856Y-79749221D01*
X157130000Y-79772500D01*
X157130000Y-80247500D01*
X157128856Y-80270779D01*
X157125437Y-80293834D01*
X157119773Y-80316443D01*
X157111921Y-80338387D01*
X157101956Y-80359457D01*
X157089974Y-80379448D01*
X157076090Y-80398168D01*
X157060438Y-80415438D01*
X157043168Y-80431090D01*
X157024448Y-80444974D01*
X157004457Y-80456956D01*
X156983387Y-80466921D01*
X156961443Y-80474773D01*
X156938834Y-80480437D01*
X156915779Y-80483856D01*
X156892500Y-80485000D01*
X156317500Y-80485000D01*
X156294221Y-80483856D01*
X156271166Y-80480437D01*
X156248557Y-80474773D01*
X156226613Y-80466921D01*
X156205543Y-80456956D01*
X156185552Y-80444974D01*
X156166832Y-80431090D01*
X156149562Y-80415438D01*
X156133910Y-80398168D01*
X156120026Y-80379448D01*
X156108044Y-80359457D01*
X156098079Y-80338387D01*
X156090227Y-80316443D01*
X156084563Y-80293834D01*
X156081144Y-80270779D01*
X156080000Y-80247500D01*
X156080000Y-79772500D01*
X156081144Y-79749221D01*
X156084563Y-79726166D01*
X156090227Y-79703557D01*
X156098079Y-79681613D01*
X156108044Y-79660543D01*
X156120026Y-79640552D01*
X156133910Y-79621832D01*
X156149562Y-79604562D01*
X156166832Y-79588910D01*
X156185552Y-79575026D01*
X156205543Y-79563044D01*
X156226613Y-79553079D01*
X156248557Y-79545227D01*
X156271166Y-79539563D01*
X156294221Y-79536144D01*
X156317500Y-79535000D01*
X156892500Y-79535000D01*
X156915779Y-79536144D01*
X156915779Y-79536144D01*
G37*
D11*
X156605000Y-80010000D03*
D10*
G36*
X158665779Y-79536144D02*
X158688834Y-79539563D01*
X158711443Y-79545227D01*
X158733387Y-79553079D01*
X158754457Y-79563044D01*
X158774448Y-79575026D01*
X158793168Y-79588910D01*
X158810438Y-79604562D01*
X158826090Y-79621832D01*
X158839974Y-79640552D01*
X158851956Y-79660543D01*
X158861921Y-79681613D01*
X158869773Y-79703557D01*
X158875437Y-79726166D01*
X158878856Y-79749221D01*
X158880000Y-79772500D01*
X158880000Y-80247500D01*
X158878856Y-80270779D01*
X158875437Y-80293834D01*
X158869773Y-80316443D01*
X158861921Y-80338387D01*
X158851956Y-80359457D01*
X158839974Y-80379448D01*
X158826090Y-80398168D01*
X158810438Y-80415438D01*
X158793168Y-80431090D01*
X158774448Y-80444974D01*
X158754457Y-80456956D01*
X158733387Y-80466921D01*
X158711443Y-80474773D01*
X158688834Y-80480437D01*
X158665779Y-80483856D01*
X158642500Y-80485000D01*
X158067500Y-80485000D01*
X158044221Y-80483856D01*
X158021166Y-80480437D01*
X157998557Y-80474773D01*
X157976613Y-80466921D01*
X157955543Y-80456956D01*
X157935552Y-80444974D01*
X157916832Y-80431090D01*
X157899562Y-80415438D01*
X157883910Y-80398168D01*
X157870026Y-80379448D01*
X157858044Y-80359457D01*
X157848079Y-80338387D01*
X157840227Y-80316443D01*
X157834563Y-80293834D01*
X157831144Y-80270779D01*
X157830000Y-80247500D01*
X157830000Y-79772500D01*
X157831144Y-79749221D01*
X157834563Y-79726166D01*
X157840227Y-79703557D01*
X157848079Y-79681613D01*
X157858044Y-79660543D01*
X157870026Y-79640552D01*
X157883910Y-79621832D01*
X157899562Y-79604562D01*
X157916832Y-79588910D01*
X157935552Y-79575026D01*
X157955543Y-79563044D01*
X157976613Y-79553079D01*
X157998557Y-79545227D01*
X158021166Y-79539563D01*
X158044221Y-79536144D01*
X158067500Y-79535000D01*
X158642500Y-79535000D01*
X158665779Y-79536144D01*
X158665779Y-79536144D01*
G37*
D11*
X158355000Y-80010000D03*
G04 #@! TD*
D10*
G04 #@! TO.C,R8*
G36*
X88180779Y-75726144D02*
X88203834Y-75729563D01*
X88226443Y-75735227D01*
X88248387Y-75743079D01*
X88269457Y-75753044D01*
X88289448Y-75765026D01*
X88308168Y-75778910D01*
X88325438Y-75794562D01*
X88341090Y-75811832D01*
X88354974Y-75830552D01*
X88366956Y-75850543D01*
X88376921Y-75871613D01*
X88384773Y-75893557D01*
X88390437Y-75916166D01*
X88393856Y-75939221D01*
X88395000Y-75962500D01*
X88395000Y-76437500D01*
X88393856Y-76460779D01*
X88390437Y-76483834D01*
X88384773Y-76506443D01*
X88376921Y-76528387D01*
X88366956Y-76549457D01*
X88354974Y-76569448D01*
X88341090Y-76588168D01*
X88325438Y-76605438D01*
X88308168Y-76621090D01*
X88289448Y-76634974D01*
X88269457Y-76646956D01*
X88248387Y-76656921D01*
X88226443Y-76664773D01*
X88203834Y-76670437D01*
X88180779Y-76673856D01*
X88157500Y-76675000D01*
X87582500Y-76675000D01*
X87559221Y-76673856D01*
X87536166Y-76670437D01*
X87513557Y-76664773D01*
X87491613Y-76656921D01*
X87470543Y-76646956D01*
X87450552Y-76634974D01*
X87431832Y-76621090D01*
X87414562Y-76605438D01*
X87398910Y-76588168D01*
X87385026Y-76569448D01*
X87373044Y-76549457D01*
X87363079Y-76528387D01*
X87355227Y-76506443D01*
X87349563Y-76483834D01*
X87346144Y-76460779D01*
X87345000Y-76437500D01*
X87345000Y-75962500D01*
X87346144Y-75939221D01*
X87349563Y-75916166D01*
X87355227Y-75893557D01*
X87363079Y-75871613D01*
X87373044Y-75850543D01*
X87385026Y-75830552D01*
X87398910Y-75811832D01*
X87414562Y-75794562D01*
X87431832Y-75778910D01*
X87450552Y-75765026D01*
X87470543Y-75753044D01*
X87491613Y-75743079D01*
X87513557Y-75735227D01*
X87536166Y-75729563D01*
X87559221Y-75726144D01*
X87582500Y-75725000D01*
X88157500Y-75725000D01*
X88180779Y-75726144D01*
X88180779Y-75726144D01*
G37*
D11*
X87870000Y-76200000D03*
D10*
G36*
X86430779Y-75726144D02*
X86453834Y-75729563D01*
X86476443Y-75735227D01*
X86498387Y-75743079D01*
X86519457Y-75753044D01*
X86539448Y-75765026D01*
X86558168Y-75778910D01*
X86575438Y-75794562D01*
X86591090Y-75811832D01*
X86604974Y-75830552D01*
X86616956Y-75850543D01*
X86626921Y-75871613D01*
X86634773Y-75893557D01*
X86640437Y-75916166D01*
X86643856Y-75939221D01*
X86645000Y-75962500D01*
X86645000Y-76437500D01*
X86643856Y-76460779D01*
X86640437Y-76483834D01*
X86634773Y-76506443D01*
X86626921Y-76528387D01*
X86616956Y-76549457D01*
X86604974Y-76569448D01*
X86591090Y-76588168D01*
X86575438Y-76605438D01*
X86558168Y-76621090D01*
X86539448Y-76634974D01*
X86519457Y-76646956D01*
X86498387Y-76656921D01*
X86476443Y-76664773D01*
X86453834Y-76670437D01*
X86430779Y-76673856D01*
X86407500Y-76675000D01*
X85832500Y-76675000D01*
X85809221Y-76673856D01*
X85786166Y-76670437D01*
X85763557Y-76664773D01*
X85741613Y-76656921D01*
X85720543Y-76646956D01*
X85700552Y-76634974D01*
X85681832Y-76621090D01*
X85664562Y-76605438D01*
X85648910Y-76588168D01*
X85635026Y-76569448D01*
X85623044Y-76549457D01*
X85613079Y-76528387D01*
X85605227Y-76506443D01*
X85599563Y-76483834D01*
X85596144Y-76460779D01*
X85595000Y-76437500D01*
X85595000Y-75962500D01*
X85596144Y-75939221D01*
X85599563Y-75916166D01*
X85605227Y-75893557D01*
X85613079Y-75871613D01*
X85623044Y-75850543D01*
X85635026Y-75830552D01*
X85648910Y-75811832D01*
X85664562Y-75794562D01*
X85681832Y-75778910D01*
X85700552Y-75765026D01*
X85720543Y-75753044D01*
X85741613Y-75743079D01*
X85763557Y-75735227D01*
X85786166Y-75729563D01*
X85809221Y-75726144D01*
X85832500Y-75725000D01*
X86407500Y-75725000D01*
X86430779Y-75726144D01*
X86430779Y-75726144D01*
G37*
D11*
X86120000Y-76200000D03*
G04 #@! TD*
D10*
G04 #@! TO.C,R9*
G36*
X165614779Y-75309144D02*
X165637834Y-75312563D01*
X165660443Y-75318227D01*
X165682387Y-75326079D01*
X165703457Y-75336044D01*
X165723448Y-75348026D01*
X165742168Y-75361910D01*
X165759438Y-75377562D01*
X165775090Y-75394832D01*
X165788974Y-75413552D01*
X165800956Y-75433543D01*
X165810921Y-75454613D01*
X165818773Y-75476557D01*
X165824437Y-75499166D01*
X165827856Y-75522221D01*
X165829000Y-75545500D01*
X165829000Y-76120500D01*
X165827856Y-76143779D01*
X165824437Y-76166834D01*
X165818773Y-76189443D01*
X165810921Y-76211387D01*
X165800956Y-76232457D01*
X165788974Y-76252448D01*
X165775090Y-76271168D01*
X165759438Y-76288438D01*
X165742168Y-76304090D01*
X165723448Y-76317974D01*
X165703457Y-76329956D01*
X165682387Y-76339921D01*
X165660443Y-76347773D01*
X165637834Y-76353437D01*
X165614779Y-76356856D01*
X165591500Y-76358000D01*
X165116500Y-76358000D01*
X165093221Y-76356856D01*
X165070166Y-76353437D01*
X165047557Y-76347773D01*
X165025613Y-76339921D01*
X165004543Y-76329956D01*
X164984552Y-76317974D01*
X164965832Y-76304090D01*
X164948562Y-76288438D01*
X164932910Y-76271168D01*
X164919026Y-76252448D01*
X164907044Y-76232457D01*
X164897079Y-76211387D01*
X164889227Y-76189443D01*
X164883563Y-76166834D01*
X164880144Y-76143779D01*
X164879000Y-76120500D01*
X164879000Y-75545500D01*
X164880144Y-75522221D01*
X164883563Y-75499166D01*
X164889227Y-75476557D01*
X164897079Y-75454613D01*
X164907044Y-75433543D01*
X164919026Y-75413552D01*
X164932910Y-75394832D01*
X164948562Y-75377562D01*
X164965832Y-75361910D01*
X164984552Y-75348026D01*
X165004543Y-75336044D01*
X165025613Y-75326079D01*
X165047557Y-75318227D01*
X165070166Y-75312563D01*
X165093221Y-75309144D01*
X165116500Y-75308000D01*
X165591500Y-75308000D01*
X165614779Y-75309144D01*
X165614779Y-75309144D01*
G37*
D11*
X165354000Y-75833000D03*
D10*
G36*
X165614779Y-77059144D02*
X165637834Y-77062563D01*
X165660443Y-77068227D01*
X165682387Y-77076079D01*
X165703457Y-77086044D01*
X165723448Y-77098026D01*
X165742168Y-77111910D01*
X165759438Y-77127562D01*
X165775090Y-77144832D01*
X165788974Y-77163552D01*
X165800956Y-77183543D01*
X165810921Y-77204613D01*
X165818773Y-77226557D01*
X165824437Y-77249166D01*
X165827856Y-77272221D01*
X165829000Y-77295500D01*
X165829000Y-77870500D01*
X165827856Y-77893779D01*
X165824437Y-77916834D01*
X165818773Y-77939443D01*
X165810921Y-77961387D01*
X165800956Y-77982457D01*
X165788974Y-78002448D01*
X165775090Y-78021168D01*
X165759438Y-78038438D01*
X165742168Y-78054090D01*
X165723448Y-78067974D01*
X165703457Y-78079956D01*
X165682387Y-78089921D01*
X165660443Y-78097773D01*
X165637834Y-78103437D01*
X165614779Y-78106856D01*
X165591500Y-78108000D01*
X165116500Y-78108000D01*
X165093221Y-78106856D01*
X165070166Y-78103437D01*
X165047557Y-78097773D01*
X165025613Y-78089921D01*
X165004543Y-78079956D01*
X164984552Y-78067974D01*
X164965832Y-78054090D01*
X164948562Y-78038438D01*
X164932910Y-78021168D01*
X164919026Y-78002448D01*
X164907044Y-77982457D01*
X164897079Y-77961387D01*
X164889227Y-77939443D01*
X164883563Y-77916834D01*
X164880144Y-77893779D01*
X164879000Y-77870500D01*
X164879000Y-77295500D01*
X164880144Y-77272221D01*
X164883563Y-77249166D01*
X164889227Y-77226557D01*
X164897079Y-77204613D01*
X164907044Y-77183543D01*
X164919026Y-77163552D01*
X164932910Y-77144832D01*
X164948562Y-77127562D01*
X164965832Y-77111910D01*
X164984552Y-77098026D01*
X165004543Y-77086044D01*
X165025613Y-77076079D01*
X165047557Y-77068227D01*
X165070166Y-77062563D01*
X165093221Y-77059144D01*
X165116500Y-77058000D01*
X165591500Y-77058000D01*
X165614779Y-77059144D01*
X165614779Y-77059144D01*
G37*
D11*
X165354000Y-77583000D03*
G04 #@! TD*
D10*
G04 #@! TO.C,R10*
G36*
X156915779Y-74964144D02*
X156938834Y-74967563D01*
X156961443Y-74973227D01*
X156983387Y-74981079D01*
X157004457Y-74991044D01*
X157024448Y-75003026D01*
X157043168Y-75016910D01*
X157060438Y-75032562D01*
X157076090Y-75049832D01*
X157089974Y-75068552D01*
X157101956Y-75088543D01*
X157111921Y-75109613D01*
X157119773Y-75131557D01*
X157125437Y-75154166D01*
X157128856Y-75177221D01*
X157130000Y-75200500D01*
X157130000Y-75675500D01*
X157128856Y-75698779D01*
X157125437Y-75721834D01*
X157119773Y-75744443D01*
X157111921Y-75766387D01*
X157101956Y-75787457D01*
X157089974Y-75807448D01*
X157076090Y-75826168D01*
X157060438Y-75843438D01*
X157043168Y-75859090D01*
X157024448Y-75872974D01*
X157004457Y-75884956D01*
X156983387Y-75894921D01*
X156961443Y-75902773D01*
X156938834Y-75908437D01*
X156915779Y-75911856D01*
X156892500Y-75913000D01*
X156317500Y-75913000D01*
X156294221Y-75911856D01*
X156271166Y-75908437D01*
X156248557Y-75902773D01*
X156226613Y-75894921D01*
X156205543Y-75884956D01*
X156185552Y-75872974D01*
X156166832Y-75859090D01*
X156149562Y-75843438D01*
X156133910Y-75826168D01*
X156120026Y-75807448D01*
X156108044Y-75787457D01*
X156098079Y-75766387D01*
X156090227Y-75744443D01*
X156084563Y-75721834D01*
X156081144Y-75698779D01*
X156080000Y-75675500D01*
X156080000Y-75200500D01*
X156081144Y-75177221D01*
X156084563Y-75154166D01*
X156090227Y-75131557D01*
X156098079Y-75109613D01*
X156108044Y-75088543D01*
X156120026Y-75068552D01*
X156133910Y-75049832D01*
X156149562Y-75032562D01*
X156166832Y-75016910D01*
X156185552Y-75003026D01*
X156205543Y-74991044D01*
X156226613Y-74981079D01*
X156248557Y-74973227D01*
X156271166Y-74967563D01*
X156294221Y-74964144D01*
X156317500Y-74963000D01*
X156892500Y-74963000D01*
X156915779Y-74964144D01*
X156915779Y-74964144D01*
G37*
D11*
X156605000Y-75438000D03*
D10*
G36*
X158665779Y-74964144D02*
X158688834Y-74967563D01*
X158711443Y-74973227D01*
X158733387Y-74981079D01*
X158754457Y-74991044D01*
X158774448Y-75003026D01*
X158793168Y-75016910D01*
X158810438Y-75032562D01*
X158826090Y-75049832D01*
X158839974Y-75068552D01*
X158851956Y-75088543D01*
X158861921Y-75109613D01*
X158869773Y-75131557D01*
X158875437Y-75154166D01*
X158878856Y-75177221D01*
X158880000Y-75200500D01*
X158880000Y-75675500D01*
X158878856Y-75698779D01*
X158875437Y-75721834D01*
X158869773Y-75744443D01*
X158861921Y-75766387D01*
X158851956Y-75787457D01*
X158839974Y-75807448D01*
X158826090Y-75826168D01*
X158810438Y-75843438D01*
X158793168Y-75859090D01*
X158774448Y-75872974D01*
X158754457Y-75884956D01*
X158733387Y-75894921D01*
X158711443Y-75902773D01*
X158688834Y-75908437D01*
X158665779Y-75911856D01*
X158642500Y-75913000D01*
X158067500Y-75913000D01*
X158044221Y-75911856D01*
X158021166Y-75908437D01*
X157998557Y-75902773D01*
X157976613Y-75894921D01*
X157955543Y-75884956D01*
X157935552Y-75872974D01*
X157916832Y-75859090D01*
X157899562Y-75843438D01*
X157883910Y-75826168D01*
X157870026Y-75807448D01*
X157858044Y-75787457D01*
X157848079Y-75766387D01*
X157840227Y-75744443D01*
X157834563Y-75721834D01*
X157831144Y-75698779D01*
X157830000Y-75675500D01*
X157830000Y-75200500D01*
X157831144Y-75177221D01*
X157834563Y-75154166D01*
X157840227Y-75131557D01*
X157848079Y-75109613D01*
X157858044Y-75088543D01*
X157870026Y-75068552D01*
X157883910Y-75049832D01*
X157899562Y-75032562D01*
X157916832Y-75016910D01*
X157935552Y-75003026D01*
X157955543Y-74991044D01*
X157976613Y-74981079D01*
X157998557Y-74973227D01*
X158021166Y-74967563D01*
X158044221Y-74964144D01*
X158067500Y-74963000D01*
X158642500Y-74963000D01*
X158665779Y-74964144D01*
X158665779Y-74964144D01*
G37*
D11*
X158355000Y-75438000D03*
G04 #@! TD*
D10*
G04 #@! TO.C,R11*
G36*
X144024779Y-75309144D02*
X144047834Y-75312563D01*
X144070443Y-75318227D01*
X144092387Y-75326079D01*
X144113457Y-75336044D01*
X144133448Y-75348026D01*
X144152168Y-75361910D01*
X144169438Y-75377562D01*
X144185090Y-75394832D01*
X144198974Y-75413552D01*
X144210956Y-75433543D01*
X144220921Y-75454613D01*
X144228773Y-75476557D01*
X144234437Y-75499166D01*
X144237856Y-75522221D01*
X144239000Y-75545500D01*
X144239000Y-76120500D01*
X144237856Y-76143779D01*
X144234437Y-76166834D01*
X144228773Y-76189443D01*
X144220921Y-76211387D01*
X144210956Y-76232457D01*
X144198974Y-76252448D01*
X144185090Y-76271168D01*
X144169438Y-76288438D01*
X144152168Y-76304090D01*
X144133448Y-76317974D01*
X144113457Y-76329956D01*
X144092387Y-76339921D01*
X144070443Y-76347773D01*
X144047834Y-76353437D01*
X144024779Y-76356856D01*
X144001500Y-76358000D01*
X143526500Y-76358000D01*
X143503221Y-76356856D01*
X143480166Y-76353437D01*
X143457557Y-76347773D01*
X143435613Y-76339921D01*
X143414543Y-76329956D01*
X143394552Y-76317974D01*
X143375832Y-76304090D01*
X143358562Y-76288438D01*
X143342910Y-76271168D01*
X143329026Y-76252448D01*
X143317044Y-76232457D01*
X143307079Y-76211387D01*
X143299227Y-76189443D01*
X143293563Y-76166834D01*
X143290144Y-76143779D01*
X143289000Y-76120500D01*
X143289000Y-75545500D01*
X143290144Y-75522221D01*
X143293563Y-75499166D01*
X143299227Y-75476557D01*
X143307079Y-75454613D01*
X143317044Y-75433543D01*
X143329026Y-75413552D01*
X143342910Y-75394832D01*
X143358562Y-75377562D01*
X143375832Y-75361910D01*
X143394552Y-75348026D01*
X143414543Y-75336044D01*
X143435613Y-75326079D01*
X143457557Y-75318227D01*
X143480166Y-75312563D01*
X143503221Y-75309144D01*
X143526500Y-75308000D01*
X144001500Y-75308000D01*
X144024779Y-75309144D01*
X144024779Y-75309144D01*
G37*
D11*
X143764000Y-75833000D03*
D10*
G36*
X144024779Y-77059144D02*
X144047834Y-77062563D01*
X144070443Y-77068227D01*
X144092387Y-77076079D01*
X144113457Y-77086044D01*
X144133448Y-77098026D01*
X144152168Y-77111910D01*
X144169438Y-77127562D01*
X144185090Y-77144832D01*
X144198974Y-77163552D01*
X144210956Y-77183543D01*
X144220921Y-77204613D01*
X144228773Y-77226557D01*
X144234437Y-77249166D01*
X144237856Y-77272221D01*
X144239000Y-77295500D01*
X144239000Y-77870500D01*
X144237856Y-77893779D01*
X144234437Y-77916834D01*
X144228773Y-77939443D01*
X144220921Y-77961387D01*
X144210956Y-77982457D01*
X144198974Y-78002448D01*
X144185090Y-78021168D01*
X144169438Y-78038438D01*
X144152168Y-78054090D01*
X144133448Y-78067974D01*
X144113457Y-78079956D01*
X144092387Y-78089921D01*
X144070443Y-78097773D01*
X144047834Y-78103437D01*
X144024779Y-78106856D01*
X144001500Y-78108000D01*
X143526500Y-78108000D01*
X143503221Y-78106856D01*
X143480166Y-78103437D01*
X143457557Y-78097773D01*
X143435613Y-78089921D01*
X143414543Y-78079956D01*
X143394552Y-78067974D01*
X143375832Y-78054090D01*
X143358562Y-78038438D01*
X143342910Y-78021168D01*
X143329026Y-78002448D01*
X143317044Y-77982457D01*
X143307079Y-77961387D01*
X143299227Y-77939443D01*
X143293563Y-77916834D01*
X143290144Y-77893779D01*
X143289000Y-77870500D01*
X143289000Y-77295500D01*
X143290144Y-77272221D01*
X143293563Y-77249166D01*
X143299227Y-77226557D01*
X143307079Y-77204613D01*
X143317044Y-77183543D01*
X143329026Y-77163552D01*
X143342910Y-77144832D01*
X143358562Y-77127562D01*
X143375832Y-77111910D01*
X143394552Y-77098026D01*
X143414543Y-77086044D01*
X143435613Y-77076079D01*
X143457557Y-77068227D01*
X143480166Y-77062563D01*
X143503221Y-77059144D01*
X143526500Y-77058000D01*
X144001500Y-77058000D01*
X144024779Y-77059144D01*
X144024779Y-77059144D01*
G37*
D11*
X143764000Y-77583000D03*
G04 #@! TD*
D10*
G04 #@! TO.C,R12*
G36*
X135325779Y-74964144D02*
X135348834Y-74967563D01*
X135371443Y-74973227D01*
X135393387Y-74981079D01*
X135414457Y-74991044D01*
X135434448Y-75003026D01*
X135453168Y-75016910D01*
X135470438Y-75032562D01*
X135486090Y-75049832D01*
X135499974Y-75068552D01*
X135511956Y-75088543D01*
X135521921Y-75109613D01*
X135529773Y-75131557D01*
X135535437Y-75154166D01*
X135538856Y-75177221D01*
X135540000Y-75200500D01*
X135540000Y-75675500D01*
X135538856Y-75698779D01*
X135535437Y-75721834D01*
X135529773Y-75744443D01*
X135521921Y-75766387D01*
X135511956Y-75787457D01*
X135499974Y-75807448D01*
X135486090Y-75826168D01*
X135470438Y-75843438D01*
X135453168Y-75859090D01*
X135434448Y-75872974D01*
X135414457Y-75884956D01*
X135393387Y-75894921D01*
X135371443Y-75902773D01*
X135348834Y-75908437D01*
X135325779Y-75911856D01*
X135302500Y-75913000D01*
X134727500Y-75913000D01*
X134704221Y-75911856D01*
X134681166Y-75908437D01*
X134658557Y-75902773D01*
X134636613Y-75894921D01*
X134615543Y-75884956D01*
X134595552Y-75872974D01*
X134576832Y-75859090D01*
X134559562Y-75843438D01*
X134543910Y-75826168D01*
X134530026Y-75807448D01*
X134518044Y-75787457D01*
X134508079Y-75766387D01*
X134500227Y-75744443D01*
X134494563Y-75721834D01*
X134491144Y-75698779D01*
X134490000Y-75675500D01*
X134490000Y-75200500D01*
X134491144Y-75177221D01*
X134494563Y-75154166D01*
X134500227Y-75131557D01*
X134508079Y-75109613D01*
X134518044Y-75088543D01*
X134530026Y-75068552D01*
X134543910Y-75049832D01*
X134559562Y-75032562D01*
X134576832Y-75016910D01*
X134595552Y-75003026D01*
X134615543Y-74991044D01*
X134636613Y-74981079D01*
X134658557Y-74973227D01*
X134681166Y-74967563D01*
X134704221Y-74964144D01*
X134727500Y-74963000D01*
X135302500Y-74963000D01*
X135325779Y-74964144D01*
X135325779Y-74964144D01*
G37*
D11*
X135015000Y-75438000D03*
D10*
G36*
X137075779Y-74964144D02*
X137098834Y-74967563D01*
X137121443Y-74973227D01*
X137143387Y-74981079D01*
X137164457Y-74991044D01*
X137184448Y-75003026D01*
X137203168Y-75016910D01*
X137220438Y-75032562D01*
X137236090Y-75049832D01*
X137249974Y-75068552D01*
X137261956Y-75088543D01*
X137271921Y-75109613D01*
X137279773Y-75131557D01*
X137285437Y-75154166D01*
X137288856Y-75177221D01*
X137290000Y-75200500D01*
X137290000Y-75675500D01*
X137288856Y-75698779D01*
X137285437Y-75721834D01*
X137279773Y-75744443D01*
X137271921Y-75766387D01*
X137261956Y-75787457D01*
X137249974Y-75807448D01*
X137236090Y-75826168D01*
X137220438Y-75843438D01*
X137203168Y-75859090D01*
X137184448Y-75872974D01*
X137164457Y-75884956D01*
X137143387Y-75894921D01*
X137121443Y-75902773D01*
X137098834Y-75908437D01*
X137075779Y-75911856D01*
X137052500Y-75913000D01*
X136477500Y-75913000D01*
X136454221Y-75911856D01*
X136431166Y-75908437D01*
X136408557Y-75902773D01*
X136386613Y-75894921D01*
X136365543Y-75884956D01*
X136345552Y-75872974D01*
X136326832Y-75859090D01*
X136309562Y-75843438D01*
X136293910Y-75826168D01*
X136280026Y-75807448D01*
X136268044Y-75787457D01*
X136258079Y-75766387D01*
X136250227Y-75744443D01*
X136244563Y-75721834D01*
X136241144Y-75698779D01*
X136240000Y-75675500D01*
X136240000Y-75200500D01*
X136241144Y-75177221D01*
X136244563Y-75154166D01*
X136250227Y-75131557D01*
X136258079Y-75109613D01*
X136268044Y-75088543D01*
X136280026Y-75068552D01*
X136293910Y-75049832D01*
X136309562Y-75032562D01*
X136326832Y-75016910D01*
X136345552Y-75003026D01*
X136365543Y-74991044D01*
X136386613Y-74981079D01*
X136408557Y-74973227D01*
X136431166Y-74967563D01*
X136454221Y-74964144D01*
X136477500Y-74963000D01*
X137052500Y-74963000D01*
X137075779Y-74964144D01*
X137075779Y-74964144D01*
G37*
D11*
X136765000Y-75438000D03*
G04 #@! TD*
D10*
G04 #@! TO.C,R3*
G36*
X135325779Y-79536144D02*
X135348834Y-79539563D01*
X135371443Y-79545227D01*
X135393387Y-79553079D01*
X135414457Y-79563044D01*
X135434448Y-79575026D01*
X135453168Y-79588910D01*
X135470438Y-79604562D01*
X135486090Y-79621832D01*
X135499974Y-79640552D01*
X135511956Y-79660543D01*
X135521921Y-79681613D01*
X135529773Y-79703557D01*
X135535437Y-79726166D01*
X135538856Y-79749221D01*
X135540000Y-79772500D01*
X135540000Y-80247500D01*
X135538856Y-80270779D01*
X135535437Y-80293834D01*
X135529773Y-80316443D01*
X135521921Y-80338387D01*
X135511956Y-80359457D01*
X135499974Y-80379448D01*
X135486090Y-80398168D01*
X135470438Y-80415438D01*
X135453168Y-80431090D01*
X135434448Y-80444974D01*
X135414457Y-80456956D01*
X135393387Y-80466921D01*
X135371443Y-80474773D01*
X135348834Y-80480437D01*
X135325779Y-80483856D01*
X135302500Y-80485000D01*
X134727500Y-80485000D01*
X134704221Y-80483856D01*
X134681166Y-80480437D01*
X134658557Y-80474773D01*
X134636613Y-80466921D01*
X134615543Y-80456956D01*
X134595552Y-80444974D01*
X134576832Y-80431090D01*
X134559562Y-80415438D01*
X134543910Y-80398168D01*
X134530026Y-80379448D01*
X134518044Y-80359457D01*
X134508079Y-80338387D01*
X134500227Y-80316443D01*
X134494563Y-80293834D01*
X134491144Y-80270779D01*
X134490000Y-80247500D01*
X134490000Y-79772500D01*
X134491144Y-79749221D01*
X134494563Y-79726166D01*
X134500227Y-79703557D01*
X134508079Y-79681613D01*
X134518044Y-79660543D01*
X134530026Y-79640552D01*
X134543910Y-79621832D01*
X134559562Y-79604562D01*
X134576832Y-79588910D01*
X134595552Y-79575026D01*
X134615543Y-79563044D01*
X134636613Y-79553079D01*
X134658557Y-79545227D01*
X134681166Y-79539563D01*
X134704221Y-79536144D01*
X134727500Y-79535000D01*
X135302500Y-79535000D01*
X135325779Y-79536144D01*
X135325779Y-79536144D01*
G37*
D11*
X135015000Y-80010000D03*
D10*
G36*
X137075779Y-79536144D02*
X137098834Y-79539563D01*
X137121443Y-79545227D01*
X137143387Y-79553079D01*
X137164457Y-79563044D01*
X137184448Y-79575026D01*
X137203168Y-79588910D01*
X137220438Y-79604562D01*
X137236090Y-79621832D01*
X137249974Y-79640552D01*
X137261956Y-79660543D01*
X137271921Y-79681613D01*
X137279773Y-79703557D01*
X137285437Y-79726166D01*
X137288856Y-79749221D01*
X137290000Y-79772500D01*
X137290000Y-80247500D01*
X137288856Y-80270779D01*
X137285437Y-80293834D01*
X137279773Y-80316443D01*
X137271921Y-80338387D01*
X137261956Y-80359457D01*
X137249974Y-80379448D01*
X137236090Y-80398168D01*
X137220438Y-80415438D01*
X137203168Y-80431090D01*
X137184448Y-80444974D01*
X137164457Y-80456956D01*
X137143387Y-80466921D01*
X137121443Y-80474773D01*
X137098834Y-80480437D01*
X137075779Y-80483856D01*
X137052500Y-80485000D01*
X136477500Y-80485000D01*
X136454221Y-80483856D01*
X136431166Y-80480437D01*
X136408557Y-80474773D01*
X136386613Y-80466921D01*
X136365543Y-80456956D01*
X136345552Y-80444974D01*
X136326832Y-80431090D01*
X136309562Y-80415438D01*
X136293910Y-80398168D01*
X136280026Y-80379448D01*
X136268044Y-80359457D01*
X136258079Y-80338387D01*
X136250227Y-80316443D01*
X136244563Y-80293834D01*
X136241144Y-80270779D01*
X136240000Y-80247500D01*
X136240000Y-79772500D01*
X136241144Y-79749221D01*
X136244563Y-79726166D01*
X136250227Y-79703557D01*
X136258079Y-79681613D01*
X136268044Y-79660543D01*
X136280026Y-79640552D01*
X136293910Y-79621832D01*
X136309562Y-79604562D01*
X136326832Y-79588910D01*
X136345552Y-79575026D01*
X136365543Y-79563044D01*
X136386613Y-79553079D01*
X136408557Y-79545227D01*
X136431166Y-79539563D01*
X136454221Y-79536144D01*
X136477500Y-79535000D01*
X137052500Y-79535000D01*
X137075779Y-79536144D01*
X137075779Y-79536144D01*
G37*
D11*
X136765000Y-80010000D03*
G04 #@! TD*
D10*
G04 #@! TO.C,R4*
G36*
X131360779Y-74964144D02*
X131383834Y-74967563D01*
X131406443Y-74973227D01*
X131428387Y-74981079D01*
X131449457Y-74991044D01*
X131469448Y-75003026D01*
X131488168Y-75016910D01*
X131505438Y-75032562D01*
X131521090Y-75049832D01*
X131534974Y-75068552D01*
X131546956Y-75088543D01*
X131556921Y-75109613D01*
X131564773Y-75131557D01*
X131570437Y-75154166D01*
X131573856Y-75177221D01*
X131575000Y-75200500D01*
X131575000Y-75675500D01*
X131573856Y-75698779D01*
X131570437Y-75721834D01*
X131564773Y-75744443D01*
X131556921Y-75766387D01*
X131546956Y-75787457D01*
X131534974Y-75807448D01*
X131521090Y-75826168D01*
X131505438Y-75843438D01*
X131488168Y-75859090D01*
X131469448Y-75872974D01*
X131449457Y-75884956D01*
X131428387Y-75894921D01*
X131406443Y-75902773D01*
X131383834Y-75908437D01*
X131360779Y-75911856D01*
X131337500Y-75913000D01*
X130762500Y-75913000D01*
X130739221Y-75911856D01*
X130716166Y-75908437D01*
X130693557Y-75902773D01*
X130671613Y-75894921D01*
X130650543Y-75884956D01*
X130630552Y-75872974D01*
X130611832Y-75859090D01*
X130594562Y-75843438D01*
X130578910Y-75826168D01*
X130565026Y-75807448D01*
X130553044Y-75787457D01*
X130543079Y-75766387D01*
X130535227Y-75744443D01*
X130529563Y-75721834D01*
X130526144Y-75698779D01*
X130525000Y-75675500D01*
X130525000Y-75200500D01*
X130526144Y-75177221D01*
X130529563Y-75154166D01*
X130535227Y-75131557D01*
X130543079Y-75109613D01*
X130553044Y-75088543D01*
X130565026Y-75068552D01*
X130578910Y-75049832D01*
X130594562Y-75032562D01*
X130611832Y-75016910D01*
X130630552Y-75003026D01*
X130650543Y-74991044D01*
X130671613Y-74981079D01*
X130693557Y-74973227D01*
X130716166Y-74967563D01*
X130739221Y-74964144D01*
X130762500Y-74963000D01*
X131337500Y-74963000D01*
X131360779Y-74964144D01*
X131360779Y-74964144D01*
G37*
D11*
X131050000Y-75438000D03*
D10*
G36*
X129610779Y-74964144D02*
X129633834Y-74967563D01*
X129656443Y-74973227D01*
X129678387Y-74981079D01*
X129699457Y-74991044D01*
X129719448Y-75003026D01*
X129738168Y-75016910D01*
X129755438Y-75032562D01*
X129771090Y-75049832D01*
X129784974Y-75068552D01*
X129796956Y-75088543D01*
X129806921Y-75109613D01*
X129814773Y-75131557D01*
X129820437Y-75154166D01*
X129823856Y-75177221D01*
X129825000Y-75200500D01*
X129825000Y-75675500D01*
X129823856Y-75698779D01*
X129820437Y-75721834D01*
X129814773Y-75744443D01*
X129806921Y-75766387D01*
X129796956Y-75787457D01*
X129784974Y-75807448D01*
X129771090Y-75826168D01*
X129755438Y-75843438D01*
X129738168Y-75859090D01*
X129719448Y-75872974D01*
X129699457Y-75884956D01*
X129678387Y-75894921D01*
X129656443Y-75902773D01*
X129633834Y-75908437D01*
X129610779Y-75911856D01*
X129587500Y-75913000D01*
X129012500Y-75913000D01*
X128989221Y-75911856D01*
X128966166Y-75908437D01*
X128943557Y-75902773D01*
X128921613Y-75894921D01*
X128900543Y-75884956D01*
X128880552Y-75872974D01*
X128861832Y-75859090D01*
X128844562Y-75843438D01*
X128828910Y-75826168D01*
X128815026Y-75807448D01*
X128803044Y-75787457D01*
X128793079Y-75766387D01*
X128785227Y-75744443D01*
X128779563Y-75721834D01*
X128776144Y-75698779D01*
X128775000Y-75675500D01*
X128775000Y-75200500D01*
X128776144Y-75177221D01*
X128779563Y-75154166D01*
X128785227Y-75131557D01*
X128793079Y-75109613D01*
X128803044Y-75088543D01*
X128815026Y-75068552D01*
X128828910Y-75049832D01*
X128844562Y-75032562D01*
X128861832Y-75016910D01*
X128880552Y-75003026D01*
X128900543Y-74991044D01*
X128921613Y-74981079D01*
X128943557Y-74973227D01*
X128966166Y-74967563D01*
X128989221Y-74964144D01*
X129012500Y-74963000D01*
X129587500Y-74963000D01*
X129610779Y-74964144D01*
X129610779Y-74964144D01*
G37*
D11*
X129300000Y-75438000D03*
G04 #@! TD*
D10*
G04 #@! TO.C,R13*
G36*
X122180779Y-75309144D02*
X122203834Y-75312563D01*
X122226443Y-75318227D01*
X122248387Y-75326079D01*
X122269457Y-75336044D01*
X122289448Y-75348026D01*
X122308168Y-75361910D01*
X122325438Y-75377562D01*
X122341090Y-75394832D01*
X122354974Y-75413552D01*
X122366956Y-75433543D01*
X122376921Y-75454613D01*
X122384773Y-75476557D01*
X122390437Y-75499166D01*
X122393856Y-75522221D01*
X122395000Y-75545500D01*
X122395000Y-76120500D01*
X122393856Y-76143779D01*
X122390437Y-76166834D01*
X122384773Y-76189443D01*
X122376921Y-76211387D01*
X122366956Y-76232457D01*
X122354974Y-76252448D01*
X122341090Y-76271168D01*
X122325438Y-76288438D01*
X122308168Y-76304090D01*
X122289448Y-76317974D01*
X122269457Y-76329956D01*
X122248387Y-76339921D01*
X122226443Y-76347773D01*
X122203834Y-76353437D01*
X122180779Y-76356856D01*
X122157500Y-76358000D01*
X121682500Y-76358000D01*
X121659221Y-76356856D01*
X121636166Y-76353437D01*
X121613557Y-76347773D01*
X121591613Y-76339921D01*
X121570543Y-76329956D01*
X121550552Y-76317974D01*
X121531832Y-76304090D01*
X121514562Y-76288438D01*
X121498910Y-76271168D01*
X121485026Y-76252448D01*
X121473044Y-76232457D01*
X121463079Y-76211387D01*
X121455227Y-76189443D01*
X121449563Y-76166834D01*
X121446144Y-76143779D01*
X121445000Y-76120500D01*
X121445000Y-75545500D01*
X121446144Y-75522221D01*
X121449563Y-75499166D01*
X121455227Y-75476557D01*
X121463079Y-75454613D01*
X121473044Y-75433543D01*
X121485026Y-75413552D01*
X121498910Y-75394832D01*
X121514562Y-75377562D01*
X121531832Y-75361910D01*
X121550552Y-75348026D01*
X121570543Y-75336044D01*
X121591613Y-75326079D01*
X121613557Y-75318227D01*
X121636166Y-75312563D01*
X121659221Y-75309144D01*
X121682500Y-75308000D01*
X122157500Y-75308000D01*
X122180779Y-75309144D01*
X122180779Y-75309144D01*
G37*
D11*
X121920000Y-75833000D03*
D10*
G36*
X122180779Y-77059144D02*
X122203834Y-77062563D01*
X122226443Y-77068227D01*
X122248387Y-77076079D01*
X122269457Y-77086044D01*
X122289448Y-77098026D01*
X122308168Y-77111910D01*
X122325438Y-77127562D01*
X122341090Y-77144832D01*
X122354974Y-77163552D01*
X122366956Y-77183543D01*
X122376921Y-77204613D01*
X122384773Y-77226557D01*
X122390437Y-77249166D01*
X122393856Y-77272221D01*
X122395000Y-77295500D01*
X122395000Y-77870500D01*
X122393856Y-77893779D01*
X122390437Y-77916834D01*
X122384773Y-77939443D01*
X122376921Y-77961387D01*
X122366956Y-77982457D01*
X122354974Y-78002448D01*
X122341090Y-78021168D01*
X122325438Y-78038438D01*
X122308168Y-78054090D01*
X122289448Y-78067974D01*
X122269457Y-78079956D01*
X122248387Y-78089921D01*
X122226443Y-78097773D01*
X122203834Y-78103437D01*
X122180779Y-78106856D01*
X122157500Y-78108000D01*
X121682500Y-78108000D01*
X121659221Y-78106856D01*
X121636166Y-78103437D01*
X121613557Y-78097773D01*
X121591613Y-78089921D01*
X121570543Y-78079956D01*
X121550552Y-78067974D01*
X121531832Y-78054090D01*
X121514562Y-78038438D01*
X121498910Y-78021168D01*
X121485026Y-78002448D01*
X121473044Y-77982457D01*
X121463079Y-77961387D01*
X121455227Y-77939443D01*
X121449563Y-77916834D01*
X121446144Y-77893779D01*
X121445000Y-77870500D01*
X121445000Y-77295500D01*
X121446144Y-77272221D01*
X121449563Y-77249166D01*
X121455227Y-77226557D01*
X121463079Y-77204613D01*
X121473044Y-77183543D01*
X121485026Y-77163552D01*
X121498910Y-77144832D01*
X121514562Y-77127562D01*
X121531832Y-77111910D01*
X121550552Y-77098026D01*
X121570543Y-77086044D01*
X121591613Y-77076079D01*
X121613557Y-77068227D01*
X121636166Y-77062563D01*
X121659221Y-77059144D01*
X121682500Y-77058000D01*
X122157500Y-77058000D01*
X122180779Y-77059144D01*
X122180779Y-77059144D01*
G37*
D11*
X121920000Y-77583000D03*
G04 #@! TD*
D12*
G04 #@! TO.C,S1*
X116114000Y-54521000D03*
X116114000Y-46571000D03*
X120614000Y-54521000D03*
X120614000Y-46571000D03*
G04 #@! TD*
D13*
G04 #@! TO.C,D1*
X165226000Y-80645000D03*
X161926000Y-80645000D03*
G04 #@! TD*
G04 #@! TO.C,D2*
X140336000Y-80518000D03*
X143636000Y-80518000D03*
G04 #@! TD*
G04 #@! TO.C,D3*
X122046000Y-80264000D03*
X118746000Y-80264000D03*
G04 #@! TD*
G04 #@! TO.C,D4*
X97410000Y-80518000D03*
X100710000Y-80518000D03*
G04 #@! TD*
D12*
G04 #@! TO.C,S3*
X106462000Y-54521000D03*
X106462000Y-46571000D03*
X110962000Y-54521000D03*
X110962000Y-46571000D03*
G04 #@! TD*
G04 #@! TO.C,S4*
X130520000Y-46571000D03*
X130520000Y-54521000D03*
X126020000Y-46571000D03*
X126020000Y-54521000D03*
G04 #@! TD*
G04 #@! TO.C,S2*
X140680000Y-46571000D03*
X140680000Y-54521000D03*
X136180000Y-46571000D03*
X136180000Y-54521000D03*
G04 #@! TD*
D14*
G04 #@! TO.C,D5*
X158580000Y-77216000D03*
X156380000Y-77216000D03*
G04 #@! TD*
G04 #@! TO.C,D6*
X134790000Y-77470000D03*
X136990000Y-77470000D03*
G04 #@! TD*
G04 #@! TO.C,D7*
X115400000Y-77470000D03*
X113200000Y-77470000D03*
G04 #@! TD*
G04 #@! TO.C,D8*
X91610000Y-77470000D03*
X93810000Y-77470000D03*
G04 #@! TD*
G04 #@! TO.C,D9*
X101684000Y-42418000D03*
X99484000Y-42418000D03*
G04 #@! TD*
D15*
G04 #@! TO.C,Q7*
X118872000Y-77454000D03*
X117922000Y-75454000D03*
X119822000Y-75454000D03*
G04 #@! TD*
G04 #@! TO.C,Q5*
X163256000Y-75454000D03*
X161356000Y-75454000D03*
X162306000Y-77454000D03*
G04 #@! TD*
G04 #@! TO.C,Q6*
X140716000Y-77708000D03*
X139766000Y-75708000D03*
X141666000Y-75708000D03*
G04 #@! TD*
G04 #@! TO.C,Q8*
X98740000Y-75454000D03*
X96840000Y-75454000D03*
X97790000Y-77454000D03*
G04 #@! TD*
D16*
G04 #@! TO.C,C2*
X105664000Y-60446000D03*
X105664000Y-66046000D03*
G04 #@! TD*
G04 #@! TO.C,C1*
X87884000Y-66046000D03*
X87884000Y-60446000D03*
G04 #@! TD*
D15*
G04 #@! TO.C,Q1*
X153858000Y-79010000D03*
X151958000Y-79010000D03*
X152908000Y-81010000D03*
G04 #@! TD*
D17*
G04 #@! TO.C,U1*
X99924000Y-62992000D03*
D18*
X93624000Y-62992000D03*
X93624000Y-65292000D03*
X93624000Y-60692000D03*
G04 #@! TD*
D15*
G04 #@! TO.C,Q2*
X131125000Y-79010000D03*
X129225000Y-79010000D03*
X130175000Y-81010000D03*
G04 #@! TD*
G04 #@! TO.C,Q3*
X108712000Y-80502000D03*
X107762000Y-78502000D03*
X109662000Y-78502000D03*
G04 #@! TD*
G04 #@! TO.C,Q4*
X87945000Y-79010000D03*
X86045000Y-79010000D03*
X86995000Y-81010000D03*
G04 #@! TD*
M02*
