G04 #@! TF.GenerationSoftware,KiCad,Pcbnew,(5.0.0)*
G04 #@! TF.CreationDate,2018-08-06T10:04:36+01:00*
G04 #@! TF.ProjectId,Sonoff_4ch_switch,536F6E6F66665F3463685F7377697463,rev?*
G04 #@! TF.SameCoordinates,Original*
G04 #@! TF.FileFunction,Soldermask,Bot*
G04 #@! TF.FilePolarity,Negative*
%FSLAX46Y46*%
G04 Gerber Fmt 4.6, Leading zero omitted, Abs format (unit mm)*
G04 Created by KiCad (PCBNEW (5.0.0)) date 08/06/18 10:04:36*
%MOMM*%
%LPD*%
G01*
G04 APERTURE LIST*
%ADD10C,0.150000*%
%ADD11R,2.100000X2.100000*%
%ADD12O,2.100000X2.100000*%
%ADD13C,2.200000*%
%ADD14O,2.900000X4.400000*%
%ADD15R,3.900000X3.900000*%
%ADD16O,2.900000X2.900000*%
%ADD17R,2.900000X2.900000*%
%ADD18C,2.900000*%
%ADD19C,6.000000*%
%ADD20C,0.254000*%
G04 APERTURE END LIST*
D10*
G36*
X85979000Y-123317000D02*
X107950000Y-123317000D01*
X107950000Y-126873000D01*
X84201000Y-127000000D01*
X84201000Y-123317000D01*
X85979000Y-123317000D01*
G37*
X85979000Y-123317000D02*
X107950000Y-123317000D01*
X107950000Y-126873000D01*
X84201000Y-127000000D01*
X84201000Y-123317000D01*
X85979000Y-123317000D01*
G36*
X140589000Y-116713000D02*
X110998000Y-116713000D01*
X98933000Y-104648000D01*
X93345000Y-104648000D01*
X86741000Y-98171000D01*
X84328000Y-100584000D01*
X91821000Y-108204000D01*
X97409000Y-108204000D01*
X109601000Y-120396000D01*
X139192000Y-120396000D01*
X141351000Y-122555000D01*
X141351000Y-127127000D01*
X145034000Y-127127000D01*
X145034000Y-121158000D01*
X140462000Y-116713000D01*
X140589000Y-116713000D01*
G37*
X140589000Y-116713000D02*
X110998000Y-116713000D01*
X98933000Y-104648000D01*
X93345000Y-104648000D01*
X86741000Y-98171000D01*
X84328000Y-100584000D01*
X91821000Y-108204000D01*
X97409000Y-108204000D01*
X109601000Y-120396000D01*
X139192000Y-120396000D01*
X141351000Y-122555000D01*
X141351000Y-127127000D01*
X145034000Y-127127000D01*
X145034000Y-121158000D01*
X140462000Y-116713000D01*
X140589000Y-116713000D01*
G36*
X142748000Y-110490000D02*
X120650000Y-110490000D01*
X108331000Y-98171000D01*
X105918000Y-100584000D01*
X118999000Y-114046000D01*
X141351000Y-114046000D01*
X146558000Y-119253000D01*
X146558000Y-127127000D01*
X149987000Y-127127000D01*
X150114000Y-117983000D01*
X142748000Y-110490000D01*
G37*
X142748000Y-110490000D02*
X120650000Y-110490000D01*
X108331000Y-98171000D01*
X105918000Y-100584000D01*
X118999000Y-114046000D01*
X141351000Y-114046000D01*
X146558000Y-119253000D01*
X146558000Y-127127000D01*
X149987000Y-127127000D01*
X150114000Y-117983000D01*
X142748000Y-110490000D01*
G36*
X154940000Y-125222000D02*
X154940000Y-113792000D01*
X146304000Y-104267000D01*
X136144000Y-104267000D01*
X129921000Y-98171000D01*
X127381000Y-100711000D01*
X134747000Y-107823000D01*
X144653000Y-107823000D01*
X151384000Y-115316000D01*
X151384000Y-127127000D01*
X154940000Y-127127000D01*
X154940000Y-125222000D01*
G37*
X154940000Y-125222000D02*
X154940000Y-113792000D01*
X146304000Y-104267000D01*
X136144000Y-104267000D01*
X129921000Y-98171000D01*
X127381000Y-100711000D01*
X134747000Y-107823000D01*
X144653000Y-107823000D01*
X151384000Y-115316000D01*
X151384000Y-127127000D01*
X154940000Y-127127000D01*
X154940000Y-125222000D01*
G36*
X166243000Y-123317000D02*
X161417000Y-123317000D01*
X161417000Y-126873000D01*
X167894000Y-126873000D01*
X174244000Y-120396000D01*
X174244000Y-114427000D01*
X170688000Y-114427000D01*
X170688000Y-118872000D01*
X166243000Y-123317000D01*
G37*
X166243000Y-123317000D02*
X161417000Y-123317000D01*
X161417000Y-126873000D01*
X167894000Y-126873000D01*
X174244000Y-120396000D01*
X174244000Y-114427000D01*
X170688000Y-114427000D01*
X170688000Y-118872000D01*
X166243000Y-123317000D01*
G36*
X171348400Y-96367600D02*
X95504000Y-96266000D01*
X95250000Y-96215200D01*
X94894400Y-96062800D01*
X94640400Y-95910400D01*
X94335600Y-95656400D01*
X94081600Y-95402400D01*
X91440000Y-92710000D01*
X91033600Y-92151200D01*
X90932000Y-91744800D01*
X90932000Y-91490800D01*
X90932000Y-86309200D01*
X91033600Y-85750400D01*
X91135200Y-85496400D01*
X91236800Y-85344000D01*
X91694000Y-84886800D01*
X91846400Y-84785200D01*
X92252800Y-84582000D01*
X92659200Y-84632800D01*
X93167200Y-84632800D01*
X93675200Y-84836000D01*
X94183200Y-85394800D01*
X94437200Y-85852000D01*
X94488000Y-86156800D01*
X94488000Y-90678000D01*
X96469200Y-92710000D01*
X112471200Y-92710000D01*
X112522000Y-86258400D01*
X112725200Y-85547200D01*
X112877600Y-85344000D01*
X113436400Y-84785200D01*
X113792000Y-84632800D01*
X114249200Y-84582000D01*
X114604800Y-84582000D01*
X114858800Y-84632800D01*
X115316000Y-84886800D01*
X115773200Y-85242400D01*
X115824000Y-85496400D01*
X115925600Y-85699600D01*
X116027200Y-86106000D01*
X116078000Y-86309200D01*
X116078000Y-92710000D01*
X134112000Y-92710000D01*
X134112000Y-86309200D01*
X134162800Y-85902800D01*
X134366000Y-85394800D01*
X134467600Y-85242400D01*
X135026400Y-84836000D01*
X135432800Y-84632800D01*
X136042400Y-84582000D01*
X136296400Y-84632800D01*
X136753600Y-84785200D01*
X137363200Y-85344000D01*
X137617200Y-85699600D01*
X137617200Y-85953600D01*
X137668000Y-86258400D01*
X137668000Y-92710000D01*
X155702000Y-92710000D01*
X155651200Y-86309200D01*
X155854400Y-85496400D01*
X156159200Y-85039200D01*
X156819600Y-84632800D01*
X157226000Y-84429600D01*
X158140400Y-84734400D01*
X158699200Y-84988400D01*
X159105600Y-85598000D01*
X159258000Y-86106000D01*
X159258000Y-92760800D01*
X167792400Y-92710000D01*
X168198800Y-92811600D01*
X171399200Y-92811600D01*
X173888400Y-93522800D01*
X174193200Y-94081600D01*
X174244000Y-94589600D01*
X174193200Y-94945200D01*
X174091600Y-95300800D01*
X173939200Y-95605600D01*
X171399200Y-96367600D01*
X171348400Y-96367600D01*
G37*
X171348400Y-96367600D02*
X95504000Y-96266000D01*
X95250000Y-96215200D01*
X94894400Y-96062800D01*
X94640400Y-95910400D01*
X94335600Y-95656400D01*
X94081600Y-95402400D01*
X91440000Y-92710000D01*
X91033600Y-92151200D01*
X90932000Y-91744800D01*
X90932000Y-91490800D01*
X90932000Y-86309200D01*
X91033600Y-85750400D01*
X91135200Y-85496400D01*
X91236800Y-85344000D01*
X91694000Y-84886800D01*
X91846400Y-84785200D01*
X92252800Y-84582000D01*
X92659200Y-84632800D01*
X93167200Y-84632800D01*
X93675200Y-84836000D01*
X94183200Y-85394800D01*
X94437200Y-85852000D01*
X94488000Y-86156800D01*
X94488000Y-90678000D01*
X96469200Y-92710000D01*
X112471200Y-92710000D01*
X112522000Y-86258400D01*
X112725200Y-85547200D01*
X112877600Y-85344000D01*
X113436400Y-84785200D01*
X113792000Y-84632800D01*
X114249200Y-84582000D01*
X114604800Y-84582000D01*
X114858800Y-84632800D01*
X115316000Y-84886800D01*
X115773200Y-85242400D01*
X115824000Y-85496400D01*
X115925600Y-85699600D01*
X116027200Y-86106000D01*
X116078000Y-86309200D01*
X116078000Y-92710000D01*
X134112000Y-92710000D01*
X134112000Y-86309200D01*
X134162800Y-85902800D01*
X134366000Y-85394800D01*
X134467600Y-85242400D01*
X135026400Y-84836000D01*
X135432800Y-84632800D01*
X136042400Y-84582000D01*
X136296400Y-84632800D01*
X136753600Y-84785200D01*
X137363200Y-85344000D01*
X137617200Y-85699600D01*
X137617200Y-85953600D01*
X137668000Y-86258400D01*
X137668000Y-92710000D01*
X155702000Y-92710000D01*
X155651200Y-86309200D01*
X155854400Y-85496400D01*
X156159200Y-85039200D01*
X156819600Y-84632800D01*
X157226000Y-84429600D01*
X158140400Y-84734400D01*
X158699200Y-84988400D01*
X159105600Y-85598000D01*
X159258000Y-86106000D01*
X159258000Y-92760800D01*
X167792400Y-92710000D01*
X168198800Y-92811600D01*
X171399200Y-92811600D01*
X173888400Y-93522800D01*
X174193200Y-94081600D01*
X174244000Y-94589600D01*
X174193200Y-94945200D01*
X174091600Y-95300800D01*
X173939200Y-95605600D01*
X171399200Y-96367600D01*
X171348400Y-96367600D01*
D11*
G04 #@! TO.C,J5*
X147574000Y-37338000D03*
D12*
X145034000Y-37338000D03*
X142494000Y-37338000D03*
G04 #@! TD*
D13*
G04 #@! TO.C,U2*
X170434000Y-42926000D03*
X167894000Y-42926000D03*
X165354000Y-42926000D03*
X162814000Y-42926000D03*
X160274000Y-42926000D03*
X157734000Y-42926000D03*
X155194000Y-42926000D03*
X152654000Y-42926000D03*
X152654000Y-65786000D03*
X155194000Y-65786000D03*
X157734000Y-65786000D03*
X160274000Y-65786000D03*
X162814000Y-65786000D03*
X165354000Y-65786000D03*
X167894000Y-65786000D03*
X170434000Y-65786000D03*
G04 #@! TD*
D14*
G04 #@! TO.C,F1*
X172466000Y-94586000D03*
X172466000Y-116586000D03*
G04 #@! TD*
D15*
G04 #@! TO.C,J1*
X91234000Y-53976000D03*
X88234000Y-49276000D03*
X94234000Y-49276000D03*
G04 #@! TD*
D16*
G04 #@! TO.C,K1*
X163480000Y-88360000D03*
X163480000Y-100560000D03*
X151480000Y-100560000D03*
X151480000Y-88360000D03*
D17*
X157480000Y-86360000D03*
G04 #@! TD*
G04 #@! TO.C,K2*
X135890000Y-86360000D03*
D16*
X129890000Y-88360000D03*
X129890000Y-100560000D03*
X141890000Y-100560000D03*
X141890000Y-88360000D03*
G04 #@! TD*
G04 #@! TO.C,K3*
X120300000Y-88360000D03*
X120300000Y-100560000D03*
X108300000Y-100560000D03*
X108300000Y-88360000D03*
D17*
X114300000Y-86360000D03*
G04 #@! TD*
G04 #@! TO.C,K4*
X92710000Y-86360000D03*
D16*
X86710000Y-88360000D03*
X86710000Y-100560000D03*
X98710000Y-100560000D03*
X98710000Y-88360000D03*
G04 #@! TD*
D17*
G04 #@! TO.C,J2*
X163195000Y-125095000D03*
D18*
X158195000Y-125095000D03*
X153195000Y-125095000D03*
X148195000Y-125095000D03*
X143195000Y-125095000D03*
G04 #@! TD*
G04 #@! TO.C,J3*
X114620000Y-125095000D03*
X119620000Y-125095000D03*
X124620000Y-125095000D03*
X129620000Y-125095000D03*
D17*
X134620000Y-125095000D03*
G04 #@! TD*
G04 #@! TO.C,J4*
X106045000Y-125095000D03*
D18*
X101045000Y-125095000D03*
X96045000Y-125095000D03*
X91045000Y-125095000D03*
X86045000Y-125095000D03*
G04 #@! TD*
D19*
G04 #@! TO.C,REF\002A\002A*
X85852000Y-37592000D03*
G04 #@! TD*
G04 #@! TO.C,REF\002A\002A*
X176022000Y-38100000D03*
G04 #@! TD*
G04 #@! TO.C,REF\002A\002A*
X176022000Y-127254000D03*
G04 #@! TD*
G04 #@! TO.C,REF\002A\002A*
X85598000Y-114808000D03*
G04 #@! TD*
D20*
G36*
X136271000Y-126873000D02*
X112903000Y-126873000D01*
X112903000Y-123317000D01*
X136271000Y-123317000D01*
X136271000Y-126873000D01*
X136271000Y-126873000D01*
G37*
X136271000Y-126873000D02*
X112903000Y-126873000D01*
X112903000Y-123317000D01*
X136271000Y-123317000D01*
X136271000Y-126873000D01*
G36*
X159893000Y-106732606D02*
X159893000Y-127127000D01*
X156591000Y-127127000D01*
X156591000Y-108204000D01*
X156581333Y-108155399D01*
X156553803Y-108114197D01*
X149023606Y-100584000D01*
X151384000Y-98223606D01*
X159893000Y-106732606D01*
X159893000Y-106732606D01*
G37*
X159893000Y-106732606D02*
X159893000Y-127127000D01*
X156591000Y-127127000D01*
X156591000Y-108204000D01*
X156581333Y-108155399D01*
X156553803Y-108114197D01*
X149023606Y-100584000D01*
X151384000Y-98223606D01*
X159893000Y-106732606D01*
M02*
